<?xml version="1.0" encoding="utf-8"?>
<!-- Generator: Adobe Illustrator 18.1.1, SVG Export Plug-In . SVG Version: 6.00 Build 0)  -->
<svg version="1.1" id="Layer_1" xmlns="http://www.w3.org/2000/svg" xmlns:xlink="http://www.w3.org/1999/xlink" x="0px" y="0px"
	 viewBox="0 0 83.8 40.4" enable-background="new 0 0 83.8 40.4" xml:space="preserve">
<path fill="#F9A956" d="M9.7,3.9l10.8-0.6l9.7,35.5l-11.9,0.6l-0.5-4.5l-5.4,0.3l-0.5,4.5L0,40.4L9.7,3.9z M16.6,26.5l-1.2-8.9
	c-0.1-1-0.2-2-0.3-3l-0.1,0c-0.1,1-0.2,2-0.3,3l-1.2,9.1L16.6,26.5z"/>
<path fill="#F9A956" d="M32.8,2.6l14.6-0.8c6.3-0.3,12.4,3.3,12.4,9.8c0,6-2.2,8.6-5.6,10.3l6.2,15.2l-11.3,0.6l-4.7-13.8l-0.1,0v14
	l-11.3,0.6V2.6z M49.5,13.3c0-3.2-2.2-3.9-5.4-3.7v8C47.3,17.4,49.5,16.4,49.5,13.3z"/>
<path fill="#F9A956" d="M63.3,1l20-1l0.5,9l-9.2,0.5V14l8.1-0.4V22l-8.1,0.4V27l9.2-0.5L83.3,36l-20,1V1z"/>
</svg>
