<?xml version="1.0" encoding="utf-8"?>
<!-- Generator: Adobe Illustrator 19.2.1, SVG Export Plug-In . SVG Version: 6.00 Build 0)  -->
<svg version="1.1" id="CTA_1_" xmlns="http://www.w3.org/2000/svg" xmlns:xlink="http://www.w3.org/1999/xlink" x="0px" y="0px"
	 viewBox="0 0 314 84" enable-background="new 0 0 314 84" xml:space="preserve">
<g id="Button">
	<g>
		<rect fill-rule="evenodd" clip-rule="evenodd" fill="#28A0C3" width="314" height="84"/>
	</g>
</g>
<g id="LEARN_MORE">
	<g>
		<path fill="#FFFFFF" d="M65,53.3v-20h4.2v16.5h8.1v3.5H65z"/>
		<path fill="#FFFFFF" d="M92.7,53.3H81.2v-20h11.5v3.5h-7.3v4.4h6.8v3.5h-6.8v5.2h7.3V53.3z"/>
		<path fill="#FFFFFF" d="M110.5,53.3l-1.4-4.8h-7.3l-1.4,4.8h-4.6l7.1-20.1h5.2l7.1,20.1H110.5z M108,45c-1.3-4.3-2.1-6.7-2.3-7.3
			c-0.2-0.6-0.3-1-0.4-1.3c-0.3,1.2-1.2,4.1-2.6,8.7H108z"/>
		<path fill="#FFFFFF" d="M122.7,45.6v7.7h-4.2v-20h5.8c2.7,0,4.7,0.5,6,1.5c1.3,1,2,2.5,2,4.5c0,1.2-0.3,2.2-1,3.1
			c-0.6,0.9-1.6,1.6-2.7,2.2c3,4.5,5,7.4,5.9,8.7h-4.7l-4.8-7.7H122.7z M122.7,42.2h1.4c1.3,0,2.3-0.2,3-0.7c0.6-0.4,1-1.1,1-2.1
			c0-0.9-0.3-1.6-1-2c-0.7-0.4-1.7-0.6-3-0.6h-1.3V42.2z"/>
		<path fill="#FFFFFF" d="M155.6,53.3h-5.4l-8.7-15.1h-0.1c0.2,2.7,0.3,4.6,0.3,5.7v9.4h-3.8v-20h5.3l8.7,15h0.1
			c-0.1-2.6-0.2-4.4-0.2-5.5v-9.5h3.8V53.3z"/>
		<path fill="#FFFFFF" d="M177.8,53.3L173,37.6h-0.1c0.2,3.2,0.3,5.3,0.3,6.4v9.3h-3.8v-20h5.8l4.7,15.3h0.1l5-15.3h5.8v20h-4v-9.5
			c0-0.4,0-1,0-1.5s0.1-2.1,0.2-4.6h-0.1l-5.2,15.7H177.8z"/>
		<path fill="#FFFFFF" d="M214.3,43.3c0,3.3-0.8,5.9-2.5,7.6s-4,2.7-7.1,2.7s-5.4-0.9-7.1-2.7s-2.5-4.3-2.5-7.7
			c0-3.3,0.8-5.9,2.5-7.6c1.6-1.8,4-2.6,7.1-2.6s5.4,0.9,7,2.7C213.5,37.4,214.3,39.9,214.3,43.3z M199.8,43.3c0,2.2,0.4,3.9,1.3,5
			s2.1,1.7,3.8,1.7c3.4,0,5.1-2.2,5.1-6.7c0-4.5-1.7-6.8-5-6.8c-1.7,0-3,0.6-3.8,1.7S199.8,41,199.8,43.3z"/>
		<path fill="#FFFFFF" d="M223.2,45.6v7.7H219v-20h5.8c2.7,0,4.7,0.5,6,1.5c1.3,1,2,2.5,2,4.5c0,1.2-0.3,2.2-1,3.1s-1.6,1.6-2.7,2.2
			c3,4.5,5,7.4,5.9,8.7h-4.7l-4.8-7.7H223.2z M223.2,42.2h1.4c1.3,0,2.3-0.2,3-0.7c0.6-0.4,1-1.1,1-2.1c0-0.9-0.3-1.6-1-2
			c-0.7-0.4-1.7-0.6-3-0.6h-1.3V42.2z"/>
		<path fill="#FFFFFF" d="M249.9,53.3h-11.5v-20h11.5v3.5h-7.3v4.4h6.8v3.5h-6.8v5.2h7.3V53.3z"/>
	</g>
</g>
</svg>
