<?xml version="1.0" encoding="utf-8"?>
<!-- Generator: Adobe Illustrator 18.1.1, SVG Export Plug-In . SVG Version: 6.00 Build 0)  -->
<!DOCTYPE svg PUBLIC "-//W3C//DTD SVG 1.1//EN" "http://www.w3.org/Graphics/SVG/1.1/DTD/svg11.dtd">
<svg version="1.1" id="Layer_1" xmlns="http://www.w3.org/2000/svg" xmlns:xlink="http://www.w3.org/1999/xlink" x="0px" y="0px"
	 width="300px" height="600px" viewBox="0 0 300 600" style="enable-background:new 0 0 300 600;" xml:space="preserve">
<style type="text/css">
	.st0{fill:#8C8C8C;}
</style>
<g>
	<path class="st0" d="M67.7,68.4h10.5v2.3h-4V81h-2.6V70.6h-4V68.4z"/>
	<path class="st0" d="M79.2,69.3h2.2v3.4c0.6-0.6,1.4-0.9,2.3-0.9c2.3,0,3.8,1.8,3.8,4.1V81h-2.2v-5.1c0-1.1-0.8-2-1.9-2
		c-1.1,0-1.9,0.9-1.9,2V81h-2.2V69.3z"/>
	<path class="st0" d="M88.6,76.4c0-2.6,2.2-4.6,4.7-4.6c2.6,0,4.7,2,4.7,4.6v0.7h-7c0.3,1.1,1.2,1.9,2.4,1.9c0.8,0,1.6-0.4,2.1-1.1
		l2,1c-0.8,1.4-2.3,2.3-4.1,2.3C90.8,81.1,88.6,79.1,88.6,76.4z M91,75.5h4.6c-0.3-1.1-1.2-1.8-2.3-1.8C92.3,73.8,91.3,74.5,91,75.5
		z"/>
	<path class="st0" d="M102.6,72h2.2v0.9c0.5-0.7,1.3-1.1,2.3-1.1h0.3v2.3h-0.6c-1.3,0-1.9,0.8-1.9,1.9v5h-2.2V72z"/>
	<path class="st0" d="M108.1,69.6c0-0.8,0.6-1.4,1.4-1.4s1.4,0.6,1.4,1.4s-0.6,1.4-1.4,1.4S108.1,70.3,108.1,69.6z M108.4,72h2.2v9
		h-2.2V72z"/>
	<path class="st0" d="M111.9,76c0-2.4,1.8-4.2,4.5-4.2c0.8,0,1.7,0.3,2.4,0.8V72h2.2v7.6c0,2.6-2,4.3-4.6,4.3
		c-1.7,0-3.1-0.7-3.9-1.7l-0.2-0.2l1.8-1.3l0.2,0.2c0.5,0.5,1.2,0.9,2.1,0.9c1.3,0,2.4-0.7,2.4-2.1v-0.4c-0.8,0.6-1.6,0.8-2.4,0.8
		C113.7,80.2,111.9,78.4,111.9,76z M118.8,77.1v-2.3c-0.8-0.7-1.5-1-2.3-1c-1.3,0-2.3,0.9-2.3,2.1c0,1.2,1,2.1,2.3,2.1
		C117.3,78.1,118,77.8,118.8,77.1z"/>
	<path class="st0" d="M122.7,69.3h2.2v3.4c0.6-0.6,1.4-0.9,2.3-0.9c2.3,0,3.8,1.8,3.8,4.1V81h-2.2v-5.1c0-1.1-0.8-2-1.9-2
		c-1.1,0-1.9,0.9-1.9,2V81h-2.2V69.3z"/>
	<path class="st0" d="M131.9,72h1.3v-2.2h2.2V72h2.2v1.9h-2.2v3.6c0,0.8,0.5,1.3,1.3,1.3h0.9V81h-1.3c-1.8,0-3.2-1.2-3.2-3v-4h-1.3
		V72z"/>
	<path class="st0" d="M142,69.6c0-0.8,0.6-1.4,1.4-1.4s1.4,0.6,1.4,1.4s-0.6,1.4-1.4,1.4S142,70.3,142,69.6z M142.3,72h2.2v9h-2.2
		V72z"/>
	<path class="st0" d="M146.3,72h2.2v0.7c0.6-0.6,1.4-0.9,2.3-0.9c2.3,0,3.8,1.8,3.8,4.1V81h-2.2v-5.1c0-1.1-0.8-2-1.9-2
		c-1.1,0-1.9,0.9-1.9,2V81h-2.2V72z"/>
	<path class="st0" d="M155.6,72.5h1.1V72c0-1.4,0.9-2.7,2.7-2.7h1.5v1.9h-1c-0.7,0-1,0.3-1,1v0.3h1.9v1.9h-1.9V81h-2.2v-6.6h-1.1
		V72.5z"/>
	<path class="st0" d="M161.1,76.5c0-2.6,2.1-4.7,4.7-4.7c2.6,0,4.7,2.1,4.7,4.7c0,2.7-2.1,4.7-4.7,4.7S161.1,79.2,161.1,76.5z
		 M168.3,76.5c0-1.5-1.1-2.6-2.4-2.6c-1.3,0-2.4,1.1-2.4,2.6c0,1.5,1.1,2.6,2.4,2.6C167.2,79,168.3,78,168.3,76.5z"/>
	<path class="st0" d="M171.8,72h2.2v0.9c0.5-0.7,1.3-1.1,2.3-1.1h0.3v2.3h-0.6c-1.3,0-1.9,0.8-1.9,1.9v5h-2.2V72z"/>
	<path class="st0" d="M177.6,72h2.2v0.8c0.6-0.6,1.4-1,2.3-1c1.2,0,2.1,0.6,2.6,1.4c0.6-0.9,1.5-1.4,2.7-1.4c2.3,0,3.5,1.8,3.5,3.8
		V81h-2.2v-5.3c0-1.1-0.7-1.8-1.7-1.8c-1,0-1.7,0.8-1.7,1.8V81h-2.2v-5.3c0-1.1-0.7-1.8-1.7-1.8c-1,0-1.7,0.8-1.7,1.8V81h-2.2V72z"
		/>
	<path class="st0" d="M196.5,71.8c1,0,1.8,0.3,2.5,0.9V72h2.2v9H199v-0.8c-0.8,0.7-1.5,0.9-2.5,0.9c-2.6,0-4.5-2.1-4.5-4.7
		S193.9,71.8,196.5,71.8z M199,77.9v-2.8c-0.7-0.9-1.5-1.2-2.3-1.2c-1.4,0-2.5,1.1-2.5,2.6s1.1,2.6,2.5,2.6
		C197.5,79,198.4,78.8,199,77.9z"/>
	<path class="st0" d="M202.4,72h1.3v-2.2h2.2V72h2.2v1.9h-2.2v3.6c0,0.8,0.5,1.3,1.3,1.3h0.9V81h-1.3c-1.8,0-3.2-1.2-3.2-3v-4h-1.3
		V72z"/>
	<path class="st0" d="M209,69.6c0-0.8,0.6-1.4,1.4-1.4s1.4,0.6,1.4,1.4s-0.6,1.4-1.4,1.4S209,70.3,209,69.6z M209.3,72h2.2v9h-2.2
		V72z"/>
	<path class="st0" d="M212.7,76.5c0-2.6,2.1-4.7,4.7-4.7c2.6,0,4.7,2.1,4.7,4.7c0,2.7-2.1,4.7-4.7,4.7S212.7,79.2,212.7,76.5z
		 M219.9,76.5c0-1.5-1.1-2.6-2.4-2.6c-1.3,0-2.4,1.1-2.4,2.6c0,1.5,1.1,2.6,2.4,2.6C218.8,79,219.9,78,219.9,76.5z"/>
	<path class="st0" d="M223.4,72h2.2v0.7c0.6-0.6,1.4-0.9,2.3-0.9c2.3,0,3.8,1.8,3.8,4.1V81h-2.2v-5.1c0-1.1-0.8-2-1.9-2
		c-1.1,0-1.9,0.9-1.9,2V81h-2.2V72z"/>
	<path class="st0" d="M42.7,92.8c1,0,1.8,0.3,2.5,0.9V93h2.2v9h-2.2v-0.8c-0.8,0.7-1.5,0.9-2.5,0.9c-2.6,0-4.5-2.1-4.5-4.7
		S40,92.8,42.7,92.8z M45.2,98.9v-2.8c-0.7-0.9-1.5-1.2-2.3-1.2c-1.4,0-2.5,1.1-2.5,2.6s1.1,2.6,2.5,2.6
		C43.6,100,44.5,99.8,45.2,98.9z"/>
	<path class="st0" d="M48.5,93h1.3v-2.2H52V93h2.2v1.9H52v3.6c0,0.8,0.5,1.3,1.3,1.3h0.9v2.1H53c-1.8,0-3.2-1.2-3.2-3v-4h-1.3V93z"
		/>
	<path class="st0" d="M58.3,93h1.3v-2.2h2.2V93H64v1.9h-2.2v3.6c0,0.8,0.5,1.3,1.3,1.3H64v2.1h-1.3c-1.8,0-3.2-1.2-3.2-3v-4h-1.3V93
		z"/>
	<path class="st0" d="M65.2,90.3h2.2v3.4c0.6-0.6,1.4-0.9,2.3-0.9c2.3,0,3.8,1.8,3.8,4.1v5.1h-2.2v-5.1c0-1.1-0.8-2-1.9-2
		c-1.1,0-1.9,0.9-1.9,2v5.1h-2.2V90.3z"/>
	<path class="st0" d="M74.7,97.4c0-2.6,2.2-4.6,4.7-4.6c2.6,0,4.7,2,4.7,4.6v0.7h-7c0.3,1.1,1.2,1.9,2.4,1.9c0.8,0,1.6-0.4,2.1-1.1
		l2,1c-0.8,1.4-2.3,2.3-4.1,2.3C76.8,102.1,74.7,100.1,74.7,97.4z M77.1,96.5h4.6c-0.3-1.1-1.2-1.8-2.3-1.8
		C78.3,94.8,77.4,95.5,77.1,96.5z"/>
	<path class="st0" d="M88.7,93h2.2v0.9c0.5-0.7,1.3-1.1,2.3-1.1h0.3v2.3h-0.6c-1.3,0-1.9,0.8-1.9,1.9v5h-2.2V93z"/>
	<path class="st0" d="M94.2,90.6c0-0.8,0.6-1.4,1.4-1.4s1.4,0.6,1.4,1.4S96.4,92,95.6,92S94.2,91.3,94.2,90.6z M94.5,93h2.2v9h-2.2
		V93z"/>
	<path class="st0" d="M97.9,97c0-2.4,1.8-4.2,4.5-4.2c0.8,0,1.7,0.3,2.4,0.8V93h2.2v7.6c0,2.6-2,4.3-4.6,4.3c-1.7,0-3.1-0.7-3.9-1.7
		l-0.2-0.2l1.8-1.3l0.2,0.2c0.5,0.5,1.2,0.9,2.1,0.9c1.3,0,2.4-0.7,2.4-2.1v-0.4c-0.8,0.6-1.6,0.8-2.4,0.8
		C99.8,101.2,97.9,99.4,97.9,97z M104.9,98.1v-2.3c-0.8-0.7-1.5-1-2.3-1c-1.3,0-2.3,0.9-2.3,2.1c0,1.2,1,2.1,2.3,2.1
		C103.4,99.1,104.1,98.8,104.9,98.1z"/>
	<path class="st0" d="M108.8,90.3h2.2v3.4c0.6-0.6,1.4-0.9,2.3-0.9c2.3,0,3.8,1.8,3.8,4.1v5.1h-2.2v-5.1c0-1.1-0.8-2-1.9-2
		c-1.1,0-1.9,0.9-1.9,2v5.1h-2.2V90.3z"/>
	<path class="st0" d="M117.9,93h1.3v-2.2h2.2V93h2.2v1.9h-2.2v3.6c0,0.8,0.5,1.3,1.3,1.3h0.9v2.1h-1.3c-1.8,0-3.2-1.2-3.2-3v-4h-1.3
		V93z"/>
	<path class="st0" d="M127.7,93h1.3v-2.2h2.2V93h2.2v1.9h-2.2v3.6c0,0.8,0.5,1.3,1.3,1.3h0.9v2.1h-1.3c-1.8,0-3.2-1.2-3.2-3v-4h-1.3
		V93z"/>
	<path class="st0" d="M134.4,90.6c0-0.8,0.6-1.4,1.4-1.4s1.4,0.6,1.4,1.4s-0.6,1.4-1.4,1.4S134.4,91.3,134.4,90.6z M134.7,93h2.2v9
		h-2.2V93z"/>
	<path class="st0" d="M138.6,93h2.2v0.8c0.6-0.6,1.4-1,2.3-1c1.2,0,2.1,0.6,2.6,1.4c0.6-0.9,1.5-1.4,2.7-1.4c2.3,0,3.5,1.8,3.5,3.8
		v5.4h-2.2v-5.3c0-1.1-0.7-1.8-1.7-1.8c-1,0-1.7,0.8-1.7,1.8v5.3h-2.2v-5.3c0-1.1-0.7-1.8-1.7-1.8c-1,0-1.7,0.8-1.7,1.8v5.3h-2.2V93
		z"/>
	<path class="st0" d="M153.1,97.4c0-2.6,2.2-4.6,4.7-4.6c2.6,0,4.7,2,4.7,4.6v0.7h-7c0.3,1.1,1.2,1.9,2.4,1.9c0.8,0,1.6-0.4,2.1-1.1
		l2,1c-0.8,1.4-2.3,2.3-4.1,2.3C155.3,102.1,153.1,100.1,153.1,97.4z M155.5,96.5h4.6c-0.3-1.1-1.2-1.8-2.3-1.8
		C156.8,94.8,155.9,95.5,155.5,96.5z"/>
	<path class="st0" d="M166.3,93h2.6l1.6,5.7l1.7-5.7h2.4l1.7,5.7l1.5-5.7h2.5l-2.7,9h-2.5l-1.8-5.8l-1.7,5.8h-2.5L166.3,93z"/>
	<path class="st0" d="M180.9,90.6c0-0.8,0.6-1.4,1.4-1.4s1.4,0.6,1.4,1.4s-0.6,1.4-1.4,1.4S180.9,91.3,180.9,90.6z M181.2,93h2.2v9
		h-2.2V93z"/>
	<path class="st0" d="M184.5,93h1.3v-2.2h2.2V93h2.2v1.9H188v3.6c0,0.8,0.5,1.3,1.3,1.3h0.9v2.1H189c-1.8,0-3.2-1.2-3.2-3v-4h-1.3
		V93z"/>
	<path class="st0" d="M191.5,90.3h2.2v3.4c0.6-0.6,1.4-0.9,2.3-0.9c2.3,0,3.8,1.8,3.8,4.1v5.1h-2.2v-5.1c0-1.1-0.8-2-1.9-2
		c-1.1,0-1.9,0.9-1.9,2v5.1h-2.2V90.3z"/>
	<path class="st0" d="M204.4,95.7c0-3.6,3-6.5,6.5-6.5c2.4,0,4.3,1.1,5.5,2.7l0.3,0.4l-2.2,1.2l-0.3-0.3c-0.7-0.9-1.8-1.6-3.2-1.6
		c-2.2,0-3.9,1.8-3.9,4c0,2.3,1.7,4.1,3.9,4.1c1.2,0,2.4-0.5,3.4-1.6v-0.6h-2.6v-2.1h5v6.6h-2.3v-1.1c-1,0.8-2.1,1.3-3.7,1.3
		C207.2,102.1,204.4,99.3,204.4,95.7z"/>
	<path class="st0" d="M217.8,97.5c0-2.6,2.1-4.7,4.7-4.7s4.7,2.1,4.7,4.7c0,2.7-2.1,4.7-4.7,4.7S217.8,100.2,217.8,97.5z M225,97.5
		c0-1.5-1.1-2.6-2.4-2.6c-1.3,0-2.4,1.1-2.4,2.6c0,1.5,1.1,2.6,2.4,2.6C223.9,100,225,99,225,97.5z"/>
	<path class="st0" d="M228,97.5c0-2.6,2.1-4.7,4.7-4.7s4.7,2.1,4.7,4.7c0,2.7-2.1,4.7-4.7,4.7S228,100.2,228,97.5z M235.2,97.5
		c0-1.5-1.1-2.6-2.4-2.6c-1.3,0-2.4,1.1-2.4,2.6c0,1.5,1.1,2.6,2.4,2.6C234.1,100,235.2,99,235.2,97.5z"/>
	<path class="st0" d="M238.2,97c0-2.4,1.8-4.2,4.5-4.2c0.8,0,1.7,0.3,2.4,0.8V93h2.2v7.6c0,2.6-2,4.3-4.6,4.3
		c-1.7,0-3.1-0.7-3.9-1.7l-0.2-0.2l1.8-1.3l0.2,0.2c0.5,0.5,1.2,0.9,2.1,0.9c1.3,0,2.4-0.7,2.4-2.1v-0.4c-0.8,0.6-1.6,0.8-2.4,0.8
		C240,101.2,238.2,99.4,238.2,97z M245.1,98.1v-2.3c-0.8-0.7-1.5-1-2.3-1c-1.3,0-2.3,0.9-2.3,2.1c0,1.2,1,2.1,2.3,2.1
		C243.6,99.1,244.3,98.8,245.1,98.1z"/>
	<path class="st0" d="M249.1,90.3h2.2V102h-2.2V90.3z"/>
	<path class="st0" d="M252.5,97.4c0-2.6,2.2-4.6,4.7-4.6c2.6,0,4.7,2,4.7,4.6v0.7h-7c0.3,1.1,1.2,1.9,2.4,1.9c0.8,0,1.6-0.4,2.1-1.1
		l2,1c-0.8,1.4-2.3,2.3-4.1,2.3C254.7,102.1,252.5,100.1,252.5,97.4z M255,96.5h4.6c-0.3-1.1-1.2-1.8-2.3-1.8
		C256.2,94.8,255.3,95.5,255,96.5z"/>
</g>
</svg>
