<?xml version="1.0" encoding="utf-8"?>
<!-- Generator: Adobe Illustrator 18.1.1, SVG Export Plug-In . SVG Version: 6.00 Build 0)  -->
<!DOCTYPE svg PUBLIC "-//W3C//DTD SVG 1.1//EN" "http://www.w3.org/Graphics/SVG/1.1/DTD/svg11.dtd">
<svg version="1.1" id="Layer_1" xmlns="http://www.w3.org/2000/svg" xmlns:xlink="http://www.w3.org/1999/xlink" x="0px" y="0px"
	 width="300px" height="600px" viewBox="0 0 300 600" style="enable-background:new 0 0 300 600;" xml:space="preserve">
<style type="text/css">
	.st0{fill:#8C8C8C;}
</style>
<g>
	<path class="st0" d="M78.6,72.5h3.1v1.3c0.7-0.9,1.7-1.5,3.2-1.5h0.4v3.1h-0.9c-1.7,0-2.7,1.2-2.7,2.7V85h-3.1V72.5z"/>
	<path class="st0" d="M85.4,78.7c0-3.6,3-6.4,6.5-6.4c3.7,0,6.6,2.8,6.6,6.4v1h-9.8c0.4,1.5,1.7,2.6,3.3,2.6c1.2,0,2.2-0.6,2.9-1.5
		l2.7,1.3c-1.1,1.9-3.2,3.1-5.7,3.1C88.5,85.3,85.4,82.4,85.4,78.7z M88.8,77.5h6.4C94.8,75.9,93.6,75,92,75
		C90.5,75,89.3,76,88.8,77.5z"/>
	<path class="st0" d="M105.3,72.3c1.4,0,2.5,0.4,3.5,1.3v-1h3.1V85h-3.1v-1c-1,0.9-2.1,1.3-3.5,1.3c-3.6,0-6.2-2.8-6.2-6.5
		S101.7,72.3,105.3,72.3z M108.8,80.7v-3.9c-0.9-1.2-2.1-1.6-3.1-1.6c-1.9,0-3.4,1.5-3.4,3.6s1.5,3.6,3.4,3.6
		C106.7,82.3,107.9,82,108.8,80.7z"/>
	<path class="st0" d="M119.6,72.3c1.4,0,2.5,0.4,3.5,1.3v-4.8h3.1V85h-3.1v-1c-1,0.9-2.1,1.3-3.5,1.3c-3.6,0-6.2-2.8-6.2-6.5
		S115.9,72.3,119.6,72.3z M123.1,80.7v-3.9c-0.9-1.2-2.1-1.6-3.1-1.6c-1.9,0-3.4,1.5-3.4,3.6s1.5,3.6,3.4,3.6
		C121,82.3,122.2,82,123.1,80.7z"/>
	<path class="st0" d="M128.3,85.6c0.8,0.5,1.4,0.6,1.8,0.6c0.8,0,1.3-0.4,1.5-0.9l0.1-0.2L127,72.5h3.6l2.9,8.8l2.9-8.8h3.5
		L135.4,85c-1.1,3.2-3,4-4.8,4c-1.3,0-2.6-0.4-3.5-1L128.3,85.6z"/>
	<path class="st0" d="M144.8,73.2h1.5v-0.7c0-1.9,1.3-3.8,3.8-3.8h2.1v2.6h-1.4c-0.9,0-1.4,0.5-1.4,1.4v0.4h2.6v2.7h-2.6V85h-3.1
		v-9.1h-1.5V73.2z"/>
	<path class="st0" d="M152.2,78.8c0-3.6,2.9-6.5,6.6-6.5c3.6,0,6.6,2.9,6.6,6.5c0,3.7-3,6.5-6.6,6.5S152.2,82.5,152.2,78.8z
		 M162.1,78.8c0-2.1-1.5-3.6-3.4-3.6c-1.8,0-3.4,1.5-3.4,3.6c0,2.1,1.5,3.6,3.4,3.6S162.1,80.9,162.1,78.8z"/>
	<path class="st0" d="M166.7,72.5h3.1v1.3c0.7-0.9,1.7-1.5,3.2-1.5h0.4v3.1h-0.9c-1.7,0-2.7,1.2-2.7,2.7V85h-3.1V72.5z"/>
	<path class="st0" d="M179.3,85.6c0.8,0.5,1.4,0.6,1.8,0.6c0.8,0,1.3-0.4,1.5-0.9l0.1-0.2l-4.7-12.7h3.6l2.9,8.8l2.9-8.8h3.5
		L186.3,85c-1.1,3.2-3,4-4.8,4c-1.3,0-2.6-0.4-3.5-1L179.3,85.6z"/>
	<path class="st0" d="M190.5,78.8c0-3.6,2.9-6.5,6.6-6.5c3.6,0,6.6,2.9,6.6,6.5c0,3.7-3,6.5-6.6,6.5S190.5,82.5,190.5,78.8z
		 M200.4,78.8c0-2.1-1.5-3.6-3.4-3.6c-1.8,0-3.4,1.5-3.4,3.6c0,2.1,1.5,3.6,3.4,3.6S200.4,80.9,200.4,78.8z"/>
	<path class="st0" d="M204.8,79.9v-7.4h3.1v7.3c0,1.5,1.1,2.5,2.6,2.5s2.6-1,2.6-2.5v-7.3h3.1v7.4c0,3.2-2.6,5.4-5.7,5.4
		C207.4,85.3,204.8,83.1,204.8,79.9z"/>
	<path class="st0" d="M217.8,81.5h3.6c-0.2,2.3-0.8,4.5-1.7,6.6h-3.1C217.3,85.9,217.8,83.7,217.8,81.5z"/>
	<path class="st0" d="M66.4,96h3.1v1c0.8-0.8,1.9-1.3,3.2-1.3c3.1,0,5.2,2.5,5.2,5.7v7h-3.1v-7.1c0-1.5-1.2-2.7-2.7-2.7
		c-1.5,0-2.7,1.2-2.7,2.7v7.1h-3.1V96z"/>
	<path class="st0" d="M79.1,102.3c0-3.6,2.9-6.5,6.6-6.5c3.6,0,6.6,2.9,6.6,6.5c0,3.7-3,6.5-6.6,6.5S79.1,106,79.1,102.3z
		 M89.1,102.3c0-2.1-1.5-3.6-3.4-3.6c-1.8,0-3.4,1.5-3.4,3.6c0,2.1,1.5,3.6,3.4,3.6C87.6,105.8,89.1,104.4,89.1,102.3z"/>
	<path class="st0" d="M92.4,96h1.7v-3h3.1v3h3.1v2.7h-3.1v5c0,1.1,0.7,1.8,1.8,1.8h1.2v2.9h-1.7c-2.5,0-4.4-1.6-4.4-4.2v-5.6h-1.7
		V96z"/>
	<path class="st0" d="M100.7,99.6h7.5v3.5h-7.5V99.6z"/>
	<path class="st0" d="M109.5,107.4l-0.4-0.2l1.5-2.4l0.5,0.2c0.9,0.5,2.2,1,3.7,1c1.2,0,1.9-0.4,1.9-1c0-0.9-1.1-1-3-1.5
		c-2.5-0.6-4.2-1.8-4.2-3.9c0-2,1.9-3.8,5.1-3.8c1.9,0,3.5,0.5,4.6,1l0.6,0.3l-1.5,2.3l-0.5-0.2c-0.5-0.2-1.8-0.6-3.1-0.6
		c-0.9,0-1.9,0.3-1.9,1c0,0.6,0.7,0.9,2.3,1.3c2.7,0.6,4.8,1.5,4.8,4c0,2.3-2,4-5.3,4C112.6,108.8,110.9,108.2,109.5,107.4z"/>
	<path class="st0" d="M120.6,102.3c0-3.6,2.9-6.5,6.6-6.5c3.6,0,6.6,2.9,6.6,6.5c0,3.7-3,6.5-6.6,6.5S120.6,106,120.6,102.3z
		 M130.5,102.3c0-2.1-1.5-3.6-3.4-3.6c-1.8,0-3.4,1.5-3.4,3.6c0,2.1,1.5,3.6,3.4,3.6C129,105.8,130.5,104.4,130.5,102.3z"/>
	<path class="st0" d="M135.4,99.6h7.5v3.5h-7.5V99.6z"/>
	<path class="st0" d="M144,96.7h1.5V96c0-1.9,1.3-3.8,3.8-3.8h2.1v2.6h-1.4c-0.9,0-1.4,0.5-1.4,1.4v0.4h2.6v2.7h-2.6v9.1h-3.1v-9.1
		H144V96.7z"/>
	<path class="st0" d="M152,96h3.1v1.3c0.7-0.9,1.7-1.5,3.2-1.5h0.4v3.1h-0.9c-1.7,0-2.7,1.2-2.7,2.7v6.9H152V96z"/>
	<path class="st0" d="M158.8,102.2c0-3.6,3-6.4,6.5-6.4c3.7,0,6.6,2.8,6.6,6.4v1h-9.8c0.4,1.5,1.7,2.6,3.3,2.6
		c1.2,0,2.2-0.6,2.9-1.5l2.7,1.3c-1.1,1.9-3.2,3.1-5.7,3.1C161.8,108.8,158.8,105.9,158.8,102.2z M162.2,101h6.4
		c-0.4-1.5-1.7-2.4-3.2-2.4C163.9,98.5,162.6,99.5,162.2,101z"/>
	<path class="st0" d="M178.7,95.8c1.4,0,2.5,0.4,3.5,1.3v-1h3.1v16.2h-3.1v-4.8c-1,0.9-2.1,1.3-3.5,1.3c-3.6,0-6.2-2.8-6.2-6.5
		S175.1,95.8,178.7,95.8z M182.2,104.2v-3.9c-0.9-1.2-2.1-1.6-3.1-1.6c-1.9,0-3.4,1.5-3.4,3.6s1.5,3.6,3.4,3.6
		C180.1,105.8,181.3,105.5,182.2,104.2z"/>
	<path class="st0" d="M187.3,103.4V96h3.1v7.3c0,1.5,1.1,2.5,2.6,2.5s2.6-1,2.6-2.5V96h3.1v7.4c0,3.2-2.6,5.4-5.7,5.4
		C189.9,108.8,187.3,106.6,187.3,103.4z"/>
	<path class="st0" d="M199.9,102.2c0-3.6,3-6.4,6.5-6.4c3.7,0,6.6,2.8,6.6,6.4v1h-9.8c0.4,1.5,1.7,2.6,3.3,2.6
		c1.2,0,2.2-0.6,2.9-1.5l2.7,1.3c-1.1,1.9-3.2,3.1-5.7,3.1C202.9,108.8,199.9,105.9,199.9,102.2z M203.3,101h6.4
		c-0.4-1.5-1.7-2.4-3.2-2.4C205,98.5,203.7,99.5,203.3,101z"/>
	<path class="st0" d="M214.2,96h3.1v1c0.8-0.8,1.9-1.3,3.2-1.3c3.1,0,5.2,2.5,5.2,5.7v7h-3.1v-7.1c0-1.5-1.2-2.7-2.7-2.7
		c-1.5,0-2.7,1.2-2.7,2.7v7.1h-3.1V96z"/>
	<path class="st0" d="M226.4,96h1.7v-3h3.1v3h3.1v2.7h-3.1v5c0,1.1,0.7,1.8,1.8,1.8h1.2v2.9h-1.7c-2.5,0-4.4-1.6-4.4-4.2v-5.6h-1.7
		V96z"/>
	<path class="st0" d="M127.4,120.2h1.5v-0.7c0-1.9,1.3-3.8,3.8-3.8h2.1v2.6h-1.4c-0.9,0-1.4,0.5-1.4,1.4v0.4h2.6v2.7H132v9.1h-3.1
		v-9.1h-1.5V120.2z"/>
	<path class="st0" d="M135.5,115.8h3.1V132h-3.1V115.8z"/>
	<path class="st0" d="M140.7,132.6c0.8,0.5,1.4,0.6,1.8,0.6c0.8,0,1.3-0.4,1.5-0.9l0.1-0.2l-4.7-12.7h3.6l2.9,8.8l2.9-8.8h3.5
		l-4.6,12.5c-1.1,3.2-3,4-4.8,4c-1.3,0-2.6-0.4-3.5-1L140.7,132.6z"/>
	<path class="st0" d="M151.9,125.7c0-3.6,3-6.4,6.5-6.4c3.7,0,6.6,2.8,6.6,6.4v1h-9.8c0.4,1.5,1.7,2.6,3.3,2.6
		c1.2,0,2.2-0.6,2.9-1.5l2.7,1.3c-1.1,1.9-3.2,3.1-5.7,3.1C154.9,132.3,151.9,129.4,151.9,125.7z M155.3,124.5h6.4
		c-0.4-1.5-1.7-2.4-3.2-2.4C157,122,155.7,123,155.3,124.5z"/>
	<path class="st0" d="M166.2,119.5h3.1v1.3c0.7-0.9,1.7-1.5,3.2-1.5h0.4v3.1H172c-1.7,0-2.7,1.2-2.7,2.7v6.9h-3.1V119.5z"/>
</g>
</svg>
