<svg xmlns="http://www.w3.org/2000/svg" width="127" height="32" viewBox="0 0 127 31.531"><path fill="#fff" d="M24.6 11.4h4.18c.9-.07 1.77.23 2.44.82.42.4.65.97.64 1.55 0 .9-.52 1.72-1.34 2.08 1.1.2 1.9 1.16 1.9 2.27 0 1.67-1.4 2.57-3.52 2.57h-4.3v-9.3zm5.6 2.6c0-.72-.58-1.18-1.64-1.18H26.2v2.5h2.24c1.06 0 1.75-.42 1.75-1.28V14zm-1.4 2.7h-2.6v2.57h2.72c1.12 0 1.8-.44 1.8-1.3.03-.8-.6-1.28-1.9-1.28zm6.1.05V11.4h1.64v5.24c0 1.75.88 2.63 2.37 2.63 1.5 0 2.4-.88 2.4-2.63V11.4h1.66v5.24c0 2.8-1.58 4.2-4.02 4.2s-4-1.38-4-4.1zm13.82.28L45 11.4h1.95l2.62 4.12 2.63-4.13h1.88l-3.7 5.6v3.7H48.7V17zm12.42-5.63h1.53l5 6.46V11.4h1.63v9.3h-1.38L62.76 14v6.68h-1.62v-9.3zm10.96 4.66c0-2.7 2.18-4.9 4.88-4.9s4.9 2.2 4.9 4.9-2.2 4.9-4.9 4.9-4.9-2.2-4.9-4.9zm8.05 0c.07-1.76-1.3-3.25-3.07-3.3-.04-.02-.07-.02-.1-.02a3.16 3.16 0 0 0-3.17 3.15l.06.1a3.167 3.167 0 0 0 3.07 3.3c.04.02.07.02.1.02 1.75 0 3.16-1.4 3.16-3.15v-.15zm3.28-4.66h1.76l2.2 6.93 2.3-7h1.35l2.28 7 2.28-6.94h1.76l-3.25 9.4h-1.4L90.4 14l-2.3 6.73h-1.4l-3.27-9.35zm20.74 8.17l1.7-2.37-1.7-2.38 1.15-.6 2.3 2.9v.12l-2.3 2.9-1.14-.57z" class="cta-label"/></svg>