<?xml version="1.0" encoding="utf-8"?>
<!-- Generator: Adobe Illustrator 18.1.1, SVG Export Plug-In . SVG Version: 6.00 Build 0)  -->
<svg version="1.1" id="Layer_1" xmlns="http://www.w3.org/2000/svg" xmlns:xlink="http://www.w3.org/1999/xlink" x="0px" y="0px"
	 viewBox="0 0 197 46.7" enable-background="new 0 0 197 46.7" xml:space="preserve">
<path fill="#F9A956" d="M0,10.7l11.3-0.6l6.4,16.2c0.3,0.6,0.4,1.2,0.5,1.7l0.1,0c0.1-0.5,0.3-1.1,0.5-1.8l6.4-16.8l11.3-0.6v36
	l-11.3,0.6V25.8l-0.1,0c-0.2,0.8-0.4,1.4-0.7,2l-6.2,15.8l-6.2-15.2c-0.3-0.6-0.5-1.2-0.7-2l-0.1,0v19.5L0,46.7V10.7z"/>
<path fill="#F9A956" d="M41.1,32.5v-24l11.3-0.6v24c0,2.5,0.5,4,2.7,3.9c2.2-0.1,2.7-1.6,2.7-4.1v-24L69.2,7v24
	c0,9-4.9,13.3-14,13.7S41.1,41.5,41.1,32.5z"/>
<path fill="#F9A956" d="M73.6,6.8l20-1l0.5,9l-9.2,0.5v4.5l8.1-0.4v8.5l-8.1,0.4v14l-11.3,0.6V6.8z"/>
<path fill="#F9A956" d="M98,5.5l20-1l0.5,9l-9.2,0.5v4.5l8.1-0.4v8.5l-8.1,0.4v14L98,41.5V5.5z"/>
<path fill="#F9A956" d="M122.4,4.2l11.3-0.6v36l-11.3,0.6V4.2z"/>
<path fill="#F9A956" d="M138.4,3.4l10.8-0.6l5.7,14.2c0.3,0.7,0.5,1.5,0.7,2.2l0.1,0V2.5L167,1.9v36l-10.8,0.6l-5.7-14.2
	c-0.3-0.8-0.5-1.5-0.7-2.2l-0.1,0v16.8l-11.3,0.6V3.4z"/>
<path fill="#F9A956" d="M170.1,30.7l8.6-4.5c1.1,2.4,2.5,2.9,3.8,2.8c1.1-0.1,2.2-1.1,2.2-2.1c0-5-13-6.3-13-16.8
	c0-5,4.3-9.7,11.9-10.1c7.6-0.4,11.3,2.4,13.5,6.3l-8.1,3.9c-0.8-1.5-1.6-2.4-3.2-2.3c-1.3,0.1-2.2,1.1-2.2,2.6
	c0,3.6,13.5,5.8,13.5,16.8c0,6.5-5.9,10.3-13.5,10.7C176,38.4,171.8,34.7,170.1,30.7z"/>
</svg>
