<svg xmlns="http://www.w3.org/2000/svg" viewBox="0 0 197 46.7"><path fill="#F9A956" d="M0 10.7l11.3-.6 6.4 16.2c.3.6.4 1.2.5 1.7h.1c.1-.5.3-1.1.5-1.8l6.4-16.8 11.3-.6v36l-11.3.6V25.8h-.1c-.2.8-.4 1.4-.7 2l-6.2 15.8L12 28.4c-.3-.6-.5-1.2-.7-2h-.1v19.5L0 46.7v-36zM41.1 32.5v-24l11.3-.6v24c0 2.5.5 4 2.7 3.9 2.2-.1 2.7-1.6 2.7-4.1v-24L69.2 7v24c0 9-4.9 13.3-14 13.7s-14.1-3.2-14.1-12.2zM73.6 6.8l20-1 .5 9-9.2.5v4.5l8.1-.4v8.5l-8.1.4v14l-11.3.6V6.8zM98 5.5l20-1 .5 9-9.2.5v4.5l8.1-.4v8.5l-8.1.4v14l-11.3.5v-36zM122.4 4.2l11.3-.6v36l-11.3.6v-36zM138.4 3.4l10.8-.6 5.7 14.2c.3.7.5 1.5.7 2.2h.1V2.5l11.3-.6v36l-10.8.6-5.7-14.2c-.3-.8-.5-1.5-.7-2.2h-.1v16.8l-11.3.6V3.4zM170.1 30.7l8.6-4.5c1.1 2.4 2.5 2.9 3.8 2.8 1.1-.1 2.2-1.1 2.2-2.1 0-5-13-6.3-13-16.8 0-5 4.3-9.7 11.9-10.1 7.6-.4 11.3 2.4 13.5 6.3l-8.1 3.9c-.8-1.5-1.6-2.4-3.2-2.3-1.3.1-2.2 1.1-2.2 2.6 0 3.6 13.5 5.8 13.5 16.8 0 6.5-5.9 10.3-13.5 10.7-7.6.4-11.8-3.3-13.5-7.3z"/></svg>