<?xml version="1.0" encoding="utf-8"?>
<!-- Generator: Adobe Illustrator 18.1.1, SVG Export Plug-In . SVG Version: 6.00 Build 0)  -->
<!DOCTYPE svg PUBLIC "-//W3C//DTD SVG 1.1//EN" "http://www.w3.org/Graphics/SVG/1.1/DTD/svg11.dtd">
<svg version="1.1" id="Layer_1" xmlns="http://www.w3.org/2000/svg" xmlns:xlink="http://www.w3.org/1999/xlink" x="0px" y="0px"
	 viewBox="612.2 -2 695.7 864.1" enable-background="new 612.2 -2 695.7 864.1" xml:space="preserve">
<path fill="#FFFFFF" d="M1307.8,345.9C1307.8,154.1,1151.8-2,960-2c-191.8,0-347.8,156-347.8,347.8v46.5h93.1v-46.5
	c0-140.5,114.3-254.8,254.8-254.8s254.8,114.3,254.8,254.8S1100.5,600.6,960,600.6h-53.5l103.7-103.7l-65.8-65.8L794.7,580.8
	l-65.9,65.8l0,0l0,0l65.8,65.8l149.7,149.7l65.8-65.8L907.7,693.7H960C1151.8,693.7,1307.8,537.6,1307.8,345.9z"/>
</svg>
