<svg xmlns="http://www.w3.org/2000/svg" xmlns:xlink="http://www.w3.org/1999/xlink" viewBox="0 0 188 163"><defs><path id="a" d="M.1.3h187V163H.1z"/></defs><clipPath id="b"><use xlink:href="#a" overflow="visible"/></clipPath><path clip-path="url(#b)" d="M13.9 156.9c0 1.9-.7 3.4-2.1 4.5-1.4 1.1-3.2 1.6-5.5 1.6-2.7 0-4.9-.3-6.3-.9v-1.6c1.6.7 3.7 1 6.2 1 1.8 0 3.3-.4 4.4-1.3 1.1-.8 1.6-2 1.6-3.3 0-.8-.2-1.6-.5-2.1-.4-.6-.9-1.1-1.8-1.5-.8-.5-2-1-3.6-1.5-2.3-.8-3.9-1.6-4.8-2.6-.9-.9-1.3-2.1-1.3-3.7 0-1.7.7-3.1 2-4.1 1.3-1.1 3-1.6 5.1-1.6 2.1 0 4.1.4 5.9 1.2l-.6 1.4c-1.9-.8-3.6-1.2-5.3-1.2-1.7 0-3 .4-4 1.2s-1.5 1.8-1.5 3.1c0 .8.1 1.5.5 2 .3.5.8 1 1.5 1.4.7.4 1.9.9 3.5 1.5 1.7.6 3.1 1.2 4 1.8.9.6 1.5 1.2 1.9 1.9.5.9.7 1.8.7 2.8m23.2-5.5c0 3.6-.9 6.4-2.7 8.5-1.8 2.1-4.2 3.1-7.4 3.1-3.1 0-5.6-1-7.4-3.1-1.8-2.1-2.7-4.9-2.7-8.5 0-3.6.9-6.4 2.7-8.4 1.8-2.1 4.3-3.1 7.4-3.1 3.1 0 5.6 1 7.4 3.1 1.8 2 2.7 4.8 2.7 8.4m-18.4 0c0 3.2.7 5.7 2.2 7.5 1.4 1.8 3.5 2.6 6.2 2.6s4.8-.9 6.2-2.6c1.4-1.7 2.1-4.2 2.1-7.5 0-3.2-.7-5.7-2.1-7.5-1.4-1.7-3.5-2.6-6.2-2.6s-4.7.9-6.2 2.6c-1.5 1.8-2.2 4.3-2.2 7.5zm37.5 1.1l6.6-12.3h1.7L57 154v8.7h-1.6v-8.6l-7.5-13.9h1.8l6.5 12.3m29.1-1.1c0 3.6-.9 6.4-2.7 8.5-1.8 2.1-4.2 3.1-7.4 3.1-3.1 0-5.6-1-7.4-3.1-1.8-2.1-2.7-4.9-2.7-8.5 0-3.6.9-6.4 2.7-8.4 1.8-2.1 4.3-3.1 7.4-3.1 3.1 0 5.6 1 7.4 3.1 1.8 2 2.7 4.8 2.7 8.4m-18.4 0c0 3.2.7 5.7 2.2 7.5 1.4 1.8 3.5 2.6 6.2 2.6s4.8-.9 6.2-2.6c1.4-1.7 2.1-4.2 2.1-7.5 0-3.2-.7-5.7-2.1-7.5-1.4-1.7-3.5-2.6-6.2-2.6s-4.7.9-6.2 2.6c-1.4 1.8-2.2 4.3-2.2 7.5zm39.6-11.2v14.6c0 2.6-.7 4.6-2.2 6.1-1.5 1.5-3.6 2.2-6.3 2.2-2.6 0-4.6-.7-6.1-2.2-1.5-1.5-2.2-3.5-2.2-6.1v-14.5h1.6v14.6c0 2.2.6 3.8 1.8 5 1.2 1.2 2.9 1.8 5.1 1.8 2.1 0 3.8-.6 5-1.8 1.2-1.2 1.8-2.8 1.8-4.9v-14.7h1.5m24.5 1c-2.8 0-5 .9-6.7 2.7-1.6 1.8-2.4 4.3-2.4 7.4 0 3.2.8 5.7 2.3 7.5 1.5 1.8 3.7 2.7 6.6 2.7 1.9 0 3.6-.2 5.2-.7v1.4c-1.5.5-3.3.8-5.6.8-3.2 0-5.6-1-7.5-3.1-1.8-2-2.7-4.9-2.7-8.6 0-2.3.4-4.3 1.3-6 .9-1.7 2.1-3.1 3.7-4 1.6-.9 3.5-1.4 5.7-1.4s4.2.4 5.9 1.2l-.6 1.4c-1.6-.9-3.4-1.3-5.2-1.3"/><path d="M152.6 154.8h-9.1l-3.1 7.9h-1.7l9-22.6h1l8.9 22.6h-1.8l-3.2-7.9m-8.6-1.5h8l-3.1-8.1c-.3-.6-.6-1.5-.9-2.6-.3 1-.6 1.9-.9 2.7l-3.1 8zm33 9.4h-1.6l-13.3-20h-.1c.1 2.4.2 4.2.2 5.4v14.6h-1.5v-22.5h1.6l13.3 19.9h.1c-.1-1.8-.1-3.6-.1-5.3v-14.7h1.5v22.6m-141.7-47H42v-14.2h18.3v14.2h6.6v-33h-6.6v13.1H42V82.7h-6.6v33m113.3-33v33h29.1l-3.6-5.8h-18.8v-8.4h18.2v-5.6h-18.2v-7.5h18.7l3.6-5.7h-29m-138 0C3.8 82.7.3 86.9.3 93v12.3c0 7.1 4.5 10.4 10.4 10.4h20.8l-3.9-6H11.9c-3.3 0-4.8-1.2-4.8-4.9V93.5c0-3.6 1.2-5 4.9-5h15.8l3.7-5.9H10.7m108.8.1c-4 0-8.1 2.4-8.1 8.6v1.6c0 6.4 3.9 8.9 7.9 8.9h13.8c1.4 0 2.6.2 2.6 2.7v2.8c0 2.2-1.1 2.7-2.7 2.7h-18.2l-3.7 5.8h22.3c5.4 0 9-2.7 9-8.9v-2.3c0-6-3.4-8.8-8.7-8.8h-13.2c-1.5 0-2.5-.4-2.5-2.6v-2.3c0-1.8.7-2.5 2.4-2.5h17.3l3.6-5.7h-21.8m-30 6.8l6 13.7h-12l6-13.7m-3.3-6.8l-15.7 33H78l3.1-6.8h17l3 6.8h7.4l-15.7-33h-6.6z"/><path fill="#0179C1" d="M80.8.3c-1.1 0-2 .9-2 2v14.3h37.8L99.4.3H80.8M118 20.9c0-1.1-.9-2-2-2h-14.3v37.8L118 39.5V20.9M97.3 58.1c1.1 0 2-.9 2-2V41.7H61.5L78.7 58l18.6.1M60.1 37.4c0 1.1.9 2 2 2h14.3V1.6L60.1 18.9v18.5"/><path d="M181.4 143c0-.5.1-1 .4-1.4.3-.4.6-.8 1-1 .4-.3.9-.4 1.4-.4.5 0 1 .1 1.4.4.4.3.8.6 1 1 .3.4.4.9.4 1.4 0 .5-.1 1-.4 1.4-.2.4-.6.8-1 1-.4.3-.9.4-1.4.4-.5 0-1-.1-1.4-.4-.4-.3-.8-.6-1-1-.3-.4-.4-.9-.4-1.4m.4 0c0 .4.1.8.3 1.2.2.4.5.7.9.9.4.2.8.3 1.2.3.4 0 .8-.1 1.2-.3.4-.2.7-.5.9-.9.2-.4.3-.8.3-1.2 0-.4-.1-.8-.3-1.2-.2-.4-.5-.7-.9-.9-.4-.2-.8-.3-1.2-.3-.4 0-.8.1-1.2.3-.4.2-.7.5-.9.9s-.3.8-.3 1.2zm3.6-.6c0 .2-.1.4-.2.5-.1.2-.3.3-.5.3l.9 1.5h-.6l-.8-1.3h-.5v1.3h-.6v-3.4h1c.4 0 .7.1.9.2.3.3.4.5.4.9zm-1.6.5h.4c.2 0 .4-.1.5-.2.1-.1.2-.2.2-.4s-.1-.3-.2-.4c-.1-.1-.3-.1-.5-.1h-.4v1.1z"/></svg>