<svg id="Layer_1" xmlns="http://www.w3.org/2000/svg" viewBox="0 0 97.7 154.6"><style>.st0{fill:#fff}</style><path class="st0" d="M36.1 13.5l5.4-4.4c2-1.7 2.8-2.5 2.8-3.9s-.9-2.1-2.2-2.1c-1.2 0-2.1.7-3.3 2.2l-2.5-2c1.6-2.2 3.1-3.3 6-3.3 3.3 0 5.5 2 5.5 5 0 2.7-1.4 4-4.2 6.2l-2.6 2h7v3.1H36.1v-2.8zm20-5.9L58.4 4h3.7l-4.2 6 4.3 6.3h-3.7L56 12.5l-2.5 3.8h-3.7l4.3-6.3L50 4h3.7l2.4 3.6zM0 42.3L1.5 40c1.3 1 2.7 1.5 3.9 1.5 1 0 1.5-.4 1.5-.9 0-.8-1.2-1-2.6-1.4-1.7-.5-3.7-1.3-3.7-3.7 0-2.5 2-3.9 4.5-3.9 1.6 0 3.3.5 4.6 1.4l-1.3 2.4c-1.2-.7-2.4-1.1-3.3-1.1-.9 0-1.3.4-1.3.9 0 .7 1.2 1 2.5 1.5 1.7.4 3.7 1.2 3.7 3.4 0 2.7-2 4-4.7 4-1.7.1-3.7-.5-5.3-1.8zm12.9-1.9v-5.8h-1.5v-3h1.5v-3.2h3.5v3.2h2.9v3h-2.9v5.3c0 .8.3 1.2 1.1 1.2.6 0 1.2-.2 1.7-.4v2.8c-.7.4-1.6.7-2.8.7-2.1-.1-3.5-.9-3.5-3.8zm8.9-8.8h3.5v2.5c.7-1.7 1.9-2.8 3.9-2.7V35H29c-2.3 0-3.7 1.4-3.7 4.3v4.6h-3.5V31.6zm8.7 6.2c0-3.6 2.9-6.5 6.7-6.5 3.8 0 6.6 2.8 6.6 6.4 0 3.5-2.9 6.4-6.7 6.4-3.8.1-6.6-2.7-6.6-6.3zm9.9 0c0-1.9-1.3-3.4-3.2-3.4-2 0-3.2 1.5-3.2 3.4 0 1.8 1.3 3.4 3.2 3.4 2 0 3.2-1.6 3.2-3.4zm6-6.2h3.5v1.7c.8-1 1.8-2 3.6-2 2.6 0 4.2 1.7 4.2 4.6v8h-3.5V37c0-1.7-.8-2.5-2.1-2.5s-2.2.9-2.2 2.5v6.9h-3.5V31.6zm14.4 14.8l1.2-2.6c1.3.7 2.5 1.1 4.2 1.1 2.4 0 3.5-1.1 3.5-3.4v-.6c-1 1.2-2.2 2-4 2-2.9 0-5.5-2.1-5.5-5.7 0-3.7 2.6-5.7 5.5-5.7 1.9 0 3 .8 4 1.8v-1.6h3.5v9.5c0 2.2-.5 3.8-1.6 4.9-1.1 1.1-2.9 1.7-5.3 1.7-2.1-.1-4-.6-5.5-1.4zm8.8-9.2c0-1.7-1.3-2.9-3-2.9s-3 1.2-3 2.9 1.3 2.9 3 2.9c1.7-.1 3-1.3 3-2.9zm6 .6c0-3.6 2.5-6.5 6.1-6.5 4.1 0 6 3.2 6 6.7v.9h-8.6c.3 1.6 1.4 2.4 3 2.4 1.2 0 2-.4 3-1.3l2 1.8c-1.1 1.4-2.8 2.3-5 2.3-3.7.1-6.5-2.5-6.5-6.3zm8.7-1c-.2-1.6-1.1-2.6-2.6-2.6-1.4 0-2.4 1-2.7 2.6h5.3zm6-5.2h3.5v2.5c.7-1.7 1.9-2.8 3.9-2.7V35h-.2c-2.3 0-3.7 1.4-3.7 4.3v4.6h-3.5V31.6zM4 68.4v-7.2H2.4v-1.6H4V56h1.8v3.6h3.8v1.6H5.8v6.9c0 1.4.8 2 2 2 .6 0 1.1-.1 1.7-.4v1.5c-.6.3-1.3.5-2.1.5-1.9 0-3.4-.9-3.4-3.3zm8.7-13.7h1.8v7c.8-1.3 2-2.3 4.1-2.3 2.9 0 4.6 1.9 4.6 4.8v7.4h-1.8v-6.9c0-2.2-1.2-3.6-3.3-3.6-2 0-3.6 1.5-3.6 3.7v6.8h-1.8V54.7zM26 68.1c0-2.6 2.1-3.9 5.1-3.9 1.5 0 2.6.2 3.7.5v-.4c0-2.1-1.3-3.2-3.5-3.2-1.4 0-2.5.4-3.6.9l-.7-1.5c1.3-.6 2.6-1 4.3-1 1.7 0 3 .4 3.8 1.3.8.8 1.2 2 1.2 3.5v7.3h-1.7v-1.8c-.8 1.1-2.2 2-4.3 2-2.1 0-4.3-1.3-4.3-3.7zm8.7-.9V66c-.9-.3-2-.5-3.5-.5-2.2 0-3.5 1-3.5 2.5s1.4 2.4 3 2.4c2.2 0 4-1.4 4-3.2zm5.5-7.6H42v2.1c.8-1.3 2-2.3 4.1-2.3 2.9 0 4.6 1.9 4.6 4.8v7.4h-1.8v-6.9c0-2.2-1.2-3.6-3.3-3.6-2 0-3.6 1.5-3.6 3.7v6.8h-1.8v-12zm21.7 8.8v-7.2h-1.7v-1.6h1.7V56h1.8v3.6h3.8v1.6h-3.8v6.9c0 1.4.8 2 2 2 .6 0 1.1-.1 1.7-.4v1.5c-.6.3-1.3.5-2.1.5-2 0-3.4-.9-3.4-3.3zm8.6-13.7h1.8v7c.8-1.3 2-2.3 4.1-2.3 2.9 0 4.6 1.9 4.6 4.8v7.4h-1.8v-6.9c0-2.2-1.2-3.6-3.3-3.6-2 0-3.6 1.5-3.6 3.7v6.8h-1.8V54.7zM84 65.6c0-3.5 2.4-6.2 5.7-6.2 3.5 0 5.5 2.8 5.5 6.3v.6h-9.4c.3 2.6 2.1 4 4.2 4 1.6 0 2.8-.7 3.7-1.7l1.1 1c-1.2 1.3-2.6 2.2-4.9 2.2-3.3 0-5.9-2.5-5.9-6.2zm9.4-.7c-.2-2.2-1.4-4-3.8-4-2.1 0-3.6 1.7-3.9 4h7.7zM9.2 82.3H11v16.8H9.2V82.3zm5.1 10.9c0-3.5 2.4-6.2 5.7-6.2 3.5 0 5.5 2.8 5.5 6.3v.6h-9.4c.3 2.6 2.1 4 4.2 4 1.6 0 2.8-.7 3.7-1.7l1.1 1c-1.2 1.3-2.6 2.2-4.9 2.2-3.2 0-5.9-2.5-5.9-6.2zm9.5-.7c-.2-2.2-1.4-4-3.8-4-2.1 0-3.6 1.7-3.9 4h7.7zm4 3.2c0-2.6 2.1-3.9 5.1-3.9 1.5 0 2.6.2 3.7.5v-.4c0-2.1-1.3-3.2-3.5-3.2-1.4 0-2.5.4-3.6.9l-.5-1.4c1.3-.6 2.6-1 4.3-1 1.7 0 3 .4 3.8 1.3.8.8 1.2 2 1.2 3.5v7.3h-1.7v-1.8c-.8 1.1-2.2 2-4.3 2-2.3-.1-4.5-1.4-4.5-3.8zm8.7-.9v-1.1c-.9-.3-2-.5-3.5-.5-2.2 0-3.5 1-3.5 2.5s1.4 2.4 3 2.4c2.2-.1 4-1.5 4-3.3zm4.8-1.6c0-3.9 2.8-6.2 5.7-6.2 2.2 0 3.6 1.2 4.6 2.5v-7.2h1.8v16.8h-1.8v-2.4c-1 1.4-2.4 2.6-4.6 2.6-2.9.1-5.7-2.2-5.7-6.1zm10.3 0c0-2.8-2.1-4.6-4.3-4.6-2.3 0-4.2 1.7-4.2 4.6 0 2.8 1.9 4.6 4.2 4.6 2.2 0 4.3-1.9 4.3-4.6zm5.7-10.5h2v2h-2v-2zm.1 4.5h1.8v11.9h-1.8V87.2zm5.9 0h1.8v2.1c.8-1.3 2-2.3 4.1-2.3 2.9 0 4.6 1.9 4.6 4.8v7.4H72v-6.9c0-2.2-1.2-3.6-3.3-3.6-2 0-3.6 1.5-3.6 3.7v6.8h-1.8v-12zm14 14l.8-1.4c1.4 1 2.9 1.5 4.6 1.5 2.6 0 4.3-1.4 4.3-4.2v-1.4c-1 1.4-2.5 2.5-4.7 2.5-2.9 0-5.6-2.1-5.6-5.6 0-3.5 2.8-5.6 5.6-5.6 2.2 0 3.7 1.1 4.6 2.4v-2.1h1.8v9.8c0 1.8-.6 3.2-1.5 4.2-1.1 1.1-2.6 1.6-4.5 1.6s-3.8-.6-5.4-1.7zm9.8-8.6c0-2.5-2.1-4.1-4.4-4.1-2.3 0-4.1 1.6-4.1 4s1.9 4 4.1 4c2.3.1 4.4-1.5 4.4-3.9zm-66 32.6l.9-1.3c1.3 1 2.7 1.5 4.1 1.5 1.4 0 2.5-.7 2.5-1.9s-1.4-1.7-3-2.1c-1.9-.5-3.9-1.2-3.9-3.4 0-2 1.7-3.4 4-3.4 1.4 0 3.1.5 4.3 1.3l-.8 1.3c-1.1-.7-2.4-1.2-3.5-1.2-1.4 0-2.3.7-2.3 1.7 0 1.1 1.5 1.6 3.1 2 1.8.6 3.8 1.3 3.8 3.4 0 2.3-1.9 3.6-4.2 3.6-1.7.3-3.6-.4-5-1.5zm12.9-1.6v-7.2h-1.7v-1.6H34v-3.6h1.8v3.6h3.8v1.6h-3.8v6.9c0 1.4.8 2 2 2 .6 0 1.1-.1 1.7-.4v1.5c-.6.3-1.3.5-2.1.5-2 0-3.4-.9-3.4-3.3zm7.6-2.8c0-3.4 2.6-6.3 6.2-6.3s6.2 2.8 6.2 6.2c0 3.4-2.6 6.2-6.2 6.2-3.6.1-6.2-2.7-6.2-6.1zm10.5 0c0-2.6-1.9-4.7-4.4-4.7-2.6 0-4.3 2.1-4.3 4.6 0 2.6 1.9 4.6 4.4 4.6 2.6.1 4.3-2 4.3-4.5zm5.1-6H59v3.1c.9-2 2.6-3.4 4.9-3.3v1.9h-.1c-2.6 0-4.7 1.9-4.7 5.5v4.7h-1.8v-11.9zm8 6c0-3.5 2.4-6.2 5.7-6.2 3.5 0 5.5 2.8 5.5 6.3v.6H67c.3 2.6 2.1 4 4.2 4 1.6 0 2.8-.7 3.7-1.7l1.1 1c-1.2 1.3-2.6 2.2-4.9 2.2-3.2 0-5.9-2.5-5.9-6.2zm9.5-.7c-.2-2.2-1.4-4-3.8-4-2.1 0-3.6 1.7-3.9 4h7.7zm-58.3 32v2.3h-1.8v-16.8h1.8v7.3c1-1.4 2.4-2.6 4.6-2.6 2.9 0 5.7 2.3 5.7 6.2 0 3.9-2.8 6.2-5.7 6.2-2.2-.1-3.6-1.3-4.6-2.6zm8.5-3.7c0-2.9-1.9-4.6-4.2-4.6-2.2 0-4.3 1.9-4.3 4.6 0 2.8 2.1 4.6 4.3 4.6 2.3 0 4.2-1.7 4.2-4.6zm5-6h1.8v3.1c.9-2 2.6-3.4 4.9-3.3v1.9h-.1c-2.6 0-4.7 1.9-4.7 5.4v4.7H30v-11.8zm7.9 8.5c0-2.6 2.1-3.9 5.1-3.9 1.5 0 2.6.2 3.7.5v-.4c0-2.1-1.3-3.2-3.5-3.2-1.4 0-2.5.4-3.6.9l-.5-1.4c1.3-.6 2.6-1 4.3-1 1.7 0 3 .4 3.8 1.3.8.8 1.2 2 1.2 3.5v7.3h-1.7v-1.8c-.8 1.1-2.2 2-4.3 2-2.3-.1-4.5-1.4-4.5-3.8zm8.7-.9v-1.1c-.9-.3-2-.5-3.5-.5-2.2 0-3.5 1-3.5 2.5s1.4 2.4 3 2.4c2.3-.1 4-1.5 4-3.3zm5.5-7.6h1.8v2.1c.8-1.3 2-2.3 4.1-2.3 2.9 0 4.6 1.9 4.6 4.8v7.4h-1.8v-6.9c0-2.2-1.2-3.6-3.3-3.6-2 0-3.6 1.5-3.6 3.7v6.8H52v-12zm13.5 6c0-3.9 2.8-6.2 5.7-6.2 2.2 0 3.6 1.2 4.6 2.5v-7.2h1.8v16.8h-1.8v-2.4c-1 1.4-2.4 2.6-4.6 2.6-2.9.1-5.7-2.2-5.7-6.1zm10.3 0c0-2.8-2.1-4.6-4.3-4.6-2.3 0-4.2 1.7-4.2 4.6 0 2.8 1.9 4.6 4.2 4.6 2.2 0 4.3-1.9 4.3-4.6zm5.4 3.5h2.1v2.4h-2.1v-2.4z"/></svg>