<svg id="Layer_1" xmlns="http://www.w3.org/2000/svg" viewBox="0 0 103.8 99.9"><style>.st0{fill:#fff}</style><path class="st0" d="M24.8 2.4h-5.4V.7H32v1.7h-5.4v14.4h-1.8V2.4zm10-2.4h1.8v7c.8-1.3 2-2.3 4.1-2.3 2.9 0 4.6 1.9 4.6 4.8v7.4h-1.8V9.8c0-2.2-1.2-3.6-3.3-3.6-2 0-3.6 1.5-3.6 3.7v6.8h-1.8V0zM48 13.3c0-2.6 2.1-3.9 5.1-3.9 1.5 0 2.6.2 3.7.5v-.4c0-2.1-1.3-3.2-3.5-3.2-1.4 0-2.5.4-3.6.9l-.5-1.4c1.3-.6 2.6-1 4.3-1 1.7 0 3 .4 3.8 1.3.8.8 1.2 2 1.2 3.5v7.3h-1.7V15c-.8 1.1-2.2 2-4.3 2-2.2 0-4.5-1.2-4.5-3.7zm8.8-.9v-1.1c-.9-.3-2-.5-3.5-.5-2.2 0-3.5 1-3.5 2.5s1.4 2.4 3 2.4c2.2-.1 4-1.4 4-3.3zm6 1.2V6.5h-1.7V4.9h1.7V1.3h1.8v3.6h3.8v1.6h-3.8v6.9c0 1.4.8 2 2 2 .6 0 1.1-.1 1.7-.4v1.5c-.7.3-1.3.5-2.2.5-1.9 0-3.3-.9-3.3-3.4zm7.9-8.5c1.1-.4 1.6-1 1.5-2h-.8V.7h2.1v2.1c0 1.9-.8 2.8-2.6 3.2l-.2-.9zm4.8 10.2l.9-1.3c1.3 1 2.7 1.5 4.1 1.5 1.4 0 2.5-.7 2.5-1.9s-1.4-1.7-3-2.1c-1.9-.5-3.9-1.2-3.9-3.4 0-2 1.7-3.4 4-3.4 1.4 0 3.1.5 4.3 1.3l-.8 1.3c-1.1-.7-2.4-1.1-3.5-1.1-1.4 0-2.3.7-2.3 1.7 0 1.1 1.5 1.6 3.1 2 1.8.6 3.8 1.3 3.8 3.4 0 2.3-1.9 3.6-4.2 3.6-1.7.1-3.6-.6-5-1.6zM5.2 42.9l.9-1.3c1.3 1 2.7 1.5 4.1 1.5 1.4 0 2.5-.7 2.5-1.9s-1.4-1.7-3-2.1c-1.9-.5-3.9-1.2-3.9-3.4 0-2 1.7-3.4 4-3.4 1.4 0 3.1.5 4.3 1.3l-.8 1.3c-1.1-.7-2.4-1.1-3.5-1.1-1.4 0-2.3.7-2.3 1.7 0 1.1 1.5 1.6 3.1 2 1.8.6 3.8 1.3 3.8 3.4 0 2.3-1.9 3.6-4.2 3.6-1.7.1-3.6-.6-5-1.6zm12.9-1.7V34h-1.7v-1.6h1.7v-3.6h1.8v3.6h3.8V34h-3.8v7c0 1.4.8 2 2 2 .6 0 1.1-.1 1.7-.4v1.5c-.6.3-1.3.5-2.1.5-2 0-3.4-.9-3.4-3.4zm8.6-8.7h1.8v3.1c.9-2 2.6-3.4 4.9-3.3v1.9h-.1c-2.6 0-4.7 1.9-4.7 5.4v4.7h-1.8V32.5zm8.1 6c0-3.5 2.4-6.2 5.7-6.2 3.5 0 5.5 2.8 5.5 6.3v.6h-9.4c.3 2.6 2.1 4 4.2 4 1.6 0 2.8-.7 3.7-1.7l1.1 1c-1.2 1.3-2.6 2.2-4.9 2.2-3.2 0-5.9-2.5-5.9-6.2zm9.5-.7c-.2-2.2-1.4-4-3.8-4-2.1 0-3.6 1.7-3.9 4h7.7zm4.9-5.3H51v2.1c.8-1.3 2-2.3 4.1-2.3 2.9 0 4.6 1.9 4.6 4.8v7.4h-1.8v-6.9c0-2.2-1.2-3.6-3.3-3.6-2 0-3.6 1.5-3.6 3.7v6.8h-1.8v-12zm14 14l.8-1.4c1.4 1 2.9 1.5 4.6 1.5 2.6 0 4.3-1.4 4.3-4.2V41c-1 1.4-2.5 2.5-4.7 2.5-2.9 0-5.6-2.1-5.6-5.6 0-3.5 2.8-5.6 5.6-5.6 2.2 0 3.7 1.1 4.6 2.4v-2.1h1.8v9.8c0 1.8-.6 3.2-1.5 4.2-1.1 1.1-2.6 1.6-4.5 1.6-2-.1-3.8-.6-5.4-1.7zm9.7-8.6c0-2.5-2.1-4.1-4.4-4.1-2.3 0-4.1 1.6-4.1 4s1.9 4 4.1 4c2.3.1 4.4-1.5 4.4-3.9zm6.3 3.3V34h-1.7v-1.6h1.7v-3.6H81v3.6h3.8V34H81v7c0 1.4.8 2 2 2 .6 0 1.1-.1 1.7-.4v1.5c-.6.3-1.3.5-2.1.5-1.9 0-3.4-.9-3.4-3.4zm8.7-13.6h1.8v7c.8-1.3 2-2.3 4.1-2.3 2.9 0 4.6 1.9 4.6 4.8v7.4h-1.8v-6.9c0-2.2-1.2-3.6-3.3-3.6-2 0-3.6 1.5-3.6 3.7v6.8h-1.8V27.6zM18.3 60.1h1.9l-5 12.3c-1 2.5-2.2 3.4-4 3.4-1 0-1.7-.2-2.5-.6l.6-1.4c.6.3 1.1.4 1.9.4 1.1 0 1.7-.6 2.4-2.2L8.2 60.1h2l4.3 9.9 3.8-9.9zm3.3 6c0-3.4 2.6-6.3 6.2-6.3S34 62.6 34 66c0 3.4-2.6 6.2-6.2 6.2-3.6.1-6.2-2.7-6.2-6.1zm10.6 0c0-2.6-1.9-4.7-4.4-4.7-2.6 0-4.3 2.1-4.3 4.6 0 2.6 1.9 4.6 4.4 4.6 2.5.1 4.3-2 4.3-4.5zm4.8 1.4v-7.4h1.8V67c0 2.2 1.2 3.6 3.3 3.6 2 0 3.6-1.5 3.6-3.7v-6.8h1.7V72h-1.7v-2.1c-.8 1.3-2 2.3-4.1 2.3-2.9 0-4.6-1.9-4.6-4.7zm20.5-1.4c0-3.4 2.6-6.3 6.1-6.3 2.3 0 3.7.9 4.8 2.1l-1.2 1.2c-.9-1-2-1.8-3.6-1.8-2.4 0-4.3 2-4.3 4.6 0 2.6 1.9 4.6 4.4 4.6 1.5 0 2.7-.8 3.6-1.8l1.1 1.1c-1.2 1.3-2.6 2.3-4.9 2.3-3.4.2-6-2.7-6-6zm13 2.4c0-2.6 2.1-3.9 5.1-3.9 1.5 0 2.6.2 3.7.5v-.4c0-2.1-1.3-3.2-3.5-3.2-1.4 0-2.5.4-3.6.9l-.5-1.4c1.3-.6 2.6-1 4.3-1 1.7 0 3 .4 3.8 1.3.8.8 1.2 2 1.2 3.5V72h-1.7v-1.8c-.8 1.1-2.2 2-4.3 2-2.3 0-4.5-1.2-4.5-3.7zm8.7-.9v-1.1c-.9-.3-2-.5-3.5-.5-2.2 0-3.5 1-3.5 2.5s1.4 2.4 3 2.4c2.2-.1 4-1.4 4-3.3zm5.5-7.5h1.8v2.1c.8-1.3 2-2.3 4.1-2.3 2.9 0 4.6 1.9 4.6 4.8V72h-1.8v-7c0-2.2-1.2-3.6-3.3-3.6-2 0-3.6 1.5-3.6 3.7V72h-1.8V60.1zM0 93.7c0-3.4 2.6-6.3 6.1-6.3 2.3 0 3.7.9 4.8 2.1l-1.2 1.2c-.9-1-2-1.8-3.6-1.8-2.4 0-4.3 2-4.3 4.6 0 2.6 1.9 4.6 4.4 4.6 1.5 0 2.7-.8 3.6-1.8l1.1 1.1c-1.2 1.3-2.6 2.3-4.9 2.3-3.4.2-6-2.7-6-6zm12.8 0c0-3.4 2.6-6.3 6.2-6.3s6.2 2.8 6.2 6.2c0 3.4-2.6 6.2-6.2 6.2-3.6.1-6.2-2.7-6.2-6.1zm10.6 0c0-2.6-1.9-4.7-4.4-4.7-2.6 0-4.3 2.1-4.3 4.6 0 2.6 1.9 4.6 4.4 4.6 2.5.1 4.3-2 4.3-4.5zm4.8 1.4v-7.4H30v6.9c0 2.2 1.2 3.6 3.3 3.6 2 0 3.6-1.5 3.6-3.7v-6.8h1.7v11.9h-1.7v-2.1c-.8 1.3-2 2.3-4.1 2.3-2.9 0-4.6-1.9-4.6-4.7zm14.3-7.4h1.8v2.1c.8-1.3 2-2.3 4.1-2.3 2.9 0 4.6 1.9 4.6 4.8v7.4h-1.8v-6.9c0-2.2-1.2-3.6-3.3-3.6-2 0-3.6 1.5-3.6 3.7v6.8h-1.8v-12zm14.8 8.7v-7.2h-1.7v-1.6h1.7V84h1.8v3.6h3.8v1.6h-3.8v6.9c0 1.4.8 2 2 2 .6 0 1.1-.1 1.7-.4v1.5c-.6.3-1.3.5-2.1.5-1.9.1-3.4-.8-3.4-3.3zm14.9-2.7c0-3.4 2.6-6.3 6.2-6.3s6.2 2.8 6.2 6.2c0 3.4-2.6 6.2-6.2 6.2-3.6.1-6.2-2.7-6.2-6.1zm10.6 0c0-2.6-1.9-4.7-4.4-4.7-2.6 0-4.3 2.1-4.3 4.6 0 2.6 1.9 4.6 4.4 4.6 2.5.1 4.3-2 4.3-4.5zm5-6h1.8v2.1c.8-1.3 2-2.3 4.1-2.3 2.9 0 4.6 1.9 4.6 4.8v7.4h-1.8v-6.9c0-2.2-1.2-3.6-3.3-3.6-2 0-3.6 1.5-3.6 3.7v6.8h-1.8v-12zm13.9 9.5h2.1v2.4h-2.1v-2.4z"/></svg>