<?xml version="1.0" encoding="utf-8"?>
<!-- Generator: Adobe Illustrator 18.1.1, SVG Export Plug-In . SVG Version: 6.00 Build 0)  -->
<!DOCTYPE svg PUBLIC "-//W3C//DTD SVG 1.1//EN" "http://www.w3.org/Graphics/SVG/1.1/DTD/svg11.dtd">
<svg version="1.1" id="Layer_1" xmlns="http://www.w3.org/2000/svg" xmlns:xlink="http://www.w3.org/1999/xlink" x="0px" y="0px"
	 viewBox="42.2 306.3 686.7 99" enable-background="new 42.2 306.3 686.7 99" xml:space="preserve">
<g>
	<path fill="#FFFFFF" d="M66.1,347l-16-24.8V347h-7.9v-40.4h7l16,24.7v-24.7h7.9V347H66.1z"/>
	<path fill="#FFFFFF" d="M105.7,343.1c-2.7,2.7-6.1,4.3-10.8,4.3c-4.7,0-8.1-1.5-10.8-4.3c-4-4-4.1-8.6-4.1-16.3s0.1-12.3,4.1-16.3
		c2.7-2.7,6.2-4.3,10.8-4.3c4.7,0,8.1,1.5,10.8,4.3c4,4,4.1,8.6,4.1,16.3S109.8,339.1,105.7,343.1z M100,315.4
		c-1.1-1.3-2.9-2.2-5.1-2.2c-2.2,0-3.9,0.9-5.1,2.2c-1.5,1.7-1.9,3.6-1.9,11.3s0.5,9.6,1.9,11.3c1.2,1.3,3,2.2,5.1,2.2
		c2.2,0,3.9-0.9,5.1-2.2c1.5-1.7,2-3.6,2-11.3S101.5,317.2,100,315.4z"/>
	<path fill="#FFFFFF" d="M152.7,347l-16-24.8V347h-7.9v-40.4h7l16,24.7v-24.7h7.9V347H152.7z"/>
	<path fill="#FFFFFF" d="M168,347v-40.4h26.6v7h-18.7v9.5h15.9v7h-15.9v9.8h18.7v7H168z"/>
	<path fill="#FFFFFF" d="M201.2,347v-40.4h26.6v7h-18.7v9.5h15.9v7h-15.9v9.8h18.7v7H201.2z"/>
	<path fill="#FFFFFF" d="M261.2,341.1c-2.9,4-6.7,5.9-12.2,5.9h-14.6v-40.4H249c5.5,0,9.3,1.9,12.2,5.9c2.5,3.5,2.6,7.6,2.6,14.3
		S263.7,337.6,261.2,341.1z M254.2,316.1c-1.3-1.6-3.2-2.5-5.9-2.5h-6V340h6c2.7,0,4.6-0.9,5.9-2.5c1.5-1.8,1.6-4.3,1.6-10.7
		C255.9,320.4,255.7,317.9,254.2,316.1z"/>
	<path fill="#FFFFFF" d="M298.2,313.6V347h-7.9v-33.4h-10.6v-7h29v7H298.2z"/>
	<path fill="#FFFFFF" d="M337.2,343.1c-2.7,2.7-6.1,4.3-10.8,4.3s-8.1-1.5-10.8-4.3c-4-4-4.1-8.6-4.1-16.3s0.1-12.3,4.1-16.3
		c2.7-2.7,6.2-4.3,10.8-4.3s8.1,1.5,10.8,4.3c4,4,4.1,8.6,4.1,16.3S341.2,339.1,337.2,343.1z M331.5,315.4c-1.1-1.3-2.9-2.2-5.1-2.2
		s-3.9,0.9-5.1,2.2c-1.5,1.7-1.9,3.6-1.9,11.3s0.5,9.6,1.9,11.3c1.2,1.3,3,2.2,5.1,2.2s3.9-0.9,5.1-2.2c1.5-1.7,2-3.6,2-11.3
		S333,317.2,331.5,315.4z"/>
	<path fill="#FFFFFF" d="M394.8,347h-6.6l-7.4-24.5l-7.4,24.5h-6.6l-10.8-40.4h8.2l6.2,25.5l7.4-25.5h5.9l7.4,25.5l6.3-25.5h8.2
		L394.8,347z"/>
	<path fill="#FFFFFF" d="M433.3,343.1c-2.7,2.7-6.1,4.3-10.8,4.3s-8.1-1.5-10.8-4.3c-4-4-4.1-8.6-4.1-16.3s0.1-12.3,4.1-16.3
		c2.7-2.7,6.2-4.3,10.8-4.3s8.1,1.5,10.8,4.3c4,4,4.1,8.6,4.1,16.3S437.3,339.1,433.3,343.1z M427.6,315.4c-1.1-1.3-2.9-2.2-5.1-2.2
		s-3.9,0.9-5.1,2.2c-1.5,1.7-1.9,3.6-1.9,11.3s0.5,9.6,1.9,11.3c1.2,1.3,3,2.2,5.1,2.2s3.9-0.9,5.1-2.2c1.5-1.7,2-3.6,2-11.3
		S429,317.2,427.6,315.4z"/>
	<path fill="#FFFFFF" d="M465.8,347l-7.9-16.1h-5.7V347h-7.9v-40.4h15.8c8.2,0,13.1,5.6,13.1,12.4c0,5.7-3.5,9.2-7.4,10.6l9,17.4
		H465.8z M459.7,313.6h-7.4v10.7h7.4c3.5,0,5.7-2.2,5.7-5.3S463.1,313.6,459.7,313.6z"/>
	<path fill="#FFFFFF" d="M501.8,347l-7.9-16.1h-5.7V347h-7.9v-40.4h15.8c8.2,0,13.1,5.6,13.1,12.4c0,5.7-3.5,9.2-7.4,10.6l9,17.4
		H501.8z M495.7,313.6h-7.4v10.7h7.4c3.5,0,5.7-2.2,5.7-5.3S499.1,313.6,495.7,313.6z"/>
	<path fill="#FFFFFF" d="M531.5,330.4V347h-7.8v-16.6l-12.1-23.8h8.6l7.5,16.3l7.4-16.3h8.6L531.5,330.4z"/>
	<path fill="#FFFFFF" d="M582.4,347l-2.4-7.2h-14.4l-2.4,7.2H555l14.7-40.4h6.2l14.8,40.4H582.4z M573,318.5l-5.1,14.7h10L573,318.5
		z"/>
	<path fill="#FFFFFF" d="M611.4,347h-16.9v-40.4h16.2c7.9,0,12.5,4.4,12.5,11.3c0,4.5-3,7.4-5,8.3c2.4,1.1,5.6,3.7,5.6,9.1
		C623.7,342.9,618.6,347,611.4,347z M610.1,313.6h-7.7v9.3h7.7c3.3,0,5.2-1.9,5.2-4.7C615.3,315.5,613.4,313.6,610.1,313.6z
		 M610.6,330h-8.2v9.9h8.2c3.6,0,5.3-2.3,5.3-5S614.2,330,610.6,330z"/>
	<path fill="#FFFFFF" d="M655,343.1c-2.7,2.7-6.1,4.3-10.8,4.3s-8.1-1.5-10.8-4.3c-4-4-4.1-8.6-4.1-16.3s0.1-12.3,4.1-16.3
		c2.7-2.7,6.2-4.3,10.8-4.3s8.1,1.5,10.8,4.3c4,4,4.1,8.6,4.1,16.3S659,339.1,655,343.1z M649.3,315.4c-1.1-1.3-2.9-2.2-5.1-2.2
		s-3.9,0.9-5.1,2.2c-1.5,1.7-1.9,3.6-1.9,11.3s0.5,9.6,1.9,11.3c1.2,1.3,3,2.2,5.1,2.2s3.9-0.9,5.1-2.2c1.5-1.7,2-3.6,2-11.3
		S650.8,317.2,649.3,315.4z"/>
	<path fill="#FFFFFF" d="M680.3,347.3c-8.3,0-14.9-5.6-14.9-14.2v-26.6h7.9v26.3c0,4.7,2.7,7.4,7,7.4c4.3,0,7-2.8,7-7.4v-26.3h7.8
		v26.6C695.2,341.7,688.6,347.3,680.3,347.3z"/>
	<path fill="#FFFFFF" d="M718.3,313.6V347h-7.9v-33.4h-10.6v-7h29v7H718.3z"/>
	<path fill="#FFFFFF" d="M93.4,404.9v-40.4h7.9v33.4h18.3v7H93.4z"/>
	<path fill="#FFFFFF" d="M124.8,404.9v-40.4h7.9v40.4H124.8z"/>
	<path fill="#FFFFFF" d="M169.7,404.9v-23.5l-7.7,15.3h-5.3l-7.8-15.3v23.5H141v-40.4h7.8l10.6,21.8l10.5-21.8h7.8v40.4H169.7z"/>
	<path fill="#FFFFFF" d="M185.9,404.9v-40.4h7.9v40.4H185.9z"/>
	<path fill="#FFFFFF" d="M217.5,371.6v33.4h-7.9v-33.4h-10.6v-7h29v7H217.5z"/>
	<path fill="#FFFFFF" d="M233.4,404.9v-40.4H260v7h-18.7v9.5h15.9v7h-15.9v9.8H260v7H233.4z"/>
	<path fill="#FFFFFF" d="M293.3,399c-2.9,4-6.7,5.9-12.2,5.9h-14.6v-40.4h14.6c5.5,0,9.3,1.9,12.2,5.9c2.5,3.5,2.6,7.6,2.6,14.3
		S295.8,395.6,293.3,399z M286.4,374.1c-1.3-1.6-3.2-2.5-5.9-2.5h-6v26.3h6c2.7,0,4.6-0.9,5.9-2.5c1.5-1.8,1.6-4.3,1.6-10.7
		S287.8,375.8,286.4,374.1z"/>
	<path fill="#FFFFFF" d="M339.2,401c-2.7,2.7-6.1,4.3-10.8,4.3c-4.7,0-8.1-1.5-10.8-4.3c-4-4-4.1-8.6-4.1-16.3s0.1-12.3,4.1-16.3
		c2.7-2.7,6.2-4.3,10.8-4.3c4.7,0,8.1,1.5,10.8,4.3c4,4,4.1,8.6,4.1,16.3S343.2,397,339.2,401z M333.5,373.4
		c-1.1-1.3-2.9-2.2-5.1-2.2s-3.9,0.9-5.1,2.2c-1.5,1.7-1.9,3.6-1.9,11.3s0.5,9.6,1.9,11.3c1.2,1.3,3,2.2,5.1,2.2s3.9-0.9,5.1-2.2
		c1.5-1.7,2-3.6,2-11.3S334.9,375.1,333.5,373.4z"/>
	<path fill="#FFFFFF" d="M371.7,404.9l-7.9-16.1h-5.7v16.1h-7.9v-40.4h15.8c8.2,0,13.1,5.6,13.1,12.4c0,5.7-3.5,9.2-7.4,10.6l9,17.4
		H371.7z M365.6,371.6h-7.4v10.7h7.4c3.5,0,5.7-2.2,5.7-5.3S369,371.6,365.6,371.6z"/>
	<path fill="#FFFFFF" d="M422.2,404.9l-16-24.8v24.8h-7.9v-40.4h7l16,24.7v-24.7h7.9v40.4H422.2z"/>
	<path fill="#FFFFFF" d="M461.8,401c-2.7,2.7-6.1,4.3-10.8,4.3s-8.1-1.5-10.8-4.3c-4-4-4.1-8.6-4.1-16.3s0.1-12.3,4.1-16.3
		c2.7-2.7,6.2-4.3,10.8-4.3s8.1,1.5,10.8,4.3c4,4,4.1,8.6,4.1,16.3S465.9,397,461.8,401z M456.1,373.4c-1.1-1.3-2.9-2.2-5.1-2.2
		s-3.9,0.9-5.1,2.2c-1.5,1.7-1.9,3.6-1.9,11.3s0.5,9.6,1.9,11.3c1.2,1.3,3,2.2,5.1,2.2s3.9-0.9,5.1-2.2c1.5-1.7,2-3.6,2-11.3
		S457.6,375.1,456.1,373.4z"/>
	<path fill="#FFFFFF" d="M498.5,405.3c-4.7,0-8.1-1.5-10.8-4.3c-4-4-4.1-8.6-4.1-16.3s0.1-12.3,4.1-16.3c2.8-2.7,6.2-4.3,10.8-4.3
		c7.5,0,13.3,4.3,14.8,12.8h-8.1c-0.8-3.3-2.8-5.7-6.8-5.7c-2.2,0-3.9,0.8-5.1,2.1c-1.5,1.7-2,3.7-2,11.4s0.5,9.7,2,11.4
		c1.1,1.3,2.9,2.1,5.1,2.1c3.9,0,6-2.4,6.8-5.7h8C511.8,400.9,506,405.3,498.5,405.3z"/>
	<path fill="#FFFFFF" d="M540.4,404.9l-7.9-16.1h-5.7v16.1H519v-40.4h15.8c8.2,0,13.1,5.6,13.1,12.4c0,5.7-3.5,9.2-7.4,10.6l9,17.4
		H540.4z M534.3,371.6h-7.4v10.7h7.4c3.5,0,5.7-2.2,5.7-5.3S537.8,371.6,534.3,371.6z"/>
	<path fill="#FFFFFF" d="M555,404.9v-40.4h26.6v7h-18.7v9.5h15.9v7h-15.9v9.8h18.7v7H555z"/>
	<path fill="#FFFFFF" d="M614.9,399c-2.9,4-6.7,5.9-12.2,5.9h-14.6v-40.4h14.6c5.5,0,9.3,1.9,12.2,5.9c2.5,3.5,2.6,7.6,2.6,14.3
		S617.4,395.6,614.9,399z M608,374.1c-1.3-1.6-3.2-2.5-5.9-2.5h-6v26.3h6c2.7,0,4.6-0.9,5.9-2.5c1.5-1.8,1.6-4.3,1.6-10.7
		S609.4,375.8,608,374.1z"/>
	<path fill="#FFFFFF" d="M624.4,404.9v-40.4h7.9v40.4H624.4z"/>
	<path fill="#FFFFFF" d="M656,371.6v33.4h-7.9v-33.4h-10.6v-7h29v7H656z"/>
	<path fill="#FFFFFF" d="M667,404.9v-8.4h8.5v8.4H667z"/>
</g>
</svg>
