<?xml version="1.0" encoding="utf-8"?>
<!-- Generator: Adobe Illustrator 18.1.1, SVG Export Plug-In . SVG Version: 6.00 Build 0)  -->
<!DOCTYPE svg PUBLIC "-//W3C//DTD SVG 1.1//EN" "http://www.w3.org/Graphics/SVG/1.1/DTD/svg11.dtd">
<svg version="1.1" id="Layer_1" xmlns="http://www.w3.org/2000/svg" xmlns:xlink="http://www.w3.org/1999/xlink" x="0px" y="0px"
	 viewBox="-132.7 48.3 535.3 156.8" enable-background="new -132.7 48.3 535.3 156.8" xml:space="preserve">
<g>
	<path fill="#FFFFFF" d="M-119.1,86.3c-5.7,0-10-1.2-13.7-4.9l4.7-4.7c2.4,2.4,5.6,3.2,9,3.2c4.4,0,6.7-1.7,6.7-4.7
		c0-1.3-0.4-2.3-1.2-3.1c-0.7-0.7-1.5-1-3.4-1.3l-4.5-0.7c-3.3-0.5-5.6-1.5-7.2-3.1c-1.8-1.7-2.7-4.2-2.7-7.4
		c0-6.7,4.9-11.3,13-11.3c5.1,0,8.9,1.3,12.1,4.4l-4.6,4.6c-2.3-2.3-5.2-2.6-7.7-2.6c-3.9,0-5.7,2.2-5.7,4.7c0,1,0.3,1.9,1,2.7
		c0.7,0.7,1.8,1.2,3.4,1.4l4.5,0.7c3.4,0.5,5.5,1.4,7.1,2.9c2,1.8,2.9,4.5,2.9,7.9C-105.2,82.2-111.2,86.3-119.1,86.3z"/>
	<path fill="#FFFFFF" d="M-78.1,86l-2.2-6.6h-13.3l-2.3,6.6h-7.6l13.6-37.4h5.7L-70.5,86H-78.1z M-86.8,59.6l-4.7,13.6h9.3
		L-86.8,59.6z"/>
	<path fill="#FFFFFF" d="M-55.4,86h-5.5l-12.3-37.4h7.6l7.5,24.4l7.5-24.4h7.6L-55.4,86z"/>
	<path fill="#FFFFFF" d="M-39.6,86V48.6h24.6v6.5h-17.3v8.8h14.8v6.5h-14.8v9.1h17.3V86H-39.6z"/>
	<path fill="#FFFFFF" d="M2.3,86V48.6h7.3V86H2.3z"/>
	<path fill="#FFFFFF" d="M31.5,55.1V86h-7.3V55.1h-9.8v-6.5h26.8v6.5H31.5z"/>
	<path fill="#FFFFFF" d="M64.6,55.1v9.2h14.8v6.5H64.6V86h-7.3V48.6h24.6v6.5H64.6z"/>
	<path fill="#FFFFFF" d="M108.7,82.4c-2.5,2.5-5.7,3.9-10,3.9s-7.5-1.4-10-3.9c-3.7-3.7-3.8-7.9-3.8-15.1S85,56,88.7,52.2
		c2.5-2.5,5.7-3.9,10-3.9s7.5,1.4,10,3.9c3.7,3.7,3.8,7.9,3.8,15.1S112.4,78.6,108.7,82.4z M103.4,56.8c-1-1.2-2.7-2-4.7-2
		s-3.6,0.8-4.7,2c-1.4,1.6-1.8,3.4-1.8,10.5s0.4,8.9,1.8,10.4c1.1,1.2,2.7,2,4.7,2s3.6-0.8,4.7-2c1.4-1.6,1.8-3.3,1.8-10.4
		S104.8,58.4,103.4,56.8z"/>
	<path fill="#FFFFFF" d="M138.8,86l-7.3-14.9h-5.3V86h-7.3V48.6h14.6c7.6,0,12.1,5.2,12.1,11.4c0,5.3-3.2,8.5-6.8,9.8l8.3,16.1
		H138.8z M133.1,55.1h-6.9V65h6.9c3.2,0,5.3-2,5.3-4.9C138.4,57.2,136.3,55.1,133.1,55.1z"/>
	<path fill="#FFFFFF" d="M175.9,86.3c-4.3,0-7.5-1.4-10-3.9c-3.7-3.7-3.8-7.9-3.8-15.1s0.1-11.3,3.8-15.1c2.6-2.5,5.7-3.9,10-3.9
		c7,0,12.3,4,13.7,11.8h-7.5c-0.7-3-2.6-5.3-6.2-5.3c-2,0-3.6,0.7-4.7,1.9c-1.4,1.6-1.8,3.4-1.8,10.6s0.5,9,1.8,10.6
		c1.1,1.2,2.7,1.9,4.7,1.9c3.6,0,5.6-2.3,6.3-5.3h7.4C188.2,82.3,182.8,86.3,175.9,86.3z"/>
	<path fill="#FFFFFF" d="M214.8,86V70.4h-12.7V86h-7.3V48.6h7.3v15.3h12.7V48.6h7.3V86H214.8z"/>
	<path fill="#FFFFFF" d="M252.3,82.4c-2.5,2.5-5.7,3.9-10,3.9c-4.3,0-7.5-1.4-10-3.9c-3.7-3.7-3.8-7.9-3.8-15.1s0.1-11.3,3.8-15.1
		c2.5-2.5,5.7-3.9,10-3.9c4.3,0,7.5,1.4,10,3.9c3.7,3.7,3.8,7.9,3.8,15.1S256,78.6,252.3,82.4z M247,56.8c-1.1-1.2-2.7-2-4.7-2
		c-2,0-3.6,0.8-4.7,2c-1.4,1.6-1.8,3.4-1.8,10.5s0.4,8.9,1.8,10.4c1.1,1.2,2.7,2,4.7,2c2,0,3.6-0.8,4.7-2c1.4-1.6,1.8-3.3,1.8-10.4
		S248.4,58.4,247,56.8z"/>
	<path fill="#FFFFFF" d="M284.5,82.4c-2.5,2.5-5.7,3.9-10,3.9c-4.3,0-7.5-1.4-10-3.9c-3.7-3.7-3.8-7.9-3.8-15.1s0.1-11.3,3.8-15.1
		c2.5-2.5,5.7-3.9,10-3.9c4.3,0,7.5,1.4,10,3.9c3.7,3.7,3.8,7.9,3.8,15.1S288.3,78.6,284.5,82.4z M279.2,56.8c-1.1-1.2-2.7-2-4.7-2
		c-2,0-3.6,0.8-4.7,2c-1.4,1.6-1.8,3.4-1.8,10.5s0.4,8.9,1.8,10.4c1.1,1.2,2.7,2,4.7,2c2,0,3.6-0.8,4.7-2c1.4-1.6,1.8-3.3,1.8-10.4
		S280.6,58.4,279.2,56.8z"/>
	<path fill="#FFFFFF" d="M305.1,86.3c-5.7,0-10-1.2-13.7-4.9l4.7-4.7c2.4,2.4,5.6,3.2,9,3.2c4.4,0,6.7-1.7,6.7-4.7
		c0-1.3-0.4-2.3-1.2-3.1c-0.7-0.7-1.5-1-3.4-1.3l-4.5-0.7c-3.3-0.5-5.6-1.5-7.2-3.1c-1.8-1.7-2.7-4.2-2.7-7.4
		c0-6.7,4.9-11.3,13-11.3c5.1,0,8.9,1.3,12.1,4.4l-4.6,4.6c-2.3-2.3-5.2-2.6-7.7-2.6c-3.9,0-5.7,2.2-5.7,4.7c0,1,0.3,1.9,1.1,2.7
		c0.7,0.7,1.8,1.2,3.4,1.4l4.5,0.7c3.4,0.5,5.5,1.4,7.1,2.9c2,1.8,2.9,4.5,2.9,7.9C318.9,82.2,312.9,86.3,305.1,86.3z"/>
	<path fill="#FFFFFF" d="M324.7,86V48.6h7.3V86H324.7z"/>
	<path fill="#FFFFFF" d="M361.8,86L347,63.1V86h-7.3V48.6h6.5L361,71.5V48.6h7.3V86H361.8z"/>
	<path fill="#FFFFFF" d="M399,82.1c-3.1,3.3-6.6,4.3-10.6,4.3c-4.3,0-7.4-1.4-10-3.9c-3.7-3.7-3.8-7.9-3.8-15.1s0.1-11.3,3.8-15.1
		c2.6-2.5,5.7-3.9,10-3.9c8.7,0,13.1,5.7,14.1,12h-7.4c-0.8-3.6-3-5.5-6.7-5.5c-2,0-3.6,0.8-4.7,2c-1.4,1.6-1.8,3.4-1.8,10.5
		s0.4,9,1.8,10.6c1.1,1.2,2.7,1.9,4.7,1.9c2.3,0,4-0.8,5.2-2.1c1.2-1.4,1.7-3,1.7-5v-1.4h-6.9v-6.1h14.1v5.5
		C402.6,76.1,401.8,79.2,399,82.1z"/>
	<path fill="#FFFFFF" d="M25.8,110.4v9.2h14.8v6.5H25.8v15.2h-7.3v-37.4h24.6v6.5H25.8z"/>
	<path fill="#FFFFFF" d="M68.3,141.2L61,126.3h-5.3v14.9h-7.3v-37.4h14.6c7.6,0,12.1,5.2,12.1,11.4c0,5.2-3.2,8.5-6.8,9.8l8.3,16.1
		H68.3z M62.6,110.4h-6.9v9.9h6.9c3.2,0,5.3-2,5.3-4.9S65.8,110.4,62.6,110.4z"/>
	<path fill="#FFFFFF" d="M103.7,137.6c-2.5,2.5-5.7,3.9-10,3.9c-4.3,0-7.5-1.4-10-3.9c-3.7-3.7-3.8-7.9-3.8-15.1
		c0-7.1,0.1-11.3,3.8-15.1c2.5-2.5,5.7-3.9,10-3.9c4.3,0,7.5,1.4,10,3.9c3.7,3.7,3.8,7.9,3.8,15.1
		C107.5,129.7,107.4,133.9,103.7,137.6z M98.4,112c-1-1.2-2.7-2-4.7-2s-3.6,0.8-4.7,2c-1.4,1.6-1.8,3.4-1.8,10.5
		c0,7.1,0.4,8.9,1.8,10.4c1.1,1.2,2.7,2,4.7,2s3.6-0.8,4.7-2c1.4-1.6,1.8-3.3,1.8-10.4C100.2,115.4,99.8,113.6,98.4,112z"/>
	<path fill="#FFFFFF" d="M140.5,141.2v-21.8l-7.1,14.2h-4.9l-7.2-14.2v21.8h-7.3v-37.4h7.2l9.8,20.2l9.7-20.2h7.2v37.4H140.5z"/>
	<path fill="#FFFFFF" d="M180.9,110.4v30.9h-7.3v-30.9h-9.8v-6.5h26.8v6.5H180.9z"/>
	<path fill="#FFFFFF" d="M215.5,141.2v-15.6h-12.7v15.6h-7.3v-37.4h7.3v15.3h12.7v-15.3h7.3v37.4H215.5z"/>
	<path fill="#FFFFFF" d="M230.5,141.2v-37.4h24.6v6.5h-17.3v8.8h14.8v6.5h-14.8v9.1h17.3v6.5H230.5z"/>
	<path fill="#FFFFFF" d="M-55.9,196.5l-2.2-6.6h-13.3l-2.3,6.6h-7.6l13.6-37.4h5.7l13.7,37.4H-55.9z M-64.6,170.1l-4.7,13.6h9.3
		L-64.6,170.1z"/>
	<path fill="#FFFFFF" d="M-20,191c-2.7,3.7-6.2,5.5-11.3,5.5h-13.5v-37.4h13.5c5.1,0,8.6,1.7,11.3,5.5c2.3,3.2,2.4,7,2.4,13.2
		C-17.6,184-17.6,187.8-20,191z M-26.4,167.9c-1.2-1.5-3-2.3-5.5-2.3h-5.6v24.4h5.6c2.5,0,4.3-0.8,5.5-2.3c1.4-1.6,1.5-4,1.5-9.9
		C-24.9,171.9-25,169.5-26.4,167.9z"/>
	<path fill="#FFFFFF" d="M1.9,196.5h-5.5l-12.3-37.4h7.6l7.5,24.4l7.5-24.4h7.6L1.9,196.5z"/>
	<path fill="#FFFFFF" d="M17.7,196.5v-37.4h24.6v6.5H25v8.8h14.8v6.5H25v9.1h17.3v6.5H17.7z"/>
	<path fill="#FFFFFF" d="M70.6,196.5l-14.8-22.9v22.9h-7.3v-37.4H55L69.8,182v-22.9h7.3v37.4H70.6z"/>
	<path fill="#FFFFFF" d="M99,165.6v30.9h-7.3v-30.9h-9.8v-6.5h26.8v6.5H99z"/>
	<path fill="#FFFFFF" d="M126.8,196.8c-7.7,0-13.8-5.2-13.8-13.1v-24.6h7.3v24.3c0,4.3,2.5,6.9,6.5,6.9c3.9,0,6.5-2.6,6.5-6.9v-24.3
		h7.2v24.6C140.6,191.6,134.5,196.8,126.8,196.8z"/>
	<path fill="#FFFFFF" d="M167.5,196.5l-7.3-14.9H155v14.9h-7.3v-37.4h14.6c7.6,0,12.1,5.2,12.1,11.4c0,5.2-3.2,8.5-6.8,9.8l8.3,16.1
		H167.5z M161.9,165.6H155v9.9h6.9c3.2,0,5.3-2,5.3-4.9S165.1,165.6,161.9,165.6z"/>
	<path fill="#FFFFFF" d="M203,192.8c-2.5,2.5-5.7,3.9-10,3.9c-4.3,0-7.5-1.4-10-3.9c-3.7-3.7-3.8-7.9-3.8-15.1
		c0-7.1,0.1-11.3,3.8-15.1c2.5-2.5,5.7-3.9,10-3.9c4.3,0,7.5,1.4,10,3.9c3.7,3.7,3.8,7.9,3.8,15.1
		C206.8,184.9,206.7,189.1,203,192.8z M197.7,167.3c-1.1-1.2-2.7-2-4.7-2c-2,0-3.6,0.8-4.7,2c-1.4,1.6-1.8,3.4-1.8,10.5
		c0,7.1,0.4,8.9,1.8,10.4c1.1,1.2,2.7,2,4.7,2c2,0,3.6-0.8,4.7-2c1.4-1.6,1.8-3.3,1.8-10.4C199.5,170.6,199,168.8,197.7,167.3z"/>
	<path fill="#FFFFFF" d="M226.4,196.8c-7.7,0-13.8-5.2-13.8-13.1v-24.6h7.3v24.3c0,4.3,2.5,6.9,6.5,6.9c3.9,0,6.5-2.6,6.5-6.9v-24.3
		h7.2v24.6C240.1,191.6,234.1,196.8,226.4,196.8z"/>
	<path fill="#FFFFFF" d="M257.5,196.8c-5.7,0-10-1.2-13.7-4.9l4.7-4.7c2.4,2.4,5.6,3.2,9,3.2c4.4,0,6.7-1.7,6.7-4.7
		c0-1.3-0.4-2.3-1.2-3.1c-0.7-0.7-1.5-1-3.4-1.3l-4.5-0.7c-3.3-0.5-5.6-1.5-7.2-3.1c-1.8-1.7-2.7-4.2-2.7-7.4
		c0-6.7,4.9-11.3,13-11.3c5.1,0,8.9,1.3,12.1,4.4l-4.6,4.6c-2.3-2.3-5.2-2.6-7.7-2.6c-3.9,0-5.7,2.2-5.7,4.7c0,1,0.3,1.9,1.1,2.7
		c0.7,0.7,1.8,1.2,3.4,1.4l4.5,0.7c3.4,0.5,5.5,1.4,7.1,2.9c2,1.8,2.9,4.5,2.9,7.9C271.4,192.7,265.4,196.8,257.5,196.8z"/>
	<path fill="#FFFFFF" d="M287.7,164.4v-5.6h7v5.6H287.7z M287.8,196.5v-26.6h6.8v26.6H287.8z"/>
	<path fill="#FFFFFF" d="M328.3,196.5v-21.8l-7.1,14.2h-4.9l-7.2-14.2v21.8h-7.3v-37.4h7.2l9.8,20.2l9.7-20.2h7.2v37.4H328.3z"/>
	<path fill="#FFFFFF" d="M342.5,205.1V189h7.5v10.3L342.5,205.1z"/>
</g>
</svg>
