<?xml version="1.0" encoding="utf-8"?>
<!-- Generator: Adobe Illustrator 18.1.1, SVG Export Plug-In . SVG Version: 6.00 Build 0)  -->
<!DOCTYPE svg PUBLIC "-//W3C//DTD SVG 1.1//EN" "http://www.w3.org/Graphics/SVG/1.1/DTD/svg11.dtd">
<svg version="1.1" id="Layer_1" xmlns="http://www.w3.org/2000/svg" xmlns:xlink="http://www.w3.org/1999/xlink" x="0px" y="0px"
	 viewBox="-72.4 214.5 299.9 27.5" enable-background="new -72.4 214.5 299.9 27.5" xml:space="preserve">
<g>
	<path fill="#FFFFFF" d="M-60,219.5v22.4h-5.3v-22.4h-7.1v-4.7H-53v4.7H-60z"/>
	<path fill="#FFFFFF" d="M-34.9,241.9v-11.3h-9.2v11.3h-5.3v-27.1h5.3v11.1h9.2v-11.1h5.3v27.1H-34.9z"/>
	<path fill="#FFFFFF" d="M-24.1,241.9v-27.1h17.8v4.7h-12.5v6.4h10.7v4.7h-10.7v6.6h12.5v4.7H-24.1z"/>
	<path fill="#FFFFFF" d="M13.7,242.1c-4.1,0-7.2-0.9-9.9-3.6l3.4-3.4c1.7,1.7,4.1,2.3,6.5,2.3c3.2,0,4.9-1.2,4.9-3.4
		c0-0.9-0.3-1.7-0.9-2.2c-0.5-0.5-1.1-0.7-2.5-0.9l-3.3-0.5c-2.4-0.4-4.1-1.1-5.2-2.2c-1.3-1.2-2-3-2-5.4c0-4.9,3.6-8.2,9.4-8.2
		c3.7,0,6.5,0.9,8.8,3.2l-3.3,3.3c-1.7-1.7-3.8-1.9-5.6-1.9c-2.8,0-4.1,1.6-4.1,3.4c0,0.7,0.2,1.4,0.7,2c0.5,0.5,1.3,0.9,2.5,1
		l3.3,0.5c2.5,0.4,4,1,5.1,2.1c1.4,1.3,2.1,3.3,2.1,5.7C23.7,239.1,19.4,242.1,13.7,242.1z"/>
	<path fill="#FFFFFF" d="M38.4,231.6h-5.2v10.2h-5.3v-27.1h10.5c5.7,0,8.9,3.8,8.9,8.5C47.4,227.8,44.1,231.6,38.4,231.6z
		 M38.2,219.5h-4.9v7.4h4.9c2.4,0,3.9-1.4,3.9-3.7C42.1,221,40.6,219.5,38.2,219.5z"/>
	<path fill="#FFFFFF" d="M67.4,239.2c-1.8,1.8-4.1,2.8-7.2,2.8s-5.4-1-7.2-2.8c-2.7-2.7-2.8-5.7-2.8-10.9c0-5.1,0.1-8.2,2.8-10.9
		c1.8-1.8,4.1-2.8,7.2-2.8s5.4,1,7.2,2.8c2.7,2.7,2.8,5.7,2.8,10.9C70.2,233.4,70.1,236.5,67.4,239.2z M63.6,220.7
		c-0.7-0.9-2-1.4-3.4-1.4s-2.6,0.6-3.4,1.4c-1,1.2-1.3,2.5-1.3,7.6c0,5.1,0.3,6.5,1.3,7.5c0.8,0.9,2,1.4,3.4,1.4s2.6-0.6,3.4-1.4
		c1-1.2,1.3-2.4,1.3-7.5C64.9,223.2,64.5,221.8,63.6,220.7z"/>
	<path fill="#FFFFFF" d="M89.2,241.9l-5.3-10.8h-3.8v10.8h-5.3v-27.1h10.6c5.5,0,8.8,3.8,8.8,8.3c0,3.8-2.3,6.2-4.9,7.1l6.1,11.7
		H89.2z M85.1,219.5h-5v7.2h5c2.3,0,3.8-1.4,3.8-3.6S87.4,219.5,85.1,219.5z"/>
	<path fill="#FFFFFF" d="M108.7,219.5v22.4h-5.3v-22.4h-7.1v-4.7h19.4v4.7H108.7z"/>
	<path fill="#FFFFFF" d="M130.1,230.8v11.1h-5.2v-11.1l-8.1-16h5.7l5.1,10.9l5-10.9h5.7L130.1,230.8z"/>
	<path fill="#FFFFFF" d="M154.1,219.5v6.7h10.7v4.7h-10.7v11h-5.3v-27.1h17.8v4.7H154.1z"/>
	<path fill="#FFFFFF" d="M184.9,241.9l-5.3-10.8h-3.8v10.8h-5.3v-27.1h10.6c5.5,0,8.8,3.8,8.8,8.3c0,3.8-2.3,6.2-4.9,7.1l6.1,11.7
		H184.9z M180.8,219.5h-5v7.2h5c2.3,0,3.8-1.4,3.8-3.6C184.6,221,183.1,219.5,180.8,219.5z"/>
	<path fill="#FFFFFF" d="M193.7,230.6V226h11.7v4.6H193.7z"/>
	<path fill="#FFFFFF" d="M217.5,242.1c-4.1,0-7.2-0.9-9.9-3.6l3.4-3.4c1.7,1.7,4.1,2.3,6.5,2.3c3.2,0,4.9-1.2,4.9-3.4
		c0-0.9-0.3-1.7-0.9-2.2c-0.5-0.5-1.1-0.7-2.5-0.9l-3.3-0.5c-2.4-0.4-4.1-1.1-5.2-2.2c-1.3-1.2-2-3-2-5.4c0-4.9,3.6-8.2,9.4-8.2
		c3.7,0,6.5,0.9,8.8,3.2l-3.3,3.3c-1.7-1.7-3.8-1.9-5.6-1.9c-2.8,0-4.1,1.6-4.1,3.4c0,0.7,0.2,1.4,0.8,2c0.5,0.5,1.3,0.9,2.5,1
		l3.3,0.5c2.5,0.4,4,1,5.1,2.1c1.4,1.3,2.1,3.3,2.1,5.7C227.6,239.1,223.3,242.1,217.5,242.1z"/>
</g>
</svg>
