<?xml version="1.0" encoding="utf-8"?>
<!-- Generator: Adobe Illustrator 18.1.1, SVG Export Plug-In . SVG Version: 6.00 Build 0)  -->
<!DOCTYPE svg PUBLIC "-//W3C//DTD SVG 1.1//EN" "http://www.w3.org/Graphics/SVG/1.1/DTD/svg11.dtd">
<svg version="1.1" id="Layer_1" xmlns="http://www.w3.org/2000/svg" xmlns:xlink="http://www.w3.org/1999/xlink" x="0px" y="0px"
	 viewBox="-73.1 216.9 300 25.6" enable-background="new -73.1 216.9 300 25.6" xml:space="preserve">
<g>
	<path fill="#231F20" d="M-57.1,239.8c-1.7,1.7-3.8,2.7-6.8,2.7c-2.9,0-5-0.9-6.8-2.7c-2.5-2.5-2.5-5.3-2.5-10.1
		c0-4.8,0-7.6,2.5-10.1c1.7-1.7,3.9-2.7,6.8-2.7c2.9,0,5,0.9,6.8,2.7c2.5,2.5,2.6,5.3,2.6,10.1C-54.5,234.5-54.6,237.3-57.1,239.8z
		 M-60.6,222.6c-0.7-0.8-1.8-1.4-3.2-1.4c-1.4,0-2.4,0.5-3.2,1.4c-0.9,1.1-1.2,2.3-1.2,7c0,4.8,0.3,6,1.2,7c0.7,0.8,1.9,1.4,3.2,1.4
		c1.4,0,2.4-0.6,3.2-1.4c0.9-1.1,1.2-2.2,1.2-7C-59.4,224.9-59.7,223.7-60.6,222.6z"/>
	<path fill="#231F20" d="M-36.8,242.3l-4.9-10.1h-3.5v10.1h-4.9v-25.1h9.8c5.1,0,8.2,3.5,8.2,7.7c0,3.5-2.2,5.7-4.6,6.6l5.6,10.8
		H-36.8z M-40.6,221.5h-4.6v6.7h4.6c2.2,0,3.6-1.4,3.6-3.3C-37,222.9-38.5,221.5-40.6,221.5z"/>
	<path fill="#231F20" d="M-10.6,221.5v20.8h-5v-20.8h-6.6v-4.4h18.1v4.4H-10.6z"/>
	<path fill="#231F20" d="M12.7,242.3v-10.6H4.1v10.6h-4.9v-25.1h4.9v10.3h8.5v-10.3h4.9v25.1H12.7z"/>
	<path fill="#231F20" d="M22.7,242.3v-25.1h16.6v4.4H27.7v5.9h9.9v4.4h-9.9v6.1h11.6v4.4H22.7z"/>
	<path fill="#231F20" d="M57.8,242.5c-3.8,0-6.8-0.8-9.2-3.3l3.2-3.2c1.6,1.6,3.7,2.2,6,2.2c2.9,0,4.5-1.1,4.5-3.2
		c0-0.9-0.2-1.6-0.8-2.1c-0.5-0.4-1-0.6-2.3-0.9l-3-0.4c-2.2-0.3-3.7-1-4.9-2.1c-1.2-1.1-1.8-2.8-1.8-5c0-4.5,3.3-7.6,8.8-7.6
		c3.4,0,6,0.9,8.1,2.9l-3,2.9c-1.6-1.5-3.5-1.7-5.2-1.7c-2.6,0-3.9,1.4-3.9,3.2c0,0.6,0.1,1.3,0.7,1.8c0.5,0.4,1.2,0.8,2.3,0.9
		l3,0.4c2.3,0.3,3.7,0.9,4.8,2c1.4,1.2,1.9,3,1.9,5.3C67.2,239.8,63.1,242.5,57.8,242.5z"/>
	<path fill="#231F20" d="M80.7,221.5v20.8h-4.9v-20.8h-6.6v-4.4h18.1v4.4H80.7z"/>
	<path fill="#231F20" d="M100.6,231.9v10.3h-4.9v-10.3l-7.6-14.8h5.3l4.7,10.1l4.6-10.1h5.3L100.6,231.9z"/>
	<path fill="#231F20" d="M110.4,242.3v-25.1h4.9v20.8h11.4v4.4H110.4z"/>
	<path fill="#231F20" d="M130.1,242.3v-25.1h4.9v25.1H130.1z"/>
	<path fill="#231F20" d="M147,242.5c-3.8,0-6.8-0.8-9.2-3.3l3.2-3.2c1.6,1.6,3.7,2.2,6,2.2c2.9,0,4.5-1.1,4.5-3.2
		c0-0.9-0.2-1.6-0.8-2.1c-0.5-0.4-1-0.6-2.3-0.9l-3-0.4c-2.2-0.3-3.7-1-4.9-2.1c-1.2-1.1-1.8-2.8-1.8-5c0-4.5,3.3-7.6,8.8-7.6
		c3.4,0,6,0.9,8.1,2.9l-3.1,3.1c-1.6-1.5-3.5-1.7-5.2-1.7c-2.6,0-3.9,1.4-3.9,3.2c0,0.6,0.1,1.3,0.7,1.8c0.5,0.4,1.2,0.8,2.3,0.9
		l3,0.4c2.3,0.3,3.7,0.9,4.8,2c1.4,1.2,1.9,3,1.9,5.3C156.4,239.8,152.3,242.5,147,242.5z"/>
	<path fill="#231F20" d="M173.8,242.3v-10.6h-8.5v10.6h-4.9v-25.1h4.9v10.3h8.5v-10.3h4.9v25.1H173.8z"/>
	<path fill="#231F20" d="M190.9,220.7V217h4.7v3.7H190.9z M191,242.3v-17.9h4.6v17.9H191z"/>
	<path fill="#231F20" d="M214.6,242.3l-1.5-4.5h-8.9l-1.5,4.5h-5.1l9.1-25.1h3.9l9.2,25.1H214.6z M208.8,224.5l-3.2,9.2h6.2
		L208.8,224.5z"/>
	<path fill="#231F20" d="M221.7,242.3V237h5.2v5.2H221.7z"/>
</g>
</svg>
