<?xml version="1.0" encoding="utf-8"?>
<!-- Generator: Adobe Illustrator 18.1.1, SVG Export Plug-In . SVG Version: 6.00 Build 0)  -->
<!DOCTYPE svg PUBLIC "-//W3C//DTD SVG 1.1//EN" "http://www.w3.org/Graphics/SVG/1.1/DTD/svg11.dtd">
<svg version="1.1" id="Layer_1" xmlns="http://www.w3.org/2000/svg" xmlns:xlink="http://www.w3.org/1999/xlink" x="0px" y="0px"
	 viewBox="-16.9 117.5 324.2 12.6" enable-background="new -16.9 117.5 324.2 12.6" xml:space="preserve">
<g>
	<path fill="#77787B" d="M-16.9,130v-12.4h2.4v10.3h5.6v2.2H-16.9z"/>
	<path fill="#77787B" d="M-7.2,130v-12.4h2.4V130H-7.2z"/>
	<path fill="#77787B" d="M6.5,130v-7.2l-2.4,4.7H2.5l-2.4-4.7v7.2h-2.4v-12.4h2.4l3.2,6.7l3.2-6.7H9V130H6.5z"/>
	<path fill="#77787B" d="M11.4,130v-12.4h2.4V130H11.4z"/>
	<path fill="#77787B" d="M21.2,119.7V130h-2.4v-10.3h-3.2v-2.2h8.9v2.2H21.2z"/>
	<path fill="#77787B" d="M26.2,130v-12.4h8.2v2.2h-5.8v2.9h4.9v2.2h-4.9v3h5.8v2.2H26.2z"/>
	<path fill="#77787B" d="M44.6,128.2c-0.9,1.2-2.1,1.8-3.8,1.8h-4.5v-12.4h4.5c1.7,0,2.9,0.6,3.8,1.8c0.8,1.1,0.8,2.3,0.8,4.4
		C45.4,125.8,45.4,127.1,44.6,128.2z M42.4,120.5c-0.4-0.5-1-0.8-1.8-0.8h-1.8v8.1h1.8c0.8,0,1.4-0.3,1.8-0.8
		c0.5-0.5,0.5-1.3,0.5-3.3S42.9,121.1,42.4,120.5z"/>
	<path fill="#77787B" d="M58.9,128.8c-0.8,0.8-1.9,1.3-3.3,1.3s-2.5-0.5-3.3-1.3c-1.2-1.2-1.3-2.6-1.3-5s0-3.8,1.3-5
		c0.8-0.8,1.9-1.3,3.3-1.3s2.5,0.5,3.3,1.3c1.2,1.2,1.3,2.6,1.3,5S60.1,127.6,58.9,128.8z M57.1,120.3c-0.3-0.4-0.9-0.7-1.6-0.7
		c-0.7,0-1.2,0.3-1.6,0.7c-0.5,0.5-0.6,1.1-0.6,3.5s0.1,2.9,0.6,3.5c0.4,0.4,0.9,0.7,1.6,0.7c0.7,0,1.2-0.3,1.6-0.7
		c0.5-0.5,0.6-1.1,0.6-3.5S57.5,120.8,57.1,120.3z"/>
	<path fill="#77787B" d="M68.9,130l-2.4-5h-1.7v5h-2.4v-12.4h4.9c2.5,0,4,1.7,4,3.8c0,1.7-1.1,2.8-2.3,3.3l2.8,5.4H68.9z M67,119.7
		h-2.3v3.3H67c1.1,0,1.8-0.7,1.8-1.6C68.7,120.4,68,119.7,67,119.7z"/>
	<path fill="#77787B" d="M84.5,130l-4.9-7.6v7.6h-2.4v-12.4h2.2l4.9,7.6v-7.6h2.4V130H84.5z"/>
	<path fill="#77787B" d="M96.7,128.8c-0.8,0.8-1.9,1.3-3.3,1.3s-2.5-0.5-3.3-1.3c-1.2-1.2-1.3-2.6-1.3-5s0-3.8,1.3-5
		c0.8-0.8,1.9-1.3,3.3-1.3s2.5,0.5,3.3,1.3c1.2,1.2,1.3,2.6,1.3,5S98,127.6,96.7,128.8z M95,120.3c-0.3-0.4-0.9-0.7-1.6-0.7
		c-0.7,0-1.2,0.3-1.6,0.7c-0.5,0.5-0.6,1.1-0.6,3.5s0.1,2.9,0.6,3.5c0.4,0.4,0.9,0.7,1.6,0.7c0.7,0,1.2-0.3,1.6-0.7
		c0.5-0.5,0.6-1.1,0.6-3.5S95.4,120.8,95,120.3z"/>
	<path fill="#77787B" d="M108.2,130.1c-1.4,0-2.5-0.5-3.3-1.3c-1.2-1.2-1.3-2.6-1.3-5s0-3.8,1.3-5c0.9-0.8,1.9-1.3,3.3-1.3
		c2.3,0,4.1,1.3,4.6,3.9h-2.5c-0.2-1-0.9-1.8-2.1-1.8c-0.7,0-1.2,0.2-1.6,0.6c-0.5,0.5-0.6,1.1-0.6,3.5s0.2,3,0.6,3.5
		c0.3,0.4,0.9,0.6,1.6,0.6c1.2,0,1.8-0.8,2.1-1.8h2.5C112.3,128.8,110.5,130.1,108.2,130.1z"/>
	<path fill="#77787B" d="M121.1,130l-2.4-5h-1.7v5h-2.4v-12.4h4.9c2.5,0,4,1.7,4,3.8c0,1.7-1.1,2.8-2.3,3.3l2.8,5.4H121.1z
		 M119.2,119.7h-2.3v3.3h2.3c1.1,0,1.8-0.7,1.8-1.6C121,120.4,120.3,119.7,119.2,119.7z"/>
	<path fill="#77787B" d="M125.6,130v-12.4h8.2v2.2h-5.8v2.9h4.9v2.2h-4.9v3h5.8v2.2H125.6z"/>
	<path fill="#77787B" d="M144,128.2c-0.9,1.2-2.1,1.8-3.8,1.8h-4.5v-12.4h4.5c1.7,0,2.9,0.6,3.8,1.8c0.8,1.1,0.8,2.3,0.8,4.4
		C144.8,125.8,144.8,127.1,144,128.2z M141.9,120.5c-0.4-0.5-1-0.8-1.8-0.8h-1.8v8.1h1.8c0.8,0,1.4-0.3,1.8-0.8
		c0.5-0.5,0.5-1.3,0.5-3.3S142.3,121.1,141.9,120.5z"/>
	<path fill="#77787B" d="M147,130v-12.4h2.4V130H147z"/>
	<path fill="#77787B" d="M156.8,119.7V130h-2.4v-10.3h-3.2v-2.2h8.9v2.2H156.8z"/>
	<path fill="#77787B" d="M168,123.1l-1.3,1.7c-0.2,0.2-0.3,0.6-0.3,0.9v0.4h-2.3v-0.5c0-0.8,0.2-1.2,0.7-1.8l1.3-1.7
		c0.3-0.4,0.5-0.8,0.5-1.2c0-0.8-0.5-1.4-1.4-1.4c-0.9,0-1.4,0.6-1.4,1.4h-2.3c0-2.2,1.6-3.5,3.7-3.5c2,0,3.7,1.3,3.7,3.5
		C168.8,121.8,168.5,122.5,168,123.1z M164,130v-2.3h2.4v2.3H164z"/>
	<path fill="#77787B" d="M177.8,130.1c-1.9,0-3.3-0.4-4.5-1.6l1.6-1.6c0.8,0.8,1.8,1,3,1c1.4,0,2.2-0.6,2.2-1.6c0-0.4-0.1-0.8-0.4-1
		c-0.2-0.2-0.5-0.3-1.1-0.4l-1.5-0.2c-1.1-0.2-1.8-0.5-2.4-1c-0.6-0.6-0.9-1.4-0.9-2.4c0-2.2,1.6-3.8,4.3-3.8c1.7,0,2.9,0.4,4,1.4
		l-1.5,1.5c-0.8-0.8-1.7-0.9-2.5-0.9c-1.3,0-1.9,0.7-1.9,1.6c0,0.3,0.1,0.6,0.3,0.9c0.2,0.2,0.6,0.4,1.1,0.5l1.5,0.2
		c1.1,0.2,1.8,0.5,2.4,1c0.7,0.6,1,1.5,1,2.6C182.4,128.7,180.5,130.1,177.8,130.1z"/>
	<path fill="#77787B" d="M188.7,130.1c-1.4,0-2.5-0.5-3.3-1.3c-1.2-1.2-1.3-2.6-1.3-5s0-3.8,1.3-5c0.9-0.8,1.9-1.3,3.3-1.3
		c2.3,0,4.1,1.3,4.6,3.9h-2.5c-0.2-1-0.9-1.8-2.1-1.8c-0.7,0-1.2,0.2-1.6,0.6c-0.5,0.5-0.6,1.1-0.6,3.5s0.2,3,0.6,3.5
		c0.3,0.4,0.9,0.6,1.6,0.6c1.2,0,1.8-0.8,2.1-1.8h2.5C192.8,128.8,191,130.1,188.7,130.1z"/>
	<path fill="#77787B" d="M195,130v-12.4h2.4V130H195z"/>
	<path fill="#77787B" d="M207.5,128.8c-0.8,0.8-1.9,1.3-3.3,1.3c-1.4,0-2.5-0.5-3.3-1.3c-1.2-1.2-1.3-2.6-1.3-5s0-3.8,1.3-5
		c0.8-0.8,1.9-1.3,3.3-1.3c1.4,0,2.5,0.5,3.3,1.3c1.2,1.2,1.3,2.6,1.3,5S208.7,127.6,207.5,128.8z M205.7,120.3
		c-0.3-0.4-0.9-0.7-1.6-0.7c-0.7,0-1.2,0.3-1.6,0.7c-0.5,0.5-0.6,1.1-0.6,3.5s0.1,2.9,0.6,3.5c0.4,0.4,0.9,0.7,1.6,0.7
		c0.7,0,1.2-0.3,1.6-0.7c0.5-0.5,0.6-1.1,0.6-3.5S206.2,120.8,205.7,120.3z"/>
	<path fill="#77787B" d="M218.2,130l-4.9-7.6v7.6h-2.4v-12.4h2.2l4.9,7.6v-7.6h2.4V130H218.2z"/>
	<path fill="#77787B" d="M231,130.1c-1.4,0-2.5-0.5-3.3-1.3c-1.2-1.2-1.3-2.6-1.3-5s0-3.8,1.3-5c0.9-0.8,1.9-1.3,3.3-1.3
		c2.3,0,4.1,1.3,4.6,3.9H233c-0.2-1-0.9-1.8-2.1-1.8c-0.7,0-1.2,0.2-1.6,0.6c-0.5,0.5-0.6,1.1-0.6,3.5s0.2,3,0.6,3.5
		c0.3,0.4,0.9,0.6,1.6,0.6c1.2,0,1.8-0.8,2.1-1.8h2.5C235.1,128.8,233.3,130.1,231,130.1z"/>
	<path fill="#77787B" d="M244.5,130l-0.7-2.2h-4.4l-0.8,2.2H236l4.5-12.4h1.9L247,130H244.5z M241.6,121.2l-1.6,4.5h3.1L241.6,121.2
		z"/>
	<path fill="#77787B" d="M255.8,130l-4.9-7.6v7.6h-2.4v-12.4h2.2l4.9,7.6v-7.6h2.4V130H255.8z"/>
	<path fill="#77787B" d="M271,130v-5.2h-4.2v5.2h-2.4v-12.4h2.4v5.1h4.2v-5.1h2.4V130H271z"/>
	<path fill="#77787B" d="M276,130v-12.4h8.2v2.2h-5.8v2.9h4.9v2.2h-4.9v3h5.8v2.2H276z"/>
	<path fill="#77787B" d="M286.1,130v-12.4h2.4v10.3h5.6v2.2H286.1z"/>
	<path fill="#77787B" d="M300.7,125.3h-2.4v4.7h-2.4v-12.4h4.8c2.6,0,4.1,1.8,4.1,3.9S303.3,125.3,300.7,125.3z M300.6,119.7h-2.3
		v3.4h2.3c1.1,0,1.8-0.7,1.8-1.7S301.7,119.7,300.6,119.7z"/>
	<path fill="#77787B" d="M304.6,130v-2.6h2.6v2.6H304.6z"/>
</g>
</svg>
