<?xml version="1.0" encoding="utf-8"?>
<!-- Generator: Adobe Illustrator 18.1.1, SVG Export Plug-In . SVG Version: 6.00 Build 0)  -->
<svg version="1.1" id="Layer_1" xmlns="http://www.w3.org/2000/svg" xmlns:xlink="http://www.w3.org/1999/xlink" x="0px" y="0px"
	 viewBox="0 0 249.4 49.3" enable-background="new 0 0 249.4 49.3" xml:space="preserve">
<path fill="#F9A956" d="M0,31c0-10,4.3-19.2,14.6-19.8C20.3,11,27,13.6,28.4,22.5l-10.6,2.6c-0.5-3.1-1.2-4.9-3.2-4.8
	c-1.9,0.1-3.2,2.7-3.2,10.2c0,7.5,1.2,9.9,3.2,9.8c2-0.1,2.7-2.1,3.2-5.2l10.8,1.7c-1.7,7.3-6.5,12.1-14.1,12.5C4.4,49.8,0,41,0,31z
	"/>
<path fill="#F9A956" d="M38.5,11l10.8-0.6L59,46l-11.9,0.6l-0.5-4.5l-5.4,0.3l-0.5,4.5l-11.9,0.6L38.5,11z M45.4,33.7l-1.2-8.9
	c-0.1-1-0.2-2-0.3-3l-0.1,0c-0.1,1-0.2,2-0.3,3l-1.2,9.1L45.4,33.7z"/>
<path fill="#F9A956" d="M59.1,38.9l8.6-4.5c1.1,2.4,2.5,2.9,3.8,2.8c1.1-0.1,2.2-1.1,2.2-2.1c0-5-12.9-6.3-12.9-16.8
	c0-5,4.3-9.7,11.9-10.1c7.6-0.4,11.3,2.4,13.5,6.3L78,18.5c-0.8-1.5-1.6-2.4-3.2-2.3c-1.3,0.1-2.2,1.1-2.2,2.6
	c0,3.6,13.5,5.8,13.5,16.8c0,6.5-5.9,10.3-13.5,10.7C65,46.6,60.9,42.9,59.1,38.9z"/>
<path fill="#F9A956" d="M88.1,37.4l8.6-4.5c1.1,2.4,2.5,2.9,3.8,2.8c1.1-0.1,2.2-1.1,2.2-2.1c0-5-13-6.3-13-16.8
	c0-5,4.3-9.7,11.9-10.1S112.9,9.1,115,13l-8.1,3.9c-0.8-1.5-1.6-2.4-3.2-2.3c-1.3,0.1-2.2,1.1-2.2,2.6c0,3.6,13.5,5.8,13.5,16.8
	c0,6.5-5.9,10.3-13.5,10.7S89.8,41.3,88.1,37.4z"/>
<path fill="#F9A956" d="M118.6,6.8l20-1l0.5,9l-9.2,0.5v4.5l8.1-0.4v8.5l-8.1,0.4v4.5l9.2-0.5l-0.5,9.5l-20,1V6.8z"/>
<path fill="#F9A956" d="M143.6,5.5l14.6-0.8c6.3-0.3,12.4,3.3,12.4,9.8c0,6-2.2,8.6-5.6,10.3l6.2,15.2l-11.3,0.6L155,26.9l-0.1,0v14
	l-11.3,0.6V5.5z M160.3,16.1c0-3.2-2.2-3.9-5.4-3.7v8C158.1,20.3,160.3,19.2,160.3,16.1z"/>
<path fill="#F9A956" d="M173.1,22c0-11.5,5.3-19.3,14.8-19.8c9.6-0.5,14.8,6.7,14.8,18.2s-5.3,19.3-14.9,19.8
	C178.3,40.7,173.1,33.5,173.1,22z M191.4,21c0-7-0.9-10-3.5-9.8c-2.6,0.1-3.5,3.2-3.5,10.2c0,7,0.9,10,3.5,9.8
	C190.6,31.1,191.4,28,191.4,21z"/>
<path fill="#F9A956" d="M206.4,2.2l11.3-0.6v27l8.6-0.5l-1.1,9.1l-18.9,1V2.2z"/>
<path fill="#F9A956" d="M228.9,1l20-1l0.5,9l-9.2,0.5V14l8.1-0.4V22l-8.1,0.4V27l9.2-0.5l-0.5,9.5l-20,1V1z"/>
</svg>
