<svg xmlns="http://www.w3.org/2000/svg" viewBox="0 0 131 46"><style>.st0{enable-background:new}.st1{fill-rule:evenodd;clip-rule:evenodd;fill:#ff7400}.st2{fill:#fff}</style><g id="DOWNLOAD_x0D_NOW"><path class="st2" d="M20.7 8.4h5.9c1.8 0 2.8 1 2.8 2.8v6.7c0 1.8-1 2.8-2.8 2.8h-5.9V8.4zm5.6 10.3c.5 0 .7-.2.7-.7v-6.9c0-.5-.2-.7-.7-.7H23v8.3h3.3zM34.7 20.8c-1.7 0-2.6-.9-2.6-2.6v-7.3c0-1.7.9-2.6 2.6-2.6h3.5c1.7 0 2.6.9 2.6 2.6v7.3c0 1.7-.9 2.6-2.6 2.6h-3.5zm-.3-2.7c0 .5.2.7.7.7h2.7c.5 0 .7-.2.7-.7v-7.2c0-.5-.2-.7-.7-.7h-2.7c-.5 0-.7.2-.7.7v7.2zM55.8 8.4v2.8c0 .5-.1.9-.2 1.1l-2.3 8.4H51l-1.5-5.4-1.5 5.4h-2.3l-2.3-8.4c0-.2-.2-.6-.2-1.1V8.4h2.2v2.5c0 .4 0 .6.1.8l1.5 5.8 1.4-5.8c.1-.2.1-.4.1-.8V8.4h2.1V11c0 .2.1.5.1.7l1.4 5.8 1.4-5.8c.1-.2.1-.4.1-.8V8.4h2.2zM60.6 12.7v8h-2.2V8.4h2.1l4.4 7.9V8.4h2.2v12.3H65l-4.4-8zM70.2 8.4h2.3v10.3h5v2h-7.3V8.4zM82 20.8c-1.7 0-2.6-.9-2.6-2.6v-7.3c0-1.7.9-2.6 2.6-2.6h3.5c1.7 0 2.6.9 2.6 2.6v7.3c0 1.7-.9 2.6-2.6 2.6H82zm-.3-2.7c0 .5.2.7.7.7h2.7c.5 0 .7-.2.7-.7v-7.2c0-.5-.2-.7-.7-.7h-2.7c-.5 0-.7.2-.7.7v7.2zM90.4 20.7v-2.8c0-.5.2-1 .2-1.1l3-8.5H96l3 8.5c.1.1.2.7.2 1.1v2.8H97V18h-4.5v2.7h-2.1zm2.7-4.6h3.4l-1.7-5.3-1.7 5.3zM101.9 8.4h5.9c1.8 0 2.8 1 2.8 2.8v6.7c0 1.8-1 2.8-2.8 2.8h-5.9V8.4zm5.6 10.3c.5 0 .7-.2.7-.7v-6.9c0-.5-.2-.7-.7-.7h-3.4v8.3h3.4zM50.4 30.2v8h-2.2V25.8h2.1l4.4 7.9v-7.9h2.2v12.3h-2.1l-4.4-7.9zM62.4 38.2c-1.7 0-2.6-.9-2.6-2.6v-7.3c0-1.7.9-2.6 2.6-2.6h3.5c1.7 0 2.6.9 2.6 2.6v7.3c0 1.7-.9 2.6-2.6 2.6h-3.5zm-.3-2.7c0 .5.2.7.7.7h2.7c.5 0 .7-.2.7-.7v-7.2c0-.5-.2-.7-.7-.7h-2.7c-.5 0-.7.2-.7.7v7.2zM83.6 25.8v2.8c0 .5-.1.9-.2 1.1l-2.3 8.4h-2.3l-1.5-5.4-1.5 5.4h-2.3l-2.3-8.4c0-.2-.2-.6-.2-1.1v-2.8h2.2v2.5c0 .4 0 .6.1.8l1.5 5.8 1.4-5.8c.1-.2.1-.4.1-.8v-2.5h2.1v2.6c0 .2.1.5.1.7l1.4 5.8 1.4-5.8c.1-.2.1-.4.1-.8v-2.5h2.2z"/></g></svg>