<svg xmlns="http://www.w3.org/2000/svg" viewBox="0 0 245.9 78"><path fill="#FAAA56" d="M0 61.3c0-10 4.3-19.8 14.4-21.5 5.7-1 12.2.8 13.6 9.5l-10.4 3.9c-.5-3.1-1.2-4.8-3.2-4.4-1.9.3-3.2 3.1-3.2 10.6s1.2 9.8 3.2 9.4c2-.3 2.7-2.5 3.2-5.6l10.7.4c-1.6 7.5-6.4 12.9-13.9 14.2C4.3 79.5 0 71.3 0 61.3zm37.9-24.7l10.6-1.9L58.2 69l-11.7 2.1-.5-4.4-5.3.9-.5 4.6-11.7 2.1 9.4-37.7zm6.8 21.8l-1.2-8.8-.3-3h-.1l-.3 3-1.2 9.2 3.1-.4zM58.3 62l8.5-5.5c1.1 2.3 2.5 2.6 3.7 2.3 1.1-.2 2.1-1.4 2.1-2.4 0-5-12.8-4.7-12.8-15.2 0-5 4.3-10.3 11.7-11.6 7.4-1.3 11.2 1 13.3 4.7l-8 4.9c-.8-1.4-1.5-2.2-3.2-1.9-1.3.2-2.1 1.4-2.1 2.9 0 3.6 13.3 4.2 13.3 15.2 0 6.5-5.9 11-13.3 12.3-7.4 1.3-11.5-2-13.2-5.7zm28.5-5l8.5-5.5c1.1 2.3 2.5 2.6 3.7 2.3 1.1-.2 2.1-1.4 2.1-2.4 0-5-12.8-4.7-12.8-15.2 0-5 4.3-10.3 11.7-11.6 7.4-1.3 11.2 1 13.3 4.7l-8 4.9c-.8-1.4-1.5-2.2-3.2-1.9-1.3.2-2.1 1.4-2.1 2.9 0 3.6 13.3 4.2 13.3 15.2 0 6.5-5.9 11-13.3 12.3-7.3 1.2-11.4-2-13.2-5.7zM117 22.6l19.7-3.5.5 8.9-9 1.6v4.5l8-1.4v8.5l-8 1.4v4.5l9-1.6-.5 9.6-19.7 3.5v-36zm24.6-4.3l14.4-2.5c6.2-1.1 12.2 1.8 12.2 8.3 0 6-2.1 8.9-5.5 11l6.1 14.4-11.2 2-4.7-13.2h-.1v14l-11.2 2v-36zm16.5 8.6c0-3.2-2.1-3.6-5.3-3.1v8c3.2-.5 5.3-1.8 5.3-4.9zm12.6 4.3c0-11.5 5.2-19.9 14.6-21.6C194.8 7.9 200 14.5 200 26s-5.2 19.9-14.7 21.6c-9.4 1.7-14.6-4.9-14.6-16.4zm18.1-3.2c0-7-.9-9.9-3.5-9.4s-3.5 3.6-3.5 10.6.9 9.8 3.5 9.4c2.6-.5 3.5-3.6 3.5-10.6zm14.7-20.6l11.2-2v27l8.5-1.5-1.1 9.2-18.6 3.3v-36zm22.2-3.9L245.4 0l.5 8.9-9 1.6V15l8-1.4v8.5l-8 1.4V28l9-1.6-.5 9.6-19.7 3.5v-36z"/></svg>