<svg xmlns="http://www.w3.org/2000/svg" viewBox="0 0 133.9994 34.0502">
  <path fill="#4D4D4F" d="M31.214 7.375V.082h.937v7.293h-.935zm3.136-4.99v.69h.042c.136-.236.35-.44.642-.605.292-.166.604-.25.937-.25.62 0 1.09.19 1.418.57.326.382.49.89.49 1.53v3.055h-.938V4.462c0-.924-.412-1.385-1.234-1.385-.387 0-.703.154-.947.463s-.37.667-.37 1.075v2.76h-.936v-4.99h.896zm6.53 5.072c-.522 0-.92-.14-1.196-.418-.275-.28-.413-.674-.413-1.183V3.24h-.874v-.856h.876V.856h.94v1.528h1.22v.855h-1.22v2.545c0 .544.223.815.67.815.17 0 .313-.026.43-.08l.325.804c-.204.09-.455.133-.754.133zm2.385-.082h-.937v-4.99h.896V3.2h.04c.096-.274.29-.498.586-.674s.583-.265.86-.265c.28 0 .514.04.704.123l-.357.876c-.122-.05-.288-.07-.5-.07-.338 0-.64.132-.9.4-.262.27-.392.62-.392 1.054v2.73zM46.21 2.98c.48-.506 1.095-.76 1.842-.76.747 0 1.362.254 1.844.76.483.506.724 1.14.724 1.9s-.242 1.394-.724 1.9c-.482.505-1.097.758-1.844.758-.747 0-1.36-.252-1.843-.76-.485-.504-.726-1.138-.726-1.898s.24-1.394.724-1.9zm.697 3.21c.322.328.704.493 1.146.493.44 0 .823-.165 1.146-.494.32-.33.48-.768.48-1.31 0-.545-.16-.98-.482-1.31-.324-.33-.706-.494-1.147-.494-.44 0-.823.164-1.145.494-.323.33-.484.766-.484 1.31 0 .543.16.98.484 1.31zm6.606 1.348c-.646 0-1.202-.254-1.67-.764-.47-.51-.704-1.14-.704-1.894s.232-1.386.7-1.895c.47-.51 1.026-.764 1.67-.764.38 0 .723.083 1.026.246.302.163.527.367.677.612h.04l-.04-.693V.082h.937v7.293h-.895v-.692h-.04c-.15.244-.376.448-.678.61-.303.164-.644.245-1.024.245zm.152-.855c.442 0 .817-.163 1.126-.49.31-.325.466-.763.466-1.313s-.155-.988-.464-1.315c-.308-.326-.683-.49-1.125-.49-.434 0-.808.166-1.12.495-.313.33-.47.766-.47 1.31 0 .543.157.98.47 1.308.312.33.686.495 1.12.495zm8.007.692h-.896v-.692h-.04c-.144.237-.36.44-.653.606-.292.164-.6.247-.927.247-.625 0-1.1-.19-1.42-.57-.324-.38-.485-.89-.485-1.528V2.383h.94v2.903c0 .93.41 1.396 1.232 1.396.388 0 .704-.156.948-.47.245-.31.367-.67.367-1.08v-2.75h.937v4.992zm3.372.163c-.747 0-1.362-.252-1.844-.76-.482-.504-.723-1.138-.723-1.898s.24-1.394.723-1.9c.482-.506 1.097-.76 1.844-.76.557 0 1.02.137 1.385.408.365.272.633.615.803 1.03l-.855.356c-.26-.625-.725-.938-1.397-.938-.413 0-.78.17-1.094.51-.316.34-.474.77-.474 1.294 0 .523.158.954.474 1.293.316.34.68.51 1.095.51.7 0 1.183-.313 1.447-.937l.835.356c-.17.407-.443.75-.82 1.024-.377.275-.844.412-1.4.412zm4.054-6.408c-.13.13-.285.195-.468.195-.184 0-.34-.065-.47-.194-.128-.127-.192-.283-.192-.467s.064-.34.193-.468c.13-.13.287-.194.47-.194.184 0 .34.066.47.195.13.13.193.285.193.468s-.065.34-.194.47zm0 6.245h-.937v-4.99h.94v4.99zm2.12-4.99v.69h.04c.136-.236.35-.44.642-.605.29-.166.604-.25.937-.25.618 0 1.09.19 1.416.57.326.382.49.89.49 1.53v3.055h-.938V4.462c0-.924-.412-1.385-1.233-1.385-.387 0-.703.154-.948.463s-.366.667-.366 1.075v2.76h-.937v-4.99h.898zM77.96 9.74c-.59 0-1.072-.15-1.446-.444-.373-.296-.642-.634-.805-1.014l.854-.356c.095.27.27.5.525.682.253.183.544.275.87.275.516 0 .922-.154 1.217-.463.295-.31.443-.73.443-1.258v-.48h-.04c-.163.245-.394.45-.692.612-.3.163-.635.245-1.01.245-.644-.003-1.2-.257-1.67-.767-.468-.51-.702-1.14-.702-1.894s.234-1.387.703-1.896c.466-.51 1.023-.764 1.67-.764.372 0 .71.082 1.007.245.298.163.53.367.692.612h.04v-.693h.897V7.12c0 .856-.248 1.507-.744 1.952-.496.444-1.1.667-1.813.667zm.072-3.057c.442 0 .817-.163 1.126-.49.31-.325.463-.763.463-1.313s-.152-.988-.46-1.315c-.31-.326-.686-.49-1.127-.49-.435 0-.808.166-1.12.495-.313.33-.47.766-.47 1.31 0 .543.157.98.47 1.308.312.33.685.495 1.12.495zm7.07.692h-.938V.082h2.486c.618 0 1.153.205 1.604.616.452.41.678.93.678 1.554s-.226 1.142-.678 1.553c-.45.41-.986.616-1.604.616H85.1v2.956zm0-3.85h1.568c.394 0 .71-.133.948-.397.237-.266.356-.557.356-.877s-.12-.61-.356-.874C87.38 1.11 87.064.98 86.67.98H85.1v2.546zm5.51-2.395c-.13.13-.285.195-.47.195-.18 0-.34-.065-.467-.194-.13-.127-.193-.283-.193-.467s.064-.34.193-.468c.13-.13.285-.194.47-.194.182 0 .34.066.468.195.128.13.193.285.193.468s-.064.34-.193.47zm0 6.245h-.937v-4.99h.938v4.99zm5.378 0h-1.1L93.66 5.53l-1.212 1.845h-1.1L93.11 4.84l-1.72-2.457h1.058l1.233 1.762 1.17-1.762h1.1L94.21 4.84l1.783 2.535zm2.71.163c-.753 0-1.366-.25-1.838-.754-.472-.502-.708-1.137-.708-1.904 0-.727.23-1.352.688-1.875.458-.523 1.044-.784 1.757-.784.74 0 1.33.243 1.775.725.445.482.668 1.127.668 1.936l-.01.174H97.09c.028.502.196.9.505 1.192.31.292.67.438 1.085.438.673 0 1.128-.285 1.365-.856l.836.347c-.16.387-.43.71-.803.972-.374.262-.832.392-1.375.392zm1.345-3.26c-.02-.285-.15-.556-.392-.814-.24-.258-.6-.388-1.075-.388-.346 0-.646.11-.9.326-.256.218-.43.51-.526.877h2.893zm2.74 3.097h-.936V.082h.935v7.293zM1.688 29.47H0V16.34h4.474c1.112 0 2.075.37 2.888 1.11.813.74 1.22 1.672 1.22 2.796 0 1.125-.407 2.057-1.22 2.796-.813.74-1.776 1.11-2.888 1.11H1.687v5.317zm0-6.932H4.51c.71 0 1.278-.238 1.706-.715.428-.477.642-1.002.642-1.577 0-.574-.214-1.1-.642-1.577-.428-.48-.997-.717-1.705-.717H1.69v4.584zm9.773-6.198v4.144l-.073 1.247h.073c.245-.426.63-.79 1.155-1.09.526-.3 1.088-.45 1.687-.45 1.112 0 1.962.344 2.55 1.03.586.684.88 1.6.88 2.75v5.5h-1.688v-5.244c0-1.662-.74-2.494-2.218-2.494-.697 0-1.266.28-1.706.836-.44.556-.66 1.2-.66 1.934v4.97H9.773V16.34h1.687zm8.857 5.217c.867-.91 1.974-1.366 3.32-1.366 1.343 0 2.45.457 3.317 1.368.868.91 1.302 2.05 1.302 3.42s-.434 2.51-1.302 3.42c-.868.91-1.974 1.366-3.32 1.366-1.343 0-2.45-.456-3.317-1.367-.87-.91-1.302-2.05-1.302-3.42 0-1.368.433-2.508 1.302-3.42zm1.256 5.776c.58.593 1.268.89 2.063.89.794 0 1.48-.297 2.062-.89.58-.593.87-1.378.87-2.356s-.29-1.763-.87-2.357c-.58-.592-1.268-.89-2.063-.89-.794 0-1.482.298-2.062.89-.58.594-.87 1.38-.87 2.357-.002.978.29 1.764.87 2.356zm9.654-6.85v1.248h.073c.244-.426.63-.79 1.155-1.09.526-.3 1.088-.45 1.687-.45 1.112 0 1.962.344 2.55 1.03.586.684.88 1.6.88 2.75v5.5h-1.688v-5.244c0-1.662-.74-2.494-2.22-2.494-.695 0-1.264.28-1.704.836-.44.556-.66 1.2-.66 1.934v4.97h-1.687v-8.986h1.614zm12.213 9.28c-1.358 0-2.462-.452-3.31-1.357-.85-.905-1.276-2.047-1.276-3.43 0-1.307.413-2.432 1.238-3.373.825-.94 1.88-1.412 3.163-1.412 1.332 0 2.4.436 3.2 1.304.8.868 1.2 2.03 1.2 3.484l-.018.312H40.54c.05.903.353 1.62.91 2.144.555.526 1.206.79 1.952.79 1.21-.002 2.03-.515 2.457-1.542l1.502.624c-.294.697-.777 1.28-1.45 1.75-.67.47-1.497.707-2.474.707zm2.42-5.868c-.038-.513-.273-1.002-.707-1.467-.434-.464-1.08-.697-1.935-.697-.623 0-1.164.198-1.622.59-.46.39-.774.916-.945 1.576h5.21zm12.12 5.868c-.685 0-1.3-.147-1.844-.44-.544-.294-.95-.66-1.22-1.1h-.072v1.246H53.23V16.34h1.687v4.144l-.073 1.247h.073c.27-.44.675-.805 1.22-1.1.543-.29 1.158-.44 1.842-.44 1.16 0 2.162.46 3.005 1.377.844.917 1.265 2.054 1.265 3.41s-.42 2.495-1.264 3.412-1.846 1.374-3.007 1.374zm-.276-1.54c.782 0 1.455-.297 2.017-.89.564-.593.846-1.378.846-2.356s-.282-1.763-.844-2.356c-.56-.59-1.234-.89-2.016-.89-.795 0-1.47.296-2.026.883-.556.586-.834 1.375-.834 2.365s.278 1.778.834 2.365c.556.587 1.23.88 2.026.88zm7.94 5.207h-1.742l2.09-4.53-3.704-8.416h1.834L66.8 26.94h.036l2.603-6.456h1.832l-5.63 12.946zm17.53-3.672c-4.093 0-7.535-3.333-7.535-7.426s3.44-7.426 7.533-7.426c2.264 0 3.876.888 5.09 2.047l-1.43 1.43c-.87-.814-2.05-1.448-3.66-1.448-2.988 0-5.324 2.41-5.324 5.397s2.335 5.397 5.323 5.397c1.938 0 3.043-.78 3.75-1.487.58-.58.96-1.413 1.104-2.554h-4.835v-2.03h6.81c.072.363.108.8.108 1.27 0 1.52-.416 3.404-1.755 4.743-1.305 1.36-2.972 2.084-5.18 2.084m15.057-4.78c0-1.72-1.246-2.898-2.69-2.898s-2.69 1.175-2.69 2.895c0 1.702 1.246 2.898 2.69 2.898 1.445 0 2.69-1.196 2.69-2.898m2.095 0c0 2.752-2.15 4.78-4.785 4.78-2.637 0-4.785-2.028-4.785-4.78 0-2.772 2.148-4.78 4.785-4.78 2.636 0 4.785 2.008 4.785 4.78m8.41 0c0-1.72-1.25-2.896-2.7-2.896-1.447 0-2.697 1.175-2.697 2.895 0 1.702 1.25 2.898 2.7 2.898 1.448 0 2.698-1.196 2.698-2.898m2.1 0c0 2.752-2.154 4.78-4.8 4.78s-4.798-2.028-4.798-4.78c0-2.772 2.154-4.78 4.8-4.78s4.798 2.008 4.798 4.78m8.172.02c0-1.685-1.123-2.917-2.554-2.917-1.448 0-2.66 1.232-2.66 2.917 0 1.666 1.212 2.88 2.66 2.88 1.43 0 2.554-1.214 2.554-2.88m1.847-4.51v8.584c0 3.53-2.082 4.98-4.545 4.98-2.32 0-3.714-1.56-4.24-2.827l1.83-.76c.327.778 1.124 1.703 2.41 1.703 1.575 0 2.553-.98 2.553-2.808v-.69h-.073c-.47.58-1.375 1.088-2.517 1.088-2.39 0-4.577-2.083-4.577-4.763 0-2.7 2.186-4.8 4.577-4.8 1.142 0 2.047.507 2.517 1.07h.073v-.78h1.992zm1.288-5.013h2.088v13.996h-2.088zm5.117 9.358l4.274-1.773c-.234-.598-.94-1.015-1.775-1.015-1.066 0-2.55.942-2.497 2.79m5.017 1.72l1.63 1.086c-.526.78-1.794 2.12-3.985 2.12-2.717 0-4.745-2.102-4.745-4.78 0-2.846 2.046-4.784 4.51-4.784 2.48 0 3.694 1.975 4.093 3.043l.217.543-6.393 2.645c.49.96 1.25 1.45 2.318 1.45s1.81-.526 2.354-1.323"/>
</svg>
