<?xml version="1.0" encoding="utf-8"?>
<!-- Generator: Adobe Illustrator 19.2.1, SVG Export Plug-In . SVG Version: 6.00 Build 0)  -->
<svg version="1.1" id="CTA_1_" xmlns="http://www.w3.org/2000/svg" xmlns:xlink="http://www.w3.org/1999/xlink" x="0px" y="0px"
	 viewBox="0 0 372 98" style="enable-background:new 0 0 372 98;" xml:space="preserve">
<style type="text/css">
	.st0{fill:#2692B3;}
	.st1{fill:none;}
	.st2{enable-background:new    ;}
	.st3{fill:#FFFFFF;}
</style>
<g id="Button">
	<g>
		<rect class="st0" width="372" height="98"/>
	</g>
</g>
<g id="LEARN_MORE">
	<rect y="34" class="st1" width="372" height="60"/>
	<g class="st2">
		<path class="st3" d="M68.1,61.4V35.7h5.4v21.2h10.4v4.5H68.1z"/>
		<path class="st3" d="M103.2,61.4H88.4V35.7h14.8v4.5h-9.4v5.6h8.7v4.5h-8.7v6.6h9.4V61.4z"/>
		<path class="st3" d="M124.3,61.4l-1.9-6.1h-9.4l-1.9,6.1h-5.9l9.1-25.8h6.7l9.1,25.8H124.3z M121.1,50.7c-1.7-5.5-2.7-8.7-2.9-9.4
			s-0.4-1.3-0.5-1.7c-0.4,1.5-1.5,5.2-3.3,11.1H121.1z"/>
		<path class="st3" d="M138.8,51.5v9.9h-5.4V35.7h7.5c3.5,0,6.1,0.6,7.8,1.9s2.5,3.2,2.5,5.8c0,1.5-0.4,2.9-1.2,4s-2,2.1-3.5,2.8
			c3.9,5.8,6.4,9.5,7.6,11.2h-6l-6.1-9.9H138.8z M138.8,47.1h1.8c1.7,0,3-0.3,3.8-0.9s1.2-1.5,1.2-2.7c0-1.2-0.4-2.1-1.3-2.6
			s-2.1-0.8-3.9-0.8h-1.7V47.1z"/>
		<path class="st3" d="M180,61.4H173l-11.2-19.4h-0.2c0.2,3.4,0.3,5.9,0.3,7.3v12.1h-4.9V35.7h6.9l11.2,19.2h0.1
			c-0.2-3.3-0.3-5.7-0.3-7.1V35.7h4.9V61.4z"/>
		<path class="st3" d="M206.7,61.4l-6.2-20.2h-0.2c0.2,4.1,0.3,6.8,0.3,8.2v12h-4.9V35.7h7.4l6.1,19.7h0.1l6.5-19.7h7.4v25.7h-5.1
			V49.2c0-0.6,0-1.2,0-2s0.1-2.7,0.2-6h-0.2l-6.6,20.1H206.7z"/>
		<path class="st3" d="M253.1,48.5c0,4.3-1.1,7.5-3.2,9.8s-5.1,3.4-9.1,3.4s-7-1.1-9.1-3.4s-3.2-5.6-3.2-9.8s1.1-7.5,3.2-9.8
			s5.1-3.4,9.1-3.4s7,1.1,9.1,3.4S253.1,44.2,253.1,48.5z M234.3,48.5c0,2.9,0.5,5,1.6,6.5s2.7,2.2,4.9,2.2c4.3,0,6.5-2.9,6.5-8.7
			c0-5.8-2.2-8.7-6.5-8.7c-2.2,0-3.8,0.7-4.9,2.2S234.3,45.6,234.3,48.5z"/>
		<path class="st3" d="M263.8,51.5v9.9h-5.4V35.7h7.5c3.5,0,6.1,0.6,7.8,1.9s2.5,3.2,2.5,5.8c0,1.5-0.4,2.9-1.2,4s-2,2.1-3.5,2.8
			c3.9,5.8,6.4,9.5,7.6,11.2h-6l-6.1-9.9H263.8z M263.8,47.1h1.8c1.7,0,3-0.3,3.8-0.9s1.2-1.5,1.2-2.7c0-1.2-0.4-2.1-1.3-2.6
			s-2.1-0.8-3.9-0.8h-1.7V47.1z"/>
		<path class="st3" d="M296.9,61.4h-14.8V35.7h14.8v4.5h-9.4v5.6h8.7v4.5h-8.7v6.6h9.4V61.4z"/>
	</g>
</g>
</svg>
