<svg xmlns="http://www.w3.org/2000/svg" viewBox="0 0 234 358">
  <g fill="#FFF">
    <path d="M0 35l1.5-1.5c.7 1 1.4 1.5 2.5 1.5 1.2 0 2-.8 2-2.5v-8.2h2.3v8.3c0 1.5-.5 2.6-1.2 3.3S5.3 37.1 4 37.1c-1.9 0-3.2-.9-4-2.1zM13.6 30.6c0-3.6 2.7-6.6 6.6-6.6s6.6 2.9 6.6 6.5c0 3.5-2.7 6.5-6.6 6.5s-6.6-2.8-6.6-6.4zm10.9 0c0-2.5-1.8-4.5-4.3-4.5s-4.2 2-4.2 4.4c0 2.4 1.8 4.5 4.3 4.5s4.2-1.9 4.2-4.4zM32.2 31.5v-7.3h2.2v7.2c0 2.3 1.2 3.6 3.2 3.6s3.2-1.2 3.2-3.5v-7.3H43v7.1c0 3.8-2.1 5.7-5.4 5.7-3.3.1-5.4-1.8-5.4-5.5zM48.9 24.3h5.6c1.6 0 2.8.5 3.6 1.3.7.7 1 1.6 1 2.7 0 2.1-1.2 3.3-3 3.8l3.4 4.8H57l-3.1-4.4h-2.8v4.4h-2.2V24.3zm5.4 6.2c1.6 0 2.6-.8 2.6-2.1s-1-2.1-2.6-2.1h-3.2v4.2h3.2zM64.8 24.3h2.1l6.8 8.7v-8.7h2.2v12.6H74l-6.9-9v9h-2.2V24.3zM81.9 24.3h9.3v2h-7.1v3.3h6.3v2h-6.3V35h7.2v2h-9.4V24.3zM100.5 31.9l-5-7.6h2.6l3.5 5.6 3.6-5.6h2.5l-5 7.6v5h-2.2v-5zM120.9 24.3h9.3v2h-7.1v3.3h6.3v2h-6.3V35h7.2v2h-9.4V24.3zM135.8 24.3h2.1l6.8 8.7v-8.7h2.2v12.6H145l-6.9-9v9h-2.2V24.3zM152.9 24.3h4.7c4 0 6.7 2.7 6.7 6.3 0 3.5-2.7 6.3-6.7 6.3h-4.7V24.3zm2.2 2v8.6h2.5c2.6 0 4.4-1.8 4.4-4.2 0-2.5-1.7-4.3-4.4-4.3h-2.5zM169 35l1.3-1.6c1.2 1 2.4 1.6 4 1.6 1.4 0 2.2-.6 2.2-1.6 0-.9-.5-1.4-2.8-1.9-2.7-.6-4.2-1.4-4.2-3.8 0-2.2 1.8-3.7 4.3-3.7 1.8 0 3.3.6 4.6 1.6l-1.2 1.7c-1.1-.8-2.3-1.3-3.4-1.3-1.3 0-2.1.7-2.1 1.5 0 1 .6 1.4 3 2 2.7.6 4 1.6 4 3.7 0 2.4-1.9 3.8-4.5 3.8-1.9.1-3.7-.6-5.2-2zM183.9 34.4h2.4v2.5h-2.4v-2.5zM191.6 34.4h2.4v2.5h-2.4v-2.5zM199.3 34.4h2.4v2.5h-2.4v-2.5z"/>
    <g>
      <path d="M38.7.2h2.4l3 9.3L47.2.1h1.9l3.1 9.4 3-9.3h2.3l-4.4 12.7h-1.9l-3.1-9.1-3.1 9.1h-1.9L38.7.2zM62.6.2h2.2v5.2h6V.2H73v12.6h-2.2V7.5h-6v5.3h-2.2V.2zM79.2.2h9.3v2h-7.1v3.3h6.3v2h-6.3v3.4h7.2v2h-9.4V.2zM94.1.2h2.1l6.8 8.7V.2h2.2v12.6h-1.9l-6.9-9v9h-2.2V.2zM119 6.6c0-3.6 2.7-6.6 6.6-6.6s6.6 2.9 6.6 6.5c0 3.5-2.7 6.5-6.6 6.5-3.9 0-6.6-2.9-6.6-6.4zm10.8 0c0-2.5-1.8-4.5-4.3-4.5s-4.2 2-4.2 4.4c0 2.4 1.8 4.5 4.3 4.5s4.2-2 4.2-4.4zM137.7.2h2.1l6.8 8.7V.2h2.2v12.6h-1.9l-7-9v9h-2.2V.2zM154.8.2h9.3v2H157v3.3h6.3v2H157v3.4h7.2v2h-9.4V.2z"/>
    </g>
  </g>
  <g fill="#FFF">
    <path d="M8.4 65.1h2.1L16 77.8h-2.3l-1.3-3h-6l-1.3 3H2.9l5.5-12.7zm3.2 7.7l-2.2-5-2.2 5h4.4zM21.1 65.2h2.1l6.8 8.7v-8.7h2.2v12.6h-1.9l-6.9-9v9h-2.2V65.2zM37.6 71.6c0-3.6 2.7-6.6 6.6-6.6s6.6 2.9 6.6 6.5c0 3.5-2.7 6.5-6.6 6.5s-6.6-2.9-6.6-6.4zm10.9 0c0-2.5-1.8-4.5-4.3-4.5s-4.2 2-4.2 4.4c0 2.4 1.8 4.5 4.3 4.5 2.4 0 4.2-2 4.2-4.4zM59.4 67.3h-4v-2.1h10.2v2.1h-4v10.6h-2.2V67.3zM70.9 65.2h2.2v5.2h6v-5.2h2.2v12.6h-2.2v-5.3h-6v5.3h-2.2V65.2zM87.4 65.2h9.3v2h-7.1v3.3h6.3v2h-6.3v3.4h7.2v2h-9.4V65.2zM102.4 65.2h5.6c1.6 0 2.8.5 3.6 1.3.7.7 1 1.6 1 2.7 0 2.1-1.2 3.3-3 3.8l3.4 4.8h-2.6l-3.1-4.4h-2.8v4.4h-2.2V65.2zm5.4 6.3c1.6 0 2.6-.8 2.6-2.1 0-1.4-1-2.1-2.6-2.1h-3.2v4.2h3.2zM126.5 65.2h5.7c1.4 0 2.6.4 3.3 1.1.6.6.8 1.3.8 2.1 0 1.5-.9 2.3-1.8 2.8 1.5.5 2.5 1.4 2.5 3.1 0 2.3-1.9 3.5-4.7 3.5h-5.8V65.2zm7.6 3.6c0-1-.8-1.6-2.2-1.6h-3.2v3.3h3c1.4 0 2.4-.5 2.4-1.7zm-1.9 3.6h-3.5v3.5h3.7c1.5 0 2.4-.6 2.4-1.7 0-1.2-.8-1.8-2.6-1.8zM142.4 65.2h9.3v2h-7.1v3.3h6.3v2h-6.3v3.4h7.2v2h-9.4V65.2zM156.8 71.6c0-3.6 2.7-6.6 6.5-6.6 2.2 0 3.5.6 4.8 1.7l-1.4 1.7c-1-.8-1.9-1.3-3.5-1.3-2.3 0-4.1 2-4.1 4.4 0 2.6 1.7 4.5 4.3 4.5 1.2 0 2.3-.4 3-1v-2.3h-3.2v-1.9h5.4v5.3c-1.2 1.1-3 2-5.3 2-3.9-.1-6.5-2.9-6.5-6.5zM174.5 65.2h2.2v12.6h-2.2V65.2zM182.9 65.2h2.1l6.8 8.7v-8.7h2.2v12.6h-2l-7-9v9h-2.2V65.2zM199.2 76l1.3-1.6c1.2 1 2.4 1.6 4 1.6 1.4 0 2.2-.6 2.2-1.6 0-.9-.5-1.4-2.8-1.9-2.7-.6-4.2-1.4-4.2-3.8 0-2.2 1.8-3.7 4.3-3.7 1.8 0 3.3.6 4.6 1.6l-1.2 1.7c-1.1-.8-2.3-1.3-3.4-1.3-1.3 0-2.1.7-2.1 1.5 0 1 .6 1.4 3 2 2.7.6 4 1.6 4 3.7 0 2.4-1.9 3.8-4.5 3.8-1.9 0-3.7-.7-5.2-2zM214 75.3h2.4v2.5H214v-2.5z"/>
  </g>
  <g fill="#FFF">
    <path d="M34.8 301.9h1.6l5.2 6.7v-6.7h1.7v9.7h-1.4l-5.3-6.9v6.9h-1.7v-9.7zM45.1 307.9c0-2.1 1.5-3.8 3.6-3.8 2.3 0 3.5 1.8 3.5 3.9v.5h-5.4c.2 1.2 1 1.8 2.1 1.8.8 0 1.4-.3 2-.9l1 .9c-.7.8-1.6 1.4-3 1.4-2.2 0-3.8-1.5-3.8-3.8zm5.4-.5c-.1-1.1-.7-1.9-1.8-1.9-1 0-1.7.8-1.9 1.9h3.7zM52.8 304.3h1.8l2 5.4 2-5.4h1.8l-3 7.3h-1.5l-3.1-7.3zM60.9 307.9c0-2.1 1.5-3.8 3.6-3.8 2.3 0 3.5 1.8 3.5 3.9v.5h-5.4c.2 1.2 1 1.8 2.1 1.8.8 0 1.4-.3 2-.9l1 .9c-.7.8-1.6 1.4-3 1.4-2.2 0-3.8-1.5-3.8-3.8zm5.4-.5c-.1-1.1-.7-1.9-1.8-1.9-1 0-1.7.8-1.9 1.9h3.7zM69.6 304.3h1.7v1.6c.5-1.1 1.3-1.8 2.6-1.8v1.8h-.1c-1.5 0-2.5 1-2.5 2.9v2.8h-1.7v-7.3zM78.9 310.6l.7-1.1c.8.6 1.6.9 2.4.9.7 0 1.1-.3 1.1-.8 0-.6-.8-.8-1.6-1-1.1-.3-2.3-.7-2.3-2.1 0-1.4 1.1-2.2 2.6-2.2.9 0 1.9.3 2.7.8l-.7 1.2c-.7-.4-1.4-.7-2.1-.7-.6 0-1 .3-1 .7 0 .5.8.8 1.6 1 1.1.3 2.3.8 2.3 2.1 0 1.5-1.2 2.3-2.7 2.3-1 0-2.1-.4-3-1.1zM86.6 309.5v-3.8h-.9v-1.4h.9v-2h1.7v2h2v1.4h-2v3.6c0 .6.3.9.9.9.4 0 .7-.1 1-.2v1.4c-.4.2-.9.4-1.5.4-1.3-.1-2.1-.7-2.1-2.3zM91.3 308c0-2.1 1.7-3.8 3.9-3.8s3.9 1.7 3.9 3.8c0 2.1-1.7 3.8-3.9 3.8-2.3-.1-3.9-1.8-3.9-3.8zm6.1 0c0-1.3-.9-2.4-2.2-2.4-1.3 0-2.2 1-2.2 2.3 0 1.3.9 2.3 2.2 2.3 1.3.1 2.2-1 2.2-2.2zM100.8 304.3h1.7v1.2c.5-.8 1.3-1.4 2.5-1.4 1.7 0 3.4 1.4 3.4 3.8s-1.7 3.8-3.4 3.8c-1.2 0-2-.6-2.5-1.3v3.3h-1.7v-9.4zm5.8 3.6c0-1.4-1-2.4-2.1-2.4s-2.1.9-2.1 2.3 1 2.3 2.1 2.3c1.2.2 2.1-.7 2.1-2.2zM109.8 309.7h1.8v1.9h-1.8v-1.9zM117.9 301.9h1.6l5.2 6.7v-6.7h1.7v9.7H125l-5.3-6.9v6.9H118v-9.7zM128.2 307.9c0-2.1 1.5-3.8 3.6-3.8 2.3 0 3.5 1.8 3.5 3.9v.5h-5.4c.2 1.2 1 1.8 2.1 1.8.8 0 1.4-.3 2-.9l1 .9c-.7.8-1.6 1.4-3 1.4-2.1 0-3.8-1.5-3.8-3.8zm5.4-.5c-.1-1.1-.7-1.9-1.8-1.9-1 0-1.7.8-1.9 1.9h3.7zM135.9 304.3h1.8l2 5.4 2-5.4h1.8l-3 7.3H139l-3.1-7.3zM144 307.9c0-2.1 1.5-3.8 3.6-3.8 2.3 0 3.5 1.8 3.5 3.9v.5h-5.4c.2 1.2 1 1.8 2.1 1.8.8 0 1.4-.3 2-.9l1 .9c-.7.8-1.6 1.4-3 1.4-2.1 0-3.8-1.5-3.8-3.8zm5.4-.5c-.1-1.1-.7-1.9-1.9-1.9-1 0-1.7.8-1.9 1.9h3.8zM152.8 304.3h1.7v1.6c.5-1.1 1.3-1.8 2.6-1.8v1.8h-.1c-1.5 0-2.5 1-2.5 2.9v2.8h-1.7v-7.3zM162 310.6l.7-1.1c.8.6 1.6.9 2.4.9.7 0 1.1-.3 1.1-.8 0-.6-.8-.8-1.6-1-1.1-.3-2.3-.7-2.3-2.1 0-1.4 1.1-2.2 2.6-2.2.9 0 1.9.3 2.7.8l-.7 1.2c-.7-.4-1.4-.7-2.1-.7-.6 0-1 .3-1 .7 0 .5.8.8 1.6 1 1.1.3 2.3.8 2.3 2.1 0 1.5-1.2 2.3-2.7 2.3-.9 0-2.1-.4-3-1.1zM169.1 307.9c0-2.1 1.5-3.8 3.6-3.8 2.3 0 3.5 1.8 3.5 3.9v.5h-5.4c.2 1.2 1 1.8 2.1 1.8.8 0 1.4-.3 2-.9l1 .9c-.7.8-1.6 1.4-3 1.4-2.2 0-3.8-1.5-3.8-3.8zm5.4-.5c-.1-1.1-.7-1.9-1.8-1.9-1 0-1.7.8-1.9 1.9h3.7zM178.2 309.5v-3.8h-.9v-1.4h.9v-2h1.7v2h2v1.4h-2v3.6c0 .6.3.9.9.9.4 0 .7-.1 1-.2v1.4c-.4.2-.9.4-1.5.4-1.2-.1-2.1-.7-2.1-2.3zM183.9 309.5v-3.8h-.9v-1.4h.9v-2h1.7v2h2v1.4h-2v3.6c0 .6.3.9.9.9.4 0 .7-.1 1-.2v1.4c-.4.2-.9.4-1.5.4-1.3-.1-2.1-.7-2.1-2.3zM189.3 301.5h1.7v10.1h-1.7v-10.1zM192.7 307.9c0-2.1 1.5-3.8 3.6-3.8 2.3 0 3.5 1.8 3.5 3.9v.5h-5.4c.2 1.2 1 1.8 2.1 1.8.8 0 1.4-.3 2-.9l1 .9c-.7.8-1.6 1.4-3 1.4-2.1 0-3.8-1.5-3.8-3.8zm5.4-.5c-.1-1.1-.7-1.9-1.8-1.9-1 0-1.7.8-1.9 1.9h3.7zM201.2 309.7h1.8v1.9h-1.8v-1.9z"/>
  </g>
  <g fill="#FFF">
    <path d="M37.4 237.6c.5-.7 1.1-1.1 1.9-1.1v-.5H26.5v.5c.7 0 1.4.4 1.9 1.1.6.7.8 1.6.8 2.6v15.2H10.7v-15.2c0-1 .2-1.8.7-2.6.4-.7 1-1.1 1.7-1.1v-.5H.2v.5c.7 0 1.4.4 1.9 1.2.6.8.8 1.6.8 2.5v36.2c0 .9-.3 1.8-.9 2.6-.6.8-1.3 1.2-2 1.2v.4h13.1v-.4c-1.4 0-2.2-1.3-2.4-3.8v-17.9h18.5v17.9c0 .9-.3 1.8-.9 2.6-.6.8-1.3 1.2-2 1.2v.4h13v-.4c-.7 0-1.4-.4-1.9-1.2-.5-.8-.8-1.6-.8-2.6v-36.2c0-.9.3-1.8.8-2.6M50.2 252.5c1.1-1.5 2.5-2.3 4.1-2.3 1.6 0 2.9.8 4 2.4 1.1 1.6 1.7 3.6 1.8 5.9H48c.4-2.5 1.1-4.5 2.2-6m16.1 8.3c.1-3-.7-5.7-2.2-8.1-2.1-3.1-5.2-4.7-9.1-4.7-4.3 0-7.7 2-10.2 5.8-2.2 3.3-3.3 7.1-3.3 11.2 0 4.2.9 7.7 2.6 10.6 2.1 3.6 5.1 5.4 9.1 5.4s7.3-1.6 9.9-4.8c1.7-2.2 2.8-4.4 3-6.5v-.1c0-.2-.2-.3-.5-.4l-.5-.1c-1.2 2.2-2 3.5-2.2 3.8-1.6 1.8-3.6 2.8-6.1 2.8-3 0-5.3-1.3-7-4-1.4-2.3-2.2-5.2-2.2-8.8l.1-2.2 18.6.1zM95.9 276.1v-20.5c0-1.7-.8-3.4-2.3-4.9-1.7-1.8-4-2.8-6.6-2.8-2.1 0-4 .6-5.8 1.7-1.6 1-2.8 2.3-3.6 3.6v-5.3h-.3c-2.3 1.9-5.5 3.4-9.4 4.6v.5c1.9 0 2.9.9 3.1 2.6v20.5c0 1.5-.4 2.5-1.2 3.1-.3.3-.9.6-1.8.8v.4h11.9v-.4c-1.5-.5-2.3-1.8-2.3-3.9v-16.3c0-1.9.4-3.7 1.3-5.2 1.1-1.9 2.7-2.9 4.8-2.9 3.7 0 5.6 2.1 5.6 6.4v18.1c0 2.2-.8 3.5-2.3 3.9v.4h11.7v-.4c-.8-.3-1.4-.5-1.7-.8-.8-.6-1.1-1.7-1.1-3.2M172.6 261.2c-2.9-1.7-4.3-2.7-4.6-2.9-1.1-.9-1.6-2.1-1.6-3.6 0-1.2.3-2.2 1-3 .7-.8 1.7-1.2 3-1.1 1.2 0 2.6.5 3.9 1.5 1.8 1.2 3.3 3 4.5 5.3h.7l-.4-9.1c-.1 0-.6.1-.6.1-.2 1.1-.7 1.6-1.5 1.6-.5 0-1.5-.2-2.8-.7-1.4-.4-2.7-.7-3.8-.7-2.4 0-4.5.7-6.3 2.2-2.1 1.7-3.2 3.9-3.2 6.6 0 2.5.9 4.7 2.7 6.3.5.5 2.2 1.6 5 3.3 2.7 1.7 4.2 2.6 4.6 3 1.4 1.2 2.2 2.7 2.2 4.4 0 1.6-.6 2.8-1.9 3.7-.9.6-1.8.9-2.7 1h-.5c-3.7-.2-6.4-3-8.2-8.3h-.9l.5 10.4.5.1c.7-1 1.4-1.5 2.3-1.5.4 0 1.1.3 2.3.7 1.2.5 2.6.8 4.4.8 2.4 0 4.6-.7 6.6-2.1 2.5-1.8 3.8-4.4 3.7-7.8 0-2.1-1-4.1-2.9-5.9-1.2-1.3-3.3-2.7-6-4.3M195.3 261.2c-2.8-1.7-4.3-2.7-4.6-2.9-1-.9-1.6-2.1-1.6-3.6 0-1.2.3-2.2 1-3 .7-.8 1.7-1.2 3-1.1 1.2 0 2.6.5 3.9 1.5 1.8 1.2 3.3 2.9 4.5 5.3h.7l-.5-9.1c-.1 0-.5.1-.5.1-.2 1.1-.7 1.6-1.5 1.6-.4 0-1.4-.2-2.8-.7-1.4-.4-2.7-.7-3.8-.7-2.4 0-4.5.7-6.3 2.2-2.2 1.7-3.2 3.9-3.2 6.6.1 2.5 1 4.7 2.7 6.3.5.5 2.3 1.6 5 3.3 2.7 1.6 4.2 2.6 4.6 3 1.4 1.2 2.2 2.7 2.2 4.4 0 1.6-.6 2.8-1.9 3.7-.9.6-1.8.9-2.7 1h-.5c-3.7-.2-6.4-3-8.2-8.3h-.9l.5 10.4.5.1c.7-1 1.4-1.5 2.3-1.5.4 0 1.1.3 2.3.7 1.2.5 2.6.8 4.4.8 2.4 0 4.6-.7 6.6-2.1 2.5-1.8 3.8-4.4 3.7-7.8-.1-2.1-1-4.1-2.9-5.9-1.2-1.3-3.2-2.7-6-4.3M225.5 248.8v.4c1.3.1 1.9 1 1.9 2.6 0 .6-.1 1.2-.3 1.8-1.4 4.4-3.6 10.5-6.4 18.3.1 0-6.4-19.4-6.4-19.4-.2-.5-.2-.9-.2-1.3 0-1.2.7-1.9 2.2-1.9v-.5h-12.6v.7h.3c1.3 0 2.3 1 3.1 3.1 4.1 10.8 7.6 20.3 10.4 28.3-.3 1.2-.7 2.3-1.1 3.3-1 2.2-2.1 3.3-3.3 3.3-.6 0-1.3-.2-2-.7-.7-.5-1.4-.7-2-.7-2.1 0-3.2.8-3.2 2.4 0 .5.3 1.1.9 1.7.8.7 1.9 1.1 3.3 1.1 1.6 0 3.2-.6 4.8-1.6 1.5-1.1 2.7-2.5 3.3-4.3l11.6-31.7c.3-.9.8-1.8 1.6-2.8.8-1.1 1.6-1.6 2.3-1.6h.3v-.4l-8.5-.1zM128.4 276.1v-20.5c0-1.7-.8-3.4-2.3-4.9-1.7-1.8-4-2.8-6.7-2.8-2.1 0-4 .6-5.8 1.7-1.6 1-2.8 2.2-3.6 3.6v-5.3h-.3c-2.3 1.9-5.5 3.4-9.4 4.6v.5c1.9 0 2.9.9 3.1 2.6v20.5c0 1.5-.4 2.5-1.2 3.1-.3.3-.9.6-1.8.8v.4h11.9v-.4c-1.5-.5-2.3-1.8-2.3-3.9v-16.3c0-1.9.4-3.7 1.3-5.2 1.1-1.9 2.8-2.9 4.8-2.9 3.7 0 5.6 2.1 5.6 6.4v18.1c0 2.2-.8 3.5-2.3 3.9v.4h11.7v-.4c-.8-.3-1.4-.5-1.6-.8-.7-.6-1.1-1.7-1.1-3.2M141.5 252.5c1.1-1.5 2.5-2.3 4.1-2.3 1.6 0 2.9.8 4 2.4 1.1 1.6 1.7 3.6 1.8 5.9h-12.1c.3-2.5 1-4.5 2.2-6m16 8.3c.1-2.9-.6-5.7-2.2-8.1-2.1-3.1-5.2-4.7-9.1-4.7-4.3 0-7.7 2-10.3 5.8-2.2 3.3-3.3 7.1-3.3 11.2 0 4.2.9 7.7 2.6 10.6 2.1 3.6 5.1 5.4 9.1 5.4s7.3-1.6 9.9-4.8c1.7-2.2 2.8-4.4 3-6.5v-.1c0-.2-.2-.3-.5-.4l-.5-.1c-1.2 2.2-2 3.5-2.2 3.8-1.6 1.8-3.6 2.8-6 2.8-3 0-5.3-1.3-7-4-1.5-2.3-2.2-5.2-2.2-8.8l.1-2.2 18.6.1z"/>
  </g>
  <g fill="#FFF">
    <path d="M1.7 105.2h2.4l3 9.3 3.1-9.4h1.9l3.1 9.4 3-9.3h2.3l-4.4 12.7h-1.9l-3.1-9.1-3.1 9.1H6.1l-4.4-12.7zM25.6 105.2h2.2v5.2h6v-5.2H36v12.6h-2.2v-5.3h-6v5.3h-2.2v-12.6zM46.6 105.1h2.1l5.5 12.7h-2.3l-1.3-3h-6l-1.3 3H41l5.6-12.7zm3.2 7.7l-2.2-5-2.2 5h4.4zM62.4 107.3h-4v-2.1h10.2v2.1h-4v10.6h-2.2v-10.6zM72.9 109.4c1.1-.2 1.6-.8 1.5-1.7h-.9v-2.5h2.4v2.1c0 2-1 2.8-2.8 3l-.2-.9zM80.6 116l1.3-1.6c1.2 1 2.4 1.6 4 1.6 1.4 0 2.2-.6 2.2-1.6 0-.9-.5-1.4-2.8-1.9-2.7-.6-4.2-1.4-4.2-3.8 0-2.2 1.8-3.7 4.3-3.7 1.8 0 3.3.6 4.6 1.6l-1.2 1.7c-1.1-.8-2.3-1.3-3.4-1.3-1.3 0-2.1.7-2.1 1.5 0 1 .6 1.4 3 2 2.7.6 4 1.6 4 3.7 0 2.4-1.9 3.8-4.5 3.8-1.8 0-3.6-.7-5.2-2zM107.9 112.9l-5-7.6h2.6l3.5 5.6 3.6-5.6h2.5l-5 7.6v5h-2.2v-5zM119.4 111.6c0-3.6 2.7-6.6 6.6-6.6s6.6 2.9 6.6 6.5c0 3.5-2.7 6.5-6.6 6.5-3.9 0-6.6-2.9-6.6-6.4zm10.8 0c0-2.5-1.8-4.5-4.3-4.5s-4.2 2-4.2 4.4c0 2.4 1.8 4.5 4.3 4.5s4.2-2 4.2-4.4zM137.9 112.5v-7.3h2.2v7.2c0 2.3 1.2 3.6 3.2 3.6s3.2-1.2 3.2-3.5v-7.3h2.2v7.1c0 3.8-2.1 5.7-5.4 5.7-3.3 0-5.4-1.9-5.4-5.5zM154.6 105.2h5.6c1.6 0 2.8.5 3.6 1.3.7.7 1 1.6 1 2.7 0 2.1-1.2 3.3-3 3.8l3.4 4.8h-2.6l-3.1-4.4h-2.8v4.4h-2.2v-12.6zm5.5 6.3c1.6 0 2.6-.8 2.6-2.1 0-1.4-1-2.1-2.6-2.1h-3.2v4.2h3.2zM0 129.2h2.4l3 9.3 3.1-9.4h1.9l3.1 9.4 3-9.3h2.3l-4.4 12.7h-1.9l-3.1-9.1-3.1 9.1H4.4L0 129.2zM24.1 129.2h2.2v12.6h-2.2v-12.6zM32.5 129.2h2.2v10.6h6.6v2h-8.8v-12.6zM46.5 129.2h4.7c4 0 6.7 2.7 6.7 6.3 0 3.5-2.7 6.3-6.7 6.3h-4.7v-12.6zm2.2 2v8.6h2.5c2.6 0 4.4-1.8 4.4-4.2 0-2.5-1.7-4.3-4.4-4.3h-2.5zM71.8 129.2h5.6c1.6 0 2.8.5 3.6 1.3.7.7 1 1.6 1 2.7 0 2.1-1.2 3.3-3 3.8l3.4 4.8h-2.6l-3.1-4.4H74v4.4h-2.2v-12.6zm5.4 6.3c1.6 0 2.6-.8 2.6-2.1 0-1.4-1-2.1-2.6-2.1H74v4.2h3.2zM92.1 129.1h2.1l5.5 12.7h-2.3l-1.3-3h-6l-1.3 3h-2.3l5.6-12.7zm3.2 7.7l-2.2-5-2.2 5h4.4zM104.8 129.2h5.7c1.4 0 2.6.4 3.3 1.1.6.6.8 1.3.8 2.1 0 1.5-.9 2.3-1.8 2.8 1.5.5 2.5 1.4 2.5 3.1 0 2.3-1.9 3.5-4.7 3.5h-5.8v-12.6zm7.5 3.6c0-1-.8-1.6-2.2-1.6h-3.2v3.3h3c1.5 0 2.4-.5 2.4-1.7zm-1.9 3.6h-3.5v3.5h3.7c1.5 0 2.4-.6 2.4-1.7 0-1.2-.8-1.8-2.6-1.8zM120.6 129.2h5.7c1.4 0 2.6.4 3.3 1.1.6.6.8 1.3.8 2.1 0 1.5-.9 2.3-1.8 2.8 1.5.5 2.5 1.4 2.5 3.1 0 2.3-1.9 3.5-4.7 3.5h-5.8v-12.6zm7.6 3.6c0-1-.8-1.6-2.2-1.6h-3.2v3.3h3c1.5 0 2.4-.5 2.4-1.7zm-1.9 3.6h-3.5v3.5h3.7c1.5 0 2.4-.6 2.4-1.7 0-1.2-.8-1.8-2.6-1.8zM136.6 129.2h2.2v12.6h-2.2v-12.6zM148.2 131.3h-4v-2.1h10.2v2.1h-4v10.6h-2.2v-10.6zM161.3 134.9c2.4-.2 3.4-.9 3.4-2.1 0-1-.8-1.7-2.1-1.7-1.1 0-2.1.5-2.9 1.4l-1.3-1.4c1-1.2 2.4-2 4.3-2 2.5 0 4.2 1.4 4.2 3.7 0 2.3-1.6 3.3-3.6 3.6l-.2 1.4h-1.5l-.3-2.9zm-.1 4.4h2.4v2.5h-2.4v-2.5z"/>
  </g>
  <g fill="#B99F62">
    <path d="M0 166.2h3.8c2.3 0 3.8 1.2 3.8 3.2 0 2.2-1.8 3.3-3.9 3.3H1.1v3.5H0v-10zm3.6 5.4c1.7 0 2.8-.9 2.8-2.2 0-1.4-1.1-2.2-2.7-2.2H1.1v4.4h2.5zM11.7 172v-5.8h1.1v5.8c0 2.2 1.1 3.4 3.1 3.4 1.9 0 3-1.1 3-3.3v-5.8H20v5.8c0 2.9-1.7 4.4-4.2 4.4-2.4-.1-4.1-1.6-4.1-4.5zM25.1 166.2h4.3c1.2 0 2.2.4 2.9 1 .5.5.8 1.2.8 2 0 1.7-1.1 2.6-2.7 2.9l3.1 4.1H32l-2.9-3.9h-2.9v3.9h-1.1v-10zm4.2 5.1c1.5 0 2.6-.8 2.6-2.1 0-1.2-.9-2-2.6-2h-3.1v4.1h3.1zM37.3 171.2c0-2.9 2.1-5.2 5.1-5.2 1.8 0 2.9.6 3.9 1.6l-.8.8c-.8-.8-1.8-1.4-3.2-1.4-2.2 0-3.9 1.8-3.9 4.1s1.7 4.1 3.9 4.1c1.4 0 2.3-.5 3.2-1.4l.7.7c-1 1.1-2.2 1.8-4 1.8-2.8.1-4.9-2.2-4.9-5.1zM50.7 166.2h1.1v4.5h5.8v-4.5h1.1v10h-1.1v-4.5h-5.8v4.5h-1.1v-10zM67.6 166.1h1.1l4.6 10.1H72l-1.2-2.7h-5.5l-1.2 2.7H63l4.6-10.1zm2.8 6.4l-2.3-5.1-2.3 5.1h4.6zM76.8 174.8l.7-.8c1 .9 2.1 1.4 3.4 1.4 1.3 0 2.2-.7 2.2-1.7 0-.9-.5-1.5-2.6-1.9-2.3-.5-3.4-1.2-3.4-2.9 0-1.6 1.4-2.7 3.3-2.7 1.5 0 2.5.4 3.5 1.2l-.7.9c-.9-.8-1.9-1.1-2.9-1.1-1.3 0-2.1.7-2.1 1.6 0 .9.5 1.5 2.7 2s3.3 1.3 3.3 2.8c0 1.7-1.4 2.8-3.4 2.8-1.5 0-2.8-.6-4-1.6zM88.9 166.2h7.3v1h-6.1v3.4h5.5v1h-5.5v3.5h6.2v1H89v-9.9zM107.4 166.2h1.1l6.3 8v-8h1.1v10h-.9l-6.5-8.2v8.2h-1.1v-10zM120.6 171.2c0-2.8 2.1-5.2 5.1-5.2 3.1 0 5.1 2.4 5.1 5.2 0 2.8-2.1 5.2-5.1 5.2-3 0-5.1-2.4-5.1-5.2zm9.1 0c0-2.3-1.7-4.2-4-4.2s-3.9 1.8-3.9 4.1 1.7 4.1 4 4.1 3.9-1.7 3.9-4zM134.8 166.2h1.2l2.9 8.4 2.8-8.4h.9l2.8 8.4 2.9-8.4h1.2l-3.6 10.1h-1l-2.8-8.1-2.8 8.1h-.9l-3.6-10.1z"/>
  </g>
  <g fill="#B99F62">
    <path d="M0 196.2h1.2l2.9 8.5 2.8-8.5h.9l2.8 8.5 2.9-8.5h1.2l-3.6 10.2h-1l-2.8-8.3-2.8 8.3h-1L0 196.2zM22.9 196.1H24l4.6 10.2h-1.2l-1.2-2.7h-5.5l-1.2 2.7h-1.2l4.6-10.2zm2.9 6.5l-2.3-5.2-2.3 5.2h4.6zM35.6 197.2h-3.4v-1.1h8v1.1h-3.4v9.1h-1.1v-9.1zM44.2 201.3c0-2.9 2.1-5.3 5.1-5.3 1.8 0 2.9.7 4 1.6l-.8.8c-.9-.8-1.8-1.4-3.2-1.4-2.3 0-3.9 1.8-3.9 4.2 0 2.4 1.7 4.2 3.9 4.2 1.4 0 2.3-.5 3.3-1.5l.8.7c-1.1 1.1-2.2 1.8-4.1 1.8-3 .1-5.1-2.2-5.1-5.1zM57.7 196.2h1.1v4.5h5.9v-4.5h1.1v10.2h-1.1v-4.6h-5.9v4.6h-1.1v-10.2zM80.4 197.2H77v-1.1h8v1.1h-3.4v9.1h-1.1v-9.1zM89.4 196.2h1.1v4.5h5.9v-4.5h1.1v10.2h-1.1v-4.6h-5.9v4.6h-1.1v-10.2zM102.7 196.2h7.3v1h-6.2v3.5h5.5v1h-5.5v3.6h6.3v1h-7.4v-10.1zM121.5 196.2h7.3v1.1h-6.2v3.6h5.5v1h-5.5v4.4h-1.1v-10.1zM133.4 196.2h1.1v10.2h-1.1v-10.2zM139.9 196.2h1.1v9.1h5.7v1.1h-6.9v-10.2zM151.1 196.2h1.2l3.7 5.5 3.7-5.5h1.2v10.2h-1.1v-8.2l-3.7 5.4h-.1l-3.7-5.4v8.2h-1.1v-10.2z"/>
  </g>
  <path fill="#B99F62" d="M14.2 337.5l-3.7-3.5-1 1.1 2.5 2.4H0v1.5h12l-2.5 2.3 1 1.1 3.7-3.4.8-.8"/>
</svg>
