<?xml version="1.0" encoding="utf-8"?>
<!-- Generator: Adobe Illustrator 18.1.1, SVG Export Plug-In . SVG Version: 6.00 Build 0)  -->
<!DOCTYPE svg PUBLIC "-//W3C//DTD SVG 1.1//EN" "http://www.w3.org/Graphics/SVG/1.1/DTD/svg11.dtd">
<svg version="1.1" id="Layer_1" xmlns="http://www.w3.org/2000/svg" xmlns:xlink="http://www.w3.org/1999/xlink" x="0px" y="0px"
	 viewBox="0 0 359 288.9" enable-background="new 0 0 359 288.9" xml:space="preserve">
<g>
	<path fill="#FFFFFF" d="M0,0.2h2.5l3.2,9.9L9,0.2h2l3.3,9.9l3.2-9.9h2.5l-4.6,13.4h-2L9.9,4.1l-3.3,9.6h-2L0,0.2z"/>
	<path fill="#FFFFFF" d="M25.3,0.2h2.3v5.5H34V0.2h2.3v13.3H34V7.9h-6.4v5.6h-2.3V0.2z"/>
	<path fill="#FFFFFF" d="M42.8,0.2h9.9v2.1h-7.5v3.5h6.7v2.1h-6.7v3.6h7.6v2.1h-10V0.2z"/>
	<path fill="#FFFFFF" d="M58.6,0.2h2.2l7.1,9.2V0.2h2.3v13.3h-2l-7.3-9.5v9.5h-2.3V0.2z"/>
	<path fill="#FFFFFF" d="M84.8,6.9L84.8,6.9c0-3.8,2.9-6.9,7-6.9c4.1,0,6.9,3.1,6.9,6.8v0c0,3.7-2.9,6.9-7,6.9
		C87.7,13.8,84.8,10.7,84.8,6.9z M96.3,6.9L96.3,6.9c0-2.6-1.9-4.8-4.5-4.8c-2.6,0-4.5,2.1-4.5,4.7v0c0,2.6,1.9,4.7,4.5,4.7
		S96.3,9.5,96.3,6.9z"/>
	<path fill="#FFFFFF" d="M104.6,0.2h2.2l7.1,9.2V0.2h2.3v13.3h-2l-7.3-9.5v9.5h-2.3V0.2z"/>
	<path fill="#FFFFFF" d="M122.7,0.2h9.9v2.1H125v3.5h6.7v2.1H125v3.6h7.6v2.1h-10V0.2z"/>
	<path fill="#FFFFFF" d="M145.9,11.6l1.5-1.6c0.8,1,1.6,1.6,2.7,1.6c1.3,0,2.1-0.8,2.1-2.6V0.2h2.4V9c0,1.6-0.5,2.8-1.3,3.5
		c-0.8,0.8-1.9,1.2-3.2,1.2C148.1,13.7,146.8,12.8,145.9,11.6z"/>
	<path fill="#FFFFFF" d="M160.3,6.9L160.3,6.9c0-3.8,2.9-6.9,7-6.9s6.9,3.1,6.9,6.8v0c0,3.7-2.9,6.9-7,6.9
		C163.2,13.8,160.3,10.7,160.3,6.9z M171.8,6.9L171.8,6.9c0-2.6-1.9-4.8-4.5-4.8c-2.6,0-4.5,2.1-4.5,4.7v0c0,2.6,1.9,4.7,4.5,4.7
		S171.8,9.5,171.8,6.9z"/>
	<path fill="#FFFFFF" d="M179.9,7.9V0.2h2.3v7.6c0,2.5,1.3,3.8,3.4,3.8c2.1,0,3.3-1.2,3.3-3.7V0.2h2.3v7.5c0,4-2.2,6-5.7,6
		C182.1,13.7,179.9,11.8,179.9,7.9z"/>
	<path fill="#FFFFFF" d="M197.5,0.2h5.9c1.7,0,3,0.5,3.8,1.3c0.7,0.7,1.1,1.7,1.1,2.9v0c0,2.2-1.3,3.5-3.2,4l3.6,5h-2.8l-3.3-4.6
		h-2.9v4.6h-2.3V0.2z M203.3,6.8c1.7,0,2.7-0.9,2.7-2.2v0c0-1.4-1-2.2-2.8-2.2h-3.4v4.5H203.3z"/>
	<path fill="#FFFFFF" d="M214.3,0.2h2.2l7.1,9.2V0.2h2.3v13.3h-2l-7.3-9.5v9.5h-2.3V0.2z"/>
	<path fill="#FFFFFF" d="M232.4,0.2h9.9v2.1h-7.5v3.5h6.7v2.1h-6.7v3.6h7.6v2.1h-10V0.2z"/>
	<path fill="#FFFFFF" d="M252.1,8.3l-5.3-8.1h2.8l3.7,5.9l3.8-5.9h2.7l-5.3,8v5.3h-2.4V8.3z"/>
	<path fill="#FFFFFF" d="M273.6,0.2h9.9v2.1h-7.5v3.5h6.7v2.1h-6.7v3.6h7.6v2.1h-10V0.2z"/>
	<path fill="#FFFFFF" d="M289.4,0.2h2.2l7.1,9.2V0.2h2.3v13.3h-2l-7.3-9.5v9.5h-2.3V0.2z"/>
	<path fill="#FFFFFF" d="M307.4,0.2h5c4.2,0,7.1,2.9,7.1,6.6v0c0,3.7-2.9,6.7-7.1,6.7h-5V0.2z M309.8,2.4v9.1h2.6
		c2.8,0,4.6-1.9,4.6-4.5v0c0-2.6-1.8-4.5-4.6-4.5H309.8z"/>
	<path fill="#FFFFFF" d="M324.5,11.6l1.4-1.7c1.3,1.1,2.6,1.7,4.2,1.7c1.4,0,2.4-0.7,2.4-1.7v0c0-1-0.5-1.5-3-2
		c-2.8-0.7-4.4-1.5-4.4-4v0c0-2.3,1.9-3.9,4.5-3.9c1.9,0,3.5,0.6,4.8,1.7l-1.3,1.8c-1.2-0.9-2.4-1.4-3.6-1.4c-1.4,0-2.2,0.7-2.2,1.6
		v0c0,1,0.6,1.5,3.2,2.1c2.8,0.7,4.3,1.7,4.3,3.9v0c0,2.5-2,4-4.8,4C328,13.7,326.1,13,324.5,11.6z"/>
	<path fill="#FFFFFF" d="M340.2,10.9h2.5v2.6h-2.5V10.9z"/>
	<path fill="#FFFFFF" d="M348.3,10.9h2.5v2.6h-2.5V10.9z"/>
	<path fill="#FFFFFF" d="M356.5,10.9h2.5v2.6h-2.5V10.9z"/>
</g>
<g>
	<path fill="#FFFFFF" d="M0,80.2h2.3l2.8,8.8L8,80.2h1.8l2.9,8.9l2.8-8.8h2.2l-4.1,12h-1.8l-2.9-8.6L6,92.2H4.1L0,80.2z"/>
	<path fill="#FFFFFF" d="M22.7,80.2h2.1v5h5.7v-5h2.1v11.9h-2.1v-5h-5.7v5h-2.1V80.2z"/>
	<path fill="#FFFFFF" d="M42.6,80.1h1.9l5.3,12h-2.2l-1.2-2.9h-5.6l-1.2,2.9h-2.1L42.6,80.1z M45.6,87.4l-2.1-4.8l-2,4.8H45.6z"/>
	<path fill="#FFFFFF" d="M57.5,82.1h-3.8v-1.9h9.7v1.9h-3.8v10h-2.1V82.1z"/>
	<path fill="#FFFFFF" d="M67.4,84.1c1-0.2,1.5-0.7,1.5-1.6H68v-2.4h2.3v2c0,1.9-0.9,2.7-2.6,2.8L67.4,84.1z"/>
	<path fill="#FFFFFF" d="M74.8,90.4l1.3-1.5c1.1,1,2.3,1.6,3.8,1.6c1.3,0,2.1-0.6,2.1-1.5v0c0-0.9-0.5-1.3-2.7-1.8
		c-2.5-0.6-4-1.4-4-3.6v0c0-2,1.7-3.5,4.1-3.5c1.7,0,3.1,0.5,4.3,1.5l-1.1,1.6c-1.1-0.8-2.1-1.2-3.2-1.2c-1.2,0-1.9,0.6-1.9,1.4v0
		c0,0.9,0.5,1.3,2.8,1.9c2.5,0.6,3.8,1.5,3.8,3.5v0c0,2.2-1.8,3.6-4.3,3.6C78,92.3,76.2,91.7,74.8,90.4z"/>
	<path fill="#FFFFFF" d="M100.6,87.4l-4.7-7.2h2.5l3.3,5.3l3.4-5.3h2.4l-4.7,7.2v4.8h-2.1V87.4z"/>
	<path fill="#FFFFFF" d="M111.5,86.2L111.5,86.2c0-3.4,2.6-6.2,6.3-6.2s6.2,2.8,6.2,6.1v0c0,3.4-2.6,6.2-6.3,6.2
		C114,92.3,111.5,89.6,111.5,86.2z M121.8,86.2L121.8,86.2c0-2.4-1.7-4.3-4.1-4.3c-2.4,0-4,1.9-4,4.2v0c0,2.3,1.7,4.2,4.1,4.2
		C120.1,90.4,121.8,88.5,121.8,86.2z"/>
	<path fill="#FFFFFF" d="M129,87.1v-6.9h2.1V87c0,2.2,1.1,3.4,3,3.4c1.9,0,3-1.1,3-3.3v-6.9h2.1V87c0,3.6-2,5.4-5.1,5.4
		C131,92.3,129,90.5,129,87.1z"/>
	<path fill="#FFFFFF" d="M144.9,80.2h5.3c1.5,0,2.7,0.4,3.4,1.2c0.6,0.6,1,1.5,1,2.6v0c0,2-1.2,3.1-2.8,3.6l3.2,4.5h-2.5l-2.9-4.2
		H147v4.2h-2.1V80.2z M150,86.1c1.5,0,2.5-0.8,2.5-2v0c0-1.3-0.9-2-2.5-2H147v4H150z"/>
	<path fill="#FFFFFF" d="M166.8,80.2h2.3l2.8,8.8l2.9-8.9h1.8l2.9,8.9l2.8-8.8h2.2l-4.1,12h-1.8l-2.9-8.6l-2.9,8.6H171L166.8,80.2z"
		/>
	<path fill="#FFFFFF" d="M189.6,80.2h2.1v11.9h-2.1V80.2z"/>
	<path fill="#FFFFFF" d="M197.7,80.2h2.1v10h6.3v1.9h-8.4V80.2z"/>
	<path fill="#FFFFFF" d="M210.9,80.2h4.4c3.8,0,6.3,2.6,6.3,5.9v0c0,3.4-2.6,6-6.3,6h-4.4V80.2z M213,82.1v8.1h2.4
		c2.5,0,4.1-1.7,4.1-4v0c0-2.3-1.6-4.1-4.1-4.1H213z"/>
	<path fill="#FFFFFF" d="M234.8,80.2h5.3c1.5,0,2.7,0.4,3.4,1.2c0.6,0.6,1,1.5,1,2.6v0c0,2-1.2,3.1-2.8,3.6l3.2,4.5h-2.5l-2.9-4.2
		h-2.6v4.2h-2.1V80.2z M240,86.1c1.5,0,2.5-0.8,2.5-2v0c0-1.3-0.9-2-2.5-2h-3.1v4H240z"/>
	<path fill="#FFFFFF" d="M254.1,80.1h1.9l5.3,12h-2.2l-1.2-2.9h-5.6l-1.2,2.9h-2.1L254.1,80.1z M257.1,87.4l-2.1-4.8l-2,4.8H257.1z"
		/>
	<path fill="#FFFFFF" d="M266.1,80.2h5.4c1.4,0,2.4,0.4,3.1,1.1c0.5,0.5,0.8,1.2,0.8,2v0c0,1.4-0.8,2.2-1.7,2.7
		c1.4,0.5,2.4,1.3,2.4,2.9v0c0,2.1-1.8,3.3-4.4,3.3h-5.5V80.2z M273.3,83.6c0-0.9-0.8-1.5-2.1-1.5h-3v3.2h2.9
		C272.4,85.2,273.3,84.7,273.3,83.6L273.3,83.6z M271.5,87h-3.3v3.3h3.5c1.4,0,2.3-0.6,2.3-1.6v0C273.9,87.6,273.1,87,271.5,87z"/>
	<path fill="#FFFFFF" d="M281.1,80.2h5.4c1.4,0,2.4,0.4,3.1,1.1c0.5,0.5,0.8,1.2,0.8,2v0c0,1.4-0.8,2.2-1.7,2.7
		c1.4,0.5,2.4,1.3,2.4,2.9v0c0,2.1-1.8,3.3-4.4,3.3h-5.5V80.2z M288.3,83.6c0-0.9-0.8-1.5-2.1-1.5h-3v3.2h2.9
		C287.4,85.2,288.3,84.7,288.3,83.6L288.3,83.6z M286.5,87h-3.3v3.3h3.5c1.4,0,2.3-0.6,2.3-1.6v0C289,87.6,288.2,87,286.5,87z"/>
	<path fill="#FFFFFF" d="M296.3,80.2h2.1v11.9h-2.1V80.2z"/>
	<path fill="#FFFFFF" d="M307.2,82.1h-3.8v-1.9h9.7v1.9h-3.8v10h-2.1V82.1z"/>
	<path fill="#FFFFFF" d="M319.7,85.6L319.7,85.6c2.3-0.2,3.2-0.9,3.2-2v0c0-1-0.7-1.6-1.9-1.6c-1.1,0-2,0.5-2.8,1.3l-1.3-1.4
		c1-1.1,2.3-1.9,4.1-1.9c2.4,0,4,1.3,4,3.5v0c0,2.2-1.6,3.1-3.4,3.4l-0.2,1.4H320L319.7,85.6z M319.5,89.8h2.3v2.4h-2.3V89.8z"/>
</g>
<path fill="#B99F62" d="M0,120.4h3.4c2.1,0,3.4,1.1,3.4,3c0,2.1-1.5,3-3.6,3H1.1v3.3H0V120.4L0,120.4z M3.3,125.3
	c1.5,0,2.6-0.8,2.6-2.1c0-1.3-1-2.1-2.6-2.1H0.9v4.1C0.9,125.3,3.3,125.3,3.3,125.3z M10.7,125.6v-5.4h1v5.1c0,2.1,1.1,3,2.8,3
	c1.5,0,2.6-1,2.6-3v-5.3h1.1v5.1c0,2.6-1.5,4.1-3.7,4.1C12.2,129.6,10.7,128.2,10.7,125.6L10.7,125.6z M22.8,120.4h3.8
	c1.1,0,2.1,0.4,2.6,1c0.4,0.4,0.6,1.1,0.6,1.9c0,1.5-1.1,2.3-2.6,2.6l2.8,3.7H29l-2.6-3.6h-2.6v3.6h-1
	C22.8,129.6,22.8,120.4,22.8,120.4L22.8,120.4z M26.5,125.1c1.4,0,2.3-0.6,2.3-1.9c0-1.1-1-1.9-2.3-1.9h-2.8v3.7L26.5,125.1
	L26.5,125.1z M33.8,124.8c0-2.6,2.1-4.8,4.5-4.8c1.5,0,2.6,0.4,3.6,1.4l-0.6,0.8c-0.8-0.8-1.5-1.2-2.8-1.2c-2.1,0-3.4,1.5-3.4,3.7
	c0,2.1,1.5,3.7,3.4,3.7c1.2,0,2.1-0.4,3-1.2l0.6,0.6c-1,1-2.1,1.5-3.7,1.5C35.7,129.6,33.8,127.5,33.8,124.8L33.8,124.8z M46,120.4
	h1v4.1h5.2v-4.1h1v9.1h-1v-4.1h-5.1v4.1h-0.9v-9.1H46z M61.3,120.4h1l4.1,9.2h-1.1l-1.1-2.3h-4.8l-1.1,2.3h-1.1L61.3,120.4
	L61.3,120.4z M63.9,126.2l-2.1-4.7l-2.1,4.7H63.9z M69.8,128.2l0.6-0.8c1,1,1.9,1.2,3.2,1.2c1.3,0,2.1-0.6,2.1-1.5
	c0-1-0.4-1.2-2.3-1.8c-2.1-0.4-3-1.1-3-2.6c0-1.4,1.2-2.6,3-2.6c1.2,0,2.3,0.4,3.3,1.1l-0.6,0.8c-1-0.6-1.8-1-2.6-1
	c-1.2,0-2.1,0.6-2.1,1.5s0.4,1.2,2.6,1.8c2.1,0.4,3,1.2,3,2.6c0,1.5-1.2,2.6-3.2,2.6C72.1,129.6,70.9,129.3,69.8,128.2z M80.7,120.4
	h6.7v1H82v3.2h5v1h-5v3.2h5.5v1h-6.6L80.7,120.4z M97.6,120.4h1.1l5.8,7.3v-7.3h1v9.1h-1.1l-5.9-7.6v7.6h-1.1v-9.1H97.6z
	 M109.5,124.8c0-2.6,1.9-4.8,4.7-4.8c2.8,0,4.7,2.2,4.7,4.7c0,2.6-1.9,4.7-4.7,4.7C111.3,129.3,109.5,127.4,109.5,124.8z
	 M117.8,124.8c0-2.1-1.5-3.7-3.6-3.7c-2.1,0-3.6,1.5-3.6,3.7c0,2.1,1.5,3.7,3.6,3.7C116.3,128.7,117.8,127.1,117.8,124.8z
	 M122.5,120.4h1.1l2.6,7.7l2.6-7.7h1l2.6,7.7l2.6-7.7h1.1l-3.3,9.2h-1l-2.6-7.3l-2.6,7.3h-1C125.7,129.6,122.5,120.4,122.5,120.4z"
	/>
<g>
	<polygon fill="#B99F62" points="0,160.2 0.9,160.2 3.2,166.9 5.5,160.2 6.2,160.2 8.5,166.9 10.9,160.2 11.7,160.2 8.9,168.2 
		8.2,168.2 5.9,161.6 3.6,168.2 3,168.2 	"/>
	<path fill="#B99F62" d="M19,160.5h-0.8l-3.5,7.7h0.9l0.9-2.3h4.4l0.9,2.3h0.9L19,160.5z M16.7,165.1l1.8-4.1l1.8,4.1H16.7z"/>
	<polygon fill="#B99F62" points="28.1,161 25.4,161 25.4,160.2 31.8,160.2 31.8,161 29.2,161 29.2,168.2 28.4,168.2 	"/>
	<path fill="#B99F62" d="M34.8,164.2c0-2.3,1.8-4.2,4.1-4.2c1.3,0,2.3,0.4,3.2,1.2l-0.7,0.7c-0.7-0.7-1.3-1.1-2.6-1.1
		c-1.8,0-3.2,1.3-3.2,3.2s1.3,3.2,3.2,3.2c1.1,0,1.8-0.4,2.6-1.1l0.5,0.5c-0.8,0.8-1.8,1.3-3.2,1.3
		C36.6,168.4,34.8,166.6,34.8,164.2L34.8,164.2z"/>
	<polygon fill="#B99F62" points="45.6,160.2 46.5,160.2 46.5,163.8 51.2,163.8 51.2,160.2 52.1,160.2 52.1,168.1 51.2,168.1 
		51.2,164.5 46.5,164.5 46.5,168.1 45.6,168.1 	"/>
	<path fill="#B99F62" d="M63.3,161h-2.6v-0.8h6.4v0.8h-2.6v7.2h-0.9C63.6,168.3,63.3,161,63.3,161z"/>
	<polygon fill="#B99F62" points="70.6,160.2 71.5,160.2 71.5,163.8 76.1,163.8 76.1,160.2 77.1,160.2 77.1,168.1 76.1,168.1 
		76.1,164.5 71.5,164.5 71.5,168.1 70.6,168.1 	"/>
	<polygon fill="#B99F62" points="81.1,160.2 86.9,160.2 86.9,161 82.1,161 82.1,163.8 86.4,163.8 86.4,164.5 82.1,164.5 82.1,167.4 
		86.9,167.4 86.9,168.2 81,168.2 	"/>
	<polygon fill="#B99F62" points="95.9,160.2 101.6,160.2 101.6,161 96.9,161 96.9,163.9 101.2,163.9 101.2,164.7 96.9,164.7 
		96.9,168.2 95.9,168.2 95.9,160.2 	"/>
	<rect x="105.3" y="160.2" fill="#B99F62" width="0.9" height="7.9"/>
	<polygon fill="#B99F62" points="110.4,160.2 111.3,160.2 111.3,167.4 115.7,167.4 115.7,168.2 110.2,168.2 110.2,160.2 	"/>
	<polygon fill="#B99F62" points="119.1,160.2 120.1,160.2 123.1,164.5 126.2,160.2 127,160.2 127,168.1 126.1,168.1 126.1,161.7 
		123,166 120.1,161.7 120.1,168.1 119.4,168.1 	"/>
</g>
<path fill="#B99F62" d="M12.3,283l-3.2-3l-0.9,1l2.1,2.1H0v1.3h10.4l-2.1,2.1l0.9,0.9l3.2-3l0.7-0.7"/>
<g>
	<path fill="#FFFFFF" d="M5.3,40.1h2l5.3,12.1h-2.2l-1.2-2.9H3.4l-1.2,2.9H0L5.3,40.1z M8.3,47.4l-2.1-4.8l-2.1,4.8H8.3z"/>
	<path fill="#FFFFFF" d="M17.3,40.2h2l6.4,8.3v-8.3h2.1v12H26l-6.6-8.5v8.5h-2.1V40.2z"/>
	<path fill="#FFFFFF" d="M33,46.2L33,46.2c0-3.4,2.6-6.2,6.3-6.2s6.2,2.8,6.2,6.2v0c0,3.4-2.6,6.2-6.3,6.2
		C35.6,52.4,33,49.6,33,46.2z M43.3,46.2L43.3,46.2c0-2.4-1.7-4.3-4.1-4.3c-2.4,0-4,1.9-4,4.2v0c0,2.3,1.7,4.2,4.1,4.2
		S43.3,48.6,43.3,46.2z"/>
	<path fill="#FFFFFF" d="M53.8,42.2h-3.8v-2h9.7v2h-3.8v10h-2.1V42.2z"/>
	<path fill="#FFFFFF" d="M64.6,40.2h2.1v5h5.7v-5h2.1v12h-2.1v-5h-5.7v5h-2.1V40.2z"/>
	<path fill="#FFFFFF" d="M80.3,40.2h8.9v1.9h-6.8v3.1h6v1.9h-6v3.2h6.9v1.9h-9V40.2z"/>
	<path fill="#FFFFFF" d="M94.6,40.2h5.3c1.5,0,2.7,0.4,3.5,1.2c0.6,0.7,1,1.5,1,2.6v0c0,2-1.2,3.1-2.8,3.6l3.2,4.5h-2.5L99.3,48
		h-2.6v4.2h-2.1V40.2z M99.7,46.1c1.5,0,2.5-0.8,2.5-2v0c0-1.3-0.9-2-2.5-2h-3.1v4H99.7z"/>
	<path fill="#FFFFFF" d="M117.5,40.2h5.4c1.4,0,2.4,0.4,3.1,1.1c0.5,0.5,0.8,1.2,0.8,2v0c0,1.4-0.8,2.2-1.7,2.7
		c1.4,0.5,2.4,1.3,2.4,2.9v0c0,2.1-1.8,3.3-4.4,3.3h-5.5V40.2z M124.7,43.6c0-0.9-0.8-1.5-2.1-1.5h-3v3.2h2.9
		C123.8,45.3,124.7,44.7,124.7,43.6L124.7,43.6z M122.9,47h-3.3v3.3h3.5c1.4,0,2.3-0.6,2.3-1.6v0C125.4,47.6,124.6,47,122.9,47z"/>
	<path fill="#FFFFFF" d="M132.6,40.2h8.9v1.9h-6.8v3.1h6v1.9h-6v3.2h6.9v1.9h-9V40.2z"/>
	<path fill="#FFFFFF" d="M146.3,46.2L146.3,46.2c0-3.4,2.6-6.2,6.2-6.2c2.1,0,3.4,0.6,4.6,1.6l-1.3,1.6c-0.9-0.8-1.8-1.3-3.4-1.3
		c-2.2,0-3.9,1.9-3.9,4.2v0c0,2.5,1.6,4.3,4.1,4.3c1.1,0,2.2-0.4,2.9-0.9v-2.2h-3.1v-1.8h5.1v5c-1.2,1-2.9,1.9-5,1.9
		C148.8,52.4,146.3,49.7,146.3,46.2z"/>
	<path fill="#FFFFFF" d="M163.1,40.2h2.1v12h-2.1V40.2z"/>
	<path fill="#FFFFFF" d="M171.2,40.2h2l6.4,8.3v-8.3h2.1v12h-1.8l-6.6-8.5v8.5h-2.1V40.2z"/>
	<path fill="#FFFFFF" d="M186.6,50.4l1.3-1.5c1.1,1,2.3,1.6,3.8,1.6c1.3,0,2.1-0.6,2.1-1.5v0c0-0.9-0.5-1.3-2.7-1.8
		c-2.6-0.6-4-1.4-4-3.6v0c0-2.1,1.7-3.5,4.1-3.5c1.7,0,3.1,0.5,4.3,1.5l-1.1,1.6c-1.1-0.8-2.2-1.2-3.3-1.2c-1.2,0-2,0.6-2,1.4v0
		c0,0.9,0.5,1.3,2.9,1.9c2.5,0.6,3.8,1.5,3.8,3.5v0c0,2.2-1.8,3.6-4.3,3.6C189.8,52.4,188,51.7,186.6,50.4z"/>
	<path fill="#FFFFFF" d="M200.7,49.8h2.3v2.4h-2.3V49.8z"/>
</g>
<g>
	<g id="RRZa06_2_">
		<g>
			<path fill="#FFFFFF" d="M25.4,248.2h1.1l3.8,4.9v-4.9h1.2v7.1h-1l-3.9-5v5h-1.2V248.2z"/>
			<path fill="#FFFFFF" d="M32.9,252.6L32.9,252.6c0-1.5,1.1-2.8,2.6-2.8c1.7,0,2.6,1.3,2.6,2.9c0,0.1,0,0.2,0,0.3h-3.9
				c0.1,0.9,0.7,1.4,1.5,1.4c0.6,0,1-0.2,1.4-0.6l0.7,0.6c-0.5,0.6-1.2,1-2.2,1C34.1,255.3,32.9,254.2,32.9,252.6z M36.9,252.2
				c-0.1-0.8-0.5-1.4-1.4-1.4c-0.7,0-1.3,0.6-1.4,1.4H36.9z"/>
			<path fill="#FFFFFF" d="M38.6,249.9h1.3l1.4,3.9l1.4-3.9H44l-2.2,5.4h-1.1L38.6,249.9z"/>
			<path fill="#FFFFFF" d="M44.5,252.6L44.5,252.6c0-1.5,1.1-2.8,2.6-2.8c1.7,0,2.6,1.3,2.6,2.9c0,0.1,0,0.2,0,0.3h-3.9
				c0.1,0.9,0.7,1.4,1.5,1.4c0.6,0,1-0.2,1.4-0.6l0.7,0.6c-0.5,0.6-1.2,1-2.2,1C45.7,255.3,44.5,254.2,44.5,252.6z M48.4,252.2
				c-0.1-0.8-0.5-1.4-1.4-1.4c-0.7,0-1.3,0.6-1.4,1.4H48.4z"/>
			<path fill="#FFFFFF" d="M50.9,249.9h1.2v1.2c0.3-0.8,0.9-1.3,1.9-1.3v1.3h-0.1c-1.1,0-1.8,0.7-1.8,2.1v2h-1.2V249.9z"/>
			<path fill="#FFFFFF" d="M57.6,254.5l0.5-0.8c0.6,0.4,1.2,0.7,1.7,0.7c0.5,0,0.8-0.2,0.8-0.6v0c0-0.4-0.6-0.6-1.2-0.7
				c-0.8-0.2-1.7-0.5-1.7-1.6v0c0-1,0.8-1.6,1.9-1.6c0.7,0,1.4,0.2,2,0.6l-0.5,0.9c-0.5-0.3-1.1-0.5-1.5-0.5c-0.5,0-0.7,0.2-0.7,0.5
				v0c0,0.4,0.6,0.6,1.2,0.8c0.8,0.2,1.7,0.6,1.7,1.6v0c0,1.1-0.9,1.7-2,1.7C59.1,255.3,58.3,255,57.6,254.5z"/>
			<path fill="#FFFFFF" d="M63.3,253.7v-2.8h-0.7v-1h0.7v-1.5h1.2v1.5h1.4v1h-1.4v2.6c0,0.5,0.2,0.7,0.7,0.7c0.3,0,0.5-0.1,0.8-0.2
				v1c-0.3,0.2-0.6,0.3-1.1,0.3C63.9,255.3,63.3,254.9,63.3,253.7z"/>
			<path fill="#FFFFFF" d="M66.7,252.6L66.7,252.6c0-1.5,1.2-2.8,2.8-2.8c1.6,0,2.8,1.2,2.8,2.8v0c0,1.5-1.2,2.8-2.9,2.8
				C67.9,255.3,66.7,254.1,66.7,252.6z M71.2,252.6L71.2,252.6c0-1-0.7-1.7-1.6-1.7c-1,0-1.6,0.8-1.6,1.7v0c0,0.9,0.7,1.7,1.6,1.7
				C70.5,254.3,71.2,253.5,71.2,252.6z"/>
			<path fill="#FFFFFF" d="M73.6,249.9h1.2v0.9c0.4-0.6,0.9-1,1.8-1c1.3,0,2.5,1,2.5,2.8v0c0,1.8-1.2,2.8-2.5,2.8
				c-0.9,0-1.4-0.4-1.8-0.9v2.4h-1.2V249.9z M77.9,252.6L77.9,252.6c0-1-0.7-1.7-1.5-1.7c-0.8,0-1.6,0.7-1.6,1.7v0
				c0,1,0.7,1.7,1.6,1.7C77.2,254.3,77.9,253.6,77.9,252.6z"/>
			<path fill="#FFFFFF" d="M80.2,253.8h1.3v1.4h-1.3V253.8z"/>
			<path fill="#FFFFFF" d="M86.2,248.2h1.1l3.8,4.9v-4.9h1.2v7.1h-1l-3.9-5v5h-1.2V248.2z"/>
			<path fill="#FFFFFF" d="M93.7,252.6L93.7,252.6c0-1.5,1.1-2.8,2.6-2.8c1.7,0,2.6,1.3,2.6,2.9c0,0.1,0,0.2,0,0.3h-3.9
				c0.1,0.9,0.7,1.4,1.5,1.4c0.6,0,1-0.2,1.4-0.6l0.7,0.6c-0.5,0.6-1.2,1-2.2,1C94.9,255.3,93.7,254.2,93.7,252.6z M97.7,252.2
				c-0.1-0.8-0.5-1.4-1.4-1.4c-0.7,0-1.3,0.6-1.4,1.4H97.7z"/>
			<path fill="#FFFFFF" d="M99.3,249.9h1.3l1.4,3.9l1.4-3.9h1.3l-2.2,5.4h-1.1L99.3,249.9z"/>
			<path fill="#FFFFFF" d="M105.2,252.6L105.2,252.6c0-1.5,1.1-2.8,2.6-2.8c1.7,0,2.6,1.3,2.6,2.9c0,0.1,0,0.2,0,0.3h-3.9
				c0.1,0.9,0.7,1.4,1.5,1.4c0.6,0,1-0.2,1.4-0.6l0.7,0.6c-0.5,0.6-1.2,1-2.2,1C106.4,255.3,105.2,254.2,105.2,252.6z M109.2,252.2
				c-0.1-0.8-0.5-1.4-1.4-1.4c-0.7,0-1.3,0.6-1.4,1.4H109.2z"/>
			<path fill="#FFFFFF" d="M111.6,249.9h1.2v1.2c0.3-0.8,0.9-1.3,1.9-1.3v1.3h-0.1c-1.1,0-1.8,0.7-1.8,2.1v2h-1.2V249.9z"/>
			<path fill="#FFFFFF" d="M118.4,254.5l0.5-0.8c0.6,0.4,1.2,0.7,1.7,0.7c0.5,0,0.8-0.2,0.8-0.6v0c0-0.4-0.6-0.6-1.2-0.7
				c-0.8-0.2-1.7-0.5-1.7-1.6v0c0-1,0.8-1.6,1.9-1.6c0.7,0,1.4,0.2,2,0.6l-0.5,0.9c-0.5-0.3-1.1-0.5-1.5-0.5c-0.5,0-0.7,0.2-0.7,0.5
				v0c0,0.4,0.6,0.6,1.2,0.8c0.8,0.2,1.7,0.6,1.7,1.6v0c0,1.1-0.9,1.7-2,1.7C119.9,255.3,119.1,255,118.4,254.5z"/>
			<path fill="#FFFFFF" d="M123.6,252.6L123.6,252.6c0-1.5,1.1-2.8,2.6-2.8c1.7,0,2.6,1.3,2.6,2.9c0,0.1,0,0.2,0,0.3h-3.9
				c0.1,0.9,0.7,1.4,1.5,1.4c0.6,0,1-0.2,1.4-0.6l0.7,0.6c-0.5,0.6-1.2,1-2.2,1C124.8,255.3,123.6,254.2,123.6,252.6z M127.5,252.2
				c-0.1-0.8-0.5-1.4-1.4-1.4c-0.7,0-1.3,0.6-1.4,1.4H127.5z"/>
			<path fill="#FFFFFF" d="M130.2,253.7v-2.8h-0.7v-1h0.7v-1.5h1.2v1.5h1.4v1h-1.4v2.6c0,0.5,0.2,0.7,0.7,0.7c0.3,0,0.5-0.1,0.8-0.2
				v1c-0.3,0.2-0.6,0.3-1.1,0.3C130.9,255.3,130.2,254.9,130.2,253.7z"/>
			<path fill="#FFFFFF" d="M134.4,253.7v-2.8h-0.7v-1h0.7v-1.5h1.2v1.5h1.4v1h-1.4v2.6c0,0.5,0.2,0.7,0.7,0.7c0.3,0,0.5-0.1,0.8-0.2
				v1c-0.3,0.2-0.6,0.3-1.1,0.3C135,255.3,134.4,254.9,134.4,253.7z"/>
			<path fill="#FFFFFF" d="M138.3,247.9h1.2v7.4h-1.2V247.9z"/>
			<path fill="#FFFFFF" d="M140.8,252.6L140.8,252.6c0-1.5,1.1-2.8,2.6-2.8c1.7,0,2.6,1.3,2.6,2.9c0,0.1,0,0.2,0,0.3h-3.9
				c0.1,0.9,0.7,1.4,1.5,1.4c0.6,0,1-0.2,1.4-0.6l0.7,0.6c-0.5,0.6-1.2,1-2.2,1C142,255.3,140.8,254.2,140.8,252.6z M144.8,252.2
				c-0.1-0.8-0.5-1.4-1.4-1.4c-0.7,0-1.3,0.6-1.4,1.4H144.8z"/>
			<path fill="#FFFFFF" d="M147,253.8h1.3v1.4H147V253.8z"/>
		</g>
	</g>
	<g>
		<g>
			<path fill="#FFFFFF" d="M27.3,201.2c0.4-0.5,0.8-0.8,1.4-0.8l0-0.4l-9.3,0l0,0.4c0.5,0,1,0.3,1.4,0.8c0.4,0.5,0.6,1.2,0.6,1.9
				v11.1l-13.5,0l0-11.1c0-0.7,0.2-1.3,0.5-1.9c0.3-0.5,0.7-0.8,1.2-0.8l0-0.4H0.2l0,0.4c0.5,0,1,0.3,1.4,0.9
				c0.4,0.6,0.6,1.2,0.6,1.9v26.4c0,0.7-0.2,1.3-0.7,1.9c-0.4,0.6-0.9,0.9-1.5,0.9l0,0.3h9.6l0-0.3c-1,0-1.6-0.9-1.8-2.8v-13.1
				l13.5,0l0,13.1c0,0.7-0.2,1.3-0.7,1.9c-0.4,0.6-0.9,0.9-1.5,0.9l0,0.3h9.5l0-0.3c-0.5,0-1-0.3-1.4-0.9c-0.4-0.6-0.6-1.2-0.6-1.9
				v-26.4C26.7,202.4,26.9,201.7,27.3,201.2"/>
			<path fill="#FFFFFF" d="M36.7,212c0.8-1.1,1.9-1.7,3-1.7c1.1,0,2.1,0.6,2.9,1.8c0.8,1.2,1.2,2.6,1.3,4.3l-8.8,0
				C35.3,214.6,35.9,213.1,36.7,212 M48.4,218.1c0.1-2.2-0.5-4.2-1.6-6c-1.5-2.3-3.8-3.5-6.6-3.5c-3.1,0-5.6,1.4-7.5,4.2
				c-1.6,2.4-2.4,5.2-2.4,8.2c0,3,0.6,5.7,1.9,7.7c1.5,2.6,3.7,3.9,6.6,3.9c2.9,0,5.3-1.2,7.2-3.5c1.3-1.6,2-3.2,2.2-4.7l0-0.1
				c0-0.1-0.1-0.2-0.3-0.3l-0.4,0c-0.9,1.6-1.4,2.5-1.6,2.8c-1.1,1.3-2.6,2-4.4,2c-2.2,0-3.9-1-5.1-2.9c-1.1-1.7-1.6-3.8-1.6-6.4
				l0.1-1.6L48.4,218.1z"/>
			<path fill="#FFFFFF" d="M70.1,229.3v-15c0-1.2-0.6-2.5-1.6-3.6c-1.3-1.3-2.9-2-4.9-2c-1.5,0-2.9,0.4-4.3,1.3h0
				c-1.2,0.8-2,1.6-2.6,2.7l0-3.9l-0.2,0c-1.7,1.4-4,2.5-6.9,3.4l0,0.3c1.4,0,2.2,0.7,2.3,1.9v15c0,1.1-0.3,1.9-0.9,2.3
				c-0.2,0.2-0.7,0.4-1.3,0.6l0,0.3l8.7,0l0-0.3c-1.1-0.3-1.7-1.3-1.7-2.9v-11.9c0-1.4,0.3-2.7,0.9-3.8c0.8-1.4,2-2.1,3.5-2.1
				c2.7,0,4.1,1.6,4.1,4.6v13.2c0,1.6-0.6,2.5-1.7,2.9l0,0.3l8.5,0l0-0.3c-0.6-0.2-1-0.4-1.2-0.6C70.3,231.2,70.1,230.4,70.1,229.3"
				/>
			<path fill="#FFFFFF" d="M126.1,218.4c-2.1-1.3-3.1-1.9-3.4-2.1c-0.8-0.6-1.2-1.5-1.2-2.7c0-0.9,0.2-1.6,0.7-2.2
				c0.5-0.6,1.3-0.9,2.2-0.8c0.9,0,1.9,0.4,2.9,1.1c1.3,0.9,2.4,2.2,3.3,3.9l0.5,0c0,0-0.3-6.6-0.3-6.6l0,0c-0.1,0-0.4,0.1-0.4,0.1
				h0v0c-0.2,0.8-0.5,1.2-1.1,1.2c-0.3,0-1.1-0.2-2-0.5c-1-0.3-2-0.5-2.8-0.5c-1.7,0-3.3,0.5-4.6,1.6c-1.6,1.2-2.3,2.9-2.3,4.9
				c0,1.9,0.7,3.4,2,4.6c0.4,0.4,1.6,1.2,3.6,2.4c2,1.2,3.1,1.9,3.4,2.2c1,0.9,1.6,2,1.6,3.2c0,1.1-0.4,2-1.4,2.7
				c-0.7,0.4-1.3,0.7-2,0.7c-0.1,0-0.2,0-0.3,0c-2.7-0.2-4.7-2.2-6-6l-0.7,0c0,0,0.4,7.6,0.4,7.6c0,0,0.4,0.1,0.4,0.1
				c0.5-0.7,1-1.1,1.7-1.1c0.3,0,0.8,0.2,1.7,0.5c0.9,0.4,1.9,0.6,3.2,0.6c1.8,0,3.4-0.5,4.8-1.6c1.8-1.3,2.8-3.2,2.7-5.7
				c0-1.5-0.8-3-2.1-4.3C129.6,220.6,128.1,219.6,126.1,218.4"/>
			<path fill="#FFFFFF" d="M142.7,218.4c-2.1-1.2-3.1-1.9-3.3-2.1c-0.8-0.6-1.2-1.5-1.2-2.7c0-0.9,0.2-1.6,0.7-2.2
				c0.5-0.6,1.3-0.9,2.2-0.8c0.9,0,1.9,0.4,2.9,1.1c1.3,0.9,2.4,2.1,3.3,3.9l0.5,0c0,0-0.3-6.6-0.3-6.6l0,0c-0.1,0-0.4,0.1-0.4,0.1
				h0l0,0c-0.2,0.8-0.5,1.2-1.1,1.2c-0.3,0-1-0.2-2-0.5c-1-0.3-2-0.5-2.8-0.5c-1.7,0-3.3,0.5-4.6,1.6c-1.6,1.2-2.4,2.9-2.3,4.9
				c0,1.9,0.7,3.4,2,4.6c0.4,0.4,1.7,1.2,3.7,2.4c1.9,1.2,3,1.9,3.4,2.2c1.1,0.9,1.6,2,1.6,3.2c0,1.1-0.4,2-1.4,2.7
				c-0.7,0.4-1.3,0.7-2,0.7c-0.1,0-0.2,0-0.3,0c-2.7-0.2-4.7-2.2-6-6l-0.7,0c0,0,0.4,7.6,0.4,7.6c0,0,0.4,0.1,0.4,0.1
				c0.5-0.7,1-1.1,1.7-1.1c0.3,0,0.8,0.2,1.7,0.5c0.9,0.4,1.9,0.6,3.2,0.6c1.8,0,3.4-0.5,4.8-1.6c1.8-1.3,2.7-3.2,2.7-5.7
				c0-1.5-0.8-3-2.1-4.3C146.2,220.6,144.7,219.6,142.7,218.4"/>
			<path fill="#FFFFFF" d="M164.8,209.3L164.8,209.3l0,0.3c1,0.1,1.4,0.7,1.4,1.9c0,0.4-0.1,0.9-0.2,1.3c-1,3.2-2.6,7.7-4.7,13.3
				c0,0-4.7-14.2-4.7-14.2c-0.1-0.4-0.2-0.7-0.2-1c0-0.9,0.5-1.4,1.6-1.4l0-0.3l-9.2,0l0,0.5c0.1,0,0.2,0,0.2,0
				c0.9,0,1.7,0.8,2.3,2.2c3,7.9,5.6,14.9,7.6,20.7c-0.2,0.9-0.5,1.7-0.8,2.4c-0.7,1.6-1.6,2.4-2.4,2.4c-0.4,0-0.9-0.2-1.5-0.5
				c-0.5-0.3-1-0.5-1.4-0.5c-1.6,0-2.3,0.6-2.3,1.8c0,0.4,0.2,0.8,0.7,1.2c0.6,0.5,1.4,0.8,2.4,0.8c1.2,0,2.4-0.4,3.5-1.2
				c1.1-0.8,1.9-1.8,2.4-3.1l8.4-23.2c0.2-0.7,0.6-1.3,1.2-2c0.6-0.8,1.2-1.2,1.7-1.2c0.1,0,0.1,0,0.2,0l0-0.3L164.8,209.3z"/>
			<path fill="#FFFFFF" d="M93.8,229.3v-15c0-1.2-0.6-2.5-1.6-3.6c-1.3-1.3-2.9-2-4.9-2c-1.5,0-2.9,0.4-4.3,1.3
				c-1.2,0.7-2,1.6-2.6,2.7l0-3.9l-0.2,0c-1.7,1.4-4,2.5-6.9,3.4l0,0.3c1.4,0,2.1,0.7,2.3,1.9v15c0,1.1-0.3,1.9-0.9,2.3
				c-0.2,0.2-0.7,0.4-1.3,0.6l0,0.3l8.7,0l0-0.3c-1.1-0.3-1.7-1.3-1.7-2.9v-11.9c0-1.4,0.3-2.7,0.9-3.8c0.8-1.4,2-2.1,3.5-2.1
				c2.7,0,4.1,1.6,4.1,4.6v13.2c0,1.6-0.6,2.5-1.7,2.9l0,0.3l8.6,0l0-0.3c-0.6-0.2-1-0.4-1.2-0.6C94.1,231.2,93.8,230.4,93.8,229.3"
				/>
			<path fill="#FFFFFF" d="M103.4,212c0.8-1.1,1.8-1.7,3-1.7c1.1,0,2.1,0.6,2.9,1.8c0.8,1.2,1.2,2.6,1.3,4.3l-8.8,0
				C102,214.6,102.5,213.1,103.4,212 M115.1,218.1c0.1-2.2-0.5-4.2-1.6-6c-1.5-2.3-3.8-3.5-6.6-3.5c-3.1,0-5.6,1.4-7.5,4.2
				c-1.6,2.4-2.4,5.2-2.4,8.2c0,3,0.6,5.6,1.9,7.7c1.5,2.6,3.7,3.9,6.6,3.9c2.9,0,5.3-1.2,7.2-3.5c1.3-1.6,2-3.2,2.2-4.7v0
				c0-0.1-0.1-0.2-0.3-0.3l-0.4,0c-0.9,1.6-1.4,2.5-1.6,2.8c-1.1,1.3-2.6,2-4.4,2c-2.2,0-3.9-1-5.1-2.9c-1.1-1.7-1.6-3.8-1.6-6.4
				l0.1-1.6L115.1,218.1z"/>
		</g>
	</g>
</g>
</svg>
