<svg id="BUY_NOW" xmlns="http://www.w3.org/2000/svg" viewBox="0 0 123 39"><style>.st0{fill:#fff}</style><path class="st0" d="M30.5 14.5h5c1.4 0 2.2.8 2.2 2.2v1.2c0 .8-.4 1.4-1.1 1.6.9.2 1.4.8 1.4 1.7v1.6c0 1.4-.8 2.2-2.2 2.2h-5.2V14.5zm2 1.6v2.6h2.7c.4 0 .6-.2.6-.5v-1.5c0-.4-.2-.6-.6-.6h-2.7zm0 4.3v2.9h2.9c.4 0 .6-.2.6-.6v-1.8c0-.4-.2-.5-.6-.5h-2.9zM47.7 14.5v8.3c0 1.4-.8 2.2-2.2 2.2h-3c-1.4 0-2.2-.8-2.2-2.2v-8.3h2v8.2c0 .4.2.6.6.6h2.3c.4 0 .6-.2.6-.6v-8.2h1.9zM52.5 24.9v-3.6L50 17.4c-.1-.1-.2-.5-.2-.9v-2h2v1.8c0 .3 0 .5.2.7l1.7 2.6 1.6-2.4c.1-.2.2-.4.2-.7v-1.9h1.9v2c0 .5-.2.8-.3.9l-2.5 3.8V25h-2.1zM64.6 18.2V25h-1.9V14.5h1.8l3.8 6.7v-6.7h1.9V25h-1.8l-3.8-6.8zM75 25c-1.4 0-2.2-.8-2.2-2.2v-6.2c0-1.4.8-2.2 2.2-2.2h3c1.4 0 2.2.8 2.2 2.2v6.2c0 1.4-.8 2.2-2.2 2.2h-3zm-.2-2.3c0 .4.2.6.6.6h2.3c.4 0 .6-.2.6-.6v-6.1c0-.4-.2-.6-.6-.6h-2.3c-.4 0-.6.2-.6.6v6.1zM93.2 14.5v2.4c0 .4-.1.8-.2.9L91 25h-2l-1.3-4.6-1.3 4.6h-2l-2-7.2c0-.1-.2-.5-.2-.9v-2.4h1.9v2.2c0 .3 0 .5.1.7l1.3 4.9 1.2-4.9c0-.2.1-.3.1-.7v-2.2h1.8v2.2c0 .2 0 .5.1.6l1.2 4.9 1.2-4.9c0-.2.1-.3.1-.7v-2.2h2z"/></svg>