<svg xmlns="http://www.w3.org/2000/svg" viewBox="0 0 194.3 69.3"><path fill="#FAAC55" d="M0 33.3l11.2-2 6.3 15.4c.3.6.4 1.2.5 1.7h.1c.1-.5.3-1.1.5-1.8L25 28.9l11.2-2v36l-11.2 2V45.4h-.1c-.2.8-.4 1.4-.7 2.1l-6.1 16.6L12 49.7c-.3-.6-.5-1.2-.7-1.9h-.1v19.5L0 69.3v-36zM40.5 50.1v-24l11.2-2v24c0 2.5.5 3.9 2.7 3.5 2.1-.4 2.7-2 2.7-4.5v-24l11.2-2v24c0 9-4.8 13.8-13.8 15.4-9.2 1.8-14-1.4-14-10.4zM72.6 20.5L92.3 17l.5 8.9-9 1.6V32l8-1.4v8.5l-8 1.4v14l-11.2 2v-36zM96.6 16.2l19.7-3.5.5 8.9-9 1.6v4.5l8-1.4v8.5l-8 1.4v14l-11.2 2v-36zM120.7 12l11.2-2v36l-11.2 2V12zM136.5 9.2l10.6-1.9 5.6 13.5c.3.7.5 1.4.7 2.1h.1V6.2l11.2-2v36L154 42.1l-5.6-13.5c-.3-.7-.5-1.4-.7-2.1h-.1v16.8l-11.2 2V9.2zM167.7 32.7l8.5-5.5c1.1 2.3 2.5 2.6 3.7 2.3 1.1-.2 2.1-1.4 2.1-2.4 0-5-12.8-4.7-12.8-15.2 0-5 4.3-10.2 11.7-11.6 7.4-1.3 11.2 1 13.3 4.7l-8 4.9c-.8-1.4-1.5-2.2-3.2-1.9-1.3.2-2.1 1.4-2.1 2.9 0 3.6 13.3 4.2 13.3 15.2 0 6.5-5.9 11-13.3 12.3-7.3 1.3-11.4-2-13.2-5.7z"/></svg>