<svg xmlns="http://www.w3.org/2000/svg" viewBox="0 0 343 338.4" width="343" height="338.4">
<g>
	<path fill="#FFFFFF" d="M0,0.2h2.4l3,9.4l3.1-9.4h1.9l3.1,9.4l3-9.4h2.3L14.5,13h-1.9L9.4,3.9L6.3,13H4.4L0,0.2z"/>
	<path fill="#FFFFFF" d="M24,0.2h2.2v5.3h6V0.2h2.2v12.6h-2.2V7.5h-6v5.3H24V0.2z"/>
	<path fill="#FFFFFF" d="M40.6,0.2H50v2h-7.2v3.3h6.3v2h-6.3v3.4h7.2v2h-9.5V0.2z"/>
	<path fill="#FFFFFF" d="M55.6,0.2h2.1L64.5,9V0.2h2.2v12.6h-1.9l-7-9v9h-2.2V0.2z"/>
	<path fill="#FFFFFF" d="M80.5,6.6L80.5,6.6C80.5,3,83.3,0,87.2,0c3.9,0,6.6,2.9,6.6,6.5v0c0,3.6-2.7,6.5-6.6,6.5
		S80.5,10.1,80.5,6.6z M91.4,6.6L91.4,6.6c0-2.5-1.8-4.5-4.3-4.5s-4.3,2-4.3,4.4v0c0,2.5,1.8,4.5,4.3,4.5C89.7,11,91.4,9,91.4,6.6z"
		/>
	<path fill="#FFFFFF" d="M99.4,0.2h2.1l6.8,8.7V0.2h2.2v12.6h-1.9l-7-9v9h-2.2V0.2z"/>
	<path fill="#FFFFFF" d="M116.5,0.2h9.4v2h-7.2v3.3h6.3v2h-6.3v3.4h7.2v2h-9.5V0.2z"/>
	<path fill="#FFFFFF" d="M138.6,11l1.5-1.5c0.7,1,1.5,1.5,2.5,1.5c1.2,0,2-0.8,2-2.5V0.2h2.3v8.3c0,1.5-0.5,2.6-1.2,3.4
		c-0.7,0.7-1.8,1.1-3.1,1.1C140.7,13,139.4,12.1,138.6,11z"/>
	<path fill="#FFFFFF" d="M152.3,6.6L152.3,6.6c0-3.6,2.7-6.6,6.6-6.6s6.6,2.9,6.6,6.5v0c0,3.6-2.7,6.5-6.6,6.5S152.3,10.1,152.3,6.6
		z M163.2,6.6L163.2,6.6c0-2.5-1.8-4.5-4.3-4.5c-2.5,0-4.3,2-4.3,4.4v0c0,2.5,1.8,4.5,4.3,4.5C161.4,11,163.2,9,163.2,6.6z"/>
	<path fill="#FFFFFF" d="M170.9,7.5V0.2h2.2v7.2c0,2.3,1.2,3.6,3.2,3.6c2,0,3.2-1.2,3.2-3.5V0.2h2.2v7.2c0,3.8-2.1,5.7-5.4,5.7
		C173,13.1,170.9,11.2,170.9,7.5z"/>
	<path fill="#FFFFFF" d="M187.6,0.2h5.6c1.6,0,2.8,0.5,3.6,1.3c0.7,0.7,1,1.6,1,2.7v0c0,2.1-1.2,3.3-3,3.8l3.4,4.8h-2.6l-3.1-4.4
		h-2.8v4.4h-2.2V0.2z M193.1,6.5c1.6,0,2.6-0.8,2.6-2.1v0c0-1.4-1-2.1-2.6-2.1h-3.2v4.2H193.1z"/>
	<path fill="#FFFFFF" d="M203.6,0.2h2.1l6.8,8.7V0.2h2.2v12.6h-1.9l-7-9v9h-2.2V0.2z"/>
	<path fill="#FFFFFF" d="M220.7,0.2h9.4v2H223v3.3h6.3v2H223v3.4h7.2v2h-9.5V0.2z"/>
	<path fill="#FFFFFF" d="M239.5,7.9l-5-7.7h2.6l3.5,5.6l3.6-5.6h2.5l-5,7.6v5h-2.2V7.9z"/>
	<path fill="#FFFFFF" d="M259.9,0.2h9.4v2h-7.2v3.3h6.3v2h-6.3v3.4h7.2v2h-9.5V0.2z"/>
	<path fill="#FFFFFF" d="M274.9,0.2h2.1l6.8,8.7V0.2h2.2v12.6H284l-7-9v9h-2.2V0.2z"/>
	<path fill="#FFFFFF" d="M292,0.2h4.7c4,0,6.7,2.7,6.7,6.3v0c0,3.6-2.7,6.3-6.7,6.3H292V0.2z M294.2,2.2v8.6h2.5
		c2.7,0,4.4-1.8,4.4-4.3v0c0-2.5-1.7-4.3-4.4-4.3H294.2z"/>
	<path fill="#FFFFFF" d="M308.2,11l1.3-1.6c1.2,1,2.4,1.6,4,1.6c1.4,0,2.2-0.6,2.2-1.6v0c0-0.9-0.5-1.4-2.9-1.9
		c-2.7-0.7-4.2-1.4-4.2-3.8v0c0-2.2,1.8-3.7,4.3-3.7c1.8,0,3.3,0.6,4.6,1.6l-1.2,1.7C315.3,2.5,314.1,2,313,2
		c-1.3,0-2.1,0.7-2.1,1.5v0c0,1,0.6,1.4,3,2c2.7,0.7,4,1.6,4,3.7v0c0,2.4-1.9,3.8-4.5,3.8C311.5,13,309.7,12.4,308.2,11z"/>
	<path fill="#FFFFFF" d="M323.1,10.4h2.4v2.5h-2.4V10.4z"/>
	<path fill="#FFFFFF" d="M330.8,10.4h2.4v2.5h-2.4V10.4z"/>
	<path fill="#FFFFFF" d="M338.6,10.4h2.4v2.5h-2.4V10.4z"/>
</g>
<g>
	<path fill="#FFFFFF" d="M5.6,40.1h2.1l5.6,12.8h-2.4l-1.3-3.1h-6l-1.3,3.1H0L5.6,40.1z M8.8,47.9l-2.2-5.1l-2.2,5.1H8.8z"/>
	<path fill="#FFFFFF" d="M18.3,40.2h2.1l6.8,8.8v-8.8h2.2v12.7h-1.9l-7-9v9h-2.2V40.2z"/>
	<path fill="#FFFFFF" d="M35,46.6L35,46.6c0-3.6,2.8-6.6,6.7-6.6s6.6,3,6.6,6.5v0c0,3.6-2.8,6.6-6.7,6.6S35,50.2,35,46.6z
		 M45.9,46.6L45.9,46.6c0-2.5-1.8-4.5-4.3-4.5s-4.3,2-4.3,4.5v0c0,2.5,1.8,4.5,4.3,4.5C44.1,51.1,45.9,49.1,45.9,46.6z"/>
	<path fill="#FFFFFF" d="M56.9,42.3h-4v-2.1h10.3v2.1h-4v10.6h-2.2V42.3z"/>
	<path fill="#FFFFFF" d="M68.4,40.2h2.2v5.3h6.1v-5.3h2.2v12.7h-2.2v-5.3h-6.1v5.3h-2.2V40.2z"/>
	<path fill="#FFFFFF" d="M85.1,40.2h9.4v2h-7.2v3.3h6.4v2h-6.4v3.4h7.3v2h-9.5V40.2z"/>
	<path fill="#FFFFFF" d="M100.1,40.2h5.7c1.6,0,2.8,0.5,3.7,1.3c0.7,0.7,1.1,1.6,1.1,2.7v0c0,2.1-1.3,3.3-3,3.8l3.4,4.8h-2.6
		l-3.1-4.4h-2.8v4.4h-2.2V40.2z M105.6,46.5c1.6,0,2.6-0.8,2.6-2.1v0c0-1.4-1-2.1-2.6-2.1h-3.2v4.3H105.6z"/>
	<path fill="#FFFFFF" d="M124.5,40.2h5.7c1.5,0,2.6,0.4,3.3,1.1c0.6,0.6,0.9,1.3,0.9,2.1v0c0,1.5-0.9,2.3-1.8,2.8
		c1.5,0.5,2.5,1.4,2.5,3.1v0c0,2.3-1.9,3.5-4.7,3.5h-5.9V40.2z M132.1,43.8c0-1-0.8-1.6-2.2-1.6h-3.2v3.4h3
		C131.2,45.6,132.1,45,132.1,43.8L132.1,43.8z M130.2,47.5h-3.5v3.5h3.7c1.5,0,2.4-0.6,2.4-1.7v0C132.8,48.1,132,47.5,130.2,47.5z"
		/>
	<path fill="#FFFFFF" d="M140.5,40.2h9.4v2h-7.2v3.3h6.4v2h-6.4v3.4h7.3v2h-9.5V40.2z"/>
	<path fill="#FFFFFF" d="M155,46.6L155,46.6c0-3.6,2.7-6.6,6.5-6.6c2.2,0,3.6,0.6,4.9,1.7l-1.4,1.7c-1-0.8-1.9-1.3-3.6-1.3
		c-2.3,0-4.1,2-4.1,4.5v0c0,2.6,1.7,4.5,4.3,4.5c1.2,0,2.3-0.4,3.1-1v-2.4h-3.2v-2h5.4v5.3c-1.3,1.1-3,2-5.3,2
		C157.6,53.1,155,50.3,155,46.6z"/>
	<path fill="#FFFFFF" d="M172.7,40.2h2.2v12.7h-2.2V40.2z"/>
	<path fill="#FFFFFF" d="M181.3,40.2h2.1l6.8,8.8v-8.8h2.2v12.7h-1.9l-7-9v9h-2.2V40.2z"/>
	<path fill="#FFFFFF" d="M197.6,51.1l1.3-1.6c1.2,1.1,2.4,1.6,4,1.6c1.4,0,2.2-0.7,2.2-1.6v0c0-0.9-0.5-1.4-2.9-1.9
		c-2.7-0.7-4.2-1.5-4.2-3.8v0c0-2.2,1.8-3.7,4.3-3.7c1.8,0,3.3,0.6,4.6,1.6l-1.2,1.7c-1.1-0.9-2.3-1.3-3.4-1.3
		c-1.3,0-2.1,0.7-2.1,1.5v0c0,1,0.6,1.4,3,2c2.7,0.7,4.1,1.6,4.1,3.7v0c0,2.4-1.9,3.8-4.5,3.8C201,53.1,199.2,52.4,197.6,51.1z"/>
	<path fill="#FFFFFF" d="M212.6,50.4h2.4v2.5h-2.4V50.4z"/>
</g>
<g>
	<path fill="#FFFFFF" d="M0,80.2h2.4l3,9.3l3.1-9.4h1.9l3.1,9.4l3-9.3h2.3l-4.4,12.7h-1.9l-3.1-9.1l-3.1,9.1H4.4L0,80.2z"/>
	<path fill="#FFFFFF" d="M23.9,80.2h2.2v5.2h6v-5.2h2.2v12.6h-2.2v-5.3h-6v5.3h-2.2V80.2z"/>
	<path fill="#FFFFFF" d="M45,80.1H47l5.5,12.7h-2.3l-1.3-3h-6l-1.3,3h-2.3L45,80.1z M48.1,87.8l-2.2-5l-2.2,5H48.1z"/>
	<path fill="#FFFFFF" d="M60.7,82.3h-4v-2.1h10.2v2.1h-4v10.5h-2.2V82.3z"/>
	<path fill="#FFFFFF" d="M71.1,84.4c1.1-0.2,1.6-0.8,1.5-1.7h-0.9v-2.5h2.4v2.1c0,2-1,2.8-2.8,3L71.1,84.4z"/>
	<path fill="#FFFFFF" d="M78.9,91l1.3-1.6c1.2,1,2.4,1.6,4,1.6c1.4,0,2.2-0.6,2.2-1.6v0c0-0.9-0.5-1.4-2.8-1.9
		c-2.7-0.6-4.2-1.4-4.2-3.8v0c0-2.2,1.8-3.7,4.3-3.7c1.8,0,3.3,0.6,4.6,1.6l-1.2,1.7C86,82.4,84.9,82,83.7,82
		c-1.3,0-2.1,0.7-2.1,1.5v0c0,1,0.6,1.4,3,2c2.7,0.6,4,1.6,4,3.7v0c0,2.4-1.9,3.8-4.5,3.8C82.3,93,80.5,92.3,78.9,91z"/>
	<path fill="#FFFFFF" d="M106.2,87.8l-5-7.6h2.6l3.5,5.6l3.6-5.6h2.5l-5,7.6v5h-2.2V87.8z"/>
	<path fill="#FFFFFF" d="M117.7,86.6L117.7,86.6c0-3.6,2.7-6.6,6.6-6.6s6.6,2.9,6.6,6.5v0c0,3.5-2.7,6.5-6.6,6.5
		C120.4,93,117.7,90.1,117.7,86.6z M128.5,86.6L128.5,86.6c0-2.5-1.8-4.5-4.3-4.5c-2.5,0-4.2,2-4.2,4.4v0c0,2.4,1.8,4.5,4.3,4.5
		C126.8,91,128.5,89,128.5,86.6z"/>
	<path fill="#FFFFFF" d="M136.2,87.5v-7.3h2.2v7.2c0,2.3,1.2,3.6,3.2,3.6c2,0,3.2-1.2,3.2-3.5v-7.3h2.2v7.1c0,3.8-2.1,5.7-5.4,5.7
		C138.3,93,136.2,91.1,136.2,87.5z"/>
	<path fill="#FFFFFF" d="M152.9,80.2h5.6c1.6,0,2.8,0.5,3.6,1.3c0.7,0.7,1,1.6,1,2.7v0c0,2.1-1.2,3.3-3,3.8l3.4,4.8H161l-3.1-4.4
		h-2.8v4.4h-2.2V80.2z M158.3,86.5c1.6,0,2.6-0.8,2.6-2.1v0c0-1.4-1-2.1-2.6-2.1h-3.2v4.2H158.3z"/>
	<path fill="#FFFFFF" d="M176.1,80.2h2.4l3,9.3l3.1-9.4h1.9l3.1,9.4l3-9.3h2.3l-4.4,12.7h-1.9l-3.1-9.1l-3.1,9.1h-1.9L176.1,80.2z"
		/>
	<path fill="#FFFFFF" d="M200.1,80.2h2.2v12.6h-2.2V80.2z"/>
	<path fill="#FFFFFF" d="M208.6,80.2h2.2v10.6h6.6v2h-8.8V80.2z"/>
	<path fill="#FFFFFF" d="M222.6,80.2h4.7c4,0,6.7,2.7,6.7,6.3v0c0,3.5-2.7,6.3-6.7,6.3h-4.7V80.2z M224.8,82.2v8.6h2.5
		c2.6,0,4.4-1.8,4.4-4.2v0c0-2.5-1.7-4.3-4.4-4.3H224.8z"/>
	<path fill="#FFFFFF" d="M247.8,80.2h5.6c1.6,0,2.8,0.5,3.6,1.3c0.7,0.7,1,1.6,1,2.7v0c0,2.1-1.2,3.3-3,3.8l3.4,4.8h-2.6l-3.1-4.4
		H250v4.4h-2.2V80.2z M253.3,86.5c1.6,0,2.6-0.8,2.6-2.1v0c0-1.4-1-2.1-2.6-2.1H250v4.2H253.3z"/>
	<path fill="#FFFFFF" d="M268.2,80.1h2.1l5.5,12.7h-2.3l-1.3-3h-6l-1.3,3h-2.3L268.2,80.1z M271.3,87.8l-2.2-5l-2.2,5H271.3z"/>
	<path fill="#FFFFFF" d="M280.8,80.2h5.7c1.4,0,2.6,0.4,3.3,1.1c0.6,0.6,0.8,1.3,0.8,2.1v0c0,1.5-0.9,2.3-1.8,2.8
		c1.5,0.5,2.5,1.3,2.5,3.1v0c0,2.2-1.9,3.5-4.7,3.5h-5.8V80.2z M288.4,83.8c0-1-0.8-1.6-2.2-1.6H283v3.3h3
		C287.4,85.5,288.4,85,288.4,83.8L288.4,83.8z M286.5,87.4H283v3.5h3.7c1.5,0,2.4-0.6,2.4-1.7v0C289.1,88,288.2,87.4,286.5,87.4z"/>
	<path fill="#FFFFFF" d="M296.7,80.2h5.7c1.4,0,2.6,0.4,3.3,1.1c0.6,0.6,0.8,1.3,0.8,2.1v0c0,1.5-0.9,2.3-1.8,2.8
		c1.5,0.5,2.5,1.3,2.5,3.1v0c0,2.2-1.9,3.5-4.7,3.5h-5.8V80.2z M304.3,83.8c0-1-0.8-1.6-2.2-1.6h-3.2v3.3h3
		C303.3,85.5,304.3,85,304.3,83.8L304.3,83.8z M302.4,87.4h-3.5v3.5h3.7c1.5,0,2.4-0.6,2.4-1.7v0C305,88,304.1,87.4,302.4,87.4z"/>
	<path fill="#FFFFFF" d="M312.7,80.2h2.2v12.6h-2.2V80.2z"/>
	<path fill="#FFFFFF" d="M324.2,82.3h-4v-2.1h10.2v2.1h-4v10.5h-2.2V82.3z"/>
	<path fill="#FFFFFF" d="M337.4,85.9L337.4,85.9c2.4-0.2,3.4-0.9,3.4-2.1v0c0-1-0.8-1.7-2.1-1.7c-1.1,0-2.1,0.5-2.9,1.4l-1.4-1.4
		c1-1.2,2.4-2,4.3-2c2.5,0,4.2,1.4,4.2,3.7v0c0,2.3-1.6,3.3-3.6,3.6l-0.2,1.4h-1.5L337.4,85.9z M337.2,90.3h2.4v2.5h-2.4V90.3z"/>
</g>
<g>
	<g id="RRZa06_2_">
		<g>
			<path fill="#FFFFFF" d="M43.8,203.1h2l6.5,8.4v-8.4h2.1v12.2h-1.8l-6.7-8.7v8.7h-2.1V203.1z"/>
			<path fill="#FFFFFF" d="M56.8,210.7L56.8,210.7c0-2.7,1.9-4.8,4.5-4.8c2.9,0,4.4,2.3,4.4,4.9c0,0.2,0,0.4,0,0.6h-6.8
				c0.2,1.5,1.3,2.3,2.6,2.3c1,0,1.8-0.4,2.5-1.1l1.2,1.1c-0.9,1-2.1,1.7-3.8,1.7C58.9,215.5,56.8,213.5,56.8,210.7z M63.6,210
				c-0.1-1.4-0.9-2.4-2.3-2.4c-1.3,0-2.2,1-2.4,2.4H63.6z"/>
			<path fill="#FFFFFF" d="M66.5,206.1h2.3l2.5,6.8l2.5-6.8H76l-3.8,9.3h-1.9L66.5,206.1z"/>
			<path fill="#FFFFFF" d="M76.7,210.7L76.7,210.7c0-2.7,1.9-4.8,4.5-4.8c2.9,0,4.4,2.3,4.4,4.9c0,0.2,0,0.4,0,0.6h-6.8
				c0.2,1.5,1.3,2.3,2.6,2.3c1,0,1.8-0.4,2.5-1.1l1.2,1.1c-0.9,1-2.1,1.7-3.8,1.7C78.8,215.5,76.7,213.5,76.7,210.7z M83.5,210
				c-0.1-1.4-0.9-2.4-2.3-2.4c-1.3,0-2.2,1-2.4,2.4H83.5z"/>
			<path fill="#FFFFFF" d="M87.8,206.1h2.1v2.1c0.6-1.4,1.6-2.3,3.3-2.2v2.2H93c-1.8,0-3.1,1.2-3.1,3.6v3.5h-2.1V206.1z"/>
			<path fill="#FFFFFF" d="M99.4,214.1l0.9-1.4c1,0.7,2.1,1.1,3,1.1c0.9,0,1.4-0.4,1.4-1v0c0-0.7-1-1-2.1-1.3
				c-1.4-0.4-2.9-0.9-2.9-2.7v0c0-1.7,1.4-2.8,3.3-2.8c1.1,0,2.4,0.4,3.4,1l-0.8,1.5c-0.9-0.5-1.8-0.9-2.6-0.9
				c-0.8,0-1.3,0.4-1.3,0.9v0c0,0.7,1,1,2.1,1.3c1.3,0.4,2.9,1,2.9,2.7v0c0,1.9-1.5,2.9-3.4,2.9C102,215.4,100.6,215,99.4,214.1z"/>
			<path fill="#FFFFFF" d="M109.1,212.7v-4.8H108v-1.8h1.2v-2.5h2.1v2.5h2.5v1.8h-2.5v4.5c0,0.8,0.4,1.1,1.1,1.1
				c0.5,0,0.9-0.1,1.3-0.3v1.7c-0.5,0.3-1.1,0.5-1.9,0.5C110.2,215.4,109.1,214.7,109.1,212.7z"/>
			<path fill="#FFFFFF" d="M115.1,210.7L115.1,210.7c0-2.7,2.1-4.8,4.9-4.8c2.8,0,4.9,2.1,4.9,4.8v0c0,2.6-2.1,4.8-4.9,4.8
				C117.2,215.5,115.1,213.3,115.1,210.7z M122.8,210.7L122.8,210.7c0-1.7-1.2-3-2.8-3c-1.7,0-2.8,1.3-2.8,2.9v0
				c0,1.6,1.2,2.9,2.8,2.9C121.7,213.6,122.8,212.3,122.8,210.7z"/>
			<path fill="#FFFFFF" d="M127,206.1h2.1v1.5c0.7-1,1.6-1.7,3.1-1.7c2.2,0,4.3,1.7,4.3,4.8v0c0,3-2.1,4.8-4.3,4.8
				c-1.5,0-2.5-0.8-3.1-1.6v4.2H127V206.1z M134.4,210.7L134.4,210.7c0-1.8-1.2-3-2.6-3c-1.4,0-2.7,1.2-2.7,2.9v0
				c0,1.8,1.3,2.9,2.7,2.9C133.2,213.6,134.4,212.5,134.4,210.7z"/>
			<path fill="#FFFFFF" d="M138.4,212.9h2.3v2.4h-2.3V212.9z"/>
			<path fill="#FFFFFF" d="M148.7,203.1h2l6.5,8.4v-8.4h2.1v12.2h-1.8l-6.7-8.7v8.7h-2.1V203.1z"/>
			<path fill="#FFFFFF" d="M161.7,210.7L161.7,210.7c0-2.7,1.9-4.8,4.5-4.8c2.9,0,4.4,2.3,4.4,4.9c0,0.2,0,0.4,0,0.6h-6.8
				c0.2,1.5,1.3,2.3,2.6,2.3c1,0,1.8-0.4,2.5-1.1l1.2,1.1c-0.9,1-2.1,1.7-3.8,1.7C163.7,215.5,161.7,213.5,161.7,210.7z M168.5,210
				c-0.1-1.4-0.9-2.4-2.3-2.4c-1.3,0-2.2,1-2.4,2.4H168.5z"/>
			<path fill="#FFFFFF" d="M171.4,206.1h2.3l2.5,6.8l2.5-6.8h2.2l-3.8,9.3h-1.9L171.4,206.1z"/>
			<path fill="#FFFFFF" d="M181.6,210.7L181.6,210.7c0-2.7,1.9-4.8,4.5-4.8c2.9,0,4.4,2.3,4.4,4.9c0,0.2,0,0.4,0,0.6h-6.8
				c0.2,1.5,1.3,2.3,2.6,2.3c1,0,1.8-0.4,2.5-1.1l1.2,1.1c-0.9,1-2.1,1.7-3.8,1.7C183.6,215.5,181.6,213.5,181.6,210.7z M188.4,210
				c-0.1-1.4-0.9-2.4-2.3-2.4c-1.3,0-2.2,1-2.4,2.4H188.4z"/>
			<path fill="#FFFFFF" d="M192.6,206.1h2.1v2.1c0.6-1.4,1.6-2.3,3.3-2.2v2.2h-0.1c-1.8,0-3.1,1.2-3.1,3.6v3.5h-2.1V206.1z"/>
			<path fill="#FFFFFF" d="M204.2,214.1l0.9-1.4c1,0.7,2.1,1.1,3,1.1c0.9,0,1.4-0.4,1.4-1v0c0-0.7-1-1-2.1-1.3
				c-1.4-0.4-2.9-0.9-2.9-2.7v0c0-1.7,1.4-2.8,3.3-2.8c1.1,0,2.4,0.4,3.4,1l-0.8,1.5c-0.9-0.5-1.8-0.9-2.6-0.9
				c-0.8,0-1.3,0.4-1.3,0.9v0c0,0.7,1,1,2.1,1.3c1.3,0.4,2.9,1,2.9,2.7v0c0,1.9-1.5,2.9-3.4,2.9C206.8,215.4,205.4,215,204.2,214.1z
				"/>
			<path fill="#FFFFFF" d="M213.2,210.7L213.2,210.7c0-2.7,1.9-4.8,4.5-4.8c2.9,0,4.4,2.3,4.4,4.9c0,0.2,0,0.4,0,0.6h-6.8
				c0.2,1.5,1.3,2.3,2.6,2.3c1,0,1.8-0.4,2.5-1.1l1.2,1.1c-0.9,1-2.1,1.7-3.8,1.7C215.3,215.5,213.2,213.5,213.2,210.7z M220,210
				c-0.1-1.4-0.9-2.4-2.3-2.4c-1.3,0-2.2,1-2.4,2.4H220z"/>
			<path fill="#FFFFFF" d="M224.6,212.7v-4.8h-1.2v-1.8h1.2v-2.5h2.1v2.5h2.5v1.8h-2.5v4.5c0,0.8,0.4,1.1,1.1,1.1
				c0.5,0,0.9-0.1,1.3-0.3v1.7c-0.5,0.3-1.1,0.5-1.9,0.5C225.7,215.4,224.6,214.7,224.6,212.7z"/>
			<path fill="#FFFFFF" d="M231.8,212.7v-4.8h-1.2v-1.8h1.2v-2.5h2.1v2.5h2.5v1.8h-2.5v4.5c0,0.8,0.4,1.1,1.1,1.1
				c0.5,0,0.9-0.1,1.3-0.3v1.7c-0.5,0.3-1.1,0.5-1.9,0.5C232.9,215.4,231.8,214.7,231.8,212.7z"/>
			<path fill="#FFFFFF" d="M238.6,202.6h2.1v12.7h-2.1V202.6z"/>
			<path fill="#FFFFFF" d="M243,210.7L243,210.7c0-2.7,1.9-4.8,4.5-4.8c2.9,0,4.4,2.3,4.4,4.9c0,0.2,0,0.4,0,0.6h-6.8
				c0.2,1.5,1.3,2.3,2.6,2.3c1,0,1.8-0.4,2.5-1.1l1.2,1.1c-0.9,1-2.1,1.7-3.8,1.7C245,215.5,243,213.5,243,210.7z M249.8,210
				c-0.1-1.4-0.9-2.4-2.3-2.4c-1.3,0-2.2,1-2.4,2.4H249.8z"/>
			<path fill="#FFFFFF" d="M253.7,212.9h2.3v2.4h-2.3V212.9z"/>
		</g>
	</g>
	<g>
		<g>
			<path fill="#FFFFFF" d="M47.1,122.1c0.7-0.9,1.4-1.4,2.3-1.4l0-0.6l-16.1,0l0,0.6c0.9,0,1.7,0.5,2.4,1.4c0.7,0.9,1,2,1,3.3v19.2
				l-23.3,0l0-19.2c0-1.2,0.3-2.3,0.8-3.3c0.5-0.9,1.3-1.4,2.1-1.4l0-0.6H0.3l0,0.6c0.9,0,1.7,0.5,2.4,1.5c0.7,1,1.1,2.1,1.1,3.2
				v45.6c0,1.2-0.4,2.2-1.2,3.2c-0.8,1-1.6,1.5-2.5,1.5l0,0.6h16.5l0-0.5c-1.7,0-2.8-1.6-3-4.7v-22.6l23.3,0l0,22.6
				c0,1.2-0.4,2.2-1.1,3.2c-0.8,1-1.6,1.5-2.6,1.5l0,0.6h16.4l0-0.5c-0.9,0-1.7-0.5-2.4-1.5c-0.7-1-1-2.1-1-3.2v-45.6
				C46.1,124.1,46.5,123,47.1,122.1"/>
			<path fill="#FFFFFF" d="M63.3,140.8c1.4-1.9,3.2-2.9,5.2-2.9c2,0,3.7,1,5,3c1.4,2,2.1,4.6,2.2,7.5l-15.2,0
				C61,145.2,61.9,142.6,63.3,140.8 M83.6,151.3c0.1-3.7-0.8-7.2-2.8-10.3c-2.6-4-6.5-6-11.4-6c-5.4,0-9.7,2.5-12.9,7.3
				c-2.7,4.1-4.1,8.9-4.1,14.1c0,5.3,1.1,9.7,3.2,13.4c2.6,4.5,6.5,6.8,11.4,6.8c5,0,9.2-2.1,12.4-6.1c2.2-2.8,3.5-5.5,3.8-8.2
				l0-0.1c0-0.2-0.2-0.4-0.6-0.5l-0.6-0.1c-1.6,2.8-2.5,4.4-2.8,4.8c-2,2.3-4.6,3.5-7.6,3.5c-3.7,0-6.7-1.7-8.8-5
				c-1.8-2.9-2.7-6.6-2.7-11l0.2-2.7L83.6,151.3z"/>
			<path fill="#FFFFFF" d="M120.9,170.6v-25.8c0-2.2-1-4.2-2.8-6.2c-2.2-2.3-5-3.5-8.4-3.5c-2.6,0-5.1,0.7-7.4,2.2h0
				c-2,1.3-3.5,2.8-4.5,4.6l0.1-6.7l-0.3,0c-2.9,2.3-6.9,4.3-11.9,5.8l0,0.6c2.4,0,3.7,1.1,3.9,3.3v25.8c0,1.9-0.5,3.2-1.5,3.9
				c-0.4,0.4-1.1,0.7-2.3,1l0,0.5l15,0l0-0.5c-1.9-0.6-2.9-2.2-2.9-5V150c0-2.4,0.5-4.6,1.6-6.6c1.4-2.4,3.5-3.7,6.1-3.7
				c4.7,0,7,2.7,7,8v22.8c0,2.7-1,4.4-3,4.9l0,0.5l14.7,0l0-0.5c-1-0.3-1.7-0.7-2.1-1C121.3,173.8,120.9,172.5,120.9,170.6"/>
			<path fill="#FFFFFF" d="M217.5,151.7c-3.6-2.2-5.4-3.3-5.8-3.7c-1.3-1.1-2-2.7-2.1-4.6c-0.1-1.5,0.4-2.8,1.3-3.8
				c0.9-1,2.2-1.5,3.8-1.4c1.6,0,3.2,0.7,5,1.8c2.2,1.5,4.1,3.8,5.6,6.7l0.9,0c0,0-0.6-11.4-0.6-11.4l0,0c-0.2,0-0.7,0.1-0.7,0.1h0
				v0c-0.3,1.4-0.9,2-1.9,2c-0.6,0-1.8-0.3-3.5-0.8c-1.8-0.6-3.4-0.8-4.8-0.8c-3,0-5.6,0.9-7.9,2.8c-2.7,2.1-4,5-4,8.4
				c0,3.2,1.2,5.9,3.4,7.9c0.7,0.6,2.8,2,6.3,4.1c3.4,2.1,5.3,3.3,5.8,3.8c1.8,1.6,2.8,3.4,2.8,5.6c0.1,2-0.8,3.5-2.4,4.6
				c-1.1,0.8-2.3,1.2-3.4,1.2c-0.2,0-0.4,0-0.6,0c-4.6-0.3-8.1-3.8-10.4-10.4l-1.2,0c0,0,0.7,13.1,0.7,13.1c0,0,0.6,0.1,0.6,0.1
				c0.8-1.3,1.8-1.9,2.9-1.9c0.5,0,1.4,0.3,2.9,0.9c1.5,0.6,3.3,1,5.5,1c3.1,0,5.8-0.9,8.3-2.7c3.2-2.2,4.7-5.6,4.7-9.8
				c-0.1-2.6-1.3-5.1-3.7-7.5C223.6,155.6,221,153.8,217.5,151.7"/>
			<path fill="#FFFFFF" d="M246.2,151.7c-3.5-2.1-5.4-3.3-5.8-3.7c-1.3-1.1-2-2.6-2.1-4.6c-0.1-1.5,0.4-2.8,1.3-3.8
				c0.9-1,2.2-1.5,3.8-1.4c1.6,0,3.2,0.7,5,1.8c2.2,1.5,4.1,3.7,5.7,6.7l0.9,0c0,0-0.6-11.4-0.6-11.4l0,0c-0.2,0-0.7,0.1-0.7,0.1h0
				l0,0c-0.3,1.4-0.9,2-1.9,2c-0.6,0-1.8-0.3-3.5-0.8c-1.8-0.6-3.4-0.8-4.8-0.8c-3,0-5.6,0.9-7.9,2.8c-2.7,2.1-4.1,5-4,8.4
				c0.1,3.2,1.2,5.9,3.4,7.9c0.7,0.6,2.9,2.1,6.3,4.1c3.3,2.1,5.3,3.3,5.8,3.8c1.8,1.6,2.8,3.4,2.8,5.6c0.1,2-0.8,3.5-2.4,4.6
				c-1.1,0.8-2.3,1.2-3.4,1.2c-0.2,0-0.4,0-0.6,0c-4.6-0.3-8.1-3.8-10.4-10.4l-1.2,0c0,0,0.7,13.1,0.7,13.1c0,0,0.6,0.1,0.6,0.1
				c0.8-1.3,1.8-1.9,2.9-1.9c0.5,0,1.4,0.3,2.9,0.9c1.5,0.6,3.3,1,5.5,1c3.1,0,5.8-0.9,8.3-2.7c3.2-2.2,4.7-5.5,4.7-9.8
				c-0.1-2.6-1.3-5.1-3.7-7.5C252.2,155.6,249.7,153.8,246.2,151.7"/>
			<path fill="#FFFFFF" d="M284.3,136.1L284.3,136.1l0,0.5c1.7,0.2,2.4,1.3,2.4,3.3c0,0.7-0.1,1.5-0.4,2.3c-1.7,5.5-4.5,13.3-8.1,23
				c0.1,0-8.1-24.5-8.1-24.5c-0.2-0.6-0.3-1.2-0.3-1.7c0-1.6,0.9-2.3,2.8-2.3l0-0.6l-15.9,0l0,0.9c0.1,0,0.3,0,0.4,0
				c1.6,0,2.9,1.3,3.9,3.9c5.2,13.7,9.6,25.7,13.2,35.7c-0.4,1.6-0.9,3-1.4,4.1c-1.3,2.7-2.7,4.1-4.2,4.1c-0.8,0-1.6-0.3-2.5-0.9
				c-0.9-0.6-1.8-0.9-2.5-0.9c-2.7,0-4,1-4,3.1c0,0.7,0.4,1.4,1.2,2.1c1,0.9,2.4,1.4,4.2,1.4c2,0,4.1-0.7,6-2.1
				c1.9-1.4,3.3-3.2,4.2-5.4l14.6-39.9c0.3-1.1,1-2.3,2-3.5c1.1-1.3,2-2,2.9-2c0.1,0,0.2,0,0.3,0l0-0.5L284.3,136.1z"/>
			<path fill="#FFFFFF" d="M161.9,170.6v-25.8c0-2.2-1-4.2-2.8-6.2c-2.2-2.3-5-3.5-8.4-3.5c-2.6,0-5.1,0.7-7.4,2.2
				c-2,1.3-3.5,2.8-4.5,4.6l0.1-6.7l-0.3,0c-2.9,2.4-6.9,4.3-11.9,5.8l0,0.6c2.4,0,3.7,1.1,3.9,3.3v25.8c0,1.9-0.5,3.2-1.5,3.9
				c-0.4,0.4-1.1,0.7-2.3,1l0,0.5l15,0l0-0.5c-1.9-0.6-2.9-2.2-2.9-5V150c0-2.4,0.5-4.6,1.6-6.6c1.4-2.4,3.5-3.7,6.1-3.7
				c4.6,0,7,2.7,7,8v22.8c0,2.8-1,4.4-3,4.9l0,0.5l14.8,0l0-0.5c-1-0.3-1.7-0.7-2.1-1C162.3,173.8,161.9,172.5,161.9,170.6"/>
			<path fill="#FFFFFF" d="M178.3,140.8c1.4-1.9,3.2-2.9,5.2-2.9c2,0,3.7,1,5,3c1.4,2,2.1,4.5,2.2,7.5l-15.2,0
				C176,145.2,176.9,142.7,178.3,140.8 M198.6,151.3c0.1-3.7-0.8-7.2-2.8-10.3c-2.7-4-6.5-6-11.4-6c-5.4,0-9.7,2.5-12.9,7.3
				c-2.8,4.2-4.2,8.9-4.2,14.1c0,5.2,1.1,9.7,3.2,13.4c2.6,4.5,6.5,6.8,11.5,6.8c5,0,9.2-2.1,12.4-6.1c2.2-2.8,3.5-5.5,3.8-8.2v-0.1
				c0-0.2-0.2-0.4-0.6-0.5l-0.6-0.1c-1.6,2.8-2.5,4.4-2.8,4.8c-2,2.3-4.6,3.5-7.6,3.5c-3.7,0-6.7-1.7-8.8-5c-1.8-2.9-2.8-6.6-2.8-11
				l0.2-2.7L198.6,151.3z"/>
		</g>
	</g>
</g>
<g>
	<path fill="#B99F62" d="M0,260.2h3.8c2.3,0,3.8,1.2,3.8,3.2v0c0,2.2-1.8,3.3-4,3.3H1.1v3.6H0V260.2z M3.7,265.7
		c1.7,0,2.8-0.9,2.8-2.2v0c0-1.4-1.1-2.2-2.7-2.2H1.1v4.5H3.7z"/>
	<path fill="#B99F62" d="M11.8,266.1v-5.9H13v5.8c0,2.2,1.2,3.4,3.1,3.4c1.9,0,3.1-1.1,3.1-3.3v-5.9h1.1v5.8c0,3-1.7,4.5-4.2,4.5
		C13.6,270.5,11.8,268.9,11.8,266.1z"/>
	<path fill="#B99F62" d="M25.3,260.2h4.4c1.2,0,2.2,0.4,2.9,1c0.5,0.5,0.8,1.2,0.8,2v0c0,1.7-1.2,2.7-2.8,3l3.1,4.1h-1.4l-2.9-3.9
		h-2.9v3.9h-1.1V260.2z M29.6,265.3c1.5,0,2.6-0.8,2.6-2.1v0c0-1.2-1-2-2.6-2h-3.1v4.1H29.6z"/>
	<path fill="#B99F62" d="M37.7,265.3L37.7,265.3c0-2.9,2.1-5.3,5.1-5.3c1.8,0,2.9,0.7,4,1.6l-0.8,0.8c-0.9-0.8-1.8-1.4-3.2-1.4
		c-2.2,0-3.9,1.8-3.9,4.2v0c0,2.3,1.7,4.2,3.9,4.2c1.4,0,2.3-0.5,3.3-1.5l0.8,0.7c-1.1,1.1-2.2,1.8-4.1,1.8
		C39.8,270.5,37.7,268.2,37.7,265.3z"/>
	<path fill="#B99F62" d="M51.2,260.2h1.1v4.5h5.9v-4.5h1.1v10.1h-1.1v-4.6h-5.9v4.6h-1.1V260.2z"/>
	<path fill="#B99F62" d="M68.3,260.1h1.1l4.6,10.2h-1.2l-1.2-2.7h-5.5l-1.2,2.7h-1.2L68.3,260.1z M71.1,266.6l-2.3-5.2l-2.3,5.2
		H71.1z"/>
	<path fill="#B99F62" d="M77.6,268.8l0.7-0.8c1.1,1,2.1,1.4,3.5,1.4c1.4,0,2.3-0.7,2.3-1.7v0c0-0.9-0.5-1.5-2.6-1.9
		c-2.3-0.5-3.4-1.3-3.4-2.9v0c0-1.6,1.4-2.8,3.3-2.8c1.5,0,2.5,0.4,3.6,1.2l-0.7,0.9c-0.9-0.8-1.9-1.1-2.9-1.1
		c-1.3,0-2.2,0.7-2.2,1.6v0c0,1,0.5,1.5,2.8,2c2.3,0.5,3.3,1.3,3.3,2.9v0c0,1.7-1.5,2.9-3.5,2.9C80.2,270.5,78.9,269.9,77.6,268.8z"
		/>
	<path fill="#B99F62" d="M89.9,260.2h7.3v1h-6.2v3.5h5.5v1h-5.5v3.6h6.3v1h-7.4V260.2z"/>
	<path fill="#B99F62" d="M108.6,260.2h1.1l6.4,8.1v-8.1h1.1v10.1h-0.9l-6.6-8.3v8.3h-1.1V260.2z"/>
	<path fill="#B99F62" d="M121.9,265.3L121.9,265.3c0-2.8,2.1-5.3,5.2-5.3s5.2,2.4,5.2,5.2v0c0,2.8-2.1,5.2-5.2,5.2
		S121.9,268.1,121.9,265.3z M131.1,265.3L131.1,265.3c0-2.3-1.7-4.2-4-4.2c-2.3,0-4,1.9-4,4.2v0c0,2.3,1.7,4.2,4,4.2
		C129.4,269.4,131.1,267.6,131.1,265.3z"/>
	<path fill="#B99F62" d="M136.2,260.2h1.2l2.9,8.4l2.8-8.5h0.9l2.8,8.5l2.9-8.4h1.2l-3.6,10.2h-1l-2.8-8.2l-2.8,8.2h-1L136.2,260.2z
		"/>
</g>
<g>
	<path fill="#B99F62" d="M0,300.2h1.3l2.9,8.5l2.8-8.6h1l2.8,8.6l2.9-8.5h1.2l-3.7,10.3h-1l-2.8-8.3l-2.8,8.3h-1L0,300.2z"/>
	<path fill="#B99F62" d="M23.1,300.1h1.1l4.7,10.3h-1.2l-1.2-2.7h-5.6l-1.2,2.7h-1.2L23.1,300.1z M26,306.7l-2.3-5.2l-2.3,5.2H26z"
		/>
	<path fill="#B99F62" d="M35.9,301.2h-3.5v-1.1h8.1v1.1H37v9.2h-1.2V301.2z"/>
	<path fill="#B99F62" d="M44.5,305.3L44.5,305.3c0-2.9,2.2-5.3,5.2-5.3c1.9,0,3,0.7,4,1.6l-0.8,0.8c-0.9-0.8-1.8-1.4-3.2-1.4
		c-2.3,0-4,1.8-4,4.2v0c0,2.4,1.7,4.2,4,4.2c1.4,0,2.3-0.5,3.3-1.5l0.8,0.7c-1.1,1.1-2.2,1.8-4.1,1.8
		C46.7,310.6,44.5,308.3,44.5,305.3z"/>
	<path fill="#B99F62" d="M58.1,300.2h1.2v4.6h5.9v-4.6h1.2v10.2h-1.2v-4.6h-5.9v4.6h-1.2V300.2z"/>
	<path fill="#B99F62" d="M81,301.2h-3.5v-1.1h8.1v1.1h-3.5v9.2H81V301.2z"/>
	<path fill="#B99F62" d="M90,300.2h1.2v4.6h5.9v-4.6h1.2v10.2h-1.2v-4.6h-5.9v4.6H90V300.2z"/>
	<path fill="#B99F62" d="M103.5,300.2h7.4v1.1h-6.2v3.5h5.6v1.1h-5.6v3.6h6.3v1.1h-7.5V300.2z"/>
	<path fill="#B99F62" d="M122.3,300.2h7.4v1.1h-6.2v3.7h5.5v1.1h-5.5v4.5h-1.2V300.2z"/>
	<path fill="#B99F62" d="M134.4,300.2h1.2v10.2h-1.2V300.2z"/>
	<path fill="#B99F62" d="M140.9,300.2h1.2v9.2h5.8v1.1h-6.9V300.2z"/>
	<path fill="#B99F62" d="M152.2,300.2h1.2l3.7,5.6l3.7-5.6h1.2v10.2h-1.2v-8.3l-3.7,5.5h-0.1l-3.7-5.5v8.3h-1.1V300.2z"/>
</g>
<path fill="#B99F62" d="M14.2,333.5l-3.7-3.5l-1,1.1l2.5,2.4H0v1.5h12l-2.5,2.4l1,1l3.7-3.4l0.8-0.8"/>
</svg>
