<?xml version="1.0" encoding="utf-8"?>
<!-- Generator: Adobe Illustrator 18.1.1, SVG Export Plug-In . SVG Version: 6.00 Build 0)  -->
<svg version="1.1" id="Layer_1" xmlns="http://www.w3.org/2000/svg" xmlns:xlink="http://www.w3.org/1999/xlink" x="0px" y="0px"
	 viewBox="0 0 245.9 78" enable-background="new 0 0 245.9 78" xml:space="preserve">
<path fill="#FAAA56" d="M0,61.3c0-10,4.3-19.8,14.4-21.5c5.7-1,12.2,0.8,13.6,9.5l-10.4,3.9c-0.5-3.1-1.2-4.8-3.2-4.4
	c-1.9,0.3-3.2,3.1-3.2,10.6c0,7.5,1.2,9.8,3.2,9.4c2-0.3,2.7-2.5,3.2-5.6l10.7,0.4c-1.6,7.5-6.4,12.9-13.9,14.2
	C4.3,79.5,0,71.3,0,61.3z"/>
<path fill="#FAAA56" d="M37.9,36.6l10.6-1.9L58.2,69l-11.7,2.1l-0.5-4.4l-5.3,0.9l-0.5,4.6l-11.7,2.1L37.9,36.6z M44.7,58.4
	l-1.2-8.8c-0.1-1-0.2-2-0.3-3l-0.1,0c-0.1,1-0.2,2-0.3,3l-1.2,9.2L44.7,58.4z"/>
<path fill="#FAAA56" d="M58.3,62l8.5-5.5c1.1,2.3,2.5,2.6,3.7,2.3c1.1-0.2,2.1-1.4,2.1-2.4c0-5-12.8-4.7-12.8-15.2
	c0-5,4.3-10.3,11.7-11.6c7.4-1.3,11.2,1,13.3,4.7l-8,4.9c-0.8-1.4-1.5-2.2-3.2-1.9c-1.3,0.2-2.1,1.4-2.1,2.9
	c0,3.6,13.3,4.2,13.3,15.2c0,6.5-5.9,11-13.3,12.3C64.1,69,60,65.7,58.3,62z"/>
<path fill="#FAAA56" d="M86.8,57l8.5-5.5c1.1,2.3,2.5,2.6,3.7,2.3c1.1-0.2,2.1-1.4,2.1-2.4c0-5-12.8-4.7-12.8-15.2
	c0-5,4.3-10.3,11.7-11.6c7.4-1.3,11.2,1,13.3,4.7l-8,4.9c-0.8-1.4-1.5-2.2-3.2-1.9c-1.3,0.2-2.1,1.4-2.1,2.9
	c0,3.6,13.3,4.2,13.3,15.2c0,6.5-5.9,11-13.3,12.3C92.7,63.9,88.6,60.7,86.8,57z"/>
<path fill="#FAAA56" d="M117,22.6l19.7-3.5l0.5,8.9l-9,1.6v4.5l8-1.4v8.5l-8,1.4v4.5l9-1.6l-0.5,9.6L117,58.6V22.6z"/>
<path fill="#FAAA56" d="M141.6,18.3l14.4-2.5c6.2-1.1,12.2,1.8,12.2,8.3c0,6-2.1,8.9-5.5,11l6.1,14.4l-11.2,2l-4.7-13.2l-0.1,0v14
	l-11.2,2V18.3z M158.1,26.9c0-3.2-2.1-3.6-5.3-3.1v8C156,31.3,158.1,30,158.1,26.9z"/>
<path fill="#FAAA56" d="M170.7,31.2c0-11.5,5.2-19.9,14.6-21.6C194.8,7.9,200,14.5,200,26s-5.2,19.9-14.7,21.6
	C175.9,49.3,170.7,42.7,170.7,31.2z M188.8,28c0-7-0.9-9.9-3.5-9.4c-2.6,0.5-3.5,3.6-3.5,10.6c0,7,0.9,9.8,3.5,9.4
	C187.9,38.1,188.8,35,188.8,28z"/>
<path fill="#FAAA56" d="M203.5,7.4l11.2-2v27l8.5-1.5l-1.1,9.2l-18.6,3.3V7.4z"/>
<path fill="#FAAA56" d="M225.7,3.5L245.4,0l0.5,8.9l-9,1.6V15l8-1.4v8.5l-8,1.4V28l9-1.6l-0.5,9.6l-19.7,3.5V3.5z"/>
</svg>
