<svg xmlns="http://www.w3.org/2000/svg" xmlns:xlink="http://www.w3.org/1999/xlink" viewBox="0 0 456.6 44.3"><image overflow="visible" width="458" height="44" xlink:href="9C7D799C9C0E4CE1.png"/><path fill-rule="evenodd" clip-rule="evenodd" d="M456.6 21.8c0-12.1-10-21.8-22.3-21.8-1.2 0-2.4.1-3.5.3H0v44h436v-.7c11.5-.9 20.6-10.3 20.6-21.8z"/><g fill-rule="evenodd" clip-rule="evenodd"><path fill="#FFF" d="M434.9 7c8 0 14.5 6.4 14.5 14.2 0 7.9-6.5 14.2-14.5 14.2s-14.5-6.4-14.5-14.2c-.1-7.8 6.4-14.2 14.5-14.2z"/><path fill="#E20074" d="M444.5 22L429 12s4.3 8.7 0 18.3l15.5-8.3z"/></g><g fill="#FFF"><path d="M122.4 26.3h2.1c.1 1 .3 1.8.6 2.3.7 1.1 1.7 1.6 3.1 1.6 1.2 0 2.1-.4 2.7-1.1.4-.5.7-1.2.7-2 0-1-.4-1.9-1.3-2.4-.4-.2-1.3-.6-2.8-1.1-1.5-.5-2.6-1.1-3.3-1.7-1-.8-1.4-1.9-1.4-3.3 0-1.3.4-2.4 1.3-3.3 1-1 2.2-1.5 3.8-1.5 1.3 0 2.5.4 3.4 1.1.9.6 1.5 1.5 1.8 2.5.1.4.2.9.3 1.5h-2.2c-.1-.8-.2-1.4-.6-1.9-.6-.9-1.5-1.3-2.7-1.3-.9 0-1.5.2-2.1.7-.6.5-.8 1.2-.8 2 0 .9.4 1.7 1.3 2.2.4.3 1.3.6 2.5 1 1.1.3 1.8.6 2.1.7 2.1.9 3.1 2.4 3.1 4.4 0 1.4-.5 2.6-1.5 3.6s-2.4 1.5-4.1 1.5c-2.3 0-4-.9-5-2.6-.6-.5-.9-1.6-1-2.9zM140.9 31.7l-3.7-17.3h2.1l2.8 14.4 3.2-14.4h2.4l3.1 14.4 2.9-14.4h2.1L152 31.7h-2.2L146.6 17l-3.3 14.7h-2.4zM160.2 31.7V14.4h2.1v17.3h-2.1zM171.7 31.7V16.2h-4.8v-1.8h11.8v1.8h-4.8v15.5h-2.2zM192.8 25.2h2.2c-.1 1.6-.5 3-1.2 4.1-1.2 1.9-2.8 2.8-5.1 2.8-2.2 0-3.9-.8-5.1-2.5-1.2-1.7-1.8-3.9-1.8-6.6 0-2.6.6-4.7 1.8-6.4 1.3-1.8 3-2.7 5.2-2.7 2.1 0 3.7.8 4.9 2.4.7.9 1.1 2 1.2 3.2h-2.2c-.2-.9-.5-1.7-.9-2.2-.8-1-1.8-1.5-3-1.5-1.5 0-2.7.7-3.5 2.1-.8 1.4-1.2 3.1-1.2 5.2 0 2.2.4 4 1.3 5.4.8 1.2 1.9 1.9 3.4 1.9 1.7 0 2.9-.9 3.6-2.6.1-.7.3-1.6.4-2.6zM200 31.7V14.4h2.1v7.3h7.4v-7.3h2.1v17.3h-2.1v-8.2h-7.4v8.2H200zM228.1 31.7V16.2h-4.8v-1.8h11.8v1.8h-4.8v15.5h-2.2zM245.3 14c1.4 0 2.6.4 3.7 1.2 1.2.9 2 2.1 2.6 3.7.4 1.2.6 2.6.6 4.1 0 2.4-.5 4.4-1.5 6-.6 1-1.4 1.7-2.4 2.3-.9.5-2 .8-3.1.8-1.6 0-3-.5-4.2-1.6-1.9-1.7-2.8-4.2-2.8-7.5 0-2.8.7-5 2-6.6 1.3-1.6 3-2.4 5.1-2.4zm-.1 1.8c-1.4 0-2.5.6-3.4 1.9-.9 1.3-1.4 3.1-1.4 5.2s.4 3.7 1.1 5.1c.4.8 1 1.3 1.8 1.8.6.3 1.2.5 1.9.5.9 0 1.7-.3 2.4-.8.8-.6 1.4-1.6 1.9-2.9.3-1 .5-2.2.5-3.5 0-2.2-.4-3.9-1.3-5.3-.8-1.3-2-2-3.5-2zM257.5 31.7V14.4h4.8c1.3 0 2.4.2 3.2.5 1.5.6 2.6 1.7 3.3 3.4.5 1.3.8 2.8.8 4.5 0 2.9-.7 5.2-2.1 6.8-.8.9-1.7 1.5-2.8 1.9-.5.2-1.3.2-2.2.2h-5zm2.1-1.8h2.5c1 0 1.8-.1 2.3-.3.9-.3 1.7-1.1 2.3-2.4.5-1.1.7-2.6.7-4.4 0-2.4-.5-4.1-1.6-5.3-.5-.5-1.1-.9-1.7-1.1-.5-.2-1.1-.2-1.8-.2h-2.7v13.7zM278.3 14.4h2.3l5.6 17.3H284l-1.6-5.3h-5.9l-1.6 5.3h-2.2l5.6-17.3zM277 24.6h4.8l-2.4-7.9-2.4 7.9zM292.9 31.7v-7.1l-5.6-10.2h2.5l4.3 8.2 4.2-8.2h2.4l-5.6 10.2v7.1h-2.2z"/></g></svg>