<svg id="BUY_NOW" xmlns="http://www.w3.org/2000/svg" viewBox="0 0 104 29"><style>.st0{fill:#fff}</style><path class="st0" d="M18.1 9.3h5.5c1.6 0 2.4.9 2.4 2.4v1.4c0 .9-.4 1.5-1.2 1.8 1 .2 1.5.9 1.5 1.9v1.8c0 1.6-.8 2.4-2.4 2.4h-5.7V9.3zm2.1 1.9v2.9h3c.4 0 .6-.2.6-.6v-1.7c0-.4-.2-.6-.6-.6h-3zm0 4.7v3.3h3.2c.4 0 .6-.2.6-.6v-2c0-.4-.2-.6-.6-.6h-3.2zM36.9 9.3v9.3c0 1.6-.9 2.5-2.4 2.5h-3.3c-1.6 0-2.4-.9-2.4-2.5V9.3H31v9.2c0 .4.2.7.6.7h2.5c.4 0 .6-.2.6-.7V9.3h2.2zM42.2 21v-4l-2.7-4.3c-.1-.1-.3-.5-.3-1V9.3h2.2v2c0 .4 0 .6.2.8l1.8 2.9 1.7-2.7c.1-.2.2-.5.2-.8V9.3h2.1v2.3c0 .5-.2.9-.3 1l-2.7 4.3V21h-2.2zM55.4 13.5V21h-2V9.3h2l4.1 7.5V9.3h2V21h-2l-4.1-7.5zM66.8 21.1c-1.6 0-2.4-.9-2.4-2.5v-6.9c0-1.6.9-2.5 2.4-2.5h3.3c1.6 0 2.4.9 2.4 2.5v6.9c0 1.6-.9 2.5-2.4 2.5h-3.3zm-.3-2.5c0 .4.2.7.6.7h2.5c.4 0 .6-.2.6-.7v-6.8c0-.4-.2-.7-.6-.7h-2.5c-.4 0-.6.2-.6.7v6.8zM86.7 9.3V12c0 .4-.1.9-.2 1l-2.2 8h-2.1l-1.4-5.2-1.5 5.2h-2.2L75 13c0-.2-.2-.6-.2-1V9.3h2.1v2.4c0 .4 0 .6.1.8l1.4 5.5 1.3-5.5c0-.2.1-.4.1-.8V9.3h1.9v2.5c0 .2 0 .5.1.7l1.3 5.5 1.4-5.5c0-.2.1-.4.1-.8V9.3h2.1z"/></svg>