<?xml version="1.0" encoding="utf-8"?>
<!-- Generator: Adobe Illustrator 18.1.1, SVG Export Plug-In . SVG Version: 6.00 Build 0)  -->
<svg version="1.1" id="Layer_1" xmlns="http://www.w3.org/2000/svg" xmlns:xlink="http://www.w3.org/1999/xlink" x="0px" y="0px"
	 viewBox="0 0 82.7 50.5" enable-background="new 0 0 82.7 50.5" xml:space="preserve">
<path fill="#FAAC55" d="M9.6,12.8l10.6-1.9l9.6,34.3l-11.7,2.1l-0.5-4.4l-5.3,0.9l-0.5,4.6L0,50.5L9.6,12.8z M16.4,34.6l-1.2-8.8
	c-0.1-1-0.2-2-0.3-3l-0.1,0c-0.1,1-0.2,2-0.3,3l-1.2,9.2L16.4,34.6z"/>
<path fill="#FAAC55" d="M32.3,8.8l14.4-2.5c6.2-1.1,12.2,1.8,12.2,8.3c0,6-2.1,8.9-5.5,11L59.4,40l-11.2,2l-4.7-13.2l-0.1,0v14
	l-11.2,2V8.8z M48.8,17.4c0-3.2-2.1-3.6-5.3-3.1v8C46.7,21.8,48.8,20.5,48.8,17.4z"/>
<path fill="#FAAC55" d="M62.5,3.5L82.2,0l0.5,8.9l-9,1.6V15l8-1.4v8.5l-8,1.4V28l9-1.6L82.2,36l-19.7,3.5V3.5z"/>
</svg>
