<?xml version="1.0" encoding="utf-8"?>
<!-- Generator: Adobe Illustrator 18.1.1, SVG Export Plug-In . SVG Version: 6.00 Build 0)  -->
<svg version="1.1" id="Layer_1" xmlns="http://www.w3.org/2000/svg" xmlns:xlink="http://www.w3.org/1999/xlink" x="0px" y="0px"
	 viewBox="0 0 194.3 69.3" enable-background="new 0 0 194.3 69.3" xml:space="preserve">
<path fill="#FAAC55" d="M0,33.3l11.2-2l6.3,15.4c0.3,0.6,0.4,1.2,0.5,1.7l0.1,0c0.1-0.5,0.3-1.1,0.5-1.8L25,28.9l11.2-2v36l-11.2,2
	V45.4l-0.1,0c-0.2,0.8-0.4,1.4-0.7,2.1l-6.1,16.6L12,49.7c-0.3-0.6-0.5-1.2-0.7-1.9l-0.1,0v19.5L0,69.3V33.3z"/>
<path fill="#FAAC55" d="M40.5,50.1v-24l11.2-2v24c0,2.5,0.5,3.9,2.7,3.5c2.1-0.4,2.7-2,2.7-4.5v-24l11.2-2v24
	c0,9-4.8,13.8-13.8,15.4C45.3,62.3,40.5,59.1,40.5,50.1z"/>
<path fill="#FAAC55" d="M72.6,20.5L92.3,17l0.5,8.9l-9,1.6V32l8-1.4v8.5l-8,1.4v14l-11.2,2V20.5z"/>
<path fill="#FAAC55" d="M96.6,16.2l19.7-3.5l0.5,8.9l-9,1.6v4.5l8-1.4v8.5l-8,1.4v14l-11.2,2V16.2z"/>
<path fill="#FAAC55" d="M120.7,12l11.2-2v36l-11.2,2V12z"/>
<path fill="#FAAC55" d="M136.5,9.2l10.6-1.9l5.6,13.5c0.3,0.7,0.5,1.4,0.7,2.1l0.1,0V6.2l11.2-2v36L154,42.1l-5.6-13.5
	c-0.3-0.7-0.5-1.4-0.7-2.1l-0.1,0v16.8l-11.2,2V9.2z"/>
<path fill="#FAAC55" d="M167.7,32.7l8.5-5.5c1.1,2.3,2.5,2.6,3.7,2.3c1.1-0.2,2.1-1.4,2.1-2.4c0-5-12.8-4.7-12.8-15.2
	c0-5,4.3-10.2,11.7-11.6c7.4-1.3,11.2,1,13.3,4.7l-8,4.9c-0.8-1.4-1.5-2.2-3.2-1.9c-1.3,0.2-2.1,1.4-2.1,2.9
	c0,3.6,13.3,4.2,13.3,15.2c0,6.5-5.9,11-13.3,12.3C173.6,39.7,169.5,36.4,167.7,32.7z"/>
</svg>
