<svg id="Layer_1" data-name="Layer 1" xmlns="http://www.w3.org/2000/svg" viewBox="0 0 94.81 11.06"><defs><style>.cls-1{fill:#19458d}</style></defs><title>ctaOver</title><path class="cls-1" d="M28.07 13h4.79a3.85 3.85 0 0 1 2.79.95 2.42 2.42 0 0 1 .72 1.77 2.55 2.55 0 0 1-1.53 2.38A2.62 2.62 0 0 1 37 20.69c0 1.91-1.57 2.93-4 2.93h-4.93V13zm6.42 3c0-.84-.67-1.36-1.88-1.36h-2.7v2.84h2.56c1.21 0 2-.47 2-1.45zm-1.6 3.07h-3V22H33c1.27 0 2.06-.5 2.06-1.47.03-.94-.69-1.47-2.17-1.47zm6.95.05V13h1.88v6c0 2 1 3 2.7 3s2.69-1 2.69-3v-6H49v6c0 3.19-1.8 4.79-4.59 4.79s-4.57-1.57-4.57-4.67zm15.78.32L51.37 13h2.23l3 4.72 3-4.72h2.15l-4.24 6.43v4.26h-1.89v-4.25zM69.81 13h1.74l5.72 7.39V13h1.85v10.65h-1.57L71.66 16v7.61h-1.85V13zm12.5 5.34a5.58 5.58 0 0 1 11.17 0 5.58 5.58 0 0 1-11.17 0zm9.2 0a3.65 3.65 0 0 0-3.63-3.79 3.6 3.6 0 0 0-3.6 3.76 3.65 3.65 0 0 0 3.63 3.79 3.6 3.6 0 0 0 3.6-3.76zM95.26 13h2l2.55 7.93 2.62-8H104l2.62 8 2.6-7.93h2l-3.71 10.77h-1.63L103.22 16l-2.62 7.68H99zm23.68 9.34l1.92-2.7-1.92-2.72 1.31-.69 2.62 3.33v.12L120.26 23z" transform="translate(-28.07 -12.78)"/></svg>