<svg id="Layer_1" data-name="Layer 1" xmlns="http://www.w3.org/2000/svg" viewBox="0 0 224.93 109.18"><defs><style>.cls-1{fill:#fff}.cls-2{fill:#00c1de}.cls-3{fill:#82bc00}.cls-4{fill:#b00060}.cls-5{fill:#e2231a}</style></defs><title>logo</title><g id="_Group_" data-name="&amp;lt;Group&amp;gt;"><path id="_Compound_Path_" data-name="&amp;lt;Compound Path&amp;gt;" class="cls-1" d="M61.33 1.37h9.57v58.94h-9.57V1.37zm63.23 29.47c6.72 3.53 12 8.4 14.39 13.27a15 15 0 0 1 1.66 6.54 11 11 0 0 1-11 11A15 15 0 0 1 123 60c-4.86-2.36-9.72-7.66-13.25-14.36-3.53 6.71-8.4 12-13.25 14.36a15 15 0 0 1-6.5 1.68 11.07 11.07 0 0 1-11-11 15.36 15.36 0 0 1 1.65-6.53C83 39.24 88.29 34.37 95 30.84c-6.72-3.53-12-8.39-14.4-13.26a15.31 15.31 0 0 1-1.6-6.53 10.85 10.85 0 0 1 3.2-7.82A10.81 10.81 0 0 1 90 0a15.06 15.06 0 0 1 6.54 1.65C101.38 4 106.24 9.3 109.78 16c3.53-6.7 8.39-12 13.22-14.35A15.09 15.09 0 0 1 129.56 0a10.84 10.84 0 0 1 7.8 3.23A10.87 10.87 0 0 1 140.6 11a15 15 0 0 1-1.66 6.54c-2.36 4.9-7.66 9.77-14.39 13.3zm-71.13 0a28.9 28.9 0 0 1-8.89 21.28 30.91 30.91 0 0 1-21.42 8.19H0V1.37h23.11a30.93 30.93 0 0 1 21.42 8.19 28.89 28.89 0 0 1 8.9 21.28zm-9.73 0c0-6.06-2-11.23-5.79-15a20.85 20.85 0 0 0-14.8-5.62H9.57v41.2h13.54a20.85 20.85 0 0 0 14.8-5.62c3.78-3.72 5.79-8.9 5.79-14.96zm105 29.47h9.56V1.37h-9.56v58.94zm67.58-17.25l6.7 6-1.28 1.63c-5.71 7.27-14 11-24.71 11a30.71 30.71 0 0 1-22.18-8.94 30.94 30.94 0 0 1-8.65-21.91 31.25 31.25 0 0 1 8.68-21.89 28.93 28.93 0 0 1 21-8.95c17 0 28.75 12.79 29.12 31.83v2.26H176c1.38 11.4 9.49 18.71 21 18.71 8 0 13.34-2.37 17.82-7.93zm-39.85-17.87h38.36a22 22 0 0 0-5.26-11c-3.34-3.52-8-5.31-13.76-5.31-9.77 0-17.24 6.36-19.34 16.31z"/><g id="_Group_2" data-name="&amp;lt;Group&amp;gt;"><path id="_Path_" data-name="&amp;lt;Path&amp;gt;" class="cls-2" d="M107 33.62l-1.33.17a25.35 25.35 0 0 0-17.76 12.12 9.39 9.39 0 0 0-1.31 3.49 3.91 3.91 0 0 0 4.62 4.6 9.7 9.7 0 0 0 3.49-1.32 25.3 25.3 0 0 0 12.12-17.78z"/><path id="_Path_2" data-name="&amp;lt;Path&amp;gt;" class="cls-3" d="M107 28.05l-.18-1.31A25.27 25.27 0 0 0 94.71 9a9.52 9.52 0 0 0-3.49-1.32 4.08 4.08 0 0 0-3.57 1.02 4.09 4.09 0 0 0-1.05 3.57 9.49 9.49 0 0 0 1.31 3.49 25.33 25.33 0 0 0 17.77 12.11z"/><path id="_Path_3" data-name="&amp;lt;Path&amp;gt;" class="cls-4" d="M113.88 33.79l-1.32-.17.18 1.31a25.29 25.29 0 0 0 12.12 17.78 9.61 9.61 0 0 0 3.48 1.29 4.11 4.11 0 0 0 3.57-1 4 4 0 0 0 1.09-3.6 9.42 9.42 0 0 0-1.32-3.48 25.34 25.34 0 0 0-17.8-12.13z"/><path id="_Path_4" data-name="&amp;lt;Path&amp;gt;" class="cls-5" d="M131.64 15.76a9.52 9.52 0 0 0 1.36-3.48 4.06 4.06 0 0 0-1.06-3.57 4.09 4.09 0 0 0-3.57-1.05A9.43 9.43 0 0 0 124.85 9a25.26 25.26 0 0 0-12.12 17.78l-.18 1.31 1.32-.18a25.32 25.32 0 0 0 17.77-12.15z"/></g></g><path class="cls-5" d="M30.08 94.46V75.94h-4.2V70H41.3v5.9h-4.62v18.21c0 5.9 3 9.06 7.89 9.06s7.95-2.86 7.95-8.82V75.94H47.9V70h15.25v5.9h-4.21v18.4c0 10-5.9 14.84-14.37 14.84s-14.49-4.75-14.49-14.68zm35.45 8.12h4.38V75.94h-4.38V70H81.6v5.9h-5.09v26.7h10.58v-5.4h6.37v11.28H65.53v-5.9zm33.89 0h4.79V75.76h-7.12v6.08h-6.25V70h33.36v11.8h-6.25v-6.04h-7.13v26.82h4.79v5.9H99.42v-5.9zm27.05 0h4.38V75.94h-4.38V70h14.9c8.82 0 15.13 3.8 15.13 11.63a11.13 11.13 0 0 1-7.24 10.46l5.9 10.46h4.38v5.9h-8.88l-7.71-14.61c-.82.06-1.58.12-2.34.12-1.23 0-2.34 0-3.16-.06v8.65h4.79v5.9h-15.77v-5.9zm23.19-20.68c0-4-3.33-6-8.65-6h-3.56v12.36c.7.06 1.64.12 3.74.12 4.97 0 8.47-2.45 8.47-6.48zM161 102.58h3.33l9.58-26.7h-4.21V70h21.73v5.84h-4.21l9.58 26.7h3.33v5.9h-14.74v-5.84h4.44l-2.16-6.31h-14.38l-2.16 6.31h4.67v5.84H161v-5.9zm24.83-11.74l-5.35-15.14-5.37 15.13h10.75zm23.61 16.48a3.33 3.33 0 0 1-5.67-2.39 3.18 3.18 0 0 1 1-2.43 3.27 3.27 0 0 1 2.29-.9 3.34 3.34 0 0 1 2.38 5.72zm-4.29-4.32a2.76 2.76 0 0 0 2 4.71 2.63 2.63 0 0 0 1.94-.81 2.7 2.7 0 0 0 .8-2 2.67 2.67 0 0 0-.89-1.9 2.7 2.7 0 0 0-3.85 0zm.5 3.78v-3.69h1.79a1.79 1.79 0 0 1 .73.19.93.93 0 0 1 .49.88.81.81 0 0 1-.26.67 1.21 1.21 0 0 1-.64.25 1.25 1.25 0 0 1 .52.21 1 1 0 0 1 .33.83v.33a.78.78 0 0 0 0 .11.52.52 0 0 0 0 .11v.1h-.92a2.71 2.71 0 0 1-.06-.51 1.7 1.7 0 0 0-.06-.45.45.45 0 0 0-.27-.27 1.07 1.07 0 0 0-.33-.06h-.42v1.31h-1zm1.76-3a1.62 1.62 0 0 0-.56-.08h-.24v1.07h.39a.89.89 0 0 0 .53-.14.5.5 0 0 0 .19-.44.42.42 0 0 0-.31-.37z"/></svg>