<svg id="Layer_1" data-name="Layer 1" xmlns="http://www.w3.org/2000/svg" viewBox="0 0 203.3 41.84"><defs><style>.cls-1{fill:#fff}</style></defs><title>txt1</title><path class="cls-1" d="M0 11.68l5.24-4c1.3-1 1.82-1.68 1.82-2.52a1.41 1.41 0 0 0-1.58-1.44c-.94 0-1.68.56-2.78 1.82L.08 3.36a6.5 6.5 0 0 1 5.7-3c3.06 0 5.16 1.82 5.16 4.46 0 2.24-1.16 3.4-3.24 4.9l-2.4 1.72h5.78v3.16H0v-2.92zm17.74-5.2l1.62-2.7h4L19.8 9.12l3.64 5.48h-4.08l-1.68-2.82L16 14.6h-4l3.64-5.44-3.58-5.38h4.08zm11.62 6.74l1.42-2.28a7 7 0 0 0 3.7 1.24c.66 0 1-.2 1-.58 0-.44-.62-.62-1.76-.94-2.14-.56-3.84-1.28-3.84-3.44 0-2.3 1.84-3.58 4.34-3.58a8.47 8.47 0 0 1 4.46 1.26l-1.3 2.4a7.12 7.12 0 0 0-3.2-1c-.58 0-.88.22-.88.54 0 .42.64.62 1.76 1 2.14.6 3.84 1.34 3.84 3.44 0 2.38-1.78 3.62-4.42 3.62a8.65 8.65 0 0 1-5.12-1.68zm11.56-1.98V6.82h-1.28v-3h1.28V1h3.78v2.78h2.52v3H44.7v3.72a.92.92 0 0 0 1 1.08 3.33 3.33 0 0 0 1.44-.36v3a5.42 5.42 0 0 1-2.64.64c-2.24-.04-3.58-1.04-3.58-3.62zm7.94-7.46h3.8V6a3.31 3.31 0 0 1 3.42-2.4v4h-.32c-2 0-3.1 1.14-3.1 3.62v3.38h-3.8V3.78zm7.94 5.46a6 6 0 0 1 11.94 0 5.76 5.76 0 0 1-6 5.66 5.7 5.7 0 0 1-5.94-5.66zm8.26 0a2.37 2.37 0 0 0-2.32-2.46 2.27 2.27 0 0 0-2.26 2.42 2.35 2.35 0 0 0 2.3 2.44 2.28 2.28 0 0 0 2.28-2.4zm5.28-5.46h3.8V5.3a4 4 0 0 1 3.24-1.76c2.3 0 3.68 1.52 3.68 4v7.06h-3.78V8.74a1.57 1.57 0 0 0-1.54-1.84 1.61 1.61 0 0 0-1.6 1.84v5.86h-3.8V3.78zm12.6 12.82l1.22-2.52a7.47 7.47 0 0 0 3.78 1c1.88 0 2.82-.94 2.82-2.66V12a4.18 4.18 0 0 1-3.32 1.62 4.73 4.73 0 0 1-4.82-5 4.73 4.73 0 0 1 4.68-5 4.29 4.29 0 0 1 3.4 1.52V3.78h3.8V12a5.73 5.73 0 0 1-1.4 4.32c-1 1-2.5 1.52-4.76 1.52a11.57 11.57 0 0 1-5.4-1.24zm7.84-8a2.22 2.22 0 0 0-4.44 0 2.22 2.22 0 0 0 4.44.02zm5.34.64a5.43 5.43 0 0 1 5.46-5.66c3.72 0 5.44 2.74 5.44 5.92v.78h-7.26A2.23 2.23 0 0 0 102.1 12a3.23 3.23 0 0 0 2.4-1.1l2.1 1.74a5.66 5.66 0 0 1-4.68 2.2 5.46 5.46 0 0 1-5.8-5.6zm7.36-.94a2 2 0 0 0-1.9-2 2 2 0 0 0-1.88 2h3.78zm5.18-4.52h3.8V6a3.31 3.31 0 0 1 3.42-2.36v4h-.32c-2 0-3.1 1.14-3.1 3.62v3.34h-3.8V3.78zM124 11.86V5.62h-1.44V4.26H124V1.14h1.54v3.12h3.28v1.36h-3.28v6a1.53 1.53 0 0 0 1.74 1.72 3.23 3.23 0 0 0 1.5-.36v1.32a3.87 3.87 0 0 1-1.86.44 2.63 2.63 0 0 1-2.92-2.88zM131.54 0h1.54v6.06a3.92 3.92 0 0 1 3.54-2c2.5 0 4 1.68 4 4.14v6.4H139v-6c0-1.92-1-3.12-2.86-3.12a3 3 0 0 0-3.1 3.24v5.88h-1.54V0zm11.54 11.6c0-2.18 1.8-3.34 4.42-3.34a11 11 0 0 1 3.18.44v-.4c0-1.86-1.14-2.82-3.08-2.82a7.2 7.2 0 0 0-3.14.76L144 5a8.54 8.54 0 0 1 3.76-.86 4.54 4.54 0 0 1 3.34 1.14 4.08 4.08 0 0 1 1.06 3v6.32h-1.48V13a4.53 4.53 0 0 1-3.74 1.78c-1.94.04-3.86-1.06-3.86-3.18zm7.62-.8v-1a10.78 10.78 0 0 0-3-.44c-1.94 0-3 .84-3 2.14 0 1.3 1.2 2.06 2.6 2.06 1.84.04 3.4-1.12 3.4-2.76zm4.74-6.54H157v1.8a3.92 3.92 0 0 1 3.54-2c2.5 0 4 1.68 4 4.14v6.4H163v-6c0-1.92-1-3.12-2.86-3.12a3 3 0 0 0-3.14 3.2v5.92h-1.54V4.26zm18.86 7.6V5.62h-1.44V4.26h1.44V1.14h1.54v3.12h3.28v1.36h-3.28v6a1.53 1.53 0 0 0 1.74 1.72 3.24 3.24 0 0 0 1.5-.36v1.32a3.87 3.87 0 0 1-1.86.44 2.63 2.63 0 0 1-2.92-2.88zM181.84 0h1.54v6.06a3.92 3.92 0 0 1 3.54-2c2.5 0 4 1.68 4 4.14v6.4h-1.54v-6c0-1.92-1-3.12-2.86-3.12a3 3 0 0 0-3.1 3.24v5.88h-1.54V0zm11.68 9.46a5.1 5.1 0 0 1 5-5.38c3.06 0 4.82 2.44 4.82 5.46a3.92 3.92 0 0 1 0 .5h-8.2a3.61 3.61 0 0 0 3.64 3.5A4.28 4.28 0 0 0 202 12l1 .86a5.34 5.34 0 0 1-4.26 1.94 5.14 5.14 0 0 1-5.22-5.34zm8.22-.6c-.16-1.88-1.24-3.52-3.3-3.52a3.57 3.57 0 0 0-3.36 3.52h6.66zM1.2 24h1.54v14.6H1.2V24zm4.48 9.46a5.1 5.1 0 0 1 5-5.38c3.06 0 4.82 2.44 4.82 5.46a4 4 0 0 1 0 .5H7.24a3.61 3.61 0 0 0 3.64 3.5A4.28 4.28 0 0 0 14.14 36l1 .86a5.34 5.34 0 0 1-4.26 1.94 5.14 5.14 0 0 1-5.2-5.34zm8.22-.6c-.16-1.88-1.24-3.52-3.3-3.52a3.56 3.56 0 0 0-3.36 3.52h6.66zm3.48 2.74c0-2.18 1.8-3.34 4.42-3.34a11 11 0 0 1 3.18.44v-.4c0-1.86-1.14-2.82-3.08-2.82a7.2 7.2 0 0 0-3.14.76L18.3 29a8.54 8.54 0 0 1 3.76-.86 4.54 4.54 0 0 1 3.34 1.14 4.08 4.08 0 0 1 1.06 3v6.32H25V37a4.53 4.53 0 0 1-3.74 1.78c-1.94.04-3.88-1.06-3.88-3.18zm7.62-.8v-1a10.77 10.77 0 0 0-3-.44c-1.94 0-3 .84-3 2.14 0 1.3 1.2 2.06 2.6 2.06 1.84.04 3.4-1.12 3.4-2.76zm4.14-1.34A5.08 5.08 0 0 1 34.08 28a4.66 4.66 0 0 1 4 2.2V24h1.54v14.6H38v-2.08a4.65 4.65 0 0 1-4 2.3 5 5 0 0 1-4.86-5.36zm9 0a3.84 3.84 0 0 0-3.74-4 3.65 3.65 0 0 0-3.64 4 3.72 3.72 0 0 0 3.64 4 3.86 3.86 0 0 0 3.7-4.02zm4.92-9.16h1.76V26h-1.76v-1.7zm.1 4h1.54v10.3h-1.54V28.26zm5.12-.04h1.54v1.8a3.92 3.92 0 0 1 3.54-2c2.5 0 4 1.68 4 4.14v6.4h-1.58v-6c0-1.92-1-3.12-2.86-3.12a3 3 0 0 0-3.1 3.24v5.88h-1.54V28.26zm12.2 12.14l.7-1.2a6.61 6.61 0 0 0 4 1.32c2.28 0 3.76-1.26 3.76-3.68v-1.22a4.9 4.9 0 0 1-4.06 2.18A4.78 4.78 0 0 1 60 33a4.9 4.9 0 0 1 8.9-2.8v-1.94h1.54v8.54a5 5 0 0 1-1.32 3.66 5.44 5.44 0 0 1-3.94 1.38 8.11 8.11 0 0 1-4.7-1.44zM69 32.94a3.62 3.62 0 0 0-3.8-3.5 3.42 3.42 0 0 0-3.58 3.48 3.5 3.5 0 0 0 3.58 3.52 3.65 3.65 0 0 0 3.8-3.5zm10 4.34l.78-1.1a6 6 0 0 0 3.58 1.32c1.24 0 2.14-.64 2.14-1.64 0-1-1.22-1.44-2.58-1.82-1.62-.46-3.42-1-3.42-2.92 0-1.78 1.48-3 3.52-3a7.07 7.07 0 0 1 3.72 1.14l-.7 1.16a5.85 5.85 0 0 0-3.06-1c-1.22 0-2 .64-2 1.5 0 1 1.28 1.36 2.66 1.78 1.6.48 3.32 1.1 3.32 3 0 2-1.62 3.1-3.68 3.1A7.11 7.11 0 0 1 79 37.28zm11.18-1.42v-6.24h-1.44v-1.36h1.44v-3.12h1.54v3.12H95v1.36h-3.28v6a1.53 1.53 0 0 0 1.74 1.72A3.24 3.24 0 0 0 95 37v1.32a3.88 3.88 0 0 1-1.86.44 2.63 2.63 0 0 1-2.96-2.9zm6.6-2.38a5.39 5.39 0 0 1 10.78 0 5.37 5.37 0 0 1-5.42 5.4 5.3 5.3 0 0 1-5.36-5.4zm9.2 0a3.91 3.91 0 0 0-3.84-4 3.82 3.82 0 0 0-3.78 4 3.88 3.88 0 0 0 3.82 4 3.82 3.82 0 0 0 3.82-4zm4.36-5.22h1.54V31a4.43 4.43 0 0 1 4.22-2.88v1.66h-.1c-2.26 0-4.1 1.62-4.1 4.74v4.08h-1.54V28.26zm7.02 5.2a5.1 5.1 0 0 1 5-5.38c3.06 0 4.82 2.44 4.82 5.46a3.94 3.94 0 0 1 0 .5h-8.2a3.61 3.61 0 0 0 3.64 3.5 4.28 4.28 0 0 0 3.2-1.54l1 .86a5.34 5.34 0 0 1-4.26 1.94 5.14 5.14 0 0 1-5.2-5.34zm8.22-.6c-.16-1.88-1.24-3.52-3.3-3.52a3.56 3.56 0 0 0-3.36 3.52h6.66zm11.8 3.76v2h-1.54V24h1.54v6.34a4.65 4.65 0 0 1 4-2.3 5 5 0 0 1 4.94 5.36 5.06 5.06 0 0 1-4.94 5.38 4.67 4.67 0 0 1-4-2.16zm7.32-3.16a3.72 3.72 0 0 0-3.64-4 3.86 3.86 0 0 0-3.74 4 3.85 3.85 0 0 0 3.74 4 3.65 3.65 0 0 0 3.64-4zm4.42-5.2h1.54V31a4.43 4.43 0 0 1 4.22-2.88v1.66h-.12c-2.26 0-4.1 1.62-4.1 4.74v4.08h-1.54V28.26zm6.82 7.34c0-2.18 1.8-3.34 4.42-3.34a11 11 0 0 1 3.18.44v-.4c0-1.86-1.14-2.82-3.08-2.82a7.2 7.2 0 0 0-3.14.76l-.46-1.24a8.54 8.54 0 0 1 3.76-.86 4.53 4.53 0 0 1 3.38 1.12 4.08 4.08 0 0 1 1.06 3v6.34h-1.48V37a4.53 4.53 0 0 1-3.74 1.78c-1.96.04-3.9-1.06-3.9-3.18zm7.62-.8v-1a10.77 10.77 0 0 0-3-.44c-1.94 0-3 .84-3 2.14 0 1.3 1.2 2.06 2.6 2.06 1.84.04 3.4-1.12 3.4-2.76zm4.74-6.54h1.54v1.8a3.92 3.92 0 0 1 3.54-2c2.5 0 4 1.68 4 4.14v6.4h-1.58v-6c0-1.92-1-3.12-2.86-3.12a3 3 0 0 0-3.1 3.24v5.88h-1.54V28.26zm11.7 5.2a5.08 5.08 0 0 1 5-5.46 4.67 4.67 0 0 1 4 2.2V24h1.54v14.6H189v-2.08a4.65 4.65 0 0 1-4 2.3 5 5 0 0 1-5-5.36zm9 0a3.84 3.84 0 0 0-3.74-4 3.65 3.65 0 0 0-3.64 4 3.72 3.72 0 0 0 3.64 4 3.86 3.86 0 0 0 3.74-4.02zm4.7 3.04h1.84v2.1h-1.84v-2.1z"/></svg>