<svg id="Layer_1" data-name="Layer 1" xmlns="http://www.w3.org/2000/svg" viewBox="0 0 174.46 41.86"><defs><style>.cls-1{fill:#fff}</style></defs><title>txt2</title><path class="cls-1" d="M4.94 2.06H.22V.6h11v1.46h-4.7V14.6H4.94V2.06zM13.62 0h1.54v6.06A3.92 3.92 0 0 1 18.7 4c2.5 0 4 1.68 4 4.14v6.46h-1.58v-6c0-1.92-1-3.12-2.86-3.12a3 3 0 0 0-3.1 3.24v5.88h-1.54V0zm11.54 11.6c0-2.18 1.8-3.34 4.42-3.34a11 11 0 0 1 3.18.44v-.4c0-1.86-1.14-2.82-3.08-2.82a7.21 7.21 0 0 0-3.14.76L26.08 5a8.54 8.54 0 0 1 3.76-.86 4.54 4.54 0 0 1 3.34 1.14 4.08 4.08 0 0 1 1.06 3v6.32h-1.48V13A4.53 4.53 0 0 1 29 14.82c-1.9 0-3.84-1.1-3.84-3.22zm7.62-.8v-1a10.78 10.78 0 0 0-3-.44c-1.94 0-3 .84-3 2.14 0 1.3 1.2 2.06 2.6 2.06 1.84.04 3.4-1.12 3.4-2.76zM38 11.86V5.62h-1.48V4.26H38V1.14h1.5v3.12h3.28v1.36H39.5v6a1.53 1.53 0 0 0 1.74 1.72 3.24 3.24 0 0 0 1.5-.36v1.32a3.87 3.87 0 0 1-1.86.44A2.63 2.63 0 0 1 38 11.86zm6.86-7.42A1.6 1.6 0 0 0 46.2 2.7h-.72V.6h1.84v1.8a2.46 2.46 0 0 1-2.22 2.74zm4.22 8.84l.78-1.1a6 6 0 0 0 3.58 1.32c1.24 0 2.14-.64 2.14-1.64 0-1-1.22-1.44-2.58-1.82-1.62-.46-3.42-1-3.42-2.92V7c0-1.78 1.48-3 3.52-3a7.07 7.07 0 0 1 3.72 1.14l-.7 1.16a5.85 5.85 0 0 0-3.06-1c-1.22 0-2 .64-2 1.5 0 1 1.28 1.36 2.66 1.78 1.6.48 3.32 1.1 3.32 3 0 2-1.62 3.1-3.68 3.1a7.11 7.11 0 0 1-4.28-1.4zm15.92 0l.78-1.1a6 6 0 0 0 3.62 1.32c1.24 0 2.14-.64 2.14-1.64 0-1-1.22-1.44-2.58-1.82-1.62-.46-3.42-1-3.42-2.92V7c0-1.78 1.48-3 3.52-3a7.07 7.07 0 0 1 3.72 1.14l-.7 1.16a5.85 5.85 0 0 0-3.06-1c-1.22 0-2 .64-2 1.5 0 1 1.28 1.36 2.66 1.78 1.6.48 3.32 1.1 3.32 3 0 2-1.62 3.1-3.68 3.1a7.11 7.11 0 0 1-4.32-1.4zm11.2-1.42V5.62h-1.44V4.26h1.44V1.14h1.54v3.12H81v1.36h-3.26v6a1.53 1.53 0 0 0 1.74 1.72A3.24 3.24 0 0 0 81 13v1.32a3.87 3.87 0 0 1-1.86.44 2.63 2.63 0 0 1-2.94-2.9zm7.54-7.6h1.54V7a4.43 4.43 0 0 1 4.22-2.92v1.66h-.12c-2.26 0-4.1 1.62-4.1 4.74v4.12h-1.54V4.26zm7.02 5.2a5.1 5.1 0 0 1 5-5.38c3.06 0 4.82 2.44 4.82 5.46a3.92 3.92 0 0 1 0 .5h-8.2A3.61 3.61 0 0 0 96 13.5a4.28 4.28 0 0 0 3.22-1.5l1 .86a5.34 5.34 0 0 1-4.26 1.94 5.14 5.14 0 0 1-5.2-5.34zm8.24-.6c-.18-1.86-1.26-3.52-3.32-3.52a3.56 3.56 0 0 0-3.36 3.52H99zm4.24-4.6h1.54v1.8a3.92 3.92 0 0 1 3.54-2c2.5 0 4 1.68 4 4.14v6.4h-1.54v-6c0-1.92-1-3.12-2.86-3.12a3 3 0 0 0-3.1 3.24v5.88h-1.54V4.26zm12.2 12.14l.7-1.2a6.61 6.61 0 0 0 4 1.32c2.28 0 3.76-1.26 3.76-3.68v-1.22a4.9 4.9 0 0 1-4.06 2.18A4.78 4.78 0 0 1 115 9a4.9 4.9 0 0 1 8.9-2.8V4.26h1.54v8.54a5 5 0 0 1-1.32 3.66 5.44 5.44 0 0 1-3.94 1.38 8.11 8.11 0 0 1-4.74-1.44zm8.48-7.46a3.62 3.62 0 0 0-3.8-3.5 3.42 3.42 0 0 0-3.58 3.48 3.5 3.5 0 0 0 3.58 3.52 3.65 3.65 0 0 0 3.8-3.5zm5.46 2.92V5.62h-1.44V4.26h1.44V1.14h1.54v3.12h3.28v1.36h-3.28v6a1.53 1.53 0 0 0 1.74 1.72 3.23 3.23 0 0 0 1.5-.36v1.32a3.87 3.87 0 0 1-1.86.44 2.63 2.63 0 0 1-2.92-2.88zM136.92 0h1.54v6.06A3.92 3.92 0 0 1 142 4c2.5 0 4 1.68 4 4.14v6.46h-1.54v-6c0-1.92-1-3.12-2.86-3.12a3 3 0 0 0-3.1 3.24v5.88h-1.54V0zM8.78 28.26h1.64L6.08 38.94c-.88 2.14-1.88 2.92-3.44 2.92a4.69 4.69 0 0 1-2.2-.52L1 40.12a3.24 3.24 0 0 0 1.62.38c.92 0 1.5-.48 2.12-1.94L0 28.26h1.7l3.76 8.62zm2.84 5.22a5.39 5.39 0 0 1 10.78 0 5.37 5.37 0 0 1-5.4 5.36 5.3 5.3 0 0 1-5.38-5.36zm9.2 0a3.91 3.91 0 0 0-3.84-4 3.82 3.82 0 0 0-3.78 4 3.88 3.88 0 0 0 3.82 4 3.82 3.82 0 0 0 3.8-4zm4.18 1.2v-6.42h1.54v6c0 1.92 1 3.12 2.86 3.12a3.05 3.05 0 0 0 3.1-3.24v-5.88H34V38.6h-1.48v-1.8a3.94 3.94 0 0 1-3.54 2c-2.5.02-3.98-1.66-3.98-4.12zm17.86-1.2a5.39 5.39 0 0 1 9.44-3.56l-1 1.08a4.18 4.18 0 0 0-3.14-1.56 3.82 3.82 0 0 0-3.7 4 3.86 3.86 0 0 0 3.8 4 4.27 4.27 0 0 0 3.16-1.54l1 .92a5.35 5.35 0 0 1-9.56-3.34zm11.28 2.12c0-2.18 1.8-3.34 4.42-3.34a11 11 0 0 1 3.18.44v-.4c0-1.86-1.14-2.82-3.08-2.82a7.2 7.2 0 0 0-3.14.76L55.06 29a8.54 8.54 0 0 1 3.76-.86 4.54 4.54 0 0 1 3.34 1.14 4.08 4.08 0 0 1 1.06 3v6.32h-1.48V37A4.53 4.53 0 0 1 58 38.82c-1.92 0-3.86-1.1-3.86-3.22zm7.62-.8v-1a10.77 10.77 0 0 0-3-.44c-1.94 0-3 .84-3 2.14 0 1.3 1.2 2.06 2.6 2.06 1.84.04 3.4-1.12 3.4-2.76zm4.74-6.54H68v1.8a3.92 3.92 0 0 1 3.54-2c2.5 0 4 1.68 4 4.14v6.4H74v-6c0-1.92-1-3.12-2.86-3.12a3 3 0 0 0-3.14 3.2v5.92h-1.5V28.26zm17.68 5.22a5.39 5.39 0 0 1 9.44-3.56L92.6 31a4.18 4.18 0 0 0-3.14-1.56 3.82 3.82 0 0 0-3.7 4 3.86 3.86 0 0 0 3.8 4 4.27 4.27 0 0 0 3.16-1.54l1 .92a5.35 5.35 0 0 1-9.54-3.34zm11.12 0a5.39 5.39 0 0 1 10.78 0 5.37 5.37 0 0 1-5.42 5.4 5.3 5.3 0 0 1-5.36-5.4zm9.2 0a3.91 3.91 0 0 0-3.84-4 3.82 3.82 0 0 0-3.78 4 3.88 3.88 0 0 0 3.82 4 3.82 3.82 0 0 0 3.8-4zm4.2 1.2v-6.42h1.54v6c0 1.92 1 3.12 2.86 3.12a3.05 3.05 0 0 0 3.1-3.24v-5.88h1.52V38.6h-1.52v-1.8a3.94 3.94 0 0 1-3.54 2c-2.5.02-3.96-1.66-3.96-4.12zm12.48-6.42h1.54v1.8a3.92 3.92 0 0 1 3.54-2c2.5 0 4 1.68 4 4.14v6.4h-1.54v-6c0-1.92-1-3.12-2.86-3.12a3 3 0 0 0-3.1 3.24v5.88h-1.54V28.26zm12.82 7.6v-6.24h-1.4v-1.36h1.4v-3.12h1.54v3.12h3.28v1.36h-3.28v6a1.53 1.53 0 0 0 1.74 1.72 3.24 3.24 0 0 0 1.5-.36v1.32a3.88 3.88 0 0 1-1.86.44 2.63 2.63 0 0 1-2.92-2.88zm12.94-2.38a5.39 5.39 0 0 1 10.78 0 5.37 5.37 0 0 1-5.42 5.4 5.3 5.3 0 0 1-5.36-5.4zm9.2 0a3.91 3.91 0 0 0-3.84-4 3.82 3.82 0 0 0-3.78 4 3.88 3.88 0 0 0 3.82 4 3.82 3.82 0 0 0 3.8-4zm4.36-5.22h1.5v1.8a3.92 3.92 0 0 1 3.54-2c2.5 0 4 1.68 4 4.14v6.4H168v-6c0-1.92-1-3.12-2.86-3.12a3 3 0 0 0-3.1 3.24v5.88h-1.54V28.26zm12.12 8.24h1.84v2.1h-1.84v-2.1z"/></svg>