<?xml version="1.0" encoding="utf-8"?>
<!-- Generator: Adobe Illustrator 18.1.1, SVG Export Plug-In . SVG Version: 6.00 Build 0)  -->
<svg version="1.1" id="Layer_1" xmlns="http://www.w3.org/2000/svg" xmlns:xlink="http://www.w3.org/1999/xlink" x="0px" y="0px"
	 viewBox="0 0 452.6 71.3" enable-background="new 0 0 452.6 71.3" xml:space="preserve">
<g>
	<path fill="#8C8C8C" d="M59.8,0.4h21.1v4.5h-8v20.7h-5.1V4.9h-8V0.4z"/>
	<path fill="#8C8C8C" d="M82.9,2.2h4.5V9c1.2-1.2,2.7-1.8,4.6-1.8c4.5,0,7.5,3.6,7.5,8.2v10.1h-4.5V15.3c0-2.2-1.7-3.9-3.9-3.9
		c-2.1,0-3.9,1.8-3.9,3.9v10.2h-4.5V2.2z"/>
	<path fill="#8C8C8C" d="M101.9,16.5c0-5.3,4.3-9.3,9.4-9.3c5.3,0,9.5,4.1,9.5,9.3v1.4h-14.1c0.6,2.2,2.5,3.7,4.7,3.7
		c1.7,0,3.2-0.9,4.2-2.2l3.9,1.9c-1.6,2.8-4.6,4.5-8.2,4.5C106.3,25.9,101.9,21.8,101.9,16.5z M106.8,14.7h9.3
		c-0.6-2.2-2.4-3.5-4.6-3.5C109.3,11.2,107.4,12.5,106.8,14.7z"/>
	<path fill="#8C8C8C" d="M130.4,7.6h4.5v1.8c1-1.4,2.5-2.2,4.6-2.2h0.5v4.5h-1.3c-2.5,0-3.9,1.7-3.9,3.9v9.9h-4.5V7.6z"/>
	<path fill="#8C8C8C" d="M141.6,2.8c0-1.5,1.3-2.8,2.8-2.8s2.8,1.3,2.8,2.8s-1.3,2.8-2.8,2.8S141.6,4.3,141.6,2.8z M142.1,7.6h4.5
		v18h-4.5V7.6z"/>
	<path fill="#8C8C8C" d="M149.2,15.6c0-4.8,3.7-8.4,9-8.4c1.7,0,3.3,0.6,4.8,1.7V7.6h4.5v15.2c0,5.3-4,8.5-9.2,8.5
		c-3.3,0-6.2-1.3-7.8-3.3l-0.4-0.5l3.5-2.5l0.5,0.5c1,1,2.4,1.8,4.2,1.8c2.6,0,4.8-1.5,4.8-4.2v-0.7c-1.5,1.1-3.1,1.7-4.8,1.7
		C152.9,24,149.2,20.3,149.2,15.6z M163,17.9v-4.6c-1.6-1.4-2.9-1.9-4.6-1.9c-2.6,0-4.6,1.9-4.6,4.2c0,2.4,2,4.2,4.6,4.2
		C160.1,19.8,161.4,19.3,163,17.9z"/>
	<path fill="#8C8C8C" d="M171.1,2.2h4.5V9c1.2-1.2,2.7-1.8,4.6-1.8c4.5,0,7.5,3.6,7.5,8.2v10.1h-4.5V15.3c0-2.2-1.7-3.9-3.9-3.9
		c-2.1,0-3.9,1.8-3.9,3.9v10.2h-4.5V2.2z"/>
	<path fill="#8C8C8C" d="M189.6,7.6h2.5V3.2h4.5v4.3h4.4v3.9h-4.4v7.3c0,1.6,1,2.7,2.6,2.7h1.8v4.2h-2.5c-3.7,0-6.4-2.3-6.4-6.1
		v-8.1h-2.5V7.6z"/>
	<path fill="#8C8C8C" d="M210.3,2.8c0-1.5,1.3-2.8,2.8-2.8s2.8,1.3,2.8,2.8s-1.3,2.8-2.8,2.8S210.3,4.3,210.3,2.8z M210.8,7.6h4.5
		v18h-4.5V7.6z"/>
	<path fill="#8C8C8C" d="M218.9,7.6h4.5V9c1.2-1.2,2.7-1.8,4.6-1.8c4.5,0,7.5,3.6,7.5,8.2v10.1h-4.5V15.3c0-2.2-1.7-3.9-3.9-3.9
		c-2.1,0-3.9,1.8-3.9,3.9v10.2h-4.5V7.6z"/>
	<path fill="#8C8C8C" d="M237.7,8.6h2.2v-1c0-2.8,1.8-5.4,5.5-5.4h3V6h-2.1c-1.3,0-1.9,0.7-1.9,2.1v0.5h3.7v3.9h-3.7v13.1h-4.5V12.4
		h-2.2V8.6z"/>
	<path fill="#8C8C8C" d="M248.9,16.6c0-5.2,4.2-9.4,9.5-9.4c5.2,0,9.5,4.1,9.5,9.4c0,5.4-4.3,9.4-9.5,9.4
		C253.2,25.9,248.9,21.9,248.9,16.6z M263.2,16.6c0-3-2.2-5.1-4.9-5.1c-2.7,0-4.9,2.2-4.9,5.1c0,3,2.2,5.1,4.9,5.1
		C261.1,21.7,263.2,19.6,263.2,16.6z"/>
	<path fill="#8C8C8C" d="M270.5,7.6h4.5v1.8c1-1.4,2.5-2.2,4.6-2.2h0.5v4.5h-1.3c-2.5,0-3.9,1.7-3.9,3.9v9.9h-4.5V7.6z"/>
	<path fill="#8C8C8C" d="M282.2,7.6h4.5v1.7c1.1-1.3,2.7-2,4.6-2c2.3,0,4.1,1.2,5.2,2.9c1.2-1.8,3.1-2.9,5.4-2.9c4.6,0,7,3.7,7,7.6
		v10.8h-4.5V15c0-2.2-1.4-3.6-3.3-3.6c-1.9,0-3.3,1.5-3.3,3.6v10.5h-4.5V15c0-2.2-1.4-3.6-3.3-3.6c-1.9,0-3.3,1.5-3.3,3.6v10.5h-4.5
		V7.6z"/>
	<path fill="#8C8C8C" d="M320.2,7.2c2,0,3.6,0.6,5.1,1.9V7.6h4.5v18h-4.5V24c-1.5,1.3-3.1,1.9-5.1,1.9c-5.3,0-9-4.1-9-9.4
		C311.3,11.3,315,7.2,320.2,7.2z M325.3,19.4v-5.6c-1.3-1.8-3.1-2.3-4.5-2.3c-2.8,0-4.9,2.2-4.9,5.1c0,3,2.2,5.1,4.9,5.1
		C322.2,21.7,324,21.2,325.3,19.4z"/>
	<path fill="#8C8C8C" d="M332.1,7.6h2.5V3.2h4.5v4.3h4.4v3.9h-4.4v7.3c0,1.6,1,2.7,2.6,2.7h1.8v4.2H341c-3.7,0-6.4-2.3-6.4-6.1v-8.1
		h-2.5V7.6z"/>
	<path fill="#8C8C8C" d="M345.6,2.8c0-1.5,1.3-2.8,2.8-2.8s2.8,1.3,2.8,2.8s-1.3,2.8-2.8,2.8S345.6,4.3,345.6,2.8z M346.2,7.6h4.5
		v18h-4.5V7.6z"/>
	<path fill="#8C8C8C" d="M353.3,16.6c0-5.2,4.2-9.4,9.5-9.4c5.2,0,9.5,4.1,9.5,9.4c0,5.4-4.3,9.4-9.5,9.4S353.3,21.9,353.3,16.6z
		 M367.6,16.6c0-3-2.2-5.1-4.9-5.1c-2.7,0-4.9,2.2-4.9,5.1c0,3,2.2,5.1,4.9,5.1C365.4,21.7,367.6,19.6,367.6,16.6z"/>
	<path fill="#8C8C8C" d="M374.8,7.6h4.5V9c1.2-1.2,2.7-1.8,4.6-1.8c4.5,0,7.5,3.6,7.5,8.2v10.1H387V15.3c0-2.2-1.7-3.9-3.9-3.9
		c-2.1,0-3.9,1.8-3.9,3.9v10.2h-4.5V7.6z"/>
	<path fill="#8C8C8C" d="M9,47.2c2,0,3.6,0.6,5.1,1.9v-1.5h4.5v18H14V64c-1.5,1.3-3.1,1.9-5.1,1.9c-5.3,0-9-4.1-9-9.4
		C0,51.3,3.7,47.2,9,47.2z M14,59.4v-5.6c-1.3-1.8-3.1-2.3-4.5-2.3c-2.8,0-4.9,2.2-4.9,5.1c0,3,2.2,5.1,4.9,5.1
		C10.9,61.7,12.7,61.2,14,59.4z"/>
	<path fill="#8C8C8C" d="M20.9,47.6h2.5v-4.3h4.5v4.3h4.4v3.9h-4.4v7.3c0,1.6,1,2.7,2.6,2.7h1.8v4.2h-2.5c-3.7,0-6.4-2.3-6.4-6.1
		v-8.1h-2.5V47.6z"/>
	<path fill="#8C8C8C" d="M40.8,47.6h2.5v-4.3h4.5v4.3h4.4v3.9h-4.4v7.3c0,1.6,1,2.7,2.6,2.7h1.8v4.2h-2.5c-3.7,0-6.4-2.3-6.4-6.1
		v-8.1h-2.5V47.6z"/>
	<path fill="#8C8C8C" d="M54.9,42.2h4.5V49c1.2-1.2,2.7-1.8,4.6-1.8c4.5,0,7.5,3.6,7.5,8.2v10.1H67V55.3c0-2.2-1.7-3.9-3.9-3.9
		c-2.1,0-3.9,1.8-3.9,3.9v10.2h-4.5V42.2z"/>
	<path fill="#8C8C8C" d="M73.9,56.5c0-5.3,4.3-9.3,9.4-9.3c5.3,0,9.5,4.1,9.5,9.3v1.4H78.7c0.6,2.2,2.5,3.7,4.7,3.7
		c1.7,0,3.2-0.9,4.2-2.2l3.9,1.9c-1.6,2.8-4.6,4.5-8.2,4.5C78.3,65.9,73.9,61.8,73.9,56.5z M78.8,54.7h9.3c-0.6-2.2-2.4-3.5-4.6-3.5
		C81.2,51.2,79.4,52.5,78.8,54.7z"/>
	<path fill="#8C8C8C" d="M102.3,47.6h4.5v1.8c1-1.4,2.5-2.2,4.6-2.2h0.5v4.5h-1.3c-2.5,0-3.9,1.7-3.9,3.9v9.9h-4.5V47.6z"/>
	<path fill="#8C8C8C" d="M113.5,42.8c0-1.5,1.3-2.8,2.8-2.8s2.8,1.3,2.8,2.8s-1.3,2.8-2.8,2.8S113.5,44.3,113.5,42.8z M114.1,47.6
		h4.5v18h-4.5V47.6z"/>
	<path fill="#8C8C8C" d="M121.2,55.6c0-4.8,3.7-8.4,9-8.4c1.7,0,3.3,0.6,4.8,1.7v-1.3h4.5v15.2c0,5.3-4,8.5-9.2,8.5
		c-3.3,0-6.2-1.3-7.8-3.3l-0.4-0.5l3.5-2.5l0.5,0.5c1,1,2.4,1.8,4.2,1.8c2.6,0,4.8-1.5,4.8-4.2v-0.7c-1.5,1.1-3.1,1.7-4.8,1.7
		C124.8,64,121.2,60.3,121.2,55.6z M135,57.9v-4.6c-1.6-1.4-2.9-1.9-4.6-1.9c-2.6,0-4.6,1.9-4.6,4.2s2,4.2,4.6,4.2
		C132.1,59.8,133.4,59.3,135,57.9z"/>
	<path fill="#8C8C8C" d="M143.1,42.2h4.5V49c1.2-1.2,2.7-1.8,4.6-1.8c4.5,0,7.5,3.6,7.5,8.2v10.1h-4.5V55.3c0-2.2-1.7-3.9-3.9-3.9
		c-2.1,0-3.9,1.8-3.9,3.9v10.2h-4.5V42.2z"/>
	<path fill="#8C8C8C" d="M161.5,47.6h2.5v-4.3h4.5v4.3h4.4v3.9h-4.4v7.3c0,1.6,1,2.7,2.6,2.7h1.8v4.2h-2.5c-3.7,0-6.4-2.3-6.4-6.1
		v-8.1h-2.5V47.6z"/>
	<path fill="#8C8C8C" d="M181.5,47.6h2.5v-4.3h4.5v4.3h4.4v3.9h-4.4v7.3c0,1.6,1,2.7,2.6,2.7h1.8v4.2h-2.5c-3.7,0-6.4-2.3-6.4-6.1
		v-8.1h-2.5V47.6z"/>
	<path fill="#8C8C8C" d="M195,42.8c0-1.5,1.3-2.8,2.8-2.8s2.8,1.3,2.8,2.8s-1.3,2.8-2.8,2.8S195,44.3,195,42.8z M195.5,47.6h4.5v18
		h-4.5V47.6z"/>
	<path fill="#8C8C8C" d="M203.6,47.6h4.5v1.7c1.1-1.3,2.7-2,4.6-2c2.3,0,4.1,1.2,5.2,2.9c1.2-1.8,3.1-2.9,5.4-2.9c4.6,0,7,3.7,7,7.6
		v10.8h-4.5V55c0-2.2-1.4-3.6-3.3-3.6c-1.9,0-3.3,1.5-3.3,3.6v10.5h-4.5V55c0-2.2-1.4-3.6-3.3-3.6c-1.9,0-3.3,1.5-3.3,3.6v10.5h-4.5
		V47.6z"/>
	<path fill="#8C8C8C" d="M232.7,56.5c0-5.3,4.3-9.3,9.4-9.3c5.3,0,9.5,4.1,9.5,9.3v1.4h-14.1c0.6,2.2,2.5,3.7,4.7,3.7
		c1.7,0,3.2-0.9,4.2-2.2l3.9,1.9c-1.6,2.8-4.6,4.5-8.2,4.5C237.1,65.9,232.7,61.8,232.7,56.5z M237.6,54.7h9.3
		c-0.6-2.2-2.4-3.5-4.6-3.5C240.1,51.2,238.2,52.5,237.6,54.7z"/>
	<path fill="#8C8C8C" d="M259.5,47.6h5.1l3.2,11.4l3.5-11.4h4.7l3.5,11.3l3.1-11.3h5l-5.5,18h-5L273.5,54l-3.5,11.6h-5L259.5,47.6z"
		/>
	<path fill="#8C8C8C" d="M288.9,42.8c0-1.5,1.3-2.8,2.8-2.8s2.8,1.3,2.8,2.8s-1.3,2.8-2.8,2.8S288.9,44.3,288.9,42.8z M289.5,47.6
		h4.5v18h-4.5V47.6z"/>
	<path fill="#8C8C8C" d="M296.3,47.6h2.5v-4.3h4.5v4.3h4.4v3.9h-4.4v7.3c0,1.6,1,2.7,2.6,2.7h1.8v4.2h-2.5c-3.7,0-6.4-2.3-6.4-6.1
		v-8.1h-2.5V47.6z"/>
	<path fill="#8C8C8C" d="M310.4,42.2h4.5V49c1.2-1.2,2.7-1.8,4.6-1.8c4.5,0,7.5,3.6,7.5,8.2v10.1h-4.5V55.3c0-2.2-1.7-3.9-3.9-3.9
		c-2.1,0-3.9,1.8-3.9,3.9v10.2h-4.5V42.2z"/>
	<path fill="#8C8C8C" d="M336.7,53c0-7.2,5.9-13,13-13c4.7,0,8.6,2.2,11,5.5l0.5,0.7l-4.5,2.5l-0.5-0.7c-1.4-1.8-3.5-3.1-6.4-3.1
		c-4.4,0-7.8,3.5-7.8,8c0,4.6,3.5,8.2,7.8,8.2c2.5,0,4.9-0.9,6.9-3.2v-1.2h-5.3v-4.2h10v13.1h-4.7v-2.3c-2,1.7-4.2,2.6-7.3,2.6
		C342.2,65.9,336.7,60.1,336.7,53z"/>
	<path fill="#8C8C8C" d="M363.7,56.6c0-5.2,4.2-9.4,9.5-9.4c5.2,0,9.5,4.1,9.5,9.4c0,5.4-4.3,9.4-9.5,9.4S363.7,61.9,363.7,56.6z
		 M378,56.6c0-3-2.2-5.1-4.9-5.1c-2.7,0-4.9,2.2-4.9,5.1c0,3,2.2,5.1,4.9,5.1C375.8,61.7,378,59.6,378,56.6z"/>
	<path fill="#8C8C8C" d="M384.2,56.6c0-5.2,4.2-9.4,9.5-9.4c5.2,0,9.5,4.1,9.5,9.4c0,5.4-4.3,9.4-9.5,9.4S384.2,61.9,384.2,56.6z
		 M398.5,56.6c0-3-2.2-5.1-4.9-5.1c-2.7,0-4.9,2.2-4.9,5.1c0,3,2.2,5.1,4.9,5.1C396.4,61.7,398.5,59.6,398.5,56.6z"/>
	<path fill="#8C8C8C" d="M404.7,55.6c0-4.8,3.7-8.4,9-8.4c1.7,0,3.3,0.6,4.8,1.7v-1.3h4.5v15.2c0,5.3-4,8.5-9.2,8.5
		c-3.3,0-6.2-1.3-7.8-3.3l-0.4-0.5l3.5-2.5l0.5,0.5c1,1,2.4,1.8,4.2,1.8c2.6,0,4.8-1.5,4.8-4.2v-0.7c-1.5,1.1-3.1,1.7-4.8,1.7
		C408.4,64,404.7,60.3,404.7,55.6z M418.5,57.9v-4.6c-1.6-1.4-2.9-1.9-4.6-1.9c-2.6,0-4.6,1.9-4.6,4.2s2,4.2,4.6,4.2
		C415.6,59.8,416.9,59.3,418.5,57.9z"/>
	<path fill="#8C8C8C" d="M426.6,42.2h4.5v23.4h-4.5V42.2z"/>
	<path fill="#8C8C8C" d="M433.8,56.5c0-5.3,4.3-9.3,9.4-9.3c5.3,0,9.5,4.1,9.5,9.3v1.4h-14.1c0.6,2.2,2.5,3.7,4.7,3.7
		c1.7,0,3.2-0.9,4.2-2.2l3.9,1.9c-1.6,2.8-4.6,4.5-8.2,4.5C438.1,65.9,433.8,61.8,433.8,56.5z M438.6,54.7h9.3
		c-0.6-2.2-2.4-3.5-4.6-3.5C441.1,51.2,439.3,52.5,438.6,54.7z"/>
</g>
</svg>
