<?xml version="1.0" encoding="utf-8"?>
<!-- Generator: Adobe Illustrator 18.1.1, SVG Export Plug-In . SVG Version: 6.00 Build 0)  -->
<svg version="1.1" id="Layer_1" xmlns="http://www.w3.org/2000/svg" xmlns:xlink="http://www.w3.org/1999/xlink" x="0px" y="0px"
	 viewBox="0 0 439 83.9" enable-background="new 0 0 439 83.9" xml:space="preserve">
<g>
	<path fill="#8C8C8C" d="M77.4,7.2h5.9v2.4c1.3-1.8,3.3-2.9,6.2-2.9h0.7v6h-1.7c-3.3,0-5.1,2.3-5.1,5.2v13.2h-5.9V7.2z"/>
	<path fill="#8C8C8C" d="M91,19.1c0-7,5.7-12.4,12.5-12.4c7,0,12.6,5.4,12.6,12.4V21H97.3c0.8,2.9,3.3,5,6.3,5
		c2.2,0,4.3-1.2,5.5-2.9l5.2,2.5c-2.2,3.7-6.1,6-10.9,6C96.7,31.7,91,26.3,91,19.1z M97.4,16.7h12.3c-0.8-2.9-3.2-4.7-6.2-4.7
		C100.7,12,98.3,13.8,97.4,16.7z"/>
	<path fill="#8C8C8C" d="M129.7,6.7c2.6,0,4.7,0.8,6.7,2.5v-2h5.9v24h-5.9v-2c-2,1.8-4.1,2.5-6.7,2.5c-7,0-11.9-5.5-11.9-12.5
		S122.7,6.7,129.7,6.7z M136.4,22.9v-7.5c-1.8-2.4-4.1-3.1-6-3.1c-3.7,0-6.6,2.9-6.6,6.9s2.9,6.9,6.6,6.9
		C132.3,26.1,134.7,25.3,136.4,22.9z"/>
	<path fill="#8C8C8C" d="M157.8,6.7c2.6,0,4.7,0.8,6.7,2.5V0h5.9v31.2h-5.9v-2c-2,1.8-4.1,2.5-6.7,2.5c-7,0-11.9-5.5-11.9-12.5
		S150.8,6.7,157.8,6.7z M164.6,22.9v-7.5c-1.8-2.4-4.1-3.1-6-3.1c-3.7,0-6.6,2.9-6.6,6.9s2.9,6.9,6.6,6.9
		C160.5,26.1,162.8,25.3,164.6,22.9z"/>
	<path fill="#8C8C8C" d="M175.7,32.4c1.5,1,2.8,1.2,3.4,1.2c1.5,0,2.4-0.8,2.8-1.7l0.1-0.3l-8.9-24.3h6.9l5.6,17l5.5-17h6.7l-8.8,24
		c-2.2,6.1-5.8,7.7-9.3,7.7c-2.6,0-4.9-0.7-6.7-1.9L175.7,32.4z"/>
	<path fill="#8C8C8C" d="M207.4,8.5h2.9V7.2c0-3.7,2.4-7.2,7.3-7.2h4v5.1h-2.8c-1.8,0-2.6,0.9-2.6,2.7v0.7h4.9v5.1h-4.9v17.5h-5.9
		V13.7h-2.9V8.5z"/>
	<path fill="#8C8C8C" d="M222.3,19.2c0-7,5.6-12.5,12.6-12.5c6.9,0,12.6,5.5,12.6,12.5c0,7.2-5.7,12.5-12.6,12.5
		C228,31.7,222.3,26.4,222.3,19.2z M241.3,19.2c0-4-3-6.9-6.5-6.9c-3.5,0-6.5,2.9-6.5,6.9c0,4,2.9,6.9,6.5,6.9
		S241.3,23.2,241.3,19.2z"/>
	<path fill="#8C8C8C" d="M251,7.2h5.9v2.4c1.3-1.8,3.3-2.9,6.2-2.9h0.7v6H262c-3.3,0-5.1,2.3-5.1,5.2v13.2H251V7.2z"/>
	<path fill="#8C8C8C" d="M274.1,32.4c1.5,1,2.8,1.2,3.4,1.2c1.5,0,2.4-0.8,2.8-1.7l0.1-0.3l-8.9-24.3h6.9l5.6,17l5.5-17h6.7l-8.8,24
		c-2.2,6.1-5.8,7.7-9.3,7.7c-2.6,0-4.9-0.7-6.7-1.9L274.1,32.4z"/>
	<path fill="#8C8C8C" d="M296.6,19.2c0-7,5.6-12.5,12.6-12.5s12.6,5.5,12.6,12.5c0,7.2-5.7,12.5-12.6,12.5S296.6,26.4,296.6,19.2z
		 M315.6,19.2c0-4-3-6.9-6.5-6.9c-3.5,0-6.5,2.9-6.5,6.9c0,4,2.9,6.9,6.5,6.9S315.6,23.2,315.6,19.2z"/>
	<path fill="#8C8C8C" d="M324.9,21.4V7.2h5.9v14c0,2.8,2.2,4.8,5,4.8c2.8,0,5-2,5-4.8v-14h5.9v14.2c0,6.1-4.9,10.3-10.9,10.3
		C329.9,31.7,324.9,27.5,324.9,21.4z"/>
	<path fill="#8C8C8C" d="M351.7,24.5h6.9c-0.3,4.4-1.5,8.7-3.3,12.7h-6C350.7,33,351.5,28.7,351.7,24.5z"/>
	<path fill="#8C8C8C" d="M0,52.2h5.9v2c1.5-1.5,3.6-2.4,6.2-2.4c6,0,10,4.8,10,11v13.5h-5.9V62.6c0-2.9-2.2-5.2-5.1-5.2
		c-2.8,0-5.1,2.4-5.1,5.2v13.6H0V52.2z"/>
	<path fill="#8C8C8C" d="M25.3,64.2c0-7,5.6-12.5,12.6-12.5c6.9,0,12.6,5.5,12.6,12.5c0,7.2-5.7,12.5-12.6,12.5
		C30.9,76.7,25.3,71.4,25.3,64.2z M44.3,64.2c0-4-3-6.9-6.5-6.9c-3.5,0-6.5,2.9-6.5,6.9c0,4,2.9,6.9,6.5,6.9S44.3,68.2,44.3,64.2z"
		/>
	<path fill="#8C8C8C" d="M51.7,52.2H55v-5.8h5.9v5.8h5.9v5.1h-5.9V67c0,2.2,1.3,3.6,3.5,3.6h2.4v5.6h-3.3c-4.9,0-8.5-3.1-8.5-8.1
		V57.3h-3.3V52.2z"/>
	<path fill="#8C8C8C" d="M70.3,59.2h14.4v6.7H70.3V59.2z"/>
	<path fill="#8C8C8C" d="M88.4,74l-0.7-0.4l3-4.6l0.9,0.5c1.7,0.9,4.3,2,7,2c2.3,0,3.6-0.8,3.6-1.9c0-1.8-2.1-2-5.7-2.9
		c-4.9-1.2-8-3.5-8-7.6c0-3.8,3.6-7.4,9.8-7.4c3.7,0,6.8,0.9,8.8,1.9l1.1,0.5l-2.9,4.4l-1-0.4c-1.1-0.4-3.5-1.2-6-1.2
		c-1.8,0-3.6,0.6-3.6,1.9c0,1.2,1.3,1.8,4.4,2.5c5.2,1.2,9.3,2.8,9.3,7.6c0,4.5-3.8,7.8-10.1,7.8C94.3,76.7,91,75.6,88.4,74z"/>
	<path fill="#8C8C8C" d="M110.6,64.2c0-7,5.6-12.5,12.6-12.5c6.9,0,12.6,5.5,12.6,12.5c0,7.2-5.7,12.5-12.6,12.5
		C116.3,76.7,110.6,71.4,110.6,64.2z M129.6,64.2c0-4-3-6.9-6.5-6.9c-3.5,0-6.5,2.9-6.5,6.9c0,4,2.9,6.9,6.5,6.9
		S129.6,68.2,129.6,64.2z"/>
	<path fill="#8C8C8C" d="M139.2,59.2h14.4v6.7h-14.4V59.2z"/>
	<path fill="#8C8C8C" d="M156.9,53.5h2.9v-1.3c0-3.7,2.4-7.2,7.3-7.2h4v5.1h-2.8c-1.8,0-2.6,0.9-2.6,2.7v0.7h4.9v5.1h-4.9v17.5h-5.9
		V58.7h-2.9V53.5z"/>
	<path fill="#8C8C8C" d="M173.5,52.2h5.9v2.4c1.3-1.8,3.3-2.9,6.2-2.9h0.7v6h-1.7c-3.3,0-5.1,2.3-5.1,5.2v13.2h-5.9V52.2z"/>
	<path fill="#8C8C8C" d="M187.1,64.1c0-7,5.7-12.4,12.5-12.4c7,0,12.6,5.4,12.6,12.4V66h-18.7c0.8,2.9,3.3,5,6.3,5
		c2.2,0,4.3-1.2,5.5-2.9l5.2,2.5c-2.2,3.7-6.1,6-10.9,6C192.9,76.7,187.1,71.3,187.1,64.1z M193.6,61.7h12.3
		c-0.8-2.9-3.2-4.7-6.2-4.7C196.9,57,194.4,58.8,193.6,61.7z"/>
	<path fill="#8C8C8C" d="M225.9,51.7c2.6,0,4.7,0.8,6.7,2.5v-2h5.9v31.2h-5.9v-9.2c-2,1.8-4.1,2.5-6.7,2.5c-7,0-11.9-5.5-11.9-12.5
		S218.9,51.7,225.9,51.7z M232.7,67.9v-7.5c-1.8-2.4-4.1-3.1-6-3.1c-3.7,0-6.6,2.9-6.6,6.9s2.9,6.9,6.6,6.9
		C228.5,71.1,230.9,70.3,232.7,67.9z"/>
	<path fill="#8C8C8C" d="M243.2,66.4V52.2h5.9v14c0,2.8,2.2,4.8,5,4.8c2.8,0,5-2,5-4.8v-14h5.9v14.2c0,6.1-4.9,10.3-10.9,10.3
		C248.1,76.7,243.2,72.5,243.2,66.4z"/>
	<path fill="#8C8C8C" d="M268.2,64.1c0-7,5.7-12.4,12.5-12.4c7,0,12.6,5.4,12.6,12.4V66h-18.7c0.8,2.9,3.3,5,6.3,5
		c2.2,0,4.3-1.2,5.5-2.9l5.2,2.5c-2.2,3.7-6.1,6-10.9,6C274,76.7,268.2,71.3,268.2,64.1z M274.7,61.7H287c-0.8-2.9-3.2-4.7-6.2-4.7
		C278,57,275.6,58.8,274.7,61.7z"/>
	<path fill="#8C8C8C" d="M296.5,52.2h5.9v2c1.5-1.5,3.6-2.4,6.2-2.4c6,0,10,4.8,10,11v13.5h-5.9V62.6c0-2.9-2.2-5.2-5.1-5.2
		c-2.8,0-5.1,2.4-5.1,5.2v13.6h-5.9V52.2z"/>
	<path fill="#8C8C8C" d="M321,52.2h3.3v-5.8h5.9v5.8h5.9v5.1h-5.9V67c0,2.2,1.3,3.6,3.5,3.6h2.4v5.6h-3.3c-4.9,0-8.5-3.1-8.5-8.1
		V57.3H321V52.2z"/>
	<path fill="#8C8C8C" d="M347.7,53.5h2.9v-1.3c0-3.7,2.4-7.2,7.3-7.2h4v5.1h-2.8c-1.8,0-2.6,0.9-2.6,2.7v0.7h4.9v5.1h-4.9v17.5h-5.9
		V58.7h-2.9V53.5z"/>
	<path fill="#8C8C8C" d="M364.3,45h5.9v31.2h-5.9V45z"/>
	<path fill="#8C8C8C" d="M375.4,77.4c1.5,1,2.8,1.2,3.4,1.2c1.5,0,2.4-0.8,2.8-1.7l0.1-0.3l-8.9-24.3h6.9l5.6,17l5.5-17h6.7l-8.8,24
		c-2.2,6.1-5.8,7.7-9.3,7.7c-2.6,0-4.9-0.7-6.7-1.9L375.4,77.4z"/>
	<path fill="#8C8C8C" d="M398,64.1c0-7,5.7-12.4,12.5-12.4c7,0,12.6,5.4,12.6,12.4V66h-18.7c0.8,2.9,3.3,5,6.3,5
		c2.2,0,4.3-1.2,5.5-2.9l5.2,2.5c-2.2,3.7-6.1,6-10.9,6C403.8,76.7,398,71.3,398,64.1z M404.5,61.7h12.3c-0.8-2.9-3.2-4.7-6.2-4.7
		C407.8,57,405.3,58.8,404.5,61.7z"/>
	<path fill="#8C8C8C" d="M426.2,52.2h5.9v2.4c1.3-1.8,3.3-2.9,6.2-2.9h0.7v6h-1.7c-3.3,0-5.1,2.3-5.1,5.2v13.2h-5.9V52.2z"/>
</g>
</svg>
