<svg id="Layer_1" data-name="Layer 1" xmlns="http://www.w3.org/2000/svg" xmlns:xlink="http://www.w3.org/1999/xlink" viewBox="0 0 657.23 257.15"><defs><style>.cls-1{fill:none;}.cls-2{clip-path:url(#clip-path);}.cls-3{fill:#ec2027;}</style><clipPath id="clip-path" transform="translate(0 -0.85)"><rect class="cls-1" x="0.06" y="0.85" width="657.17" height="257.09"/></clipPath></defs><title>VZ-logo</title><g class="cls-2"><polyline class="cls-3" points="642.71 111.56 606.89 188.37 593.36 159.22 578.72 159.22 600.95 206.89 612.77 206.89 657.23 111.56 642.71 111.56"/><path d="M488.7,255h28.93V202.17c0-12.05,7-20.59,17.43-20.59,10,0,15.21,7,15.21,17.06V255H579.2V193.09c0-21-12.61-35.79-33-35.79-13,0-22.07,5.56-28.93,15.76H516.7v-13h-28v95m-56.75-97.55c-30.23,0-50.45,21.7-50.45,50.26,0,28.38,20.21,50.26,50.45,50.26s50.45-21.89,50.45-50.26C482.39,179.18,462.18,157.48,431.95,157.48Zm-0.19,79.19c-13.72,0-21-11.5-21-28.93,0-17.62,7.23-28.93,21-28.93s21.33,11.31,21.33,28.93C453.09,225.17,445.48,236.67,431.76,236.67ZM299.16,255h81.23V232.22h-46v-0.56l44-49.33V160.07H299.16v22.81h44.51v0.56l-44.51,49.7V255Zm-37.1,0h29.12v-95H262.06v95Zm-67.51,0h28.93V211.45c0-19.85,11.87-28.56,30-26.15h0.56v-25a16.44,16.44,0,0,0-5.93-.74c-11.31,0-18.92,5.19-25.41,16.32h-0.56V160.07H194.55v95Zm-53.23-18.17c-12.8,0-20.59-8.35-22.07-21.14h68.44c0.18-20.4-5.19-36.72-16.51-46.92-8-7.42-18.55-11.5-31.9-11.5-28.56,0-48.41,21.7-48.41,50.08,0,28.56,18.92,50.45,50.26,50.45,11.87,0,21.33-3.15,29.12-8.53,8.35-5.75,14.28-14.09,15.95-22.44H158.38C155.6,233.15,149.85,236.86,141.32,236.86Zm-1.48-58.79c10.2,0,17.25,7.6,18.36,18.73H119.44C121.66,185.48,127.78,178.07,139.84,178.07ZM33,255H63.43l33-95H67.32l-18.55,61H48.41l-18.55-61H0Zm229-128.71h29.12V152.1H262.06V126.32Z" transform="translate(0 -0.85)"/></g><path d="M171.64,74.13a29,29,0,0,1-11.17-2.07,24.94,24.94,0,0,1-14.06-14.35A29.38,29.38,0,0,1,144.48,47a29.39,29.39,0,0,1,1.93-10.74,24.94,24.94,0,0,1,14.06-14.35,30.92,30.92,0,0,1,22.25,0,24.82,24.82,0,0,1,8.52,5.73,25.79,25.79,0,0,1,5.44,8.62A29.43,29.43,0,0,1,198.6,47a29.42,29.42,0,0,1-1.93,10.74,25.77,25.77,0,0,1-5.44,8.62,24.79,24.79,0,0,1-8.52,5.73,28.74,28.74,0,0,1-11.07,2.07m-0.1-11a9.89,9.89,0,0,0,8.71-4.48q3-4.48,3-11.7t-3-11.84a10.7,10.7,0,0,0-17.48,0q-3,4.53-3,11.84t3,11.7A9.86,9.86,0,0,0,171.54,63.16Z" transform="translate(0 -0.85)"/><path d="M218.25,29.07h0.29a16.59,16.59,0,0,1,6.4-6.93,18.42,18.42,0,0,1,9.39-2.31q8.47,0,13.14,5.15t4.67,13.82V72.5h-15V41.68A10.14,10.14,0,0,0,235,34.89q-2.17-2.55-6.4-2.55a8.88,8.88,0,0,0-7.13,3.18,12.07,12.07,0,0,0-2.7,8.09V72.5H203.61V21.27h14.64v7.8" transform="translate(0 -0.85)"/><rect x="258.21" width="15.21" height="71.64"/><path d="M293.17,89.64h-1.73q-1.54,0-3.37,0l-3.37-.1-1.64,0V77.6h0.77l0.82,0q0.72,0,1.59,0h2.5q6.84,0,7.32-5.2a19.14,19.14,0,0,0-.67-4.09,51.22,51.22,0,0,0-2-6.21L277.47,21.27h15.89l6.55,19.64q0.87,2.6,1.64,5.73t1.35,5.83q0.67,3.18,1.25,6.26h0.19q0.67-3.18,1.44-6.36l1.44-5.78q0.77-3.08,1.64-5.68l6.26-19.64h15l-18.3,52.48a45,45,0,0,1-3.27,7.46,18.2,18.2,0,0,1-3.95,4.91,13.58,13.58,0,0,1-5,2.7,23,23,0,0,1-6.45.82" transform="translate(0 -0.85)"/><path d="M378.29,74.13a29,29,0,0,1-11.17-2.07,24.95,24.95,0,0,1-14.06-14.35A29.38,29.38,0,0,1,351.14,47a29.39,29.39,0,0,1,1.93-10.74,24.95,24.95,0,0,1,14.06-14.35,30.92,30.92,0,0,1,22.24,0,24.81,24.81,0,0,1,8.52,5.73,25.78,25.78,0,0,1,5.44,8.62A29.43,29.43,0,0,1,405.26,47a29.42,29.42,0,0,1-1.93,10.74,25.75,25.75,0,0,1-5.44,8.62,24.78,24.78,0,0,1-8.52,5.73,28.74,28.74,0,0,1-11.07,2.07m-0.1-11a9.89,9.89,0,0,0,8.71-4.48q3-4.48,3-11.7t-3-11.84a10.7,10.7,0,0,0-17.48,0q-3,4.53-3,11.84t3,11.7A9.86,9.86,0,0,0,378.2,63.16Z" transform="translate(0 -0.85)"/><path d="M424.13,29.07h0.29a16.59,16.59,0,0,1,6.4-6.93,18.42,18.42,0,0,1,9.39-2.31q8.47,0,13.14,5.15T458,38.79V72.5H443V41.68a10.14,10.14,0,0,0-2.17-6.79q-2.17-2.55-6.4-2.55a8.88,8.88,0,0,0-7.13,3.18,12.07,12.07,0,0,0-2.7,8.09V72.5H409.49V21.27h14.64v7.8" transform="translate(0 -0.85)"/></svg>