<svg id="Layer_1" xmlns="http://www.w3.org/2000/svg" viewBox="0 0 157.9 75.4"><style>.st0{fill:#fff}</style><path class="st0" d="M50.7 2.5H45V.7h13.2v1.8h-5.7v15h-1.9v-15zM61.1 0h1.8v7.3c.8-1.3 2.1-2.4 4.2-2.4 3 0 4.8 2 4.8 5v7.7h-1.8v-7.2c0-2.3-1.2-3.7-3.4-3.7-2.1 0-3.7 1.6-3.7 3.9v7.1h-1.8V0zm13.8 13.9c0-2.7 2.2-4.1 5.3-4.1 1.6 0 2.7.2 3.8.5V10c0-2.2-1.4-3.4-3.7-3.4-1.5 0-2.6.4-3.8.9L76 6c1.4-.6 2.7-1 4.5-1 1.8 0 3.1.5 4 1.4.8.8 1.3 2 1.3 3.6v7.6H84v-1.9c-.9 1.1-2.3 2.1-4.5 2.1-2.3 0-4.6-1.3-4.6-3.9zm9.2-.9v-1.2c-.9-.3-2.1-.5-3.6-.5-2.3 0-3.6 1-3.6 2.6s1.4 2.5 3.1 2.5c2.2-.1 4.1-1.5 4.1-3.4zm6.2 1.2V6.7h-1.7V5.1h1.7V1.4h1.8v3.7H96v1.6h-3.9V14c0 1.5.8 2.1 2.1 2.1.6 0 1.2-.1 1.8-.4v1.6c-.6.3-1.3.5-2.2.5-2-.1-3.5-1-3.5-3.6zm8.3-8.9c1.2-.4 1.7-1.1 1.6-2.1h-.9V.7h2.2v2.2c0 1.9-.8 2.9-2.7 3.3l-.2-.9zm5 10.6l.9-1.3c1.3 1 2.8 1.6 4.3 1.6s2.6-.8 2.6-2-1.5-1.7-3.1-2.2c-1.9-.6-4.1-1.2-4.1-3.5 0-2.1 1.8-3.6 4.2-3.6 1.5 0 3.2.5 4.5 1.4l-.8 1.4c-1.2-.7-2.5-1.2-3.7-1.2-1.5 0-2.4.8-2.4 1.8 0 1.2 1.5 1.6 3.2 2.1 1.9.6 4 1.3 4 3.6 0 2.4-1.9 3.7-4.4 3.7-1.8.1-3.8-.6-5.2-1.8zM4.8 44.7l.9-1.3C7 44.4 8.5 45 10 45s2.6-.8 2.6-2-1.5-1.7-3.1-2.2c-1.9-.6-4.1-1.2-4.1-3.5 0-2.1 1.8-3.6 4.2-3.6 1.5 0 3.2.5 4.5 1.4l-.8 1.4c-1.2-.7-2.5-1.2-3.7-1.2-1.5 0-2.4.8-2.4 1.8 0 1.2 1.5 1.6 3.2 2.1 1.9.6 4 1.3 4 3.6 0 2.4-1.9 3.7-4.4 3.7-1.9.1-3.8-.6-5.2-1.8zM18.2 43v-7.5h-1.7v-1.6h1.7v-3.7H20v3.7h4v1.6h-4v7.2c0 1.5.8 2.1 2.1 2.1.6 0 1.2-.1 1.8-.4V46c-.6.3-1.3.5-2.2.5-2 0-3.5-.9-3.5-3.5zm9-9.1H29v3.2c.9-2.1 2.7-3.6 5.1-3.5v2H34c-2.7 0-4.9 1.9-4.9 5.7v4.9h-1.8V33.9zm8.4 6.3c0-3.6 2.5-6.5 6-6.5 3.7 0 5.8 2.9 5.8 6.6v.6h-9.8c.3 2.7 2.2 4.2 4.4 4.2 1.7 0 2.9-.7 3.9-1.8l1.2 1c-1.2 1.4-2.8 2.3-5.1 2.3-3.6 0-6.4-2.6-6.4-6.4zm9.9-.8c-.2-2.3-1.5-4.2-4-4.2-2.2 0-3.8 1.8-4 4.2h8zm5.1-5.5h1.8v2.2c.8-1.3 2.1-2.4 4.2-2.4 3 0 4.8 2 4.8 5v7.7h-1.8v-7.2c0-2.3-1.2-3.7-3.4-3.7-2.1 0-3.7 1.6-3.7 3.9v7.1h-1.8V33.9zm14.7 14.6l.8-1.4c1.4 1 3 1.6 4.8 1.6 2.7 0 4.5-1.5 4.5-4.4v-1.5c-1.1 1.4-2.6 2.6-4.9 2.6-3 0-5.8-2.2-5.8-5.8 0-3.6 2.9-5.9 5.8-5.9 2.3 0 3.8 1.2 4.8 2.5V34h1.8v10.2c0 1.9-.6 3.4-1.6 4.4-1.1 1.1-2.8 1.7-4.7 1.7-2-.1-3.9-.7-5.5-1.8zm10.1-9c0-2.6-2.2-4.2-4.6-4.2-2.4 0-4.3 1.6-4.3 4.2 0 2.5 2 4.2 4.3 4.2 2.4 0 4.6-1.7 4.6-4.2zM82 43v-7.5h-1.7v-1.6H82v-3.7h1.8v3.7h3.9v1.6h-3.9v7.2c0 1.5.8 2.1 2.1 2.1.6 0 1.2-.1 1.8-.4V46c-.6.3-1.3.5-2.2.5-2 0-3.5-.9-3.5-3.5zm9-14.2h1.8v7.3c.8-1.3 2.1-2.4 4.2-2.4 3 0 4.8 2 4.8 5v7.7H100v-7.2c0-2.3-1.2-3.7-3.4-3.7-2.1 0-3.7 1.6-3.7 3.9v7.1H91V28.8zm31.3 5.1h2l-5.2 12.8c-1.1 2.6-2.3 3.5-4.1 3.5-1 0-1.8-.2-2.6-.6l.6-1.5c.6.3 1.2.5 1.9.5 1.1 0 1.8-.6 2.5-2.3l-5.6-12.4h2l4.5 10.3 4-10.3zm3.4 6.3c0-3.6 2.7-6.5 6.5-6.5 3.7 0 6.5 2.9 6.5 6.4 0 3.5-2.8 6.5-6.5 6.5-3.8 0-6.5-2.9-6.5-6.4zm11.1 0c0-2.7-2-4.9-4.6-4.9-2.7 0-4.5 2.2-4.5 4.8 0 2.7 2 4.8 4.6 4.8 2.6.1 4.5-2.1 4.5-4.7zm5 1.4v-7.7h1.8v7.2c0 2.3 1.2 3.7 3.4 3.7 2.1 0 3.7-1.6 3.7-3.9v-7.1h1.8v12.4h-1.8V44c-.8 1.3-2.1 2.4-4.2 2.4-3 .2-4.7-1.8-4.7-4.8zM0 69c0-3.6 2.7-6.5 6.4-6.5 2.4 0 3.8 1 5 2.2L10.1 66c-1-1-2.1-1.9-3.8-1.9-2.5 0-4.4 2.1-4.4 4.8 0 2.7 2 4.8 4.6 4.8 1.6 0 2.8-.8 3.8-1.8l1.2 1.1c-1.2 1.4-2.7 2.4-5.1 2.4C2.7 75.4 0 72.5 0 69zm13.5 2.5c0-2.7 2.2-4.1 5.3-4.1 1.6 0 2.7.2 3.8.5v-.4c0-2.2-1.4-3.4-3.7-3.4-1.5 0-2.6.4-3.8.9l-.6-1.5c1.4-.6 2.7-1 4.5-1 1.8 0 3.1.5 4 1.4.8.8 1.3 2 1.3 3.6v7.6h-1.8v-1.9c-.9 1.1-2.3 2.1-4.5 2.1-2.1.1-4.5-1.2-4.5-3.8zm9.2-.9v-1.2c-.9-.3-2.1-.5-3.6-.5-2.3 0-3.6 1-3.6 2.6s1.4 2.5 3.1 2.5c2.2-.1 4.1-1.5 4.1-3.4zm5.7-7.9h1.8v2.2c.8-1.3 2.1-2.4 4.2-2.4 3 0 4.8 2 4.8 5v7.7h-1.8V68c0-2.3-1.2-3.7-3.4-3.7-2.1 0-3.7 1.6-3.7 3.9v7.1h-1.8V62.7zM49.6 69c0-3.6 2.7-6.5 6.4-6.5 2.4 0 3.8 1 5 2.2L59.7 66c-1-1-2.1-1.9-3.8-1.9-2.5 0-4.4 2.1-4.4 4.8 0 2.7 2 4.8 4.6 4.8 1.6 0 2.8-.8 3.8-1.8L61 73c-1.2 1.4-2.7 2.4-5.1 2.4-3.6 0-6.3-2.9-6.3-6.4zm13.3 0c0-3.6 2.7-6.5 6.5-6.5 3.7 0 6.5 2.9 6.5 6.4 0 3.5-2.8 6.5-6.5 6.5-3.8 0-6.5-2.9-6.5-6.4zM74 69c0-2.7-2-4.9-4.6-4.9-2.7 0-4.5 2.2-4.5 4.8 0 2.7 2 4.8 4.6 4.8 2.6.1 4.5-2.1 4.5-4.7zm5 1.4v-7.7h1.8V70c0 2.3 1.2 3.7 3.4 3.7 2.1 0 3.7-1.6 3.7-3.9v-7.1h1.8v12.4H88V73c-.8 1.3-2.1 2.4-4.2 2.4-3 0-4.8-2-4.8-5zm15-7.7h1.8v2.2c.8-1.3 2.1-2.4 4.2-2.4 3 0 4.8 2 4.8 5v7.7H103V68c0-2.3-1.2-3.7-3.4-3.7-2.1 0-3.7 1.6-3.7 3.9v7.1H94V62.7zm15.4 9.1v-7.5h-1.7v-1.6h1.7V59h1.8v3.7h3.9v1.6h-3.9v7.2c0 1.5.8 2.1 2.1 2.1.6 0 1.2-.1 1.8-.4v1.6c-.6.3-1.3.5-2.2.5-2 0-3.5-.9-3.5-3.5zm15.5-2.8c0-3.6 2.7-6.5 6.5-6.5 3.7 0 6.5 2.9 6.5 6.4 0 3.5-2.8 6.5-6.5 6.5-3.8 0-6.5-2.9-6.5-6.4zm11 0c0-2.7-2-4.9-4.6-4.9-2.7 0-4.5 2.2-4.5 4.8 0 2.7 2 4.8 4.6 4.8 2.7.1 4.5-2.1 4.5-4.7zm5.3-6.3h1.8v2.2c.8-1.3 2.1-2.4 4.2-2.4 3 0 4.8 2 4.8 5v7.7h-1.8V68c0-2.3-1.2-3.7-3.4-3.7-2.1 0-3.7 1.6-3.7 3.9v7.1h-1.8V62.7zm14.5 9.9h2.2v2.5h-2.2v-2.5z"/></svg>