<svg xmlns="http://www.w3.org/2000/svg" width="352.69" height="193.555" viewBox="0 0 352.6903 193.5549">
  <path fill="#FFF" d="M37.844 103.323c-15.145 0-27.9-13.07-27.9-28.55 0-15.648 12.563-28.393 28.053-28.393 15.55 0 27.745 12.686 27.745 28.873 0 15.212-12.777 28.07-27.898 28.07M65.9 49.42c-7.238-8.246-16.845-12.63-28.21-12.63C16.564 36.79 0 53.48 0 74.775c0 21.39 16.643 38.152 37.844 38.152 13.547 0 26.02-7.04 32.534-18.363 4.214-7.1 5.466-12.863 5.466-25.7V0H65.9v49.42zM107.81 43.952l.105-.02-.104.02zm-8.463-1.648C91.735 47.26 88.78 54.57 88.78 68.382v43.248h9.92V68.863c0-15.69 3.903-20.606 16.797-21.047l2.377-.063V38.23h-2.46c-6.997 0-11.507 1.13-16.067 4.074M161.152 103.323c-14.507 0-27.254-13.26-27.254-28.396 0-15.728 12.44-28.547 27.72-28.547 15.333 0 27.774 12.892 27.774 28.72 0 15.56-12.696 28.223-28.24 28.223m.466-66.532c-20.83 0-37.813 17.107-37.813 38.137 0 20.952 16.682 37.998 37.194 37.998 21.578 0 38.46-16.624 38.46-37.826 0-21.487-16.612-38.31-37.842-38.31M314.683 103.324c-15.384 0-27.896-12.742-27.896-28.396 0-15.728 12.665-28.547 28.242-28.547 15.46 0 27.557 12.76 27.557 29.03 0 15.4-12.518 27.914-27.904 27.914m32.53-48.218c-6.505-11.29-18.977-18.314-32.53-18.314-21.2 0-37.808 16.747-37.808 38.136 0 21.316 16.53 37.998 37.657 37.998 11.404 0 21.008-4.396 28.208-12.63v11.334h9.95V80.858c0-12.854-1.23-18.618-5.476-25.752M223.68 85.378l2.83-23.56 25.493.08v7.117h10.673V51.237h-44.809l-5.935 45.733c11.366-1.475 18.755-2.028 28.935 3.483 14.542 7.887 20.7 20.932 22.078 33.98 1.075 13.015-4.022 30.845-16.11 40.744-10.53 8.818-25.1 10.103-37.574 5.683l-3.486 9.943c4.245 1.267 8.228 1.825 12.437 2.565 13.198 1.267 33.367-3.69 45.81-21.674 11.745-17.088 11.4-40.935 4.895-55.82-9.143-21.123-28.166-29.142-45.236-30.496"/>
</svg>