<svg id="Layer_1" xmlns="http://www.w3.org/2000/svg" viewBox="0 0 752.9 156"><style>.st0{fill:#f89e1b}.st1{fill:#42484c}</style><path class="st0" d="M124.6 0l16.2 23.1h-32.5z"/><path class="st1" d="M405.2 23.8l-12.9 30.6-13.4-30.6h-14.1L351.5 54l-12.7-30.2h-21.5L343.9 84h13.4l13.6-30.3L384.2 84h14.5L425 23.8zM704 23.8v21.1h-36.9V23.8h-20.6V84h20.6V60.7H704V84h20.4V23.8zM449.4 23.8L409 84h22.4l25-38.8L481.3 84h23L465 23.8zM169.3 23.8h-22.7l-22.9 36.6-22.6-36.6H77.8L115.9 84h14zM488.4 23.8v15.8h26.2V84h20.6V39.6h20.7l10.4-15.8zM69.5 24.8c-2.1-.7-4.5-1-7.1-1H16.9C6.5 23.8 0 29 0 37.4v32.9c0 4.9 2.5 9 7.1 11.4l.9.5 12.5-12.7V39.6h38.4v28.5H30.6L14.8 84h47.6c10 0 17-5.6 17-13.6V39.1L70 24.9l-.5-.1zM620.9 23.8h-41.1c-1.1 0-2.2.1-3.3.2l-.6.1-1.8 2.7L563 43.9v26.4c0 8 6.9 13.6 16.9 13.6H621c9.7 0 17-5.9 17-13.6V60h-20.6v8.1h-33.9V39.6h33.9v7H638v-9.1c-.1-8.3-6.7-13.7-17.1-13.7zM168.2 38.8V84H232V68.1h-43.2v-7.6h29.1V46.7h-29.1v-7.1H232V23.8h-53.3zM298.4 61.4c7.3-.3 15.2-3.8 15.2-10.9V36.2c0-7.6-5.9-12.3-15.5-12.3H241V84h20.5V39.2h31.1c.6 0 .9 0 1.2.1V49c-.2.2-.8.2-1.1.2h-21.8v12.1L296.1 84h28.2l-25.9-22.6z"/><path class="st0" d="M456.7 107l-16.2-23h32.4z"/><path class="st1" d="M88.1 114.4h-5.3c-4.4 0-7.3 2.4-8.5 7.1L67 148.9c-1.3 4.7.3 7.1 4.8 7.1H77c4.5 0 7.3-2.4 8.6-7.1l7.3-27.4c1.2-4.7-.4-7.1-4.8-7.1zm-.9 7.5l-7.1 26.7c-.4 1.6-1.4 2.4-2.8 2.4h-2.8c-1.7 0-2.3-.8-1.8-2.4l7.1-26.7c.4-1.6 1.5-2.4 3.1-2.4h2.6c1.5-.1 2.1.7 1.7 2.4zM136.7 114.4h-10.8L114.8 156h5.5l4.5-16.8h3.3l-.8 16.8h5.3l.8-17.3c2.5-1 4.2-3.3 5.1-6.9l2.7-10.3c1.3-4.7-.2-7.1-4.5-7.1zm-1.3 8l-2.4 9c-.5 2-1.6 3-3.3 3h-3.6l4-15h3.6c1.7 0 2.2 1 1.7 3zM163.2 156h5.5l11.1-41.6h-5.5zM221.2 114.4h-3.8c-4.3 0-7 2.4-8.3 7.1l-7.3 27.5c-1.2 4.7.3 7 4.5 7h10.8l5.4-20.3h-8.4l-1.3 5h2.9l-2.7 10.2h-3.8c-1.6 0-2.2-1-1.6-3l6.8-25.5c.5-2 1.6-3 3.2-3h1.4c1.6 0 2.1 1 1.6 3l-1 3.7h5.5l1.2-4.5c1.3-4.8-.4-7.2-5.1-7.2zM248.2 156h5.6l11.1-41.6h-5.6zM303.6 134.5l-.5-20.1h-5.6L286.4 156h5.6l7.2-27.2.9 18.9-2.2 8.3h5.5l11.1-41.6H309zM355.7 114.4h-3.5c-4.4 0-7.3 2.4-8.5 7.1l-2.3 8.5c-.3 1.1-.4 2-.4 2.6.1.7.3 1.2.7 1.7.4.4 1.1.9 2.1 1.6l4.5 3c.6.4 1 .8 1.2 1 .2.3.3.8 0 1.6l-1.9 7.1c-.4 1.6-1.4 2.4-2.8 2.4h-1c-1.7 0-2.3-.8-1.8-2.4l.6-2.3h-5.5l-.6 2.1c-1.4 5.1.2 7.7 4.6 7.7h3.4c4.5 0 7.3-2.3 8.6-7l2.4-8.9c.4-1.5.5-2.5.4-3-.1-.5-.4-1-.8-1.3-.4-.4-1.1-.9-2-1.5l-4.5-2.8c-.6-.4-1-.8-1.2-1-.2-.3-.3-.8 0-1.6l1.8-6.9c.4-1.7 1.5-2.5 3-2.5h.9c1.6 0 2.2.8 1.8 2.5l-1 3.7h5.5l1.1-4.1c1.2-4.9-.4-7.3-4.8-7.3zM408.7 156h13.7l1.4-5h-8.2l3.7-13.9h7.2l1.4-5h-7.3l3.4-12.7h8.2l1.3-5h-13.7zM471.2 114.4h-9.6L450.4 156h10.8c4.4 0 7.2-2 8.2-6l7.4-27.6c1.4-5.3-.4-8-5.6-8zm.1 8l-7.1 26.7c-.3 1.2-1.2 1.9-2.7 1.9h-4.2l8.4-31.5h3.9c1.6-.1 2.2.9 1.7 2.9zM494.2 156h5.5l11.1-41.6h-5.5zM532.2 119.4h5.3l-9.8 36.6h5.6l9.7-36.6h5.3l1.4-5h-16.2zM566.6 156h5.5l11.1-41.6h-5.5zM621.7 114.4h-5.3c-4.4 0-7.3 2.4-8.5 7.1l-7.3 27.4c-1.3 4.7.3 7.1 4.8 7.1h5.2c4.5 0 7.3-2.4 8.6-7.1l7.3-27.4c1.2-4.7-.4-7.1-4.8-7.1zm-.9 7.5l-7.1 26.7c-.4 1.6-1.4 2.4-2.8 2.4H608c-1.7 0-2.3-.8-1.8-2.4l7.1-26.7c.4-1.6 1.5-2.4 3.1-2.4h2.6c1.6-.1 2.2.7 1.8 2.4zM666.4 114.4l-5.4 20.1-.6-20.1h-5.5L643.8 156h5.5l7.3-27.2.9 18.9-2.2 8.3h5.5l11.1-41.6z"/><g><path class="st1" d="M742 22.9c1.9 0 3.7.5 5.3 1.5 1.7 1 3.1 2.4 4 4.1 1 1.7 1.5 3.6 1.5 5.5 0 2-.5 3.8-1.5 5.6-1 1.7-2.4 3-4.1 4-1.7 1-3.5 1.5-5.5 1.5s-3.8-.5-5.6-1.5c-1.7-1-3.1-2.3-4.1-4-1-1.7-1.5-3.6-1.5-5.5 0-2.1.6-4 1.7-5.8 1.1-1.7 2.6-3 4.4-4 1.8-1 3.5-1.4 5.4-1.4zm0 1.8c-1.7 0-3.4.5-4.9 1.4-1.5.9-2.6 2.1-3.4 3.6-.7 1.3-1 2.7-1 4.2 0 1.7.4 3.2 1.3 4.7.8 1.4 2 2.5 3.4 3.4 1.4.8 2.9 1.2 4.5 1.2s3.1-.4 4.5-1.2c1.4-.8 2.5-1.9 3.4-3.3.8-1.5 1.3-3 1.3-4.7 0-2.7-1-5-3.1-6.9-.9-.8-2-1.5-3.2-1.9-1.1-.3-1.9-.5-2.8-.5zm-4.4 2.8h2.6c1.4 0 2.4.1 3.1.2.7.1 1.2.4 1.6.7.8.7 1.2 1.6 1.2 2.9 0 2-.9 3.3-2.8 3.8l3.9 5.3h-3.5l-3.3-4.8v4.8h-2.8V27.5zm2.8 2.4v3.4h.3c.9 0 1.5-.1 1.8-.3.5-.3.7-.7.7-1.4 0-.6-.2-1.1-.5-1.3-.3-.3-.9-.4-1.8-.4h-.5z"/></g></svg>