<svg id="BUY_NOW" xmlns="http://www.w3.org/2000/svg" viewBox="0 0 320 61"><style>.st0{fill:#fff}</style><path class="st0" d="M88.4 18.5H100c3.3 0 5.1 1.8 5.1 5.1v2.9c0 1.9-.9 3.2-2.6 3.8 2.1.4 3.1 1.8 3.1 3.9v3.7c0 3.3-1.8 5.1-5.1 5.1h-12V18.5zm4.6 3.8v6.1h6.3c.8 0 1.3-.4 1.3-1.2v-3.6c0-.9-.5-1.3-1.4-1.3H93zm0 10v6.9h6.8c.9 0 1.4-.4 1.4-1.3v-4.3c0-.8-.5-1.3-1.3-1.3H93zM128.2 18.5V38c0 3.3-1.8 5.2-5.1 5.2h-6.9c-3.3 0-5.1-1.8-5.1-5.2V18.5h4.5v19.4c0 .9.5 1.4 1.4 1.4h5.4c.9 0 1.4-.5 1.4-1.4V18.5h4.4zM139.2 43v-8.5l-5.8-9.1c-.2-.3-.6-1.1-.6-2.1v-4.8h4.5v4.2c0 .7.1 1.2.4 1.7l3.8 6.1 3.7-5.7c.3-.5.4-1 .4-1.7v-4.5h4.3v4.8c0 1.1-.4 1.9-.6 2.1l-5.7 9V43h-4.4zM167.1 27.2V43h-4.3V18.5h4.2l8.7 15.8V18.5h4.3V43h-4.2l-8.7-15.8zM191 43.2c-3.3 0-5.1-1.8-5.1-5.2V23.5c0-3.3 1.8-5.2 5.1-5.2h6.9c3.3 0 5.1 1.8 5.1 5.2V38c0 3.3-1.8 5.2-5.1 5.2H191zm-.6-5.4c0 .9.5 1.4 1.4 1.4h5.4c.9 0 1.4-.5 1.4-1.4V23.6c0-.9-.5-1.4-1.4-1.4h-5.4c-.9 0-1.4.5-1.4 1.4v14.2zM232.9 18.5v5.6c0 .9-.3 1.8-.3 2.1L227.9 43h-4.5l-3-10.9-3 10.9h-4.5l-4.6-16.8c-.1-.3-.3-1.2-.3-2.1v-5.6h4.3v5.1c0 .8.1 1.2.2 1.6l2.9 11.6 2.8-11.6c.1-.5.2-.8.2-1.6v-5.1h4.1v5.3c0 .5.1 1.1.2 1.4l2.8 11.6 2.9-11.6c.1-.5.2-.8.2-1.6v-5.1h4.3z"/></svg>