<?xml version="1.0" encoding="utf-8"?>
<!-- Generator: Adobe Illustrator 18.1.1, SVG Export Plug-In . SVG Version: 6.00 Build 0)  -->
<!DOCTYPE svg PUBLIC "-//W3C//DTD SVG 1.1//EN" "http://www.w3.org/Graphics/SVG/1.1/DTD/svg11.dtd">
<svg version="1.1" xmlns="http://www.w3.org/2000/svg" xmlns:xlink="http://www.w3.org/1999/xlink" x="0px" y="0px"
	 viewBox="0 0 456.6 44.3" enable-background="new 0 0 456.6 44.3" xml:space="preserve">
<g id="Layer_2">
	<g id="o6Vwwa.tif">
		<image overflow="visible" width="458" height="44" id="Layer_1_1_" xlink:href="68EA04E264ABE867.png" >
		</image>
	</g>
</g>
<g id="Layer_1">
	<g>
		<g>
			<path fill-rule="evenodd" clip-rule="evenodd" d="M456.6,21.8c0-12.1-10-21.8-22.3-21.8c-1.2,0-2.4,0.1-3.5,0.3H0v44h436v-0.7
				C447.5,42.7,456.6,33.3,456.6,21.8z"/>
		</g>
	</g>
	<g>
		<path fill-rule="evenodd" clip-rule="evenodd" fill="#FFFFFF" d="M434.9,7c8,0,14.5,6.4,14.5,14.2c0,7.9-6.5,14.2-14.5,14.2
			c-8,0-14.5-6.4-14.5-14.2C420.3,13.4,426.8,7,434.9,7z"/>
		<path fill-rule="evenodd" clip-rule="evenodd" fill="#E20074" d="M444.5,22L429,12c0,0,4.3,8.7,0,18.3L444.5,22z"/>
	</g>
	<g>
		<path fill="#FFFFFF" d="M141.1,31.7h-1.8v-2.2c-1.1,1.8-2.7,2.6-4.7,2.6c-1.8,0-3.2-0.6-4.4-1.8c-0.8-0.8-1.3-1.6-1.7-2.6
			c-0.6-1.4-0.8-2.9-0.8-4.6c0-3,0.8-5.5,2.5-7.3c1.2-1.3,2.8-1.9,4.7-1.9c2.3,0,4,0.9,5.2,2.7c0.6,0.9,0.9,1.9,1,3h-2.1
			c-0.1-0.8-0.3-1.4-0.7-2.1c-0.7-1.2-1.9-1.9-3.3-1.9c-1.6,0-2.9,0.7-3.8,2.2c-0.8,1.3-1.2,3-1.2,5.1c0,2.2,0.5,4,1.4,5.3
			c0.9,1.3,2,1.9,3.5,1.9c1.2,0,2.2-0.4,3-1.3c0.9-1,1.4-2.6,1.4-4.6h-4.5v-1.8h6.4V31.7z"/>
		<path fill="#FFFFFF" d="M146.7,31.7V14.4h10v1.8h-7.9v5.7h7.4v1.8h-7.4v6.2h8v1.8H146.7z"/>
		<path fill="#FFFFFF" d="M165.5,31.7V16.2h-4.8v-1.8h11.8v1.8h-4.8v15.5H165.5z"/>
		<path fill="#FFFFFF" d="M187.6,31.7V16.2h-4.8v-1.8h11.8v1.8h-4.8v15.5H187.6z"/>
		<path fill="#FFFFFF" d="M199.2,31.7V14.4h2.1v7.3h7.4v-7.3h2.1v17.3h-2.1v-8.2h-7.4v8.2H199.2z"/>
		<path fill="#FFFFFF" d="M220.8,14.4h2.3l5.6,17.3h-2.3l-1.6-5.3H219l-1.6,5.3h-2.2L220.8,14.4z M219.6,24.6h4.8l-2.4-7.9
			L219.6,24.6z"/>
		<path fill="#FFFFFF" d="M233.2,31.7V14.4h2.3l7.6,14.2V14.4h1.9v17.3h-2.3l-7.5-14v14H233.2z"/>
		<path fill="#FFFFFF" d="M250.9,31.7V14.4h2.1v8l7-8h2.6l-6.4,7.2l6.6,10.1h-2.5l-5.5-8.5l-1.8,2v6.5H250.9z"/>
		<path fill="#FFFFFF" d="M267,31.7V14.4h10v1.8h-7.9v5.7h7.4v1.8h-7.4v6.2h8v1.8H267z"/>
		<path fill="#FFFFFF" d="M282.3,31.7V14.4h4.8c1.3,0,2.4,0.2,3.2,0.5c1.5,0.6,2.6,1.7,3.3,3.4c0.5,1.3,0.8,2.8,0.8,4.5
			c0,2.9-0.7,5.2-2.1,6.8c-0.8,0.9-1.7,1.5-2.8,1.9c-0.6,0.2-1.3,0.2-2.2,0.2H282.3z M284.4,29.9h2.5c1,0,1.8-0.1,2.3-0.3
			c0.9-0.3,1.7-1.1,2.3-2.4c0.5-1.1,0.7-2.6,0.7-4.4c0-2.4-0.5-4.1-1.6-5.3c-0.5-0.5-1.1-0.9-1.7-1.1c-0.5-0.2-1.1-0.2-1.8-0.2h-2.7
			V29.9z"/>
	</g>
</g>
</svg>
