<?xml version="1.0" encoding="utf-8"?>
<!-- Generator: Adobe Illustrator 18.1.1, SVG Export Plug-In . SVG Version: 6.00 Build 0)  -->
<svg version="1.1" id="Layer_1" xmlns="http://www.w3.org/2000/svg" xmlns:xlink="http://www.w3.org/1999/xlink" x="0px" y="0px"
	 viewBox="0 0 300.7 106.7" enable-background="new 0 0 300.7 106.7" xml:space="preserve">
<g>
	<path fill="#8C8C8C" d="M0,0.3h19.3v4.1H12v19H7.3v-19H0V0.3z"/>
	<path fill="#8C8C8C" d="M21,2H25v6.3c1.1-1.1,2.5-1.7,4.3-1.7c4.2,0,6.9,3.3,6.9,7.6v9.3h-4.1v-9.4c0-2-1.6-3.6-3.5-3.6
		c-1.9,0-3.5,1.7-3.5,3.6v9.4H21V2z"/>
	<path fill="#8C8C8C" d="M38.2,15.1c0-4.8,4-8.5,8.6-8.5c4.9,0,8.7,3.7,8.7,8.5v1.3H42.6c0.6,2,2.3,3.4,4.3,3.4c1.6,0,3-0.8,3.8-2
		l3.6,1.7c-1.5,2.5-4.2,4.1-7.5,4.1C42.2,23.8,38.2,20,38.2,15.1z M42.7,13.5h8.5c-0.6-2-2.2-3.2-4.3-3.2
		C45,10.2,43.3,11.5,42.7,13.5z"/>
	<path fill="#8C8C8C" d="M64,6.9h4.1v1.7c0.9-1.3,2.3-2,4.3-2h0.5v4.2h-1.2c-2.3,0-3.5,1.6-3.5,3.6v9.1H64V6.9z"/>
	<path fill="#8C8C8C" d="M74.1,2.5c0-1.4,1.2-2.5,2.5-2.5s2.5,1.2,2.5,2.5S78,5.1,76.6,5.1S74.1,3.9,74.1,2.5z M74.6,6.9h4.1v16.5
		h-4.1V6.9z"/>
	<path fill="#8C8C8C" d="M80.9,14.3c0-4.4,3.4-7.7,8.3-7.7c1.6,0,3,0.5,4.4,1.6V6.9h4.1v14c0,4.8-3.6,7.8-8.4,7.8
		c-3.1,0-5.6-1.2-7.2-3l-0.4-0.4l3.2-2.3l0.4,0.4c0.9,0.9,2.2,1.6,3.9,1.6c2.4,0,4.4-1.4,4.4-3.9v-0.7c-1.4,1-2.9,1.5-4.4,1.5
		C84.3,22,80.9,18.6,80.9,14.3z M93.6,16.4v-4.2c-1.5-1.3-2.7-1.8-4.3-1.8c-2.4,0-4.2,1.7-4.2,3.9s1.8,3.9,4.2,3.9
		C90.9,18.2,92.1,17.7,93.6,16.4z"/>
	<path fill="#8C8C8C" d="M100.8,2h4.1v6.3c1.1-1.1,2.5-1.7,4.3-1.7c4.2,0,6.9,3.3,6.9,7.6v9.3H112v-9.4c0-2-1.6-3.6-3.5-3.6
		c-1.9,0-3.5,1.7-3.5,3.6v9.4h-4.1V2z"/>
	<path fill="#8C8C8C" d="M117.6,6.9h2.3V3h4.1v4h4.1v3.5H124v6.7c0,1.5,0.9,2.4,2.4,2.4h1.7v3.9h-2.3c-3.4,0-5.8-2.1-5.8-5.6v-7.4
		h-2.3V6.9z"/>
	<path fill="#8C8C8C" d="M136.2,2.5c0-1.4,1.2-2.5,2.5-2.5s2.5,1.2,2.5,2.5s-1.2,2.5-2.5,2.5S136.2,3.9,136.2,2.5z M136.7,6.9h4.1
		v16.5h-4.1V6.9z"/>
	<path fill="#8C8C8C" d="M144,6.9h4.1v1.4c1.1-1.1,2.5-1.7,4.3-1.7c4.2,0,6.9,3.3,6.9,7.6v9.3h-4.1v-9.4c0-2-1.6-3.6-3.5-3.6
		c-1.9,0-3.5,1.7-3.5,3.6v9.4H144V6.9z"/>
	<path fill="#8C8C8C" d="M161.1,7.9h2V7c0-2.5,1.7-5,5-5h2.8v3.5h-1.9c-1.2,0-1.8,0.6-1.8,1.9v0.5h3.4v3.5h-3.4v12h-4.1v-12h-2V7.9z
		"/>
	<path fill="#8C8C8C" d="M171.2,15.2c0-4.8,3.9-8.6,8.7-8.6c4.8,0,8.7,3.8,8.7,8.6c0,4.9-3.9,8.6-8.7,8.6
		C175.1,23.8,171.2,20.1,171.2,15.2z M184.3,15.2c0-2.7-2-4.7-4.5-4.7c-2.4,0-4.5,2-4.5,4.7c0,2.8,2,4.7,4.5,4.7
		C182.3,19.9,184.3,18,184.3,15.2z"/>
	<path fill="#8C8C8C" d="M190.8,6.9h4.1v1.7c0.9-1.3,2.3-2,4.3-2h0.5v4.2h-1.2c-2.3,0-3.5,1.6-3.5,3.6v9.1h-4.1V6.9z"/>
	<path fill="#8C8C8C" d="M201.4,6.9h4.1v1.5c1-1.2,2.5-1.8,4.2-1.8c2.1,0,3.8,1.1,4.8,2.6c1.1-1.7,2.8-2.6,4.9-2.6
		c4.3,0,6.4,3.4,6.4,6.9v9.9h-4.1v-9.6c0-2-1.3-3.3-3-3.3c-1.7,0-3,1.4-3,3.3v9.6h-4.1v-9.6c0-2-1.3-3.3-3-3.3c-1.7,0-3,1.4-3,3.3
		v9.6h-4.1V6.9z"/>
	<path fill="#8C8C8C" d="M236,6.6c1.8,0,3.3,0.5,4.7,1.7V6.9h4.1v16.5h-4.1V22c-1.4,1.2-2.8,1.7-4.7,1.7c-4.8,0-8.2-3.8-8.2-8.6
		C227.8,10.4,231.2,6.6,236,6.6z M240.7,17.8v-5.1c-1.2-1.6-2.8-2.1-4.1-2.1c-2.5,0-4.5,2-4.5,4.7c0,2.7,2,4.7,4.5,4.7
		C237.9,19.9,239.5,19.4,240.7,17.8z"/>
	<path fill="#8C8C8C" d="M246.8,6.9h2.3V3h4.1v4h4.1v3.5h-4.1v6.7c0,1.5,0.9,2.4,2.4,2.4h1.7v3.9H255c-3.4,0-5.8-2.1-5.8-5.6v-7.4
		h-2.3V6.9z"/>
	<path fill="#8C8C8C" d="M259,2.5c0-1.4,1.2-2.5,2.5-2.5c1.4,0,2.5,1.2,2.5,2.5s-1.2,2.5-2.5,2.5C260.2,5.1,259,3.9,259,2.5z
		 M259.5,6.9h4.1v16.5h-4.1V6.9z"/>
	<path fill="#8C8C8C" d="M265.8,15.2c0-4.8,3.9-8.6,8.7-8.6c4.8,0,8.7,3.8,8.7,8.6c0,4.9-3.9,8.6-8.7,8.6
		C269.8,23.8,265.8,20.1,265.8,15.2z M279,15.2c0-2.7-2-4.7-4.5-4.7c-2.4,0-4.5,2-4.5,4.7c0,2.8,2,4.7,4.5,4.7
		C277,19.9,279,18,279,15.2z"/>
	<path fill="#8C8C8C" d="M285.4,6.9h4.1v1.4c1.1-1.1,2.5-1.7,4.3-1.7c4.2,0,6.9,3.3,6.9,7.6v9.3h-4.1v-9.4c0-2-1.6-3.6-3.5-3.6
		c-1.9,0-3.5,1.7-3.5,3.6v9.4h-4.1V6.9z"/>
	<path fill="#8C8C8C" d="M45.2,45.6c1.8,0,3.3,0.5,4.7,1.7v-1.4h4.1v16.5h-4.1V61c-1.4,1.2-2.8,1.7-4.7,1.7c-4.8,0-8.2-3.8-8.2-8.6
		C36.9,49.4,40.3,45.6,45.2,45.6z M49.8,56.8v-5.1c-1.2-1.6-2.8-2.1-4.1-2.1c-2.5,0-4.5,2-4.5,4.7c0,2.7,2,4.7,4.5,4.7
		C47,58.9,48.6,58.4,49.8,56.8z"/>
	<path fill="#8C8C8C" d="M55.9,45.9h2.3v-4h4.1v4h4.1v3.5h-4.1v6.7c0,1.5,0.9,2.4,2.4,2.4h1.7v3.9h-2.3c-3.4,0-5.8-2.1-5.8-5.6v-7.4
		h-2.3V45.9z"/>
	<path fill="#8C8C8C" d="M73.9,45.9h2.3v-4h4.1v4h4.1v3.5h-4.1v6.7c0,1.5,0.9,2.4,2.4,2.4h1.6v3.9H82c-3.4,0-5.8-2.1-5.8-5.6v-7.4
		h-2.3V45.9z"/>
	<path fill="#8C8C8C" d="M86.6,41h4.1v6.3c1.1-1.1,2.5-1.7,4.3-1.7c4.2,0,6.9,3.3,6.9,7.6v9.3h-4.1v-9.4c0-2-1.6-3.6-3.5-3.6
		c-1.9,0-3.5,1.7-3.5,3.6v9.4h-4.1V41z"/>
	<path fill="#8C8C8C" d="M103.9,54.1c0-4.8,4-8.5,8.6-8.5c4.9,0,8.7,3.7,8.7,8.5v1.3h-12.9c0.6,2,2.3,3.4,4.3,3.4c1.6,0,3-0.8,3.8-2
		l3.6,1.7c-1.5,2.5-4.2,4.1-7.5,4.1C107.9,62.8,103.9,59,103.9,54.1z M108.3,52.5h8.5c-0.6-2-2.2-3.2-4.3-3.2
		C110.6,49.2,108.9,50.5,108.3,52.5z"/>
	<path fill="#8C8C8C" d="M129.6,45.9h4.1v1.7c0.9-1.3,2.3-2,4.3-2h0.5v4.2h-1.2c-2.3,0-3.5,1.6-3.5,3.6v9.1h-4.1V45.9z"/>
	<path fill="#8C8C8C" d="M139.7,41.5c0-1.4,1.2-2.5,2.5-2.5c1.4,0,2.5,1.2,2.5,2.5s-1.2,2.5-2.5,2.5
		C140.9,44.1,139.7,42.9,139.7,41.5z M140.2,45.9h4.1v16.5h-4.1V45.9z"/>
	<path fill="#8C8C8C" d="M146.5,53.3c0-4.4,3.4-7.7,8.3-7.7c1.6,0,3,0.5,4.4,1.6v-1.2h4.1v14c0,4.8-3.6,7.8-8.4,7.8
		c-3.1,0-5.6-1.2-7.2-3l-0.4-0.4l3.2-2.3l0.4,0.4c0.9,0.9,2.2,1.6,3.9,1.6c2.4,0,4.4-1.4,4.4-3.9v-0.7c-1.4,1-2.9,1.5-4.4,1.5
		C149.9,61,146.5,57.6,146.5,53.3z M159.2,55.4v-4.2c-1.5-1.3-2.7-1.8-4.3-1.8c-2.4,0-4.2,1.7-4.2,3.9s1.8,3.9,4.2,3.9
		C156.5,57.2,157.8,56.7,159.2,55.4z"/>
	<path fill="#8C8C8C" d="M166.5,41h4.1v6.3c1.1-1.1,2.5-1.7,4.3-1.7c4.2,0,6.9,3.3,6.9,7.6v9.3h-4.1v-9.4c0-2-1.6-3.6-3.5-3.6
		c-1.9,0-3.5,1.7-3.5,3.6v9.4h-4.1V41z"/>
	<path fill="#8C8C8C" d="M183.2,45.9h2.3v-4h4.1v4h4.1v3.5h-4.1v6.7c0,1.5,0.9,2.4,2.4,2.4h1.7v3.9h-2.3c-3.4,0-5.8-2.1-5.8-5.6
		v-7.4h-2.3V45.9z"/>
	<path fill="#8C8C8C" d="M201.1,45.9h2.3v-4h4.1v4h4.1v3.5h-4.1v6.7c0,1.5,0.9,2.4,2.4,2.4h1.7v3.9h-2.3c-3.4,0-5.8-2.1-5.8-5.6
		v-7.4h-2.3V45.9z"/>
	<path fill="#8C8C8C" d="M213.4,41.5c0-1.4,1.2-2.5,2.5-2.5c1.4,0,2.5,1.2,2.5,2.5s-1.2,2.5-2.5,2.5
		C214.5,44.1,213.4,42.9,213.4,41.5z M213.9,45.9h4.1v16.5h-4.1V45.9z"/>
	<path fill="#8C8C8C" d="M221.1,45.9h4.1v1.5c1-1.2,2.5-1.8,4.2-1.8c2.1,0,3.8,1.1,4.8,2.6c1.1-1.7,2.8-2.6,4.9-2.6
		c4.3,0,6.4,3.4,6.4,6.9v9.9h-4.1v-9.6c0-2-1.3-3.3-3-3.3c-1.7,0-3,1.4-3,3.3v9.6h-4.1v-9.6c0-2-1.3-3.3-3-3.3c-1.7,0-3,1.4-3,3.3
		v9.6h-4.1V45.9z"/>
	<path fill="#8C8C8C" d="M247.6,54.1c0-4.8,4-8.5,8.6-8.5c4.9,0,8.7,3.7,8.7,8.5v1.3H252c0.6,2,2.3,3.4,4.3,3.4c1.6,0,3-0.8,3.8-2
		l3.6,1.7c-1.5,2.5-4.2,4.1-7.5,4.1C251.6,62.8,247.6,59,247.6,54.1z M252.1,52.5h8.5c-0.6-2-2.2-3.2-4.3-3.2
		C254.4,49.2,252.7,50.5,252.1,52.5z"/>
	<path fill="#8C8C8C" d="M63,84.9h4.7l2.9,10.5l3.2-10.5h4.3l3.2,10.4l2.8-10.4h4.6l-5,16.5h-4.6l-3.2-10.6l-3.2,10.6h-4.6L63,84.9z
		"/>
	<path fill="#8C8C8C" d="M89.8,80.5c0-1.4,1.2-2.5,2.5-2.5s2.5,1.2,2.5,2.5s-1.2,2.5-2.5,2.5S89.8,81.9,89.8,80.5z M90.3,84.9h4.1
		v16.5h-4.1V84.9z"/>
	<path fill="#8C8C8C" d="M96.4,84.9h2.3v-4h4.1v4h4.1v3.5h-4.1v6.7c0,1.5,0.9,2.4,2.4,2.4h1.7v3.9h-2.3c-3.4,0-5.8-2.1-5.8-5.6v-7.4
		h-2.3V84.9z"/>
	<path fill="#8C8C8C" d="M109.1,80h4.1v6.3c1.1-1.1,2.5-1.7,4.3-1.7c4.2,0,6.9,3.3,6.9,7.6v9.3h-4.1v-9.4c0-2-1.6-3.6-3.5-3.6
		c-1.9,0-3.5,1.7-3.5,3.6v9.4h-4.1V80z"/>
	<path fill="#8C8C8C" d="M132.9,89.9c0-6.6,5.4-11.9,11.9-11.9c4.3,0,7.9,2,10.1,5l0.5,0.7l-4.1,2.3l-0.5-0.6
		c-1.3-1.6-3.2-2.9-5.8-2.9c-4,0-7.2,3.2-7.2,7.3c0,4.2,3.2,7.6,7.2,7.6c2.3,0,4.5-0.8,6.3-2.9v-1.1h-4.9v-3.9h9.1v12h-4.3v-2.1
		c-1.8,1.5-3.8,2.4-6.7,2.4C138,101.8,132.9,96.4,132.9,89.9z"/>
	<path fill="#8C8C8C" d="M157.5,93.2c0-4.8,3.9-8.6,8.7-8.6c4.8,0,8.7,3.8,8.7,8.6c0,4.9-3.9,8.6-8.7,8.6S157.5,98.1,157.5,93.2z
		 M170.6,93.2c0-2.7-2-4.7-4.5-4.7c-2.4,0-4.5,2-4.5,4.7c0,2.8,2,4.7,4.5,4.7S170.6,96,170.6,93.2z"/>
	<path fill="#8C8C8C" d="M176.1,93.2c0-4.8,3.9-8.6,8.7-8.6s8.7,3.8,8.7,8.6c0,4.9-3.9,8.6-8.7,8.6S176.1,98.1,176.1,93.2z
		 M189.2,93.2c0-2.7-2-4.7-4.5-4.7c-2.4,0-4.5,2-4.5,4.7c0,2.8,2,4.7,4.5,4.7S189.2,96,189.2,93.2z"/>
	<path fill="#8C8C8C" d="M194.7,92.3c0-4.4,3.4-7.7,8.3-7.7c1.6,0,3,0.5,4.4,1.6v-1.2h4.1v14c0,4.8-3.6,7.8-8.4,7.8
		c-3.1,0-5.6-1.2-7.2-3l-0.4-0.4l3.2-2.3l0.4,0.4c0.9,0.9,2.2,1.6,3.9,1.6c2.4,0,4.4-1.4,4.4-3.9v-0.7c-1.4,1-2.9,1.5-4.4,1.5
		C198.1,100,194.7,96.6,194.7,92.3z M207.4,94.4v-4.2c-1.5-1.3-2.7-1.8-4.3-1.8c-2.4,0-4.2,1.7-4.2,3.9s1.8,3.9,4.2,3.9
		C204.7,96.2,206,95.7,207.4,94.4z"/>
	<path fill="#8C8C8C" d="M214.7,80h4.1v21.5h-4.1V80z"/>
	<path fill="#8C8C8C" d="M221,93.1c0-4.8,4-8.5,8.6-8.5c4.9,0,8.7,3.7,8.7,8.5v1.3h-12.9c0.6,2,2.3,3.4,4.3,3.4c1.6,0,3-0.8,3.8-2
		l3.6,1.7c-1.5,2.5-4.2,4.1-7.5,4.1C225,101.8,221,98,221,93.1z M225.5,91.5h8.5c-0.6-2-2.2-3.2-4.3-3.2
		C227.8,88.2,226.1,89.5,225.5,91.5z"/>
</g>
</svg>
