<?xml version="1.0" encoding="utf-8"?>
<!-- Generator: Adobe Illustrator 18.1.1, SVG Export Plug-In . SVG Version: 6.00 Build 0)  -->
<svg version="1.1" id="Layer_1" xmlns="http://www.w3.org/2000/svg" xmlns:xlink="http://www.w3.org/1999/xlink" x="0px" y="0px"
	 viewBox="0 0 130 51.8" enable-background="new 0 0 130 51.8" xml:space="preserve">
<g>
	<path fill="#8C8C8C" d="M9.4,2.9h2.4v1c0.5-0.7,1.4-1.2,2.5-1.2h0.3v2.5h-0.7c-1.4,0-2.1,0.9-2.1,2.1v5.4H9.4V2.9z"/>
	<path fill="#8C8C8C" d="M14.6,7.8c0-2.8,2.3-5,5.1-5c2.9,0,5.1,2.2,5.1,5v0.8h-7.6c0.3,1.2,1.3,2,2.6,2c0.9,0,1.8-0.5,2.3-1.2
		l2.1,1c-0.9,1.5-2.5,2.4-4.4,2.4C17,12.9,14.6,10.7,14.6,7.8z M17.2,6.8h5c-0.3-1.2-1.3-1.9-2.5-1.9C18.6,4.9,17.6,5.6,17.2,6.8z"
		/>
	<path fill="#8C8C8C" d="M30,2.7c1.1,0,1.9,0.3,2.7,1V2.9h2.4v9.7h-2.4v-0.8c-0.8,0.7-1.7,1-2.7,1c-2.8,0-4.9-2.2-4.9-5.1
		C25.2,4.9,27.2,2.7,30,2.7z M32.8,9.3v-3c-0.7-1-1.7-1.3-2.4-1.3c-1.5,0-2.7,1.2-2.7,2.8c0,1.6,1.2,2.8,2.7,2.8
		C31.1,10.6,32.1,10.3,32.8,9.3z"/>
	<path fill="#8C8C8C" d="M41.1,2.7c1.1,0,1.9,0.3,2.7,1V0h2.4v12.7h-2.4v-0.8c-0.8,0.7-1.7,1-2.7,1c-2.8,0-4.9-2.2-4.9-5.1
		C36.3,4.9,38.3,2.7,41.1,2.7z M43.9,9.3v-3c-0.7-1-1.7-1.3-2.4-1.3c-1.5,0-2.7,1.2-2.7,2.8c0,1.6,1.2,2.8,2.7,2.8
		C42.2,10.6,43.1,10.3,43.9,9.3z"/>
	<path fill="#8C8C8C" d="M47.8,13.2c0.6,0.4,1.1,0.5,1.4,0.5c0.6,0,1-0.3,1.2-0.7l0.1-0.1l-3.6-9.9h2.8l2.3,6.9l2.3-6.9h2.7
		l-3.6,9.7c-0.9,2.5-2.4,3.1-3.8,3.1c-1.1,0-2-0.3-2.7-0.8L47.8,13.2z"/>
	<path fill="#8C8C8C" d="M60.7,3.5h1.2V2.9c0-1.5,1-2.9,3-2.9h1.6v2.1h-1.1c-0.7,0-1.1,0.4-1.1,1.1v0.3h2v2.1h-2v7.1h-2.4V5.6h-1.2
		V3.5z"/>
	<path fill="#8C8C8C" d="M66.4,7.8c0-2.8,2.3-5.1,5.1-5.1c2.8,0,5.1,2.2,5.1,5.1c0,2.9-2.3,5.1-5.1,5.1S66.4,10.7,66.4,7.8z
		 M74.2,7.8C74.2,6.2,73,5,71.5,5c-1.4,0-2.6,1.2-2.6,2.8c0,1.6,1.2,2.8,2.6,2.8S74.2,9.4,74.2,7.8z"/>
	<path fill="#8C8C8C" d="M77.7,2.9h2.4v1c0.5-0.7,1.4-1.2,2.5-1.2h0.3v2.5h-0.7c-1.4,0-2.1,0.9-2.1,2.1v5.4h-2.4V2.9z"/>
	<path fill="#8C8C8C" d="M87.4,13.2c0.6,0.4,1.1,0.5,1.4,0.5c0.6,0,1-0.3,1.2-0.7l0.1-0.1l-3.6-9.9h2.8l2.3,6.9l2.3-6.9h2.7
		l-3.6,9.7c-0.9,2.5-2.4,3.1-3.8,3.1c-1.1,0-2-0.3-2.7-0.8L87.4,13.2z"/>
	<path fill="#8C8C8C" d="M96.1,7.8c0-2.8,2.3-5.1,5.1-5.1c2.8,0,5.1,2.2,5.1,5.1c0,2.9-2.3,5.1-5.1,5.1
		C98.4,12.9,96.1,10.7,96.1,7.8z M103.9,7.8c0-1.6-1.2-2.8-2.6-2.8c-1.4,0-2.6,1.2-2.6,2.8c0,1.6,1.2,2.8,2.6,2.8
		C102.7,10.6,103.9,9.4,103.9,7.8z"/>
	<path fill="#8C8C8C" d="M107.2,8.7V2.9h2.4v5.7c0,1.1,0.9,2,2,2c1.2,0,2-0.8,2-2V2.9h2.4v5.7c0,2.5-2,4.2-4.4,4.2
		S107.2,11.1,107.2,8.7z"/>
	<path fill="#8C8C8C" d="M117.3,9.9h2.8c-0.1,1.8-0.6,3.5-1.4,5.2h-2.4C116.9,13.4,117.3,11.7,117.3,9.9z"/>
	<path fill="#8C8C8C" d="M0,20.9h2.4v0.8c0.6-0.6,1.5-1,2.5-1c2.5,0,4.1,2,4.1,4.5v5.5H6.6v-5.5c0-1.2-0.9-2.1-2.1-2.1
		c-1.2,0-2.1,1-2.1,2.1v5.5H0V20.9z"/>
	<path fill="#8C8C8C" d="M9.9,25.8c0-2.8,2.3-5.1,5.1-5.1c2.8,0,5.1,2.2,5.1,5.1c0,2.9-2.3,5.1-5.1,5.1S9.9,28.7,9.9,25.8z
		 M17.6,25.8c0-1.6-1.2-2.8-2.6-2.8c-1.4,0-2.6,1.2-2.6,2.8c0,1.6,1.2,2.8,2.6,2.8C16.5,28.6,17.6,27.4,17.6,25.8z"/>
	<path fill="#8C8C8C" d="M20.2,20.9h1.4v-2.3h2.4v2.3h2.4V23h-2.4v3.9c0,0.9,0.5,1.4,1.4,1.4h1v2.3H25c-2,0-3.5-1.3-3.5-3.3V23h-1.4
		V20.9z"/>
	<path fill="#8C8C8C" d="M26.5,23.7h5.8v2.7h-5.8V23.7z"/>
	<path fill="#8C8C8C" d="M33.4,29.8l-0.3-0.2l1.2-1.9l0.4,0.2c0.7,0.4,1.7,0.8,2.9,0.8c0.9,0,1.5-0.3,1.5-0.8c0-0.7-0.9-0.8-2.3-1.2
		c-2-0.5-3.3-1.4-3.3-3.1c0-1.6,1.5-3,4-3c1.5,0,2.8,0.4,3.6,0.8l0.4,0.2l-1.2,1.8l-0.4-0.2c-0.4-0.2-1.4-0.5-2.5-0.5
		c-0.7,0-1.5,0.2-1.5,0.8c0,0.5,0.5,0.7,1.8,1c2.1,0.5,3.8,1.1,3.8,3.1c0,1.8-1.6,3.2-4.1,3.2C35.7,30.8,34.4,30.4,33.4,29.8z"/>
	<path fill="#8C8C8C" d="M41.9,25.8c0-2.8,2.3-5.1,5.1-5.1s5.1,2.2,5.1,5.1c0,2.9-2.3,5.1-5.1,5.1C44.2,30.8,41.9,28.7,41.9,25.8z
		 M49.6,25.8c0-1.6-1.2-2.8-2.6-2.8c-1.4,0-2.6,1.2-2.6,2.8c0,1.6,1.2,2.8,2.6,2.8C48.5,28.6,49.6,27.4,49.6,25.8z"/>
	<path fill="#8C8C8C" d="M53.4,23.7h5.8v2.7h-5.8V23.7z"/>
	<path fill="#8C8C8C" d="M60,21.5h1.2v-0.5c0-1.5,1-2.9,3-2.9h1.6V20h-1.1c-0.7,0-1.1,0.4-1.1,1.1v0.3h2v2.1h-2v7.1h-2.4v-7.1H60
		V21.5z"/>
	<path fill="#8C8C8C" d="M66.2,20.9h2.4v1c0.5-0.7,1.4-1.2,2.5-1.2h0.3v2.5h-0.7c-1.4,0-2.1,0.9-2.1,2.1v5.4h-2.4V20.9z"/>
	<path fill="#8C8C8C" d="M71.5,25.7c0-2.8,2.3-5,5.1-5c2.9,0,5.1,2.2,5.1,5v0.8H74c0.3,1.2,1.3,2,2.6,2c0.9,0,1.8-0.5,2.3-1.2l2.1,1
		c-0.9,1.5-2.5,2.4-4.4,2.4C73.8,30.8,71.5,28.6,71.5,25.7z M74.1,24.8h5c-0.3-1.2-1.3-1.9-2.5-1.9C75.4,22.9,74.4,23.6,74.1,24.8z"
		/>
	<path fill="#8C8C8C" d="M86.9,20.7c1.1,0,1.9,0.3,2.7,1v-0.8h2.4v12.7h-2.4v-3.7c-0.8,0.7-1.7,1-2.7,1c-2.8,0-4.9-2.2-4.9-5.1
		C82.1,22.9,84.1,20.7,86.9,20.7z M89.7,27.3v-3c-0.7-1-1.7-1.3-2.4-1.3c-1.5,0-2.7,1.2-2.7,2.8c0,1.6,1.2,2.8,2.7,2.8
		C88,28.6,88.9,28.3,89.7,27.3z"/>
	<path fill="#8C8C8C" d="M93.5,26.7v-5.7H96v5.7c0,1.1,0.9,2,2,2s2-0.8,2-2v-5.7h2.4v5.7c0,2.5-2,4.2-4.4,4.2S93.5,29.1,93.5,26.7z"
		/>
	<path fill="#8C8C8C" d="M103.3,25.7c0-2.8,2.3-5,5.1-5c2.9,0,5.1,2.2,5.1,5v0.8h-7.6c0.3,1.2,1.3,2,2.6,2c0.9,0,1.8-0.5,2.3-1.2
		l2.1,1c-0.9,1.5-2.5,2.4-4.4,2.4C105.6,30.8,103.3,28.6,103.3,25.7z M105.9,24.8h5c-0.3-1.2-1.3-1.9-2.5-1.9
		C107.3,22.9,106.3,23.6,105.9,24.8z"/>
	<path fill="#8C8C8C" d="M114.4,20.9h2.4v0.8c0.6-0.6,1.5-1,2.5-1c2.5,0,4.1,2,4.1,4.5v5.5H121v-5.5c0-1.2-0.9-2.1-2.1-2.1
		c-1.2,0-2.1,1-2.1,2.1v5.5h-2.4V20.9z"/>
	<path fill="#8C8C8C" d="M123.8,20.9h1.4v-2.3h2.4v2.3h2.4V23h-2.4v3.9c0,0.9,0.5,1.4,1.4,1.4h1v2.3h-1.4c-2,0-3.5-1.3-3.5-3.3V23
		h-1.4V20.9z"/>
	<path fill="#8C8C8C" d="M47.2,39.4h1.2v-0.5c0-1.5,1-2.9,3-2.9H53V38h-1.1c-0.7,0-1.1,0.4-1.1,1.1v0.3h2v2.1h-2v7.1h-2.4v-7.1h-1.2
		V39.4z"/>
	<path fill="#8C8C8C" d="M53.5,36h2.4v12.7h-2.4V36z"/>
	<path fill="#8C8C8C" d="M57.5,49.1c0.6,0.4,1.1,0.5,1.4,0.5c0.6,0,1-0.3,1.2-0.7l0.1-0.1l-3.6-9.9h2.8l2.3,6.9l2.3-6.9h2.7L63,48.6
		c-0.9,2.5-2.4,3.1-3.8,3.1c-1.1,0-2-0.3-2.7-0.8L57.5,49.1z"/>
	<path fill="#8C8C8C" d="M66.1,43.7c0-2.8,2.3-5,5.1-5c2.9,0,5.1,2.2,5.1,5v0.8h-7.6c0.3,1.2,1.3,2,2.6,2c0.9,0,1.8-0.5,2.3-1.2
		l2.1,1c-0.9,1.5-2.5,2.4-4.4,2.4C68.5,48.8,66.1,46.6,66.1,43.7z M68.8,42.7h5c-0.3-1.2-1.3-1.9-2.5-1.9
		C70.1,40.8,69.1,41.6,68.8,42.7z"/>
	<path fill="#8C8C8C" d="M77.3,38.9h2.4v1c0.5-0.7,1.4-1.2,2.5-1.2h0.3v2.5h-0.7c-1.4,0-2.1,0.9-2.1,2.1v5.4h-2.4V38.9z"/>
</g>
</svg>
