<?xml version="1.0" encoding="utf-8"?>
<!-- Generator: Adobe Illustrator 18.1.1, SVG Export Plug-In . SVG Version: 6.00 Build 0)  -->
<!DOCTYPE svg PUBLIC "-//W3C//DTD SVG 1.1//EN" "http://www.w3.org/Graphics/SVG/1.1/DTD/svg11.dtd">
<svg version="1.1" id="Layer_1" xmlns="http://www.w3.org/2000/svg" xmlns:xlink="http://www.w3.org/1999/xlink" x="0px" y="0px"
	 viewBox="0.3 26.8 299.2 192.4" enable-background="new 0.3 26.8 299.2 192.4" xml:space="preserve">
<g>
	<path fill="#FFFFFF" d="M50,59.5L37.2,39.6v19.7h-6.4V27.3h5.6L49.2,47V27.3h6.4v32.2H50z"/>
	<path fill="#FFFFFF" d="M81.6,56.3c-2.1,2.1-4.8,3.5-8.5,3.5s-6.4-1.3-8.5-3.5c-3.5-3.2-3.5-6.9-3.5-13s0-9.8,3.2-13
		c2.1-2.1,5-3.5,8.5-3.5c3.7,0,6.4,1.3,8.5,3.5c3.5,3.2,3.7,6.9,3.7,13S84.8,53.1,81.6,56.3z M77.1,34.3c-0.8-1.1-2.4-1.6-4-1.6
		c-1.6,0-3.2,0.8-4,1.6c-1.1,1.3-1.6,2.9-1.6,9s0.3,7.7,1.6,9c1.1,1.1,2.4,1.9,4,1.9c1.6,0,3.2-0.8,4-1.9c1.1-1.3,1.6-2.9,1.6-9
		S78.1,35.6,77.1,34.3z"/>
	<path fill="#FFFFFF" d="M119.6,59.5l-12.8-19.7v19.7h-6.4V27.3h5.6L118.8,47V27.3h6.4v32.2H119.6z"/>
	<path fill="#FFFFFF" d="M131.8,59.5V27.3h21.3v5.6h-14.9v7.4h12.8v5.6h-12.8v7.7h14.9v5.6h-21.3V59.5z"/>
	<path fill="#FFFFFF" d="M158.6,59.5V27.3h21.3v5.6h-15.1v7.4h12.8v5.6h-12.8v7.7h14.9v5.6h-21V59.5z"/>
	<path fill="#FFFFFF" d="M206.5,54.7c-2.4,3.2-5.3,4.8-9.8,4.8h-11.7V27.3h11.7c4.3,0,7.4,1.6,9.8,4.8c1.9,2.7,2.1,6.1,2.1,11.4
		S208.6,51.8,206.5,54.7z M200.9,34.8c-1.1-1.3-2.7-1.9-4.8-1.9h-4.8v21h4.8c2.1,0,3.7-0.8,4.8-1.9c1.1-1.3,1.3-3.5,1.3-8.5
		C202.2,38.2,202.2,36.1,200.9,34.8z"/>
	<path fill="#FFFFFF" d="M236.5,32.9v26.6h-6.4V32.9h-8.5v-5.6h23.1v5.6H236.5z"/>
	<path fill="#FFFFFF" d="M267.6,56.3c-2.1,2.1-4.8,3.5-8.5,3.5s-6.4-1.3-8.5-3.5c-3.2-3.2-3.2-6.9-3.2-13s0-9.8,3.2-13
		c2.1-2.1,5-3.5,8.5-3.5s6.4,1.3,8.5,3.5c3.2,3.2,3.2,6.9,3.2,13C271,49.4,270.8,53.1,267.6,56.3z M263.1,34.3
		c-0.8-1.1-2.4-1.6-4-1.6s-3.2,0.8-4,1.6c-1.1,1.3-1.6,2.9-1.6,9s0.3,7.7,1.6,9c1.1,1.1,2.4,1.9,4,1.9s3.2-0.8,4-1.9
		c1.1-1.3,1.6-2.9,1.6-9S264.4,35.6,263.1,34.3z"/>
	<path fill="#FFFFFF" d="M31.1,112.6h-5.3l-5.8-19.4l-5.8,19.4H8.8L0.3,80.5h6.6l5,20.2l5.8-20.2h4.8l5.8,20.2l5-20.2h6.4
		L31.1,112.6z"/>
	<path fill="#FFFFFF" d="M62.2,109.5c-2.1,2.1-4.8,3.5-8.5,3.5s-6.4-1.3-8.5-3.5c-3.2-3.2-3.2-6.9-3.2-13s0-9.8,3.2-13
		c2.1-2.1,5-3.5,8.5-3.5c3.7,0,6.4,1.3,8.5,3.5c3.2,3.2,3.2,6.9,3.2,13C65.4,102.5,65.4,106.3,62.2,109.5z M57.4,87.4
		c-0.8-1.1-2.4-1.6-4-1.6c-1.6,0-3.2,0.8-4,1.6c-1.1,1.3-1.6,2.9-1.6,9c0,6.1,0.3,7.7,1.6,9c1.1,1.1,2.4,1.9,4,1.9
		c1.6,0,3.2-0.8,4-1.9c1.1-1.3,1.6-2.9,1.6-9C59,90.3,58.7,88.7,57.4,87.4z"/>
	<path fill="#FFFFFF" d="M88.2,112.6l-6.4-12.8h-4.5v12.8h-6.4V80.5h12.5c6.6,0,10.4,4.5,10.4,9.8c0,4.5-2.7,7.4-5.8,8.5l7.2,13.8
		L88.2,112.6L88.2,112.6z M83.2,86.1h-5.8v8.5h5.8c2.7,0,4.5-1.9,4.5-4.3C88,87.7,86.1,86.1,83.2,86.1z"/>
	<path fill="#FFFFFF" d="M116.9,112.6l-6.4-12.8h-4.3v12.8h-6.4V80.5h12.5c6.6,0,10.4,4.5,10.4,9.8c0,4.5-2.7,7.4-5.8,8.5l7.2,13.8
		L116.9,112.6L116.9,112.6z M112.1,86.1h-5.8v8.5h5.8c2.7,0,4.5-1.9,4.5-4.3C116.7,87.7,114.8,86.1,112.1,86.1z"/>
	<path fill="#FFFFFF" d="M140.8,99.4v13.3h-6.1V99.4l-9.8-18.9h6.9l6.1,13l5.8-13h6.9L140.8,99.4z"/>
	<path fill="#FFFFFF" d="M181.8,112.6l-1.9-5.6h-11.4l-1.9,5.6H160l11.7-32.2h5l11.7,32.2H181.8z M174.3,89.8l-4,11.7h8L174.3,89.8z
		"/>
	<path fill="#FFFFFF" d="M205.1,112.6h-13.6V80.5h13c6.4,0,9.8,3.5,9.8,9c0,3.5-2.4,5.8-4,6.6c1.9,0.8,4.5,2.9,4.5,7.2
		C215,109.2,211,112.6,205.1,112.6z M204.1,86.1H198v7.4h6.1c2.7,0,4.3-1.6,4.3-3.7C208.3,87.4,206.7,86.1,204.1,86.1z M204.6,99.1
		H198v8h6.6c2.9,0,4.3-1.9,4.3-4C208.9,100.7,207.3,99.1,204.6,99.1z"/>
	<path fill="#FFFFFF" d="M240.2,109.5c-2.1,2.1-4.8,3.5-8.5,3.5c-3.7,0-6.4-1.3-8.5-3.5c-3.2-3.2-3.2-6.9-3.2-13s0-9.8,3.2-13
		c2.1-2.1,5-3.5,8.5-3.5c3.7,0,6.4,1.3,8.5,3.5c3.2,3.2,3.2,6.9,3.2,13C243.4,102.5,243.4,106.3,240.2,109.5z M235.7,87.4
		c-0.8-1.1-2.4-1.6-4-1.6s-3.2,0.8-4,1.6c-1.1,1.3-1.6,2.9-1.6,9c0,6.1,0.3,7.7,1.6,9c1.1,1.1,2.4,1.9,4,1.9s3.2-0.8,4-1.9
		c1.1-1.3,1.6-2.9,1.6-9C237,90.3,236.8,88.7,235.7,87.4z"/>
	<path fill="#FFFFFF" d="M260.4,112.9c-6.6,0-12-4.5-12-11.2V80.5h6.4v21c0,3.7,2.1,5.8,5.6,5.8s5.6-2.1,5.6-5.8v-21h6.1v21.3
		C272.4,108.4,267.1,112.9,260.4,112.9z"/>
	<path fill="#FFFFFF" d="M291,86.1v26.6h-6.4V86.1h-8.2v-5.6h23.1v5.6C299.5,86.1,291,86.1,291,86.1z"/>
	<path fill="#FFFFFF" d="M36.1,165.8v-32.2h6.4v26.6h14.6v5.6H36.1z"/>
	<path fill="#FFFFFF" d="M61.4,165.8v-32.2h6.4v32.2H61.4z"/>
	<path fill="#FFFFFF" d="M97.3,165.8v-18.9l-6.1,12.2h-4.3l-6.1-12.2v18.9h-6.4v-32.2h6.1l8.5,17.3l8.2-17.3h6.4v32.2H97.3z"/>
	<path fill="#FFFFFF" d="M110.5,165.8v-32.2h6.4v32.2H110.5z"/>
	<path fill="#FFFFFF" d="M135.8,139.2v26.6h-6.4v-26.6h-8.5v-5.6H144v5.6H135.8z"/>
	<path fill="#FFFFFF" d="M148.5,165.8v-32.2h21.3v5.6h-14.9v7.4h12.8v5.6h-12.8v7.7h14.9v5.6h-21.3V165.8z"/>
	<path fill="#FFFFFF" d="M196.6,161c-2.4,3.2-5.3,4.8-9.8,4.8h-11.4v-32.2h11.7c4.3,0,7.4,1.6,9.8,4.8c1.9,2.7,2.1,6.1,2.1,11.4
		S198.5,158.1,196.6,161z M191.1,141.1c-1.1-1.3-2.7-1.9-4.8-1.9h-4.8v21h4.8c2.1,0,3.7-0.8,4.8-1.9c1.1-1.3,1.3-3.5,1.3-8.5
		C192.4,144.5,192.1,142.4,191.1,141.1z"/>
	<path fill="#FFFFFF" d="M233.6,162.6c-2.1,2.1-4.8,3.5-8.5,3.5c-3.7,0-6.4-1.3-8.5-3.5c-3.2-3.2-3.2-6.9-3.2-13c0-6.1,0-9.8,3.2-13
		c2.1-2.1,5-3.5,8.5-3.5c3.7,0,6.4,1.3,8.5,3.5c3.2,3.2,3.2,6.9,3.2,13C236.8,155.7,236.8,159.4,233.6,162.6z M229.1,140.5
		c-0.8-1.1-2.4-1.6-4-1.6c-1.6,0-3.2,0.8-4,1.6c-1.1,1.3-1.6,2.9-1.6,9c0,6.1,0.3,7.7,1.6,9c1.1,1.1,2.4,1.9,4,1.9
		c1.6,0,3.2-0.8,4-1.9c1.1-1.3,1.6-2.9,1.6-9C230.6,143.5,230.1,141.9,229.1,140.5z"/>
	<path fill="#FFFFFF" d="M259.6,165.8l-6.4-12.8h-4.5v12.8h-6.4v-32.2h12.8c6.6,0,10.4,4.5,10.4,9.8c0,4.5-2.7,7.4-5.8,8.5l7.2,13.8
		L259.6,165.8L259.6,165.8z M254.8,139.2H249v8.5h5.8c2.7,0,4.5-1.9,4.5-4.3C259.3,140.8,257.5,139.2,254.8,139.2z"/>
	<path fill="#FFFFFF" d="M58.5,218.9l-12.8-19.7v19.7h-6.4v-32.2h5.6l12.8,19.7v-19.7H64v32.2H58.5z"/>
	<path fill="#FFFFFF" d="M90.1,215.7c-2.1,2.1-4.8,3.5-8.5,3.5c-3.7,0-6.4-1.3-8.5-3.5c-3.2-3.2-3.2-6.9-3.2-13c0-6.1,0-9.8,3.2-13
		c2.1-2.1,5-3.5,8.5-3.5c3.7,0,6.4,1.3,8.5,3.5c3.2,3.2,3.2,6.9,3.2,13C93.5,208.8,93.3,212.6,90.1,215.7z M85.6,193.7
		c-0.8-1.1-2.4-1.6-4-1.6c-1.6,0-3.2,0.8-4,1.6c-1.1,1.3-1.6,2.9-1.6,9c0,6.1,0.3,7.7,1.6,9c1.1,1.1,2.4,1.9,4,1.9
		c1.6,0,3.2-0.8,4-1.9c1.1-1.3,1.6-2.9,1.6-9C87.2,196.6,86.9,195,85.6,193.7z"/>
	<path fill="#FFFFFF" d="M119.8,219.2c-3.7,0-6.4-1.3-8.5-3.5c-3.2-3.2-3.2-6.9-3.2-13c0-6.1,0-9.8,3.2-13c2.1-2.1,5-3.5,8.5-3.5
		c6.1,0,10.6,3.5,11.7,10.1h-6.4c-0.5-2.7-2.1-4.5-5.3-4.5c-1.6,0-3.2,0.5-4,1.6c-1.1,1.3-1.6,2.9-1.6,9c0,6.1,0.5,7.7,1.6,9
		c0.8,1.1,2.4,1.6,4,1.6c3.2,0,4.8-1.9,5.3-4.5h6.4C130.5,215.7,125.7,219.2,119.8,219.2z"/>
	<path fill="#FFFFFF" d="M153.3,218.9l-6.4-12.8h-4.5v12.8H136v-32.2h12.8c6.6,0,10.4,4.5,10.4,9.8c0,4.5-2.7,7.4-5.8,8.5l7.2,13.8
		L153.3,218.9L153.3,218.9z M148.5,192.4h-5.8v8.5h5.8c2.7,0,4.5-1.9,4.5-4.3C153.1,194,151.2,192.4,148.5,192.4z"/>
	<path fill="#FFFFFF" d="M165.3,218.9v-32.2h21.3v5.6h-14.9v7.4h12.8v5.6h-12.8v7.7h14.9v5.6h-21.3V218.9z"/>
	<path fill="#FFFFFF" d="M213.1,214.1c-2.4,3.2-5.3,4.8-9.8,4.8h-11.7v-32.2h11.7c4.3,0,7.4,1.6,9.8,4.8c1.9,2.7,2.1,6.1,2.1,11.4
		S215.2,211.2,213.1,214.1z M207.5,194.2c-1.1-1.3-2.7-1.9-4.8-1.9H198v21h4.8c2.1,0,3.7-0.8,4.8-1.9c1.1-1.3,1.3-3.5,1.3-8.5
		C208.9,197.7,208.9,195.5,207.5,194.2z"/>
	<path fill="#FFFFFF" d="M220.8,218.9v-32.2h6.4v32.2H220.8z"/>
	<path fill="#FFFFFF" d="M246.3,192.4v26.6h-6.4v-26.6h-8.5v-5.6h23.1v5.6H246.3z"/>
	<path fill="#FFFFFF" d="M255.4,218.9V212h6.6v6.6h-6.6V218.9z"/>
</g>
</svg>
