<?xml version="1.0" encoding="utf-8"?>
<!-- Generator: Adobe Illustrator 18.1.1, SVG Export Plug-In . SVG Version: 6.00 Build 0)  -->
<!DOCTYPE svg PUBLIC "-//W3C//DTD SVG 1.1//EN" "http://www.w3.org/Graphics/SVG/1.1/DTD/svg11.dtd">
<svg version="1.1" id="Layer_1" xmlns="http://www.w3.org/2000/svg" xmlns:xlink="http://www.w3.org/1999/xlink" x="0px" y="0px"
	 viewBox="0 0 115.5 95" enable-background="new 0 0 115.5 95" xml:space="preserve">
<g>
	<path fill="#FFFFFF" d="M34,12.3c-1.8,0-3.2-0.4-4.4-1.6l1.5-1.5c0.8,0.8,1.8,1,2.9,1c1.4,0,2.2-0.5,2.2-1.5c0-0.4-0.1-0.7-0.4-1
		c-0.2-0.2-0.5-0.3-1.1-0.4l-1.4-0.2c-1.1-0.2-1.8-0.5-2.3-1C30.3,5.5,30,4.7,30,3.7C30,1.5,31.6,0,34.2,0c1.7,0,2.9,0.4,3.9,1.4
		l-1.5,1.5c-0.7-0.7-1.7-0.8-2.5-0.8c-1.3,0-1.9,0.7-1.9,1.5c0,0.3,0.1,0.6,0.3,0.9c0.2,0.2,0.6,0.4,1.1,0.5l1.4,0.2
		c1.1,0.2,1.8,0.4,2.3,1c0.6,0.6,0.9,1.5,0.9,2.5C38.5,11,36.5,12.3,34,12.3z"/>
	<path fill="#FFFFFF" d="M47.4,12.2l-0.7-2.1h-4.3l-0.7,2.1h-2.5l4.4-12.1h1.9l4.4,12.1H47.4z M44.6,3.7L43,8.1h3L44.6,3.7z"/>
	<path fill="#FFFFFF" d="M54.6,12.2h-1.8l-4-12.1h2.4L53.8,8l2.4-7.9h2.5L54.6,12.2z"/>
	<path fill="#FFFFFF" d="M60.1,12.2V0.1h8v2.1h-5.6V5h4.8v2.1h-4.8v2.9h5.6v2.1H60.1z"/>
	<path fill="#FFFFFF" d="M73.8,12.2V0.1h2.4v12.1H73.8z"/>
	<path fill="#FFFFFF" d="M83.4,2.2v10H81v-10h-3.2V0.1h8.7v2.1H83.4z"/>
	<path fill="#FFFFFF" d="M4.4,22.2v3h4.8v2.1H4.4v4.9H2V20.1h8v2.1H4.4z"/>
	<path fill="#FFFFFF" d="M19,31c-0.8,0.8-1.8,1.3-3.2,1.3c-1.4,0-2.4-0.5-3.2-1.3c-1.2-1.2-1.2-2.6-1.2-4.9c0-2.3,0-3.7,1.2-4.9
		c0.8-0.8,1.9-1.3,3.2-1.3c1.4,0,2.4,0.5,3.2,1.3c1.2,1.2,1.2,2.6,1.2,4.9C20.3,28.5,20.2,29.8,19,31z M17.3,22.8
		c-0.3-0.4-0.9-0.6-1.5-0.6s-1.2,0.3-1.5,0.6c-0.4,0.5-0.6,1.1-0.6,3.4c0,2.3,0.1,2.9,0.6,3.4c0.4,0.4,0.9,0.7,1.5,0.7
		s1.2-0.3,1.5-0.7c0.4-0.5,0.6-1.1,0.6-3.4C17.9,23.8,17.7,23.3,17.3,22.8z"/>
	<path fill="#FFFFFF" d="M28.8,32.2l-2.4-4.8h-1.7v4.8h-2.4V20.1h4.7c2.5,0,3.9,1.7,3.9,3.7c0,1.7-1,2.8-2.2,3.2l2.7,5.2H28.8z
		 M26.9,22.2h-2.2v3.2h2.2c1,0,1.7-0.7,1.7-1.6C28.7,22.9,28,22.2,26.9,22.2z"/>
	<path fill="#FFFFFF" d="M41,32.3c-1.4,0-2.4-0.5-3.2-1.3c-1.2-1.2-1.2-2.6-1.2-4.9c0-2.3,0-3.7,1.2-4.9c0.8-0.8,1.9-1.3,3.2-1.3
		c2.3,0,4,1.3,4.4,3.8H43c-0.2-1-0.8-1.7-2-1.7c-0.6,0-1.2,0.2-1.5,0.6c-0.4,0.5-0.6,1.1-0.6,3.4c0,2.3,0.2,2.9,0.6,3.4
		c0.3,0.4,0.9,0.6,1.5,0.6c1.2,0,1.8-0.7,2-1.7h2.4C45,31,43.2,32.3,41,32.3z"/>
	<path fill="#FFFFFF" d="M53.6,32.2v-5.1h-4.1v5.1h-2.4V20.1h2.4V25h4.1v-4.9H56v12.1H53.6z"/>
	<path fill="#FFFFFF" d="M65.7,31c-0.8,0.8-1.8,1.3-3.2,1.3c-1.4,0-2.4-0.5-3.2-1.3c-1.2-1.2-1.2-2.6-1.2-4.9c0-2.3,0-3.7,1.2-4.9
		c0.8-0.8,1.9-1.3,3.2-1.3c1.4,0,2.4,0.5,3.2,1.3c1.2,1.2,1.2,2.6,1.2,4.9C67,28.5,67,29.8,65.7,31z M64,22.8
		c-0.3-0.4-0.9-0.6-1.5-0.6c-0.6,0-1.2,0.3-1.5,0.6c-0.4,0.5-0.6,1.1-0.6,3.4c0,2.3,0.1,2.9,0.6,3.4c0.4,0.4,0.9,0.7,1.5,0.7
		c0.6,0,1.2-0.3,1.5-0.7c0.4-0.5,0.6-1.1,0.6-3.4C64.6,23.8,64.5,23.3,64,22.8z"/>
	<path fill="#FFFFFF" d="M76.4,31c-0.8,0.8-1.8,1.3-3.2,1.3c-1.4,0-2.4-0.5-3.2-1.3c-1.2-1.2-1.2-2.6-1.2-4.9c0-2.3,0-3.7,1.2-4.9
		c0.8-0.8,1.9-1.3,3.2-1.3c1.4,0,2.4,0.5,3.2,1.3c1.2,1.2,1.2,2.6,1.2,4.9C77.7,28.5,77.6,29.8,76.4,31z M74.7,22.8
		c-0.3-0.4-0.9-0.6-1.5-0.6c-0.6,0-1.2,0.3-1.5,0.6c-0.4,0.5-0.6,1.1-0.6,3.4c0,2.3,0.1,2.9,0.6,3.4c0.4,0.4,0.9,0.7,1.5,0.7
		c0.6,0,1.2-0.3,1.5-0.7c0.4-0.5,0.6-1.1,0.6-3.4C75.3,23.8,75.1,23.3,74.7,22.8z"/>
	<path fill="#FFFFFF" d="M83.2,32.3c-1.8,0-3.2-0.4-4.4-1.6l1.5-1.5c0.8,0.8,1.8,1,2.9,1c1.4,0,2.2-0.5,2.2-1.5c0-0.4-0.1-0.7-0.4-1
		c-0.2-0.2-0.5-0.3-1.1-0.4l-1.4-0.2c-1.1-0.2-1.8-0.5-2.3-1c-0.6-0.6-0.9-1.4-0.9-2.4c0-2.2,1.6-3.7,4.2-3.7c1.7,0,2.9,0.4,3.9,1.4
		l-1.5,1.5c-0.7-0.7-1.7-0.8-2.5-0.8c-1.3,0-1.9,0.7-1.9,1.5c0,0.3,0.1,0.6,0.3,0.9c0.2,0.2,0.6,0.4,1.1,0.5l1.4,0.2
		c1.1,0.2,1.8,0.4,2.3,1c0.6,0.6,0.9,1.5,0.9,2.5C87.7,31,85.7,32.3,83.2,32.3z"/>
	<path fill="#FFFFFF" d="M89.5,32.2V20.1h2.4v12.1H89.5z"/>
	<path fill="#FFFFFF" d="M101.4,32.2l-4.8-7.4v7.4h-2.4V20.1h2.1l4.8,7.4v-7.4h2.4v12.1H101.4z"/>
	<path fill="#FFFFFF" d="M113.5,30.9c-1,1.1-2.1,1.4-3.4,1.4c-1.4,0-2.4-0.5-3.2-1.3c-1.2-1.2-1.2-2.6-1.2-4.9c0-2.3,0-3.7,1.2-4.9
		c0.8-0.8,1.9-1.3,3.2-1.3c2.8,0,4.2,1.8,4.6,3.9h-2.4c-0.3-1.2-1-1.8-2.2-1.8c-0.6,0-1.2,0.3-1.5,0.6c-0.4,0.5-0.6,1.1-0.6,3.4
		c0,2.3,0.1,2.9,0.6,3.4c0.4,0.4,0.9,0.6,1.5,0.6c0.7,0,1.3-0.3,1.7-0.7c0.4-0.4,0.5-1,0.5-1.6v-0.4h-2.2v-2h4.6v1.8
		C114.6,29,114.4,30,113.5,30.9z"/>
	<path fill="#FFFFFF" d="M22.2,42.2v3H27v2.1h-4.8v4.9h-2.4V40.1h8v2.1H22.2z"/>
	<path fill="#FFFFFF" d="M36,52.2l-2.4-4.8h-1.7v4.8h-2.4V40.1h4.7c2.5,0,3.9,1.7,3.9,3.7c0,1.7-1,2.8-2.2,3.2l2.7,5.2H36z
		 M34.2,42.2h-2.2v3.2h2.2c1,0,1.7-0.7,1.7-1.6C35.9,42.9,35.2,42.2,34.2,42.2z"/>
	<path fill="#FFFFFF" d="M47.7,51c-0.8,0.8-1.8,1.3-3.2,1.3c-1.4,0-2.4-0.5-3.2-1.3C40,49.8,40,48.5,40,46.2c0-2.3,0-3.7,1.2-4.9
		C42,40.5,43,40,44.4,40c1.4,0,2.4,0.5,3.2,1.3c1.2,1.2,1.2,2.6,1.2,4.9C48.9,48.5,48.9,49.8,47.7,51z M46,42.8
		c-0.3-0.4-0.9-0.6-1.5-0.6s-1.2,0.3-1.5,0.6c-0.4,0.5-0.6,1.1-0.6,3.4c0,2.3,0.1,2.9,0.6,3.4c0.4,0.4,0.9,0.7,1.5,0.7
		s1.2-0.3,1.5-0.7c0.4-0.5,0.6-1.1,0.6-3.4C46.6,43.8,46.4,43.3,46,42.8z"/>
	<path fill="#FFFFFF" d="M59.6,52.2v-7.1l-2.3,4.6h-1.6l-2.3-4.6v7.1H51V40.1h2.3l3.2,6.5l3.1-6.5H62v12.1H59.6z"/>
	<path fill="#FFFFFF" d="M72.8,42.2v10h-2.4v-10h-3.2v-2.1H76v2.1H72.8z"/>
	<path fill="#FFFFFF" d="M84.1,52.2v-5.1H80v5.1h-2.4V40.1H80V45h4.1v-4.9h2.4v12.1H84.1z"/>
	<path fill="#FFFFFF" d="M88.9,52.2V40.1h8v2.1h-5.6V45h4.8v2.1h-4.8v2.9h5.6v2.1H88.9z"/>
	<path fill="#FFFFFF" d="M8.2,72.2l-0.7-2.1H3.2l-0.7,2.1H0l4.4-12.1h1.9l4.4,12.1H8.2z M5.4,63.7l-1.5,4.4h3L5.4,63.7z"/>
	<path fill="#FFFFFF" d="M20.2,70.4c-0.9,1.2-2,1.8-3.7,1.8h-4.4V60.1h4.4c1.6,0,2.8,0.6,3.7,1.8c0.7,1,0.8,2.3,0.8,4.3
		S20.9,69.4,20.2,70.4z M18.1,63c-0.4-0.5-1-0.7-1.8-0.7h-1.8v7.9h1.8c0.8,0,1.4-0.3,1.8-0.7c0.4-0.5,0.5-1.3,0.5-3.2
		C18.6,64.2,18.5,63.5,18.1,63z"/>
	<path fill="#FFFFFF" d="M27.4,72.2h-1.8l-4-12.1h2.4l2.4,7.9l2.4-7.9h2.5L27.4,72.2z"/>
	<path fill="#FFFFFF" d="M32.9,72.2V60.1h8v2.1h-5.6V65H40v2.1h-4.8v2.9h5.6v2.1H32.9z"/>
	<path fill="#FFFFFF" d="M49.9,72.2l-4.8-7.4v7.4h-2.4V60.1h2.1l4.8,7.4v-7.4h2.4v12.1H49.9z"/>
	<path fill="#FFFFFF" d="M59.3,62.2v10h-2.4v-10h-3.2v-2.1h8.7v2.1H59.3z"/>
	<path fill="#FFFFFF" d="M68.5,72.3c-2.5,0-4.5-1.7-4.5-4.2v-8h2.4V68c0,1.4,0.8,2.2,2.1,2.2c1.3,0,2.1-0.8,2.1-2.2v-7.9h2.3v8
		C72.9,70.6,70.9,72.3,68.5,72.3z"/>
	<path fill="#FFFFFF" d="M81.6,72.2l-2.4-4.8h-1.7v4.8h-2.4V60.1H80c2.5,0,3.9,1.7,3.9,3.7c0,1.7-1,2.8-2.2,3.2l2.7,5.2H81.6z
		 M79.8,62.2h-2.2v3.2h2.2c1,0,1.7-0.7,1.7-1.6C81.5,62.9,80.8,62.2,79.8,62.2z"/>
	<path fill="#FFFFFF" d="M93.3,71c-0.8,0.8-1.8,1.3-3.2,1.3s-2.4-0.5-3.2-1.3c-1.2-1.2-1.2-2.6-1.2-4.9c0-2.3,0-3.7,1.2-4.9
		c0.8-0.8,1.9-1.3,3.2-1.3s2.4,0.5,3.2,1.3c1.2,1.2,1.2,2.6,1.2,4.9C94.5,68.5,94.5,69.8,93.3,71z M91.6,62.8
		c-0.3-0.4-0.9-0.6-1.5-0.6c-0.6,0-1.2,0.3-1.5,0.6c-0.4,0.5-0.6,1.1-0.6,3.4c0,2.3,0.1,2.9,0.6,3.4c0.4,0.4,0.9,0.7,1.5,0.7
		c0.6,0,1.2-0.3,1.5-0.7c0.4-0.5,0.6-1.1,0.6-3.4C92.2,63.8,92,63.3,91.6,62.8z"/>
	<path fill="#FFFFFF" d="M100.9,72.3c-2.5,0-4.5-1.7-4.5-4.2v-8h2.4V68c0,1.4,0.8,2.2,2.1,2.2c1.3,0,2.1-0.8,2.1-2.2v-7.9h2.3v8
		C105.4,70.6,103.4,72.3,100.9,72.3z"/>
	<path fill="#FFFFFF" d="M111,72.3c-1.8,0-3.2-0.4-4.4-1.6l1.5-1.5c0.8,0.8,1.8,1,2.9,1c1.4,0,2.2-0.5,2.2-1.5c0-0.4-0.1-0.7-0.4-1
		c-0.2-0.2-0.5-0.3-1.1-0.4l-1.4-0.2c-1.1-0.2-1.8-0.5-2.3-1c-0.6-0.6-0.9-1.4-0.9-2.4c0-2.2,1.6-3.7,4.2-3.7c1.7,0,2.9,0.4,3.9,1.4
		l-1.5,1.5c-0.7-0.7-1.7-0.8-2.5-0.8c-1.3,0-1.9,0.7-1.9,1.5c0,0.3,0.1,0.6,0.3,0.9c0.2,0.2,0.6,0.4,1.1,0.5l1.4,0.2
		c1.1,0.2,1.8,0.4,2.3,1c0.6,0.6,0.9,1.5,0.9,2.5C115.5,71,113.6,72.3,111,72.3z"/>
	<path fill="#FFFFFF" d="M48.1,81.8V80h2.3v1.8H48.1z M48.1,92.2v-8.6h2.2v8.6H48.1z"/>
	<path fill="#FFFFFF" d="M61.2,92.2v-7.1l-2.3,4.6h-1.6l-2.3-4.6v7.1h-2.4V80.1h2.3l3.2,6.5l3.1-6.5h2.3v12.1H61.2z"/>
	<path fill="#FFFFFF" d="M65.8,95v-5.2h2.4v3.3L65.8,95z"/>
</g>
</svg>
