<?xml version="1.0" encoding="utf-8"?>
<!-- Generator: Adobe Illustrator 18.1.1, SVG Export Plug-In . SVG Version: 6.00 Build 0)  -->
<!DOCTYPE svg PUBLIC "-//W3C//DTD SVG 1.1//EN" "http://www.w3.org/Graphics/SVG/1.1/DTD/svg11.dtd">
<svg version="1.1" id="Layer_1" xmlns="http://www.w3.org/2000/svg" xmlns:xlink="http://www.w3.org/1999/xlink" x="0px" y="0px"
	 viewBox="0 73.5 300 103" enable-background="new 0 73.5 300 103" xml:space="preserve">
<g>
	<path fill="#FFFFFF" d="M17.5,80.5v31.9h-7.3V80.5H0v-6.7h27.7v6.7C27.7,80.5,17.5,80.5,17.5,80.5z"/>
	<path fill="#FFFFFF" d="M53.2,112.4V96.1H40.2v16.3h-7.7V73.8h7.7v15.6h13.1V73.8h7.7v38.6C60.9,112.4,53.2,112.4,53.2,112.4z"/>
	<path fill="#FFFFFF" d="M68.9,112.4V73.8h25.5v6.7H76.5v8.9h15.3v6.7H76.5v9.2h17.9v6.7H68.9V112.4z"/>
	<path fill="#FFFFFF" d="M122.7,112.7c-5.7,0-10.2-1.3-14-5.1l4.8-4.8c2.6,2.6,5.7,3.2,9.2,3.2c4.5,0,7-1.6,7-4.8
		c0-1.3-0.3-2.2-1.3-3.2c-0.6-0.6-1.6-1-3.5-1.3l-4.5-0.6c-3.5-0.6-5.7-1.6-7.3-3.2c-1.9-1.9-2.9-4.5-2.9-7.7
		c0-7,5.1-11.8,13.4-11.8c5.4,0,9.2,1.3,12.4,4.5l-4.8,4.8c-2.2-2.2-5.4-2.6-8-2.6c-4.1,0-6.1,2.2-6.1,4.8c0,1,0.3,1.9,1,2.9
		c0.6,0.6,1.9,1.3,3.5,1.6l4.5,0.6c3.5,0.6,5.7,1.3,7.3,3.2c1.9,1.9,2.9,4.8,2.9,8C136.8,108.6,130.7,112.7,122.7,112.7z"/>
	<path fill="#FFFFFF" d="M157.8,97.7h-7.3v14.7h-7.7V73.8h15c8,0,12.8,5.4,12.8,12.1C170.6,92.6,165.8,97.7,157.8,97.7z M157.5,80.5
		h-7V91h7c3.5,0,5.7-2.2,5.7-5.1C163.2,83.1,161,80.5,157.5,80.5z"/>
	<path fill="#FFFFFF" d="M199.3,108.6c-2.6,2.6-5.7,4.1-10.2,4.1c-4.5,0-8-1.6-10.5-4.1c-3.8-3.8-3.8-8.3-3.8-15.6s0-11.8,3.8-15.6
		c2.6-2.2,5.7-3.8,10.2-3.8c4.5,0,7.7,1.6,10.2,4.1c3.8,3.8,3.8,8.3,3.8,15.6C203.1,100.6,203.1,104.8,199.3,108.6z M193.5,82.4
		c-1-1.3-2.9-1.9-4.8-1.9c-1.9,0-3.8,1-4.8,1.9c-1.3,1.6-1.9,3.5-1.9,10.8s0.3,9.2,1.9,10.8c1.3,1.3,2.9,2.2,4.8,2.2
		c1.9,0,3.8-1,4.8-2.2c1.3-1.6,1.9-3.5,1.9-10.8C195.4,85.6,195.1,84,193.5,82.4z"/>
	<path fill="#FFFFFF" d="M230.2,112.4l-7.7-15.3h-5.4v15.3h-7.7V73.8h15c8,0,12.4,5.4,12.4,11.8c0,5.4-3.2,8.9-7,10.2l8.6,16.6
		H230.2z M224.4,80.5h-7v10.2h7c3.2,0,5.4-2.2,5.4-5.1C229.9,82.8,227.6,80.5,224.4,80.5z"/>
	<path fill="#FFFFFF" d="M257.9,80.5v31.9h-7.7V80.5h-10.2v-6.7h27.7v6.7C267.8,80.5,257.9,80.5,257.9,80.5z"/>
	<path fill="#FFFFFF" d="M288.5,96.5v15.9h-7.3V96.5l-11.5-22.6h7.7l7.3,15.6l7-15.6h8.3L288.5,96.5z"/>
	<path fill="#FFFFFF" d="M101.7,144.3v9.6H117v6.7h-15.3v15.6H94v-38.6h25.5v6.7H101.7z"/>
	<path fill="#FFFFFF" d="M145.4,176.2l-7.7-15.3h-5.4v15.3h-7.7v-38.6h15.6c8,0,12.4,5.4,12.4,11.8c0,5.4-3.2,8.9-7,10.2l8.6,16.6
		H145.4z M139.6,144.3h-7v10.2h7c3.2,0,5.4-2.2,5.4-5.1S142.8,144.3,139.6,144.3z"/>
	<path fill="#FFFFFF" d="M158.1,160.2v-6.7h16.6v6.7H158.1z"/>
	<path fill="#FFFFFF" d="M191.9,176.5c-5.7,0-10.2-1.3-14-5.1l4.8-4.8c2.6,2.6,5.7,3.2,9.2,3.2c4.5,0,7-1.6,7-4.8
		c0-1.3-0.3-2.2-1.3-3.2c-0.6-0.6-1.6-1-3.5-1.3l-4.5-0.6c-3.5-0.6-5.7-1.6-7.3-3.2c-1.9-1.9-2.9-4.5-2.9-7.7
		c0-7,5.1-11.8,13.4-11.8c5.4,0,9.2,1.3,12.4,4.5l-4.8,4.8c-2.2-2.2-5.4-2.6-8-2.6c-4.1,0-6.1,2.2-6.1,4.8c0,1,0.3,1.9,1,2.9
		c0.6,0.6,1.9,1.3,3.5,1.6l4.5,0.6c3.5,0.6,5.7,1.3,7.3,3.2c1.9,1.9,2.9,4.8,2.9,8C206.3,172.3,200.2,176.5,191.9,176.5z"/>
</g>
</svg>
