<?xml version="1.0" encoding="utf-8"?>
<!-- Generator: Adobe Illustrator 18.1.1, SVG Export Plug-In . SVG Version: 6.00 Build 0)  -->
<!DOCTYPE svg PUBLIC "-//W3C//DTD SVG 1.1//EN" "http://www.w3.org/Graphics/SVG/1.1/DTD/svg11.dtd">
<svg version="1.1" id="Layer_1" xmlns="http://www.w3.org/2000/svg" xmlns:xlink="http://www.w3.org/1999/xlink" x="0px" y="0px"
	 viewBox="0 69.4 300 111.1" enable-background="new 0 69.4 300 111.1" xml:space="preserve">
<g>
	<path d="M79.5,107.3c-2.8,2.8-6.2,4.5-11,4.5c-4.8,0-8.3-1.7-11-4.5c-4.1-4.1-4.1-8.9-4.1-16.9s0-12.7,4.1-16.9
		c2.4-2.4,5.8-4.1,10.7-4.1s8.3,1.7,11,4.5c4.1,4.1,4.1,8.9,4.1,16.9C83.6,98.7,83.6,103.2,79.5,107.3z M73.3,79.1
		c-1-1.4-3.1-2.1-5.2-2.1S64,78,63,79.1c-1.4,1.7-2.1,3.8-2.1,11.7s0.3,10,2.1,11.7c1.4,1.4,3.1,2.4,5.2,2.4s4.1-1,5.2-2.4
		c1.4-1.7,2.1-3.8,2.1-11.7C75.3,82.5,75,80.8,73.3,79.1z"/>
	<path d="M112.5,111.4l-8.3-16.5h-5.8v16.5h-8.3V69.8h16.2c8.6,0,13.4,5.8,13.4,12.7c0,5.8-3.4,9.6-7.6,11l9.3,17.9H112.5z
		 M106.3,77h-7.6v11h7.6c3.4,0,5.8-2.4,5.8-5.5S109.7,77,106.3,77z"/>
	<path d="M155.8,77v34.4h-7.9V77h-11v-7.2h29.9V77C166.9,77,155.8,77,155.8,77z"/>
	<path d="M194.4,111.4V93.9h-14.1v17.5H172V69.8h8.3v16.9h14.1V69.8h8.3v41.6C202.6,111.4,194.4,111.4,194.4,111.4z"/>
	<path d="M210.6,111.4V69.8h27.5V77h-19.3v9.6h16.5v7.2h-16.5v10h19.3v7.2h-27.5V111.4z"/>
	<path d="M15.1,180.6c-6.2,0-11-1.4-15.1-5.5l5.2-5.2c2.8,2.8,6.2,3.4,10,3.4c4.8,0,7.6-1.7,7.6-5.2c0-1.4-0.3-2.4-1.4-3.4
		c-0.7-0.7-1.7-1-3.8-1.4l-4.8-0.7c-3.8-0.7-6.2-1.7-7.9-3.4c-2.1-2.1-3.1-4.8-3.1-8.3c0-7.6,5.5-12.7,14.4-12.7
		c5.8,0,10,1.4,13.4,4.8l-5.2,5.2c-2.4-2.4-5.8-2.8-8.6-2.8c-4.5,0-6.5,2.4-6.5,5.2c0,1,0.3,2.1,1,3.1c0.7,0.7,2.1,1.4,3.8,1.7
		l4.8,0.7c3.8,0.7,6.2,1.4,7.9,3.4c2.1,2.1,3.1,5.2,3.1,8.6C30.6,176.1,24.1,180.6,15.1,180.6z"/>
	<path d="M53.7,145.8v34.4h-8.3v-34.4h-11v-7.2h29.9v7.2H53.7z"/>
	<path d="M88.1,163v17.2h-7.9V163l-12.4-24.4h8.9l7.9,16.9l7.6-16.9h8.9L88.1,163z"/>
	<path d="M105.3,180.2v-41.6h8.3V173h18.9v7.2H105.3z"/>
	<path d="M138,180.2v-41.6h8.3v41.6H138z"/>
	<path d="M166.2,180.6c-6.2,0-11-1.4-15.1-5.5l5.2-5.2c2.8,2.8,6.2,3.4,10,3.4c4.8,0,7.6-1.7,7.6-5.2c0-1.4-0.3-2.4-1.4-3.4
		c-0.7-0.7-1.7-1-3.8-1.4l-4.8-0.7c-3.8-0.7-6.2-1.7-7.9-3.4c-2.1-2.1-3.1-4.8-3.1-8.3c0-7.6,5.5-12.7,14.4-12.7
		c5.8,0,10,1.4,13.4,4.8l-5.2,5.2c-2.4-2.4-5.8-2.8-8.6-2.8c-4.5,0-6.5,2.4-6.5,5.2c0,1,0.3,2.1,1,3.1c0.7,0.7,2.1,1.4,3.8,1.7
		l4.8,0.7c3.8,0.7,6.2,1.4,7.9,3.4c2.1,2.1,3.1,5.2,3.1,8.6C181.7,176.1,175.1,180.6,166.2,180.6z"/>
	<path d="M209.9,180.2v-17.5h-14.1v17.5h-8.3v-41.6h8.3v16.9h14.1v-16.9h8.3v41.6H209.9z"/>
	<path d="M238.1,144.4v-6.2h7.9v6.2H238.1z M238.4,180.2v-29.6h7.6v29.6H238.4z"/>
	<path d="M278.3,180.2l-2.4-7.2h-14.8l-2.4,7.2h-8.6l15.1-41.6h6.5l15.1,41.6H278.3z M268.7,151l-5.2,15.1h10.3L268.7,151z"/>
	<path d="M291.4,180.2v-8.6h8.6v8.6H291.4z"/>
</g>
</svg>
