<?xml version="1.0" encoding="utf-8"?>
<!-- Generator: Adobe Illustrator 18.1.1, SVG Export Plug-In . SVG Version: 6.00 Build 0)  -->
<!DOCTYPE svg PUBLIC "-//W3C//DTD SVG 1.1//EN" "http://www.w3.org/Graphics/SVG/1.1/DTD/svg11.dtd">
<svg version="1.1" id="Layer_1" xmlns="http://www.w3.org/2000/svg" xmlns:xlink="http://www.w3.org/1999/xlink" x="0px" y="0px"
	 viewBox="0 0 99.1 39.4" enable-background="new 0 0 99.1 39.4" xml:space="preserve">
<g>
	<path fill="#77787B" d="M17.4,9.3V0.1h1.8v7.6h4.2v1.6H17.4z"/>
	<path fill="#77787B" d="M24.6,9.3V0.1h1.8v9.3H24.6z"/>
	<path fill="#77787B" d="M34.8,9.3V3.9L33,7.4h-1.2L30,3.9v5.4h-1.8V0.1H30l2.4,5l2.4-5h1.8v9.3H34.8z"/>
	<path fill="#77787B" d="M38.4,9.3V0.1h1.8v9.3H38.4z"/>
	<path fill="#77787B" d="M45.7,1.7v7.6h-1.8V1.7h-2.4V0.1h6.6v1.6H45.7z"/>
	<path fill="#77787B" d="M49.3,9.3V0.1h6.1v1.6h-4.3v2.2h3.7v1.6h-3.7v2.2h4.3v1.6H49.3z"/>
	<path fill="#77787B" d="M63,8c-0.7,0.9-1.5,1.4-2.8,1.4h-3.3V0.1h3.3c1.3,0,2.1,0.4,2.8,1.4c0.6,0.8,0.6,1.7,0.6,3.3
		C63.6,6.2,63.6,7.2,63,8z M61.4,2.3c-0.3-0.4-0.7-0.6-1.4-0.6h-1.4v6h1.4c0.6,0,1.1-0.2,1.4-0.6c0.3-0.4,0.4-1,0.4-2.4
		S61.8,2.7,61.4,2.3z"/>
	<path fill="#77787B" d="M73.5,8.4c-0.6,0.6-1.4,1-2.5,1c-1.1,0-1.9-0.4-2.5-1c-0.9-0.9-0.9-2-0.9-3.7c0-1.8,0-2.8,0.9-3.7
		c0.6-0.6,1.4-1,2.5-1c1.1,0,1.8,0.4,2.5,1c0.9,0.9,0.9,2,0.9,3.7C74.5,6.5,74.4,7.5,73.5,8.4z M72.2,2.1c-0.3-0.3-0.7-0.5-1.2-0.5
		c-0.5,0-0.9,0.2-1.2,0.5c-0.3,0.4-0.4,0.8-0.4,2.6c0,1.8,0.1,2.2,0.4,2.6c0.3,0.3,0.7,0.5,1.2,0.5c0.5,0,0.9-0.2,1.2-0.5
		c0.3-0.4,0.5-0.8,0.5-2.6C72.7,2.9,72.5,2.5,72.2,2.1z"/>
	<path fill="#77787B" d="M80.9,9.3l-1.8-3.7h-1.3v3.7H76V0.1h3.6c1.9,0,3,1.3,3,2.8c0,1.3-0.8,2.1-1.7,2.4l2.1,4H80.9z M79.5,1.7
		h-1.7v2.4h1.7c0.8,0,1.3-0.5,1.3-1.2C80.8,2.2,80.3,1.7,79.5,1.7z"/>
	<path fill="#77787B" d="M21.7,24.3l-3.7-5.7v5.7h-1.8v-9.3h1.6l3.7,5.7v-5.7h1.8v9.3H21.7z"/>
	<path fill="#77787B" d="M30.8,23.4c-0.6,0.6-1.4,1-2.5,1c-1.1,0-1.9-0.4-2.5-1c-0.9-0.9-0.9-2-0.9-3.7c0-1.8,0-2.8,0.9-3.7
		c0.6-0.6,1.4-1,2.5-1c1.1,0,1.8,0.4,2.5,1c0.9,0.9,0.9,2,0.9,3.7C31.7,21.5,31.7,22.5,30.8,23.4z M29.5,17.1
		c-0.3-0.3-0.7-0.5-1.2-0.5s-0.9,0.2-1.2,0.5c-0.3,0.4-0.4,0.8-0.4,2.6c0,1.8,0.1,2.2,0.4,2.6c0.3,0.3,0.7,0.5,1.2,0.5
		s0.9-0.2,1.2-0.5c0.3-0.4,0.5-0.8,0.5-2.6C29.9,17.9,29.8,17.5,29.5,17.1z"/>
	<path fill="#77787B" d="M39.2,24.4c-1.1,0-1.8-0.4-2.5-1c-0.9-0.9-0.9-2-0.9-3.7c0-1.8,0-2.8,0.9-3.7c0.6-0.6,1.4-1,2.5-1
		c1.7,0,3.1,1,3.4,2.9h-1.8c-0.2-0.8-0.7-1.3-1.5-1.3c-0.5,0-0.9,0.2-1.2,0.5c-0.3,0.4-0.5,0.8-0.5,2.6c0,1.8,0.1,2.2,0.5,2.6
		c0.3,0.3,0.7,0.5,1.2,0.5c0.9,0,1.4-0.6,1.6-1.3h1.8C42.2,23.4,40.9,24.4,39.2,24.4z"/>
	<path fill="#77787B" d="M48.8,24.3l-1.8-3.7h-1.3v3.7h-1.8v-9.3h3.6c1.9,0,3,1.3,3,2.8c0,1.3-0.8,2.1-1.7,2.4l2.1,4H48.8z
		 M47.4,16.7h-1.7v2.4h1.7c0.8,0,1.3-0.5,1.3-1.2C48.7,17.2,48.1,16.7,47.4,16.7z"/>
	<path fill="#77787B" d="M52.1,24.3v-9.3h6.1v1.6h-4.3v2.2h3.7v1.6h-3.7v2.2h4.3v1.6H52.1z"/>
	<path fill="#77787B" d="M65.8,23c-0.7,0.9-1.5,1.4-2.8,1.4h-3.3v-9.3H63c1.3,0,2.1,0.4,2.8,1.4c0.6,0.8,0.6,1.7,0.6,3.3
		S66.4,22.2,65.8,23z M64.2,17.3c-0.3-0.4-0.7-0.6-1.4-0.6h-1.4v6h1.4c0.6,0,1.1-0.2,1.4-0.6c0.3-0.4,0.4-1,0.4-2.4
		S64.5,17.7,64.2,17.3z"/>
	<path fill="#77787B" d="M67.9,24.3v-9.3h1.8v9.3H67.9z"/>
	<path fill="#77787B" d="M75.2,16.7v7.6h-1.8v-7.6h-2.4v-1.6h6.6v1.6H75.2z"/>
	<path fill="#77787B" d="M83.5,19.2l-1,1.3c-0.1,0.2-0.2,0.4-0.2,0.7v0.3h-1.7V21c0-0.6,0.2-0.9,0.5-1.4l1-1.2
		c0.2-0.3,0.4-0.6,0.4-0.9c0-0.6-0.4-1.1-1.1-1.1c-0.7,0-1,0.5-1,1.1h-1.7c0-1.6,1.2-2.6,2.7-2.6c1.5,0,2.7,0.9,2.7,2.6
		C84.1,18.3,83.9,18.7,83.5,19.2z M80.6,24.3v-1.7h1.8v1.7H80.6z"/>
	<path fill="#77787B" d="M3.4,39.4c-1.4,0-2.5-0.3-3.4-1.2L1.2,37c0.6,0.6,1.4,0.8,2.2,0.8c1.1,0,1.7-0.4,1.7-1.2
		c0-0.3-0.1-0.6-0.3-0.8c-0.2-0.2-0.4-0.2-0.8-0.3l-1.1-0.2C2,35.3,1.4,35,1,34.6c-0.4-0.4-0.7-1-0.7-1.8c0-1.7,1.2-2.8,3.2-2.8
		c1.3,0,2.2,0.3,3,1.1l-1.1,1.1c-0.6-0.6-1.3-0.6-1.9-0.6c-1,0-1.4,0.5-1.4,1.2c0,0.2,0.1,0.5,0.3,0.7c0.2,0.2,0.5,0.3,0.8,0.4
		l1.1,0.2c0.8,0.1,1.4,0.3,1.8,0.7c0.5,0.5,0.7,1.1,0.7,1.9C6.8,38.4,5.3,39.4,3.4,39.4z"/>
	<path fill="#77787B" d="M11.4,39.4c-1.1,0-1.8-0.4-2.5-1C8,37.5,8,36.5,8,34.7c0-1.8,0-2.8,0.9-3.7c0.6-0.6,1.4-1,2.5-1
		c1.7,0,3.1,1,3.4,2.9H13c-0.2-0.8-0.7-1.3-1.5-1.3c-0.5,0-0.9,0.2-1.2,0.5c-0.3,0.4-0.5,0.8-0.5,2.6c0,1.8,0.1,2.2,0.5,2.6
		c0.3,0.3,0.7,0.5,1.2,0.5c0.9,0,1.4-0.6,1.6-1.3h1.8C14.5,38.4,13.1,39.4,11.4,39.4z"/>
	<path fill="#77787B" d="M16.1,39.3v-9.3h1.8v9.3H16.1z"/>
	<path fill="#77787B" d="M25.3,38.4c-0.6,0.6-1.4,1-2.5,1c-1.1,0-1.9-0.4-2.5-1c-0.9-0.9-0.9-2-0.9-3.7c0-1.8,0-2.8,0.9-3.7
		c0.6-0.6,1.4-1,2.5-1c1.1,0,1.8,0.4,2.5,1c0.9,0.9,0.9,2,0.9,3.7C26.3,36.5,26.3,37.5,25.3,38.4z M24,32.1
		c-0.3-0.3-0.7-0.5-1.2-0.5s-0.9,0.2-1.2,0.5c-0.3,0.4-0.4,0.8-0.4,2.6c0,1.8,0.1,2.2,0.4,2.6c0.3,0.3,0.7,0.5,1.2,0.5
		s0.9-0.2,1.2-0.5c0.3-0.4,0.5-0.8,0.5-2.6C24.5,32.9,24.4,32.5,24,32.1z"/>
	<path fill="#77787B" d="M33.3,39.3l-3.7-5.7v5.7h-1.8v-9.3h1.6l3.7,5.7v-5.7h1.8v9.3H33.3z"/>
	<path fill="#77787B" d="M42.7,39.4c-1.1,0-1.8-0.4-2.5-1c-0.9-0.9-0.9-2-0.9-3.7c0-1.8,0-2.8,0.9-3.7c0.6-0.6,1.4-1,2.5-1
		c1.7,0,3.1,1,3.4,2.9h-1.8c-0.2-0.8-0.7-1.3-1.5-1.3c-0.5,0-0.9,0.2-1.2,0.5c-0.3,0.4-0.5,0.8-0.5,2.6c0,1.8,0.1,2.2,0.5,2.6
		c0.3,0.3,0.7,0.5,1.2,0.5c0.9,0,1.4-0.6,1.6-1.3h1.8C45.7,38.4,44.4,39.4,42.7,39.4z"/>
	<path fill="#77787B" d="M52.7,39.3l-0.5-1.6h-3.3l-0.6,1.6h-1.9l3.4-9.3h1.4l3.4,9.3H52.7z M50.5,32.8l-1.2,3.4h2.3L50.5,32.8z"/>
	<path fill="#77787B" d="M61.1,39.3l-3.7-5.7v5.7h-1.8v-9.3h1.6l3.7,5.7v-5.7h1.8v9.3H61.1z"/>
	<path fill="#77787B" d="M72.3,39.3v-3.9h-3.1v3.9h-1.8v-9.3h1.8v3.8h3.1v-3.8h1.8v9.3H72.3z"/>
	<path fill="#77787B" d="M76,39.3v-9.3H82v1.6h-4.3v2.2h3.7v1.6h-3.7v2.2H82v1.6H76z"/>
	<path fill="#77787B" d="M83.5,39.3v-9.3h1.8v7.6h4.2v1.6H83.5z"/>
	<path fill="#77787B" d="M94.3,35.9h-1.8v3.5h-1.8v-9.3h3.6c1.9,0,3.1,1.3,3.1,2.9S96.2,35.9,94.3,35.9z M94.2,31.7h-1.7v2.5h1.7
		c0.8,0,1.3-0.5,1.3-1.3S95,31.7,94.2,31.7z"/>
	<path fill="#77787B" d="M97.2,39.3v-1.9h1.9v1.9H97.2z"/>
</g>
</svg>
