<?xml version="1.0" encoding="utf-8"?>
<!-- Generator: Adobe Illustrator 19.2.1, SVG Export Plug-In . SVG Version: 6.00 Build 0)  -->
<svg version="1.1" id="Layer_1" xmlns="http://www.w3.org/2000/svg" xmlns:xlink="http://www.w3.org/1999/xlink" x="0px" y="0px"
	 viewBox="0 0 658 258" enable-background="new 0 0 658 258" xml:space="preserve">
<g>
	<defs>
		<rect id="SVGID_1_" x="0.1" y="0.9" width="657.2" height="257.1"/>
	</defs>
	<clipPath id="SVGID_2_">
		<use xlink:href="#SVGID_1_"  overflow="visible"/>
	</clipPath>
	<polyline clip-path="url(#SVGID_2_)" fill="#EC2027" points="642.7,112.4 606.9,189.2 593.4,160.1 578.7,160.1 600.9,207.7 
		612.8,207.7 657.2,112.4 642.7,112.4 	"/>
	<path clip-path="url(#SVGID_2_)" d="M488.7,255h28.9v-52.9c0-12.1,7-20.6,17.4-20.6c10,0,15.2,7,15.2,17.1V255h28.9v-61.9
		c0-21-12.6-35.8-33-35.8c-13,0-22.1,5.6-28.9,15.8h-0.6v-13h-28V255 M431.9,157.5c-30.2,0-50.4,21.7-50.4,50.3
		c0,28.4,20.2,50.3,50.4,50.3c30.2,0,50.4-21.9,50.4-50.3C482.4,179.2,462.2,157.5,431.9,157.5z M431.8,236.7
		c-13.7,0-21-11.5-21-28.9c0-17.6,7.2-28.9,21-28.9c13.7,0,21.3,11.3,21.3,28.9C453.1,225.2,445.5,236.7,431.8,236.7z M299.2,255
		h81.2v-22.8h-46v-0.6l44-49.3v-22.3h-79.2v22.8h44.5v0.6l-44.5,49.7V255z M262.1,255h29.1v-95h-29.1V255z M194.6,255h28.9v-43.6
		c0-19.8,11.9-28.6,30-26.1h0.6v-25c-1.5-0.6-3.2-0.7-5.9-0.7c-11.3,0-18.9,5.2-25.4,16.3h-0.6v-15.8h-27.6V255z M141.3,236.9
		c-12.8,0-20.6-8.3-22.1-21.1h68.4c0.2-20.4-5.2-36.7-16.5-46.9c-8-7.4-18.5-11.5-31.9-11.5c-28.6,0-48.4,21.7-48.4,50.1
		c0,28.6,18.9,50.4,50.3,50.4c11.9,0,21.3-3.2,29.1-8.5c8.3-5.7,14.3-14.1,15.9-22.4h-27.8C155.6,233.1,149.9,236.9,141.3,236.9z
		 M139.8,178.1c10.2,0,17.2,7.6,18.4,18.7h-38.8C121.7,185.5,127.8,178.1,139.8,178.1z M33,255h30.4l33-95H67.3l-18.5,61h-0.4
		l-18.5-61H0L33,255z M262.1,126.3h29.1v25.8h-29.1V126.3z"/>
</g>
<path d="M171.6,74.1c-4.1,0-7.8-0.7-11.2-2.1c-3.3-1.4-6.2-3.3-8.6-5.7c-2.4-2.4-4.2-5.3-5.5-8.6c-1.3-3.3-1.9-6.9-1.9-10.7
	c0-3.9,0.6-7.4,1.9-10.7c1.3-3.3,3.1-6.2,5.5-8.6c2.4-2.4,5.2-4.3,8.6-5.7c3.3-1.4,7.1-2.1,11.2-2.1c4,0,7.7,0.7,11.1,2.1
	c3.3,1.4,6.2,3.3,8.5,5.7c2.3,2.4,4.2,5.3,5.4,8.6c1.3,3.3,1.9,6.9,1.9,10.7c0,3.9-0.6,7.4-1.9,10.7c-1.3,3.3-3.1,6.2-5.4,8.6
	c-2.3,2.4-5.2,4.3-8.5,5.7C179.4,73.4,175.7,74.1,171.6,74.1 M171.5,63.2c3.8,0,6.7-1.5,8.7-4.5c2-3,3-6.9,3-11.7
	c0-4.9-1-8.8-3-11.8c-2-3-4.9-4.5-8.7-4.5c-3.9,0-6.8,1.5-8.8,4.5c-2,3-3,7-3,11.8c0,4.8,1,8.7,3,11.7
	C164.8,61.7,167.7,63.2,171.5,63.2z"/>
<path d="M218.2,29.1h0.3c1.6-3.1,3.7-5.4,6.4-6.9c2.7-1.5,5.8-2.3,9.4-2.3c5.6,0,10,1.7,13.1,5.2c3.1,3.4,4.7,8,4.7,13.8v33.7h-15
	V41.7c0-2.8-0.7-5.1-2.2-6.8c-1.4-1.7-3.6-2.6-6.4-2.6c-3,0-5.3,1.1-7.1,3.2c-1.8,2.1-2.7,4.8-2.7,8.1v28.9h-15.1V21.3h14.6V29.1"/>
<rect x="258.2" y="0.9" width="15.2" height="71.6"/>
<path d="M293.2,89.6c-0.1,0-0.7,0-1.7,0s-2.2,0-3.4,0c-1.2,0-2.3-0.1-3.4-0.1c-1,0-1.6,0-1.6,0V77.6h0.8c0.1,0,0.3,0,0.8,0
	c0.5,0,1,0,1.6,0c0.6,0,1.1,0,1.6,0c0.5,0,0.8,0,0.9,0c4.6,0,7-1.7,7.3-5.2c0-0.9-0.2-2.3-0.7-4.1c-0.5-1.8-1.1-3.9-2-6.2
	l-15.9-40.9h15.9l6.5,19.6c0.6,1.7,1.1,3.6,1.6,5.7c0.5,2.1,1,4,1.3,5.8c0.4,2.1,0.9,4.2,1.3,6.3h0.2c0.4-2.1,0.9-4.2,1.4-6.4
	c0.4-1.8,0.9-3.7,1.4-5.8c0.5-2.1,1.1-3.9,1.6-5.7l6.3-19.6h15l-18.3,52.5c-1,3-2.1,5.4-3.3,7.5c-1.2,2-2.5,3.7-3.9,4.9
	c-1.5,1.3-3.1,2.2-5,2.7C297.8,89.4,295.6,89.6,293.2,89.6"/>
<path d="M378.3,74.1c-4.1,0-7.8-0.7-11.2-2.1c-3.3-1.4-6.2-3.3-8.6-5.7c-2.4-2.4-4.2-5.3-5.5-8.6c-1.3-3.3-1.9-6.9-1.9-10.7
	c0-3.9,0.6-7.4,1.9-10.7c1.3-3.3,3.1-6.2,5.5-8.6c2.4-2.4,5.2-4.3,8.6-5.7c3.3-1.4,7.1-2.1,11.2-2.1c4,0,7.7,0.7,11.1,2.1
	c3.3,1.4,6.2,3.3,8.5,5.7c2.3,2.4,4.2,5.3,5.4,8.6c1.3,3.3,1.9,6.9,1.9,10.7c0,3.9-0.6,7.4-1.9,10.7c-1.3,3.3-3.1,6.2-5.4,8.6
	c-2.3,2.4-5.2,4.3-8.5,5.7C386,73.4,382.3,74.1,378.3,74.1 M378.2,63.2c3.8,0,6.7-1.5,8.7-4.5c2-3,3-6.9,3-11.7c0-4.9-1-8.8-3-11.8
	c-2-3-4.9-4.5-8.7-4.5c-3.9,0-6.8,1.5-8.8,4.5c-2,3-3,7-3,11.8c0,4.8,1,8.7,3,11.7C371.4,61.7,374.3,63.2,378.2,63.2z"/>
<path d="M424.1,29.1h0.3c1.6-3.1,3.7-5.4,6.4-6.9c2.7-1.5,5.8-2.3,9.4-2.3c5.6,0,10,1.7,13.1,5.2c3.1,3.4,4.7,8,4.7,13.8v33.7h-15
	V41.7c0-2.8-0.7-5.1-2.2-6.8c-1.4-1.7-3.6-2.6-6.4-2.6c-3,0-5.3,1.1-7.1,3.2s-2.7,4.8-2.7,8.1v28.9h-15.1V21.3h14.6V29.1"/>
</svg>
