<?xml version="1.0" encoding="utf-8"?>
<!-- Generator: Adobe Illustrator 18.1.1, SVG Export Plug-In . SVG Version: 6.00 Build 0)  -->
<svg version="1.1" id="Layer_1" xmlns="http://www.w3.org/2000/svg" xmlns:xlink="http://www.w3.org/1999/xlink" x="0px" y="0px"
	 viewBox="0 0 93.7 7.2" enable-background="new 0 0 93.7 7.2" xml:space="preserve">
<g>
	<path fill="#FFFFFF" d="M3.3,1.3v5.9H1.9V1.3H0V0.1h5.2v1.2H3.3z"/>
	<path fill="#FFFFFF" d="M10.4,7.2L10,5.9H7.4L7,7.2H5.5l2.6-7.1h1.1l2.6,7.1H10.4z M8.7,2.2L7.8,4.7h1.8L8.7,2.2z"/>
	<path fill="#FFFFFF" d="M15.5,4.5h-1.4v2.7h-1.4V0.1h2.8c1.5,0,2.4,1,2.4,2.2C17.9,3.5,17,4.5,15.5,4.5z M15.4,1.3h-1.3v1.9h1.3
		c0.6,0,1-0.4,1-1S16.1,1.3,15.4,1.3z"/>
	<path fill="#FFFFFF" d="M22.8,1.3V3h2.8v1.2h-2.8v2.9h-1.4V0.1h4.7v1.2H22.8z"/>
	<path fill="#FFFFFF" d="M31.7,6.5c-0.5,0.5-1.1,0.7-1.9,0.7S28.3,7,27.8,6.5c-0.7-0.7-0.7-1.5-0.7-2.9s0-2.2,0.7-2.9
		C28.3,0.3,28.9,0,29.8,0s1.4,0.3,1.9,0.8c0.7,0.7,0.7,1.5,0.7,2.9S32.4,5.8,31.7,6.5z M30.7,1.6c-0.2-0.2-0.5-0.4-0.9-0.4
		c-0.4,0-0.7,0.1-0.9,0.4c-0.3,0.3-0.3,0.6-0.3,2s0.1,1.7,0.3,2C29.1,5.8,29.4,6,29.8,6c0.4,0,0.7-0.2,0.9-0.4C30.9,5.3,31,5,31,3.6
		S30.9,1.9,30.7,1.6z"/>
	<path fill="#FFFFFF" d="M37.7,7.2l-1.4-2.8h-1v2.8h-1.4V0.1h2.8c1.5,0,2.3,1,2.3,2.2c0,1-0.6,1.6-1.3,1.9l1.6,3.1H37.7z M36.6,1.3
		h-1.3v1.9h1.3c0.6,0,1-0.4,1-0.9C37.6,1.7,37.2,1.3,36.6,1.3z"/>
	<path fill="#FFFFFF" d="M47.9,7.2V3l-1.4,2.7h-0.9L44.2,3v4.1h-1.4V0.1h1.4L46,3.9l1.9-3.8h1.4v7.1H47.9z"/>
	<path fill="#FFFFFF" d="M55.3,6.5c-0.5,0.5-1.1,0.7-1.9,0.7S51.9,7,51.4,6.5c-0.7-0.7-0.7-1.5-0.7-2.9s0-2.2,0.7-2.9
		C51.9,0.3,52.5,0,53.4,0s1.4,0.3,1.9,0.8C56,1.5,56,2.3,56,3.6S56,5.8,55.3,6.5z M54.3,1.6c-0.2-0.2-0.5-0.4-0.9-0.4
		c-0.4,0-0.7,0.1-0.9,0.4c-0.3,0.3-0.3,0.6-0.3,2s0.1,1.7,0.3,2C52.7,5.8,53,6,53.4,6c0.4,0,0.7-0.2,0.9-0.4c0.3-0.3,0.4-0.6,0.4-2
		S54.5,1.9,54.3,1.6z"/>
	<path fill="#FFFFFF" d="M61.3,7.2l-1.4-2.8h-1v2.8h-1.4V0.1h2.8c1.5,0,2.3,1,2.3,2.2c0,1-0.6,1.6-1.3,1.9l1.6,3.1H61.3z M60.2,1.3
		h-1.3v1.9h1.3c0.6,0,1-0.4,1-0.9C61.2,1.7,60.8,1.3,60.2,1.3z"/>
	<path fill="#FFFFFF" d="M64,7.2V0.1h4.7v1.2h-3.3V3h2.8v1.2h-2.8v1.7h3.3v1.2H64z"/>
	<path fill="#FFFFFF" d="M72.5,7.2V0.1h1.4v7.1H72.5z"/>
	<path fill="#FFFFFF" d="M79.8,7.2L77,2.8v4.4h-1.4V0.1h1.3l2.8,4.4V0.1h1.4v7.1H79.8z"/>
	<path fill="#FFFFFF" d="M84.1,1.3V3H87v1.2h-2.8v2.9h-1.4V0.1h4.7v1.2H84.1z"/>
	<path fill="#FFFFFF" d="M93,6.5c-0.5,0.5-1.1,0.7-1.9,0.7S89.6,7,89.2,6.5c-0.7-0.7-0.7-1.5-0.7-2.9s0-2.2,0.7-2.9
		C89.6,0.3,90.3,0,91.1,0s1.4,0.3,1.9,0.8c0.7,0.7,0.7,1.5,0.7,2.9S93.7,5.8,93,6.5z M92,1.6c-0.2-0.2-0.5-0.4-0.9-0.4
		c-0.4,0-0.7,0.1-0.9,0.4c-0.3,0.3-0.3,0.6-0.3,2s0.1,1.7,0.3,2C90.4,5.8,90.7,6,91.1,6c0.4,0,0.7-0.2,0.9-0.4
		c0.3-0.3,0.4-0.6,0.4-2S92.2,1.9,92,1.6z"/>
</g>
</svg>
