<?xml version="1.0" encoding="utf-8"?>
<!-- Generator: Adobe Illustrator 18.1.1, SVG Export Plug-In . SVG Version: 6.00 Build 0)  -->
<svg version="1.1" id="Layer_1" xmlns="http://www.w3.org/2000/svg" xmlns:xlink="http://www.w3.org/1999/xlink" x="0px" y="0px"
	 viewBox="0 0 172 30.4" enable-background="new 0 0 172 30.4" xml:space="preserve">
<g>
	<path fill="#FFFFFF" d="M1,11.6V0.1h2.3v9.5h5.2v2H1z"/>
	<path fill="#FFFFFF" d="M10,11.6V0.1h2.3v11.5H10z"/>
	<path fill="#FFFFFF" d="M22.7,11.6V4.9l-2.2,4.4H19l-2.2-4.4v6.7h-2.3V0.1h2.2l3,6.2l3-6.2h2.2v11.5H22.7z"/>
	<path fill="#FFFFFF" d="M27.2,11.6V0.1h2.2v11.5H27.2z"/>
	<path fill="#FFFFFF" d="M36.2,2.1v9.5h-2.2V2.1h-3v-2h8.3v2H36.2z"/>
	<path fill="#FFFFFF" d="M40.7,11.6V0.1h7.6v2H43v2.7h4.5v2H43v2.8h5.3v2H40.7z"/>
	<path fill="#FFFFFF" d="M57.7,9.9c-0.8,1.1-1.9,1.7-3.5,1.7h-4.2V0.1h4.2c1.6,0,2.7,0.5,3.5,1.7c0.7,1,0.7,2.2,0.7,4.1
		C58.5,7.8,58.5,9,57.7,9.9z M55.8,2.8c-0.4-0.5-0.9-0.7-1.7-0.7h-1.7v7.5h1.7c0.8,0,1.3-0.2,1.7-0.7c0.4-0.5,0.5-1.2,0.5-3
		C56.2,4,56.2,3.3,55.8,2.8z"/>
	<path fill="#FFFFFF" d="M70.8,10.5c-0.8,0.8-1.7,1.2-3.1,1.2s-2.3-0.4-3.1-1.2c-1.1-1.1-1.2-2.4-1.2-4.6c0-2.2,0-3.5,1.2-4.6
		C65.4,0.4,66.4,0,67.7,0s2.3,0.4,3.1,1.2C72,2.4,72,3.7,72,5.9C72,8.1,72,9.4,70.8,10.5z M69.2,2.6C68.9,2.3,68.4,2,67.7,2
		s-1.1,0.2-1.5,0.6c-0.4,0.5-0.6,1-0.6,3.2c0,2.2,0.1,2.7,0.6,3.2c0.3,0.4,0.8,0.6,1.5,0.6s1.1-0.3,1.4-0.6c0.4-0.5,0.6-1,0.6-3.2
		C69.8,3.7,69.6,3.1,69.2,2.6z"/>
	<path fill="#FFFFFF" d="M80,11.6L77.8,7h-1.6v4.6h-2.3V0.1h4.5c2.3,0,3.7,1.6,3.7,3.5c0,1.6-1,2.6-2.1,3l2.6,5H80z M78.3,2.1h-2.1
		v3h2.1c1,0,1.6-0.6,1.6-1.5C79.9,2.7,79.3,2.1,78.3,2.1z"/>
	<path fill="#FFFFFF" d="M94.4,11.6l-4.6-7.1v7.1h-2.2V0.1h2l4.6,7.1V0.1h2.3v11.5H94.4z"/>
	<path fill="#FFFFFF" d="M105.7,10.5c-0.8,0.8-1.7,1.2-3.1,1.2c-1.3,0-2.3-0.4-3.1-1.2c-1.1-1.1-1.2-2.4-1.2-4.6
		c0-2.2,0-3.5,1.2-4.6c0.8-0.8,1.8-1.2,3.1-1.2c1.3,0,2.3,0.4,3.1,1.2c1.1,1.1,1.2,2.4,1.2,4.6C106.9,8.1,106.8,9.4,105.7,10.5z
		 M104.1,2.6c-0.3-0.4-0.8-0.6-1.4-0.6c-0.6,0-1.1,0.2-1.5,0.6c-0.4,0.5-0.6,1-0.6,3.2c0,2.2,0.1,2.7,0.6,3.2
		c0.3,0.4,0.8,0.6,1.5,0.6c0.6,0,1.1-0.3,1.4-0.6c0.4-0.5,0.6-1,0.6-3.2C104.6,3.7,104.5,3.1,104.1,2.6z"/>
	<path fill="#FFFFFF" d="M116.2,11.7c-1.3,0-2.3-0.4-3.1-1.2c-1.1-1.1-1.2-2.4-1.2-4.6c0-2.2,0-3.5,1.2-4.6c0.8-0.8,1.8-1.2,3.1-1.2
		c2.2,0,3.8,1.2,4.2,3.6h-2.3c-0.2-0.9-0.8-1.6-1.9-1.6c-0.6,0-1.1,0.2-1.4,0.6c-0.4,0.5-0.6,1.1-0.6,3.3c0,2.2,0.1,2.8,0.6,3.3
		c0.3,0.4,0.8,0.6,1.4,0.6c1.1,0,1.7-0.7,1.9-1.6h2.3C120,10.5,118.3,11.7,116.2,11.7z"/>
	<path fill="#FFFFFF" d="M128.1,11.6L125.8,7h-1.6v4.6H122V0.1h4.5c2.3,0,3.7,1.6,3.7,3.5c0,1.6-1,2.6-2.1,3l2.6,5H128.1z
		 M126.3,2.1h-2.1v3h2.1c1,0,1.6-0.6,1.6-1.5C128,2.7,127.3,2.1,126.3,2.1z"/>
	<path fill="#FFFFFF" d="M132.2,11.6V0.1h7.6v2h-5.3v2.7h4.5v2h-4.5v2.8h5.3v2H132.2z"/>
	<path fill="#FFFFFF" d="M149.2,9.9c-0.8,1.1-1.9,1.7-3.5,1.7h-4.2V0.1h4.2c1.6,0,2.7,0.5,3.5,1.7c0.7,1,0.7,2.2,0.7,4.1
		C150,7.8,150,9,149.2,9.9z M147.3,2.8c-0.4-0.5-0.9-0.7-1.7-0.7h-1.7v7.5h1.7c0.8,0,1.3-0.2,1.7-0.7c0.4-0.5,0.5-1.2,0.5-3
		C147.7,4,147.7,3.3,147.3,2.8z"/>
	<path fill="#FFFFFF" d="M151.9,11.6V0.1h2.3v11.5H151.9z"/>
	<path fill="#FFFFFF" d="M160.9,2.1v9.5h-2.2V2.1h-3v-2h8.3v2H160.9z"/>
	<path fill="#FFFFFF" d="M171.3,5.3l-1.2,1.6c-0.2,0.2-0.3,0.6-0.3,0.8V8h-2.1V7.5c0-0.7,0.2-1.1,0.6-1.7l1.2-1.5
		c0.3-0.3,0.5-0.7,0.5-1.1c0-0.8-0.5-1.3-1.3-1.3c-0.9,0-1.3,0.6-1.3,1.3h-2.1c0-2,1.5-3.2,3.4-3.2c1.8,0,3.4,1.2,3.4,3.2
		C172,4,171.7,4.7,171.3,5.3z M167.6,11.6V9.5h2.2v2.2H167.6z"/>
	<path fill="#FFFFFF" d="M4.2,30.4c-1.7,0-3.1-0.4-4.2-1.5l1.5-1.5c0.7,0.7,1.7,1,2.8,1c1.3,0,2.1-0.5,2.1-1.4c0-0.4-0.1-0.7-0.4-1
		c-0.2-0.2-0.5-0.3-1-0.4l-1.4-0.2c-1-0.1-1.7-0.5-2.2-1c-0.6-0.5-0.8-1.3-0.8-2.3c0-2.1,1.5-3.5,4-3.5c1.6,0,2.7,0.4,3.7,1.3
		l-1.4,1.4c-0.7-0.7-1.6-0.8-2.4-0.8c-1.2,0-1.8,0.7-1.8,1.5c0,0.3,0.1,0.6,0.3,0.8c0.2,0.2,0.6,0.4,1.1,0.4l1.4,0.2
		c1.1,0.1,1.7,0.4,2.2,0.9c0.6,0.6,0.9,1.4,0.9,2.4C8.5,29.1,6.6,30.4,4.2,30.4z"/>
	<path fill="#FFFFFF" d="M14.2,30.4c-1.3,0-2.3-0.4-3.1-1.2c-1.1-1.1-1.2-2.4-1.2-4.6s0-3.5,1.2-4.6c0.8-0.8,1.8-1.2,3.1-1.2
		c2.2,0,3.8,1.2,4.2,3.6h-2.3c-0.2-0.9-0.8-1.6-1.9-1.6c-0.6,0-1.1,0.2-1.4,0.6c-0.4,0.5-0.6,1.1-0.6,3.3s0.1,2.8,0.6,3.3
		c0.3,0.4,0.8,0.6,1.4,0.6c1.1,0,1.7-0.7,1.9-1.6h2.3C18,29.2,16.3,30.4,14.2,30.4z"/>
	<path fill="#FFFFFF" d="M20,30.3V18.8h2.2v11.5H20z"/>
	<path fill="#FFFFFF" d="M31.5,29.2c-0.8,0.8-1.7,1.2-3.1,1.2s-2.3-0.4-3.1-1.2c-1.1-1.1-1.2-2.4-1.2-4.6s0-3.5,1.2-4.6
		c0.8-0.8,1.8-1.2,3.1-1.2s2.3,0.4,3.1,1.2c1.1,1.1,1.2,2.4,1.2,4.6S32.6,28,31.5,29.2z M29.9,21.3c-0.3-0.4-0.8-0.6-1.4-0.6
		s-1.1,0.2-1.5,0.6c-0.4,0.5-0.6,1-0.6,3.2s0.1,2.7,0.6,3.2c0.3,0.4,0.8,0.6,1.5,0.6s1.1-0.3,1.4-0.6c0.4-0.5,0.6-1,0.6-3.2
		S30.3,21.8,29.9,21.3z"/>
	<path fill="#FFFFFF" d="M41.4,30.3l-4.6-7.1v7.1h-2.3V18.8h2l4.6,7.1v-7.1h2.2v11.5H41.4z"/>
	<path fill="#FFFFFF" d="M53.1,30.4c-1.3,0-2.3-0.4-3.1-1.2c-1.1-1.1-1.2-2.4-1.2-4.6s0-3.5,1.2-4.6c0.8-0.8,1.8-1.2,3.1-1.2
		c2.2,0,3.8,1.2,4.2,3.6H55c-0.2-0.9-0.8-1.6-1.9-1.6c-0.6,0-1.1,0.2-1.4,0.6c-0.4,0.5-0.6,1.1-0.6,3.3s0.1,2.8,0.6,3.3
		c0.3,0.4,0.8,0.6,1.4,0.6c1.1,0,1.7-0.7,1.9-1.6h2.3C56.9,29.2,55.2,30.4,53.1,30.4z"/>
	<path fill="#FFFFFF" d="M65.5,30.3l-0.7-2h-4.1l-0.7,2h-2.3l4.2-11.5h1.8l4.2,11.5H65.5z M62.9,22.2l-1.5,4.2h2.9L62.9,22.2z"/>
	<path fill="#FFFFFF" d="M76,30.3l-4.6-7.1v7.1h-2.3V18.8h2l4.6,7.1v-7.1H78v11.5H76z"/>
	<path fill="#FFFFFF" d="M90,30.3v-4.8h-3.9v4.8h-2.3V18.8h2.3v4.7H90v-4.7h2.3v11.5H90z"/>
	<path fill="#FFFFFF" d="M94.5,30.3V18.8h7.6v2h-5.3v2.7h4.5v2h-4.5v2.8h5.3v2H94.5z"/>
	<path fill="#FFFFFF" d="M103.9,30.3V18.8h2.3v9.5h5.2v2H103.9z"/>
	<path fill="#FFFFFF" d="M117.3,26h-2.2v4.3h-2.2V18.8h4.5c2.4,0,3.8,1.6,3.8,3.6S119.7,26,117.3,26z M117.2,20.8h-2.1v3.2h2.1
		c1,0,1.7-0.6,1.7-1.6S118.2,20.8,117.2,20.8z"/>
	<path fill="#FFFFFF" d="M120.9,30.3v-2.4h2.4v2.4H120.9z"/>
</g>
</svg>
