<?xml version="1.0" encoding="utf-8"?>
<!-- Generator: Adobe Illustrator 19.2.1, SVG Export Plug-In . SVG Version: 6.00 Build 0)  -->
<svg version="1.1" id="CTA_1_" xmlns="http://www.w3.org/2000/svg" xmlns:xlink="http://www.w3.org/1999/xlink" x="0px" y="0px"
	 viewBox="0 0 240 64" enable-background="new 0 0 240 64" xml:space="preserve">
<g id="Button">
	<g>
		<rect fill-rule="evenodd" clip-rule="evenodd" fill="#28A0C3" width="240" height="64"/>
	</g>
</g>
<g id="LEARN_MORE">
	<g>
		<path fill="#FFFFFF" d="M28.3,41.3v-20h4.2v16.5h8.1v3.5H28.3z"/>
		<path fill="#FFFFFF" d="M56.3,41.3H44.8v-20h11.5v3.5H49v4.4h6.8v3.5H49v5.2h7.3V41.3z"/>
		<path fill="#FFFFFF" d="M73.4,41.3L72,36.5h-7.3l-1.4,4.8h-4.6l7.1-20.1h5.2L78,41.3H73.4z M70.9,33c-1.3-4.3-2.1-6.7-2.3-7.3
			c-0.2-0.6-0.3-1-0.4-1.3c-0.3,1.2-1.2,4.1-2.6,8.7H70.9z"/>
		<path fill="#FFFFFF" d="M85.4,33.6v7.7h-4.2v-20H87c2.7,0,4.7,0.5,6,1.5c1.3,1,2,2.5,2,4.5c0,1.2-0.3,2.2-1,3.1
			c-0.6,0.9-1.6,1.6-2.7,2.2c3,4.5,5,7.4,5.9,8.7h-4.7l-4.8-7.7H85.4z M85.4,30.2h1.4c1.3,0,2.3-0.2,3-0.7c0.6-0.4,1-1.1,1-2.1
			c0-0.9-0.3-1.6-1-2c-0.7-0.4-1.7-0.6-3-0.6h-1.3V30.2z"/>
		<path fill="#FFFFFF" d="M118.1,41.3h-5.4L104,26.2h-0.1c0.2,2.7,0.3,4.6,0.3,5.7v9.4h-3.8v-20h5.3l8.7,15h0.1
			c-0.1-2.6-0.2-4.4-0.2-5.5v-9.5h3.8V41.3z"/>
		<path fill="#FFFFFF" d="M140.3,41.3l-4.8-15.7h-0.1c0.2,3.2,0.3,5.3,0.3,6.4v9.3h-3.8v-20h5.8l4.7,15.3h0.1l5-15.3h5.8v20h-4v-9.5
			c0-0.4,0-1,0-1.5c0-0.6,0.1-2.1,0.2-4.6h-0.1l-5.2,15.7H140.3z"/>
		<path fill="#FFFFFF" d="M177.1,31.3c0,3.3-0.8,5.9-2.5,7.6s-4,2.7-7.1,2.7s-5.4-0.9-7.1-2.7s-2.5-4.3-2.5-7.7
			c0-3.3,0.8-5.9,2.5-7.6c1.6-1.8,4-2.6,7.1-2.6s5.4,0.9,7,2.7C176.2,25.4,177.1,27.9,177.1,31.3z M162.5,31.3c0,2.2,0.4,3.9,1.3,5
			s2.1,1.7,3.8,1.7c3.4,0,5.1-2.2,5.1-6.7c0-4.5-1.7-6.8-5-6.8c-1.7,0-3,0.6-3.8,1.7S162.5,29,162.5,31.3z"/>
		<path fill="#FFFFFF" d="M186.1,33.6v7.7h-4.2v-20h5.8c2.7,0,4.7,0.5,6,1.5c1.3,1,2,2.5,2,4.5c0,1.2-0.3,2.2-1,3.1
			s-1.6,1.6-2.7,2.2c3,4.5,5,7.4,5.9,8.7h-4.7l-4.8-7.7H186.1z M186.1,30.2h1.4c1.3,0,2.3-0.2,3-0.7c0.6-0.4,1-1.1,1-2.1
			c0-0.9-0.3-1.6-1-2c-0.7-0.4-1.7-0.6-3-0.6h-1.3V30.2z"/>
		<path fill="#FFFFFF" d="M212.6,41.3h-11.5v-20h11.5v3.5h-7.3v4.4h6.8v3.5h-6.8v5.2h7.3V41.3z"/>
	</g>
</g>
</svg>
