<?xml version="1.0" encoding="utf-8"?>
<!-- Generator: Adobe Illustrator 19.2.1, SVG Export Plug-In . SVG Version: 6.00 Build 0)  -->
<svg version="1.1" id="Layer_5" xmlns="http://www.w3.org/2000/svg" xmlns:xlink="http://www.w3.org/1999/xlink" x="0px" y="0px"
	 viewBox="0 0 305.1 126" enable-background="new 0 0 305.1 126" xml:space="preserve">
<g>
	<g>
		<defs>
			<polygon id="SVGID_1_" points="43.2,6.5 43.2,15.3 30.8,15.3 30.8,6.5 26.3,6.5 26.3,28.9 30.8,28.9 30.8,19.2 43.2,19.2 
				43.2,28.9 47.8,28.9 47.8,6.5 			"/>
		</defs>
		<use xlink:href="#SVGID_1_"  overflow="visible"/>
		<clipPath id="SVGID_2_">
			<use xlink:href="#SVGID_1_"  overflow="visible"/>
		</clipPath>
	</g>
	<g>
		<defs>
			<polygon id="SVGID_3_" points="103.3,6.5 103.3,28.9 123.1,28.9 120.6,24.9 107.8,24.9 107.8,19.2 120.2,19.2 120.2,15.4 
				107.8,15.4 107.8,10.3 120.6,10.3 123,6.5 			"/>
		</defs>
		<use xlink:href="#SVGID_3_"  overflow="visible"/>
		<clipPath id="SVGID_4_">
			<use xlink:href="#SVGID_3_"  overflow="visible"/>
		</clipPath>
	</g>
	<g>
		<defs>
			<path id="SVGID_5_" d="M9.6,6.4c-4.7,0-7.1,2.9-7.1,7v8.4c0,4.8,3.1,7,7,7h14.2l-2.6-4.1H10.4c-2.3,0-3.2-0.8-3.2-3.4v-7.6
				c0-2.5,0.8-3.4,3.3-3.4h10.7l2.5-4H9.6z"/>
		</defs>
		<use xlink:href="#SVGID_5_"  overflow="visible"/>
		<clipPath id="SVGID_6_">
			<use xlink:href="#SVGID_5_"  overflow="visible"/>
		</clipPath>
	</g>
	<g>
		<defs>
			<path id="SVGID_7_" d="M83.5,6.4c-2.7,0-5.5,1.6-5.5,5.8v1.1c0,4.4,2.7,6,5.4,6h9.4c1,0,1.8,0.2,1.8,1.8v1.9
				c0,1.5-0.8,1.8-1.8,1.8H80.3l-2.5,3.9H93c3.7,0,6.1-1.8,6.1-6v-1.5c0-4.1-2.3-6-5.9-6h-9c-1,0-1.7-0.3-1.7-1.7V12
				c0-1.3,0.5-1.7,1.6-1.7l11.8,0l2.5-3.9H83.5z"/>
		</defs>
		<use xlink:href="#SVGID_7_"  overflow="visible"/>
		<clipPath id="SVGID_8_">
			<use xlink:href="#SVGID_7_"  overflow="visible"/>
		</clipPath>
	</g>
	<g>
		<defs>
			<path id="SVGID_9_" d="M63.1,11.1l4.1,9.3H59L63.1,11.1z M60.9,6.5L50.2,28.9h5l2.1-4.6h11.6l2.1,4.6h5L65.3,6.5H60.9z"/>
		</defs>
		<use xlink:href="#SVGID_9_"  overflow="visible"/>
		<clipPath id="SVGID_10_">
			<use xlink:href="#SVGID_9_"  overflow="visible"/>
		</clipPath>
	</g>
</g>
<g>
	<g>
		<defs>
			<path id="SVGID_11_" d="M140.7,2.9c-0.6,0-1,0.5-1,1v7.3h19.3l-8.8-8.3H140.7z"/>
		</defs>
		<use xlink:href="#SVGID_11_"  overflow="visible" fill="#0079C1"/>
		<clipPath id="SVGID_12_">
			<use xlink:href="#SVGID_11_"  overflow="visible"/>
		</clipPath>
	</g>
	<g>
		<defs>
			<path id="SVGID_13_" d="M151.3,12.4v19.3l8.3-8.8l0-9.5c0-0.6-0.5-1-1-1H151.3z"/>
		</defs>
		<use xlink:href="#SVGID_13_"  overflow="visible" fill="#0079C1"/>
		<clipPath id="SVGID_14_">
			<use xlink:href="#SVGID_13_"  overflow="visible"/>
		</clipPath>
	</g>
	<g>
		<defs>
			<path id="SVGID_15_" d="M130.1,12.4v9.4c0,0.6,0.5,1,1,1h7.3V3.6L130.1,12.4z"/>
		</defs>
		<use xlink:href="#SVGID_15_"  overflow="visible" fill="#0079C1"/>
		<clipPath id="SVGID_16_">
			<use xlink:href="#SVGID_15_"  overflow="visible"/>
		</clipPath>
	</g>
	<g>
		<defs>
			<path id="SVGID_17_" d="M131.2,23.8l8.8,8.3l9.5,0c0.6,0,1-0.5,1-1v-7.3H131.2z"/>
		</defs>
		<use xlink:href="#SVGID_17_"  overflow="visible" fill="#0079C1"/>
		<clipPath id="SVGID_18_">
			<use xlink:href="#SVGID_17_"  overflow="visible"/>
		</clipPath>
	</g>
</g>
<g>
	<g>
		<defs>
			<path id="SVGID_19_" d="M54,69.3c-0.3-0.5-0.3-0.9,0-1.4l6.7-12.6c0.2-0.5,0.6-0.7,1.1-0.7c0.5,0,0.9,0.2,1.1,0.7l6.6,12.6
				c0.3,0.5,0.3,1,0,1.4c-0.3,0.5-0.7,0.7-1.2,0.7H55.2C54.7,70,54.2,69.8,54,69.3 M58.6,49.6L41.8,81.3H47l2.8-5.5
				c0.6-1.2,1.6-1.8,2.9-1.8h18.3c1.3,0,2.2,0.6,2.8,1.8c1.7,3.2,2.7,5.1,2.9,5.5h5.1C70.9,60.8,65.3,50.3,64.9,49.6H58.6z"/>
		</defs>
		<use xlink:href="#SVGID_19_"  overflow="visible"/>
		<clipPath id="SVGID_20_">
			<use xlink:href="#SVGID_19_"  overflow="visible"/>
		</clipPath>
	</g>
	<g>
		<defs>
			<path id="SVGID_21_" d="M92.1,64.3c-0.4-0.4-0.6-0.9-0.6-1.5v-6.9c0-0.6,0.2-1.1,0.6-1.5c0.4-0.4,0.9-0.6,1.5-0.6h18.5
				c4.6,0,6.9,1.9,6.9,5.8c0,3.6-2.2,5.4-6.5,5.4H93.6C93,64.9,92.5,64.7,92.1,64.3 M87.4,49.6v31.8h4.1V71c0-0.6,0.2-1.1,0.6-1.5
				c0.4-0.4,0.9-0.6,1.5-0.6h18c7.6,0,11.4-3.2,11.4-9.6c0-3-1-5.4-2.9-7.2c-1.9-1.7-4.4-2.6-7.5-2.6H87.4z"/>
		</defs>
		<use xlink:href="#SVGID_21_"  overflow="visible"/>
		<clipPath id="SVGID_22_">
			<use xlink:href="#SVGID_21_"  overflow="visible"/>
		</clipPath>
	</g>
	<g>
		<defs>
			<path id="SVGID_23_" d="M133.6,64.3c-0.4-0.4-0.6-0.9-0.6-1.5v-6.9c0-0.6,0.2-1.1,0.6-1.5c0.4-0.4,0.9-0.6,1.5-0.6h18.5
				c4.6,0,6.9,1.9,6.9,5.8c0,3.6-2.2,5.4-6.5,5.4H135C134.5,64.9,134,64.7,133.6,64.3 M128.9,49.6v31.8h4.1V71
				c0-0.6,0.2-1.1,0.6-1.5c0.4-0.4,0.9-0.6,1.5-0.6h18c7.6,0,11.4-3.2,11.4-9.6c0-3-1-5.4-2.9-7.2c-1.9-1.7-4.4-2.6-7.5-2.6H128.9z"
				/>
		</defs>
		<use xlink:href="#SVGID_23_"  overflow="visible"/>
		<clipPath id="SVGID_24_">
			<use xlink:href="#SVGID_23_"  overflow="visible"/>
		</clipPath>
	</g>
	<g>
		<defs>
			<path id="SVGID_25_" d="M203.3,49.6v11.7c0,0.6-0.2,1.1-0.6,1.5c-0.4,0.4-0.9,0.6-1.5,0.6h-23.3c-0.6,0-1.1-0.2-1.5-0.6
				c-0.4-0.4-0.6-0.9-0.6-1.5V49.6h-4.1v31.8h4.1V69.6c0-0.6,0.2-1.1,0.6-1.5c0.4-0.4,0.9-0.6,1.5-0.6h23.3c0.6,0,1.1,0.2,1.5,0.6
				c0.4,0.4,0.6,0.9,0.6,1.5v11.8h4.1V49.6H203.3z"/>
		</defs>
		<use xlink:href="#SVGID_25_"  overflow="visible"/>
		<clipPath id="SVGID_26_">
			<use xlink:href="#SVGID_25_"  overflow="visible"/>
		</clipPath>
	</g>
	<g>
		<defs>
			<rect id="SVGID_27_" x="215.9" y="49.6" width="4.1" height="31.8"/>
		</defs>
		<use xlink:href="#SVGID_27_"  overflow="visible"/>
		<clipPath id="SVGID_28_">
			<use xlink:href="#SVGID_27_"  overflow="visible"/>
		</clipPath>
	</g>
	<g>
		<defs>
			<path id="SVGID_29_" d="M232.5,64.3c-0.4-0.4-0.6-0.9-0.6-1.5v-6.9c0-0.6,0.2-1.1,0.6-1.5c0.4-0.4,0.9-0.6,1.5-0.6h18.5
				c4.6,0,6.9,1.9,6.9,5.8c0,3.6-2.2,5.4-6.5,5.4H234C233.4,64.9,232.9,64.7,232.5,64.3 M227.8,49.6v31.8h4.1V71
				c0-0.6,0.2-1.1,0.6-1.5c0.4-0.4,0.9-0.6,1.5-0.6h10.3c1.4,0,2.6,0.5,3.6,1.6l9.8,10.8h5.7l-9.8-10.8c-0.2-0.2-0.3-0.4-0.3-0.7
				c0-0.6,0.3-1,0.9-1c6.1-0.6,9.2-3.8,9.2-9.5c0-3-1-5.4-2.9-7.2c-1.9-1.7-4.4-2.6-7.5-2.6H227.8z"/>
		</defs>
		<use xlink:href="#SVGID_29_"  overflow="visible"/>
		<clipPath id="SVGID_30_">
			<use xlink:href="#SVGID_29_"  overflow="visible"/>
		</clipPath>
	</g>
	<g>
		<defs>
			<path id="SVGID_31_" d="M269.9,49.6v31.8h33.2v-4.1h-27c-0.6,0-1.1-0.2-1.5-0.7c-0.4-0.4-0.6-1-0.6-1.6v-5.4
				c0-0.6,0.2-1.1,0.6-1.5c0.4-0.4,0.9-0.6,1.5-0.6H299v-4.1h-22.9c-0.6,0-1.1-0.2-1.5-0.6c-0.4-0.4-0.6-0.9-0.6-1.5v-5.5
				c0-0.6,0.2-1.1,0.6-1.5c0.4-0.4,0.9-0.6,1.5-0.6h27v-4.1H269.9z"/>
		</defs>
		<use xlink:href="#SVGID_31_"  overflow="visible"/>
		<clipPath id="SVGID_32_">
			<use xlink:href="#SVGID_31_"  overflow="visible"/>
		</clipPath>
	</g>
	<g>
		<defs>
			<path id="SVGID_33_" d="M11.3,49.3c-2.5,0-4.6,0.9-6.3,2.6c-1.7,1.7-2.6,3.9-2.6,6.3c0,2.5,0.9,4.6,2.6,6.3
				c1.7,1.8,3.8,2.6,6.3,2.6h17.8c1.3,0,2.5,0.5,3.4,1.4c1,0.9,1.4,2.1,1.4,3.4c0,1.4-0.5,2.5-1.4,3.5c-0.9,1-2.1,1.4-3.4,1.4H2.4
				V81h26.7c2.4,0,4.5-0.9,6.3-2.6c1.8-1.8,2.6-3.9,2.6-6.4c0-2.4-0.9-4.6-2.6-6.3c-1.7-1.8-3.8-2.6-6.3-2.6H11.3
				c-1.4,0-2.5-0.5-3.5-1.4c-0.9-1-1.4-2.1-1.4-3.5c0-1.3,0.5-2.5,1.4-3.4c0.9-0.9,2.1-1.4,3.5-1.4h24.5v-4.1H11.3z"/>
		</defs>
		<use xlink:href="#SVGID_33_"  overflow="visible"/>
		<clipPath id="SVGID_34_">
			<use xlink:href="#SVGID_33_"  overflow="visible"/>
		</clipPath>
	</g>
</g>
<polyline fill="none" points="0,0 305.1,0 305.1,126 "/>
<g>
	<path d="M180.6,122.2h22.6v-2.9h-19.3v-7.9h17.9v-2.8h-17.9v-7h18.4v-2.9h-21.8V122.2z M164.2,116.4c-0.5,1.1-0.6,1.4-0.9,2.6
		c-0.4-1.3-0.5-1.7-1.1-2.9L154,98.6h-3.7l11.3,23.6h3.4l11.1-23.6h-3.7L164.2,116.4z M137.9,101.5c1.5,0,3.2,0,4.3,1.7
		c0.5,0.7,0.7,1.6,0.7,2.5c0,0.8-0.2,1.7-0.8,2.5c-1.3,1.8-3.7,1.8-5.5,1.8h-11.6v-8.5H137.9z M121.6,122.2h3.3v-9.4h11.4l8,9.4h4.4
		l-8.7-9.9c1.6-0.3,6.3-1,6.3-6.7c0-2.8-1.3-4.4-2.1-5c-2-1.8-4.5-1.9-6.6-1.9h-16V122.2z M92.1,122.2h22.6v-2.9H95.4v-7.9h17.9
		v-2.8H95.4v-7h18.4v-2.9H92.1V122.2z M60.4,117.4c0.7,1,2.4,3.4,7.2,4.6c1.7,0.4,4.1,0.7,6.1,0.7c4.9,0,8.5-1.1,10.3-3.7
		c1-1.5,1.2-3,1.2-3.9c0-3.9-2.9-5.5-5.4-6.1c-1-0.2-2-0.4-3-0.5c-2.1-0.2-4.2-0.4-6.4-0.6c-2.2-0.2-3.4-0.4-4.2-1.4
		c-0.4-0.5-0.7-1.1-0.7-1.8c0-1,0.5-2.2,2.1-3c1.4-0.7,3.8-1,5.7-1c2.6,0,5.2,0.5,7.3,2c0.6,0.4,0.9,0.7,1.4,1.2l3-1.2
		c-0.7-0.9-1.2-1.6-2.4-2.4c-2.7-1.8-6.1-2.4-9.4-2.4c-2.2,0-11,0.2-11,6.9c0,1.1,0.2,2.6,1.7,3.9c1.8,1.6,3.8,1.8,9.7,2.3
		c4.7,0.4,8.4,0.7,8.4,4c0,2.9-2.8,4.8-8,4.8c-3.1,0-6.2-0.5-8.8-2.3c-0.9-0.6-1.3-1-1.6-1.4L60.4,117.4z M33.8,122.2h22.6v-2.9
		H37.2v-7.9h17.9v-2.8H37.2v-7h18.4v-2.9H33.8V122.2z M18.5,101.5c1.5,0,3.2,0,4.3,1.7c0.5,0.7,0.7,1.6,0.7,2.5
		c0,0.8-0.2,1.7-0.8,2.5c-1.3,1.8-3.7,1.8-5.5,1.8H5.6v-8.5H18.5z M2.3,122.2h3.3v-9.4H17l8,9.4h4.4l-8.7-9.9c1.6-0.3,6.3-1,6.3-6.7
		c0-2.8-1.3-4.4-2.1-5c-2-1.8-4.5-1.9-6.6-1.9h-16V122.2z"/>
</g>
<rect x="205.2" y="98" fill="none" width="40" height="13"/>
<text transform="matrix(1 0 0 1 205.1948 107.0835)" font-family="'OpenSans'" font-size="12px">℠</text>
</svg>
