<?xml version="1.0" encoding="utf-8"?>
<!-- Generator: Adobe Illustrator 19.2.1, SVG Export Plug-In . SVG Version: 6.00 Build 0)  -->
<svg version="1.1" id="CTA_1_" xmlns="http://www.w3.org/2000/svg" xmlns:xlink="http://www.w3.org/1999/xlink" x="0px" y="0px"
	 viewBox="0 0 248 68" style="enable-background:new 0 0 248 68;" xml:space="preserve">
<style type="text/css">
	.st0{fill:#2692B3;}
	.st1{fill:none;}
	.st2{enable-background:new    ;}
	.st3{fill:#FFFFFF;}
</style>
<g id="Button">
	<g>
		<rect class="st0" width="248" height="68"/>
	</g>
</g>
<g id="LEARN_MORE">
	<rect y="22" class="st1" width="248" height="46"/>
	<g class="st2">
		<path class="st3" d="M32.3,43.3v-20h4.2v16.5h8.1v3.5H32.3z"/>
		<path class="st3" d="M59.6,43.3H48.1v-20h11.5v3.5h-7.3v4.4h6.8v3.5h-6.8v5.2h7.3V43.3z"/>
		<path class="st3" d="M76,43.3l-1.4-4.8h-7.3l-1.4,4.8h-4.6l7.1-20.1h5.2l7.1,20.1H76z M73.5,35c-1.3-4.3-2.1-6.7-2.3-7.3
			c-0.2-0.6-0.3-1-0.4-1.3c-0.3,1.2-1.2,4.1-2.6,8.7H73.5z"/>
		<path class="st3" d="M87.3,35.6v7.7h-4.2v-20h5.8c2.7,0,4.7,0.5,6,1.5c1.3,1,2,2.5,2,4.5c0,1.2-0.3,2.2-1,3.1
			c-0.6,0.9-1.6,1.6-2.7,2.2c3,4.5,5,7.4,5.9,8.7h-4.7l-4.8-7.7H87.3z M87.3,32.2h1.4c1.3,0,2.3-0.2,3-0.7c0.6-0.4,1-1.1,1-2.1
			c0-0.9-0.3-1.6-1-2c-0.7-0.4-1.7-0.6-3-0.6h-1.3V32.2z"/>
		<path class="st3" d="M119.3,43.3h-5.4l-8.7-15.1h-0.1c0.2,2.7,0.3,4.6,0.3,5.7v9.4h-3.8v-20h5.3l8.7,15h0.1
			c-0.1-2.6-0.2-4.4-0.2-5.5v-9.5h3.8V43.3z"/>
		<path class="st3" d="M140.1,43.3l-4.8-15.7h-0.1c0.2,3.2,0.3,5.3,0.3,6.4v9.3h-3.8v-20h5.8l4.7,15.3h0.1l5-15.3h5.8v20h-4v-9.5
			c0-0.4,0-1,0-1.5s0.1-2.1,0.2-4.6h-0.1L144,43.3H140.1z"/>
		<path class="st3" d="M176.2,33.3c0,3.3-0.8,5.9-2.5,7.6s-4,2.7-7.1,2.7s-5.4-0.9-7.1-2.7s-2.5-4.3-2.5-7.7s0.8-5.9,2.5-7.6
			c1.6-1.8,4-2.6,7.1-2.6c3.1,0,5.4,0.9,7,2.7S176.2,29.9,176.2,33.3z M161.6,33.3c0,2.2,0.4,3.9,1.3,5s2.1,1.7,3.8,1.7
			c3.4,0,5.1-2.2,5.1-6.7c0-4.5-1.7-6.8-5-6.8c-1.7,0-3,0.6-3.8,1.7C162,29.3,161.6,31,161.6,33.3z"/>
		<path class="st3" d="M184.5,35.6v7.7h-4.2v-20h5.8c2.7,0,4.7,0.5,6,1.5c1.3,1,2,2.5,2,4.5c0,1.2-0.3,2.2-1,3.1
			c-0.6,0.9-1.6,1.6-2.7,2.2c3,4.5,5,7.4,5.9,8.7h-4.7l-4.8-7.7H184.5z M184.5,32.2h1.4c1.3,0,2.3-0.2,3-0.7c0.6-0.4,1-1.1,1-2.1
			c0-0.9-0.3-1.6-1-2c-0.7-0.4-1.7-0.6-3-0.6h-1.3V32.2z"/>
		<path class="st3" d="M210.3,43.3h-11.5v-20h11.5v3.5H203v4.4h6.8v3.5H203v5.2h7.3V43.3z"/>
	</g>
</g>
</svg>
