<svg id="Layer_1" data-name="Layer 1" xmlns="http://www.w3.org/2000/svg" viewBox="0 0 104.69 11.06"><defs><style>.cls-1{fill:#19458d}</style></defs><title>cta2Over</title><path class="cls-1" d="M22.77 22.1l1.13-1.34a5 5 0 0 0 3.37 1.39c1.16 0 1.89-.55 1.89-1.34 0-.76-.43-1.18-2.41-1.63-2.27-.55-3.56-1.22-3.56-3.19 0-1.83 1.53-3.1 3.65-3.1a5.92 5.92 0 0 1 3.88 1.34l-1 1.42a4.85 4.85 0 0 0-2.9-1.1c-1.1 0-1.74.56-1.74 1.27 0 .82.49 1.19 2.55 1.68 2.25.5 3.37 1.31 3.37 3.08 0 2-1.57 3.19-3.81 3.19a6.58 6.58 0 0 1-4.42-1.67zm14.96-9.21h1.74l4.7 10.77h-2l-1.07-2.59H36l-1 2.58h-2zm2.69 6.52l-1.85-4.28-1.83 4.28h3.68zM44.48 13h2.08l3.22 8.22L53 13h2l-4.42 10.73H48.9zm13.27 0h7.92v1.68h-6v2.78H65v1.7h-5.37V22h6.12v1.68h-8V13zm16.64 0h1.74l5.72 7.39V13h1.85v10.65h-1.57L76.24 16v7.61h-1.85V13zm12.5 5.34a5.59 5.59 0 0 1 11.17 0 5.59 5.59 0 0 1-11.17 0zm9.2 0a3.65 3.65 0 0 0-3.63-3.79 3.6 3.6 0 0 0-3.6 3.76 3.65 3.65 0 0 0 3.63 3.79 3.6 3.6 0 0 0 3.6-3.76zM99.83 13h2l2.55 7.93 2.63-8h1.59l2.63 8L113.8 13h2l-3.71 10.77h-1.63L107.8 16l-2.62 7.68h-1.63zm23.69 9.34l1.92-2.7-1.92-2.72 1.31-.69 2.62 3.33v.12L124.83 23z" transform="translate(-22.77 -12.78)"/></svg>