<svg id="Layer_1" xmlns="http://www.w3.org/2000/svg" viewBox="0 0 198.5 78.1"><style>.st0{fill:#fff}</style><path class="st0" d="M27.6 14.1l6.5-5C35.8 7.9 36.4 7 36.4 6c0-1.1-.8-1.8-2-1.8s-2.1.7-3.5 2.3l-3.3-2.7c2-2.5 3.9-3.8 7.2-3.8 3.8 0 6.4 2.3 6.4 5.6v.1c0 2.8-1.4 4.2-4 6.1l-3 2.1h7.2v3.9H27.6v-3.7zm22.2-6.5l2-3.4h5l-4.4 6.7 4.5 6.8h-5.1l-2.1-3.5-2.1 3.5h-5l4.5-6.8-4.4-6.7h5.1l2 3.4zm14.5 8.5l1.8-2.8c1.5 1 3.2 1.5 4.6 1.5.8 0 1.2-.2 1.2-.7 0-.6-.8-.8-2.2-1.2-2.7-.7-4.8-1.6-4.8-4.3 0-2.9 2.3-4.5 5.4-4.5 2 0 4 .6 5.6 1.6l-1.6 3c-1.4-.8-2.9-1.3-4-1.3-.7 0-1.1.3-1.1.7V8c0 .5.8.8 2.2 1.2 2.7.7 4.8 1.7 4.8 4.3 0 3-2.2 4.5-5.5 4.5-2.3.1-4.5-.6-6.4-1.9zm14.5-2.5V8.1h-1.6V4.3h1.6V.9h4.7v3.4h3.1v3.8h-3.1v4.6c0 .9.4 1.3 1.3 1.3.6 0 1.2-.2 1.8-.5v3.7c-.8.5-2 .8-3.3.8-2.9.1-4.5-1.2-4.5-4.4zm9.9-9.3h4.7V7c.8-1.8 2-3 4.3-2.9v5h-.4c-2.5 0-3.9 1.4-3.9 4.5v4.2h-4.7V4.3zm9.9 6.8c0-3.9 3.1-7.1 7.5-7.1s7.4 3.2 7.4 7-3.1 7.1-7.5 7.1c-4.3 0-7.4-3.2-7.4-7zm10.3 0c0-1.7-1.2-3.1-2.9-3.1s-2.8 1.4-2.8 3 1.2 3 2.9 3c1.7.1 2.8-1.3 2.8-2.9zm6.6-6.8h4.7v1.9c.9-1.1 2.1-2.2 4-2.2 2.9 0 4.6 1.9 4.6 5v8.8h-4.7v-7.3c0-1.5-.8-2.3-1.9-2.3-1.2 0-2 .8-2 2.3v7.3h-4.7V4.3zm15.8 16l1.5-3.1c1.5.8 2.9 1.3 4.7 1.3 2.3 0 3.5-1.2 3.5-3.3v-.5c-.9 1.1-2.2 2-4.1 2-3.3 0-6-2.4-6-6.3s2.8-6.3 5.8-6.3c2 0 3.2.8 4.2 1.9V4.3h4.7v10.3c0 2.5-.5 4.2-1.7 5.4-1.2 1.2-3.1 1.9-5.9 1.9-2.6-.1-4.8-.6-6.7-1.6zm9.8-10c0-1.5-1.2-2.7-2.8-2.7-1.6 0-2.8 1.1-2.8 2.6s1.1 2.6 2.8 2.6c1.6.1 2.8-1 2.8-2.5zm6.7.8c0-4 2.8-7.1 6.8-7.1 4.6 0 6.8 3.4 6.8 7.4v1h-9c.4 1.5 1.5 2.2 2.9 2.2 1.1 0 2-.4 3-1.4l2.6 2.2c-1.3 1.6-3.2 2.7-5.8 2.7-4.3 0-7.3-2.8-7.3-7zm9.2-1.2c-.2-1.5-1.1-2.4-2.4-2.4-1.2 0-2.1.9-2.3 2.4h4.7zm6.4-5.6h4.7V7c.8-1.8 2-3 4.3-2.9v5h-.4c-2.5 0-3.9 1.4-3.9 4.5v4.2h-4.7V4.3zM1.8 44.4v-7.8H0v-1.7h1.8V31h1.9v3.9h4.1v1.7H3.7v7.5c0 1.6.9 2.1 2.2 2.1.6 0 1.2-.1 1.9-.5v1.6c-.7.5-1.4.7-2.4.7-2 0-3.6-1-3.6-3.6zm9.4-14.8h1.9v7.6c.9-1.4 2.2-2.5 4.4-2.5 3.1 0 4.9 2.1 4.9 5.2v8h-1.9v-7.5c0-2.4-1.3-3.9-3.6-3.9-2.2 0-3.9 1.6-3.9 4v7.4h-1.9V29.6zM25.6 44c0-2.8 2.2-4.2 5.5-4.2 1.6 0 2.8.2 4 .5v-.4c0-2.3-1.4-3.5-3.8-3.5-1.5 0-2.7.4-3.9.9l-.6-1.6c1.4-.6 2.8-1.1 4.7-1.1 1.8 0 3.2.5 4.2 1.4.9.9 1.3 2.1 1.3 3.8v7.9h-1.8v-1.9c-.9 1.2-2.4 2.2-4.7 2.2-2.4.1-4.9-1.3-4.9-4zm9.6-1v-1.2c-.9-.3-2.2-.6-3.8-.6-2.4 0-3.8 1-3.8 2.7 0 1.6 1.5 2.6 3.2 2.6 2.4 0 4.4-1.4 4.4-3.5zm5.9-8.1H43v2.2c.8-1.4 2.2-2.5 4.4-2.5 3.1 0 4.9 2.1 4.9 5.2v8h-1.9v-7.5c0-2.4-1.3-3.9-3.6-3.9-2.2 0-3.9 1.6-3.9 4v7.4H41V34.9zm23.6 9.5v-7.8h-1.8v-1.7h1.8V31h1.9v3.9h4.1v1.7h-4.1v7.5c0 1.6.9 2.1 2.2 2.1.6 0 1.2-.1 1.9-.5v1.6c-.7.5-1.5.7-2.4.7-2.1 0-3.6-1-3.6-3.6zm9.4-14.8H76v7.6c.8-1.4 2.2-2.5 4.4-2.5 3.1 0 4.9 2.1 4.9 5.2v8h-1.9v-7.5c0-2.4-1.3-3.9-3.6-3.9-2.2 0-3.9 1.6-3.9 4v7.4H74V29.6zm14.6 11.8c0-3.8 2.6-6.8 6.2-6.8 3.8 0 6 3 6 6.8v.6H90.6c.3 2.8 2.2 4.4 4.5 4.4 1.8 0 3-.7 4.1-1.8l1.2 1.1c-1.3 1.4-2.9 2.4-5.3 2.4-3.5 0-6.4-2.7-6.4-6.7zm10.3-.8c-.2-2.3-1.5-4.4-4.1-4.4-2.2 0-3.9 1.9-4.2 4.4H99zm13-11h1.9v18.2H112V29.6zm5.6 11.8c0-3.8 2.6-6.8 6.2-6.8 3.8 0 6 3 6 6.8v.6h-10.2c.3 2.8 2.2 4.4 4.5 4.4 1.8 0 3-.7 4.1-1.8l1.2 1.1c-1.3 1.4-2.9 2.4-5.3 2.4-3.6 0-6.5-2.7-6.5-6.7zm10.2-.8c-.2-2.3-1.5-4.4-4.1-4.4-2.2 0-3.9 1.9-4.2 4.4h8.3zm4.4 3.4c0-2.8 2.2-4.2 5.5-4.2 1.6 0 2.8.2 4 .5v-.4c0-2.3-1.4-3.5-3.8-3.5-1.5 0-2.7.4-3.9.9l-.6-1.6c1.4-.6 2.8-1.1 4.7-1.1 1.8 0 3.2.5 4.2 1.4.9.9 1.3 2.1 1.3 3.8v7.9h-1.8v-1.9c-.9 1.2-2.4 2.2-4.7 2.2-2.5.1-4.9-1.3-4.9-4zm9.5-1v-1.2c-1-.3-2.2-.6-3.8-.6-2.4 0-3.8 1-3.8 2.7 0 1.6 1.5 2.6 3.2 2.6 2.5 0 4.4-1.4 4.4-3.5zm5.2-1.6c0-4.3 3.1-6.8 6.2-6.8 2.4 0 3.9 1.3 4.9 2.7v-7.8h1.9v18.2H158v-2.6c-1 1.5-2.6 2.9-4.9 2.9-3.1.1-6.2-2.4-6.2-6.6zm11.2-.1c0-3-2.3-5-4.7-5-2.5 0-4.5 1.8-4.5 5v.1c0 3 2.1 5 4.5 5 2.4-.1 4.7-2.1 4.7-5.1zm6.2-11.4h2.2V32h-2.2v-2.1zm.1 5h1.9v12.9h-1.9V34.9zm6.4 0h1.9v2.2c.8-1.4 2.2-2.5 4.4-2.5 3.1 0 4.9 2.1 4.9 5.2v8h-1.9v-7.5c0-2.4-1.3-3.9-3.6-3.9-2.2 0-3.9 1.6-3.9 4v7.4h-1.9V34.9zM186.1 50l.9-1.5c1.5 1.1 3.1 1.6 5 1.6 2.8 0 4.7-1.6 4.7-4.6V44c-1.1 1.5-2.7 2.7-5.1 2.7-3.1 0-6.1-2.3-6.1-6 0-3.8 3-6.1 6.1-6.1 2.4 0 4 1.2 5 2.6v-2.3h1.9v10.7c0 2-.6 3.5-1.6 4.6-1.2 1.2-2.9 1.7-4.9 1.7-2.2-.1-4.2-.7-5.9-1.9zm10.6-9.3c0-2.7-2.3-4.4-4.7-4.4s-4.5 1.7-4.5 4.3v.1c0 2.6 2.1 4.4 4.5 4.4s4.7-1.8 4.7-4.4zM26.6 76.1l1-1.4c1.4 1 2.9 1.6 4.5 1.6 1.5 0 2.7-.8 2.7-2v-.1c0-1.3-1.5-1.8-3.2-2.3-2-.6-4.3-1.3-4.3-3.6 0-2.2 1.8-3.7 4.4-3.7 1.6 0 3.3.5 4.6 1.4l-.9 1.4c-1.2-.8-2.6-1.2-3.8-1.2-1.5 0-2.5.8-2.5 1.9 0 1.2 1.6 1.7 3.3 2.2 2 .6 4.1 1.4 4.1 3.7 0 2.4-2 3.9-4.6 3.9-1.8.1-3.9-.6-5.3-1.8zm13.9-1.7v-7.8h-1.8v-1.7h1.8V61h1.9v3.9h4.1v1.7h-4.1v7.5c0 1.6.9 2.1 2.2 2.1.6 0 1.2-.1 1.9-.5v1.6c-.7.4-1.4.5-2.3.5-2.1.2-3.7-.8-3.7-3.4zm8.3-3c0-3.7 2.8-6.8 6.7-6.8 3.9 0 6.7 3 6.7 6.7 0 3.6-2.9 6.7-6.8 6.7-3.8.1-6.6-3-6.6-6.6zm11.5 0c0-2.8-2.1-5.1-4.8-5.1-2.8 0-4.7 2.3-4.7 5 0 2.8 2 5 4.8 5 2.7.1 4.7-2.2 4.7-4.9zm5.4-6.5h1.9v3.4c.9-2.1 2.8-3.7 5.3-3.6v2.1h-.1c-2.8 0-5.1 2-5.1 5.9v5.1h-1.9V64.9zm8.8 6.5c0-3.8 2.6-6.8 6.2-6.8 3.8 0 6 3 6 6.8v.6H76.5c.3 2.8 2.2 4.4 4.5 4.4 1.8 0 3-.7 4.1-1.8l1.2 1.1c-1.3 1.4-2.9 2.4-5.3 2.4-3.6 0-6.5-2.7-6.5-6.7zm10.3-.8c-.2-2.3-1.5-4.4-4.1-4.4-2.2 0-3.9 1.9-4.2 4.4h8.3zm14.7 4.7v2.5h-1.9V59.6h1.9v7.9c1-1.5 2.6-2.9 4.9-2.9 3.1 0 6.2 2.4 6.2 6.7 0 4.2-3 6.7-6.2 6.7-2.3.1-3.9-1.2-4.9-2.7zm9.2-3.9c0-3.1-2.1-5-4.5-5s-4.7 2-4.7 5 2.3 5 4.7 5c2.4-.1 4.5-1.9 4.5-5zm5.5-6.5h1.9v3.4c.9-2.1 2.8-3.7 5.3-3.6v2.1h-.1c-2.8 0-5.1 2-5.1 5.9v5.1h-1.9V64.9zm8.5 9.1c0-2.8 2.2-4.2 5.5-4.2 1.6 0 2.8.2 4 .5v-.5c0-2.3-1.4-3.5-3.8-3.5-1.5 0-2.7.4-3.9 1l-.6-1.6c1.4-.6 2.8-1.1 4.7-1.1 1.8 0 3.2.5 4.2 1.4.9.9 1.3 2.1 1.3 3.8v7.9h-1.8v-1.9c-.9 1.2-2.4 2.2-4.7 2.2-2.4.1-4.9-1.3-4.9-4zm9.6-1v-1.2c-.9-.3-2.2-.6-3.8-.6-2.4 0-3.8 1-3.8 2.7 0 1.6 1.5 2.6 3.2 2.6 2.4 0 4.4-1.4 4.4-3.5zm5.9-8.1h1.9v2.2c.8-1.4 2.2-2.5 4.4-2.5 3.1 0 4.9 2.1 4.9 5.2v8h-1.9v-7.5c0-2.4-1.3-3.9-3.6-3.9-2.2 0-3.9 1.6-3.9 4v7.4h-1.9V64.9zm14.6 6.5c0-4.3 3.1-6.8 6.2-6.8 2.4 0 3.9 1.3 4.9 2.7v-7.8h1.9v18.2H164v-2.6c-1 1.5-2.6 2.9-4.9 2.9-3.2.1-6.3-2.4-6.3-6.6zm11.2-.1c0-3-2.3-5-4.7-5-2.5 0-4.5 1.8-4.5 5 0 3 2.1 5 4.5 5 2.5 0 4.7-2 4.7-5zm5.9 3.9h2.3v2.6h-2.3v-2.6z"/></svg>