<?xml version="1.0" encoding="utf-8"?>
<!-- Generator: Adobe Illustrator 19.2.1, SVG Export Plug-In . SVG Version: 6.00 Build 0)  -->
<svg version="1.1" id="CTA_MATERIAL_1_" xmlns="http://www.w3.org/2000/svg" xmlns:xlink="http://www.w3.org/1999/xlink" x="0px"
	 y="0px" viewBox="0 0 107 14.4" enable-background="new 0 0 107 14.4" xml:space="preserve">
<g id="Learn_more">
	<g>
		<path fill="#FFFFFF" d="M2.5,12.2h6.5v2H0V0h2.5V12.2z"/>
		<path fill="#FFFFFF" d="M16,14.4c-1.5,0-2.7-0.5-3.7-1.4c-0.9-0.9-1.4-2.2-1.4-3.8V8.9c0-1.1,0.2-2,0.6-2.8c0.4-0.8,1-1.5,1.7-1.9
			s1.6-0.7,2.5-0.7c1.4,0,2.6,0.5,3.3,1.4c0.8,0.9,1.2,2.2,1.2,3.9v1h-6.9c0.1,0.9,0.4,1.6,0.9,2.1c0.5,0.5,1.2,0.8,1.9,0.8
			c1.1,0,2-0.4,2.7-1.3l1.3,1.2c-0.4,0.6-1,1.1-1.7,1.5C17.6,14.2,16.8,14.4,16,14.4z M15.7,5.4c-0.7,0-1.2,0.2-1.6,0.7
			c-0.4,0.5-0.7,1.1-0.8,1.9h4.5V7.8C17.8,7,17.6,6.4,17.2,6C16.8,5.6,16.3,5.4,15.7,5.4z"/>
		<path fill="#FFFFFF" d="M29.1,14.2c-0.1-0.2-0.2-0.5-0.3-1C28,14,27.1,14.4,26,14.4c-1.1,0-1.9-0.3-2.6-0.9s-1-1.4-1-2.2
			c0-1.1,0.4-2,1.3-2.6c0.8-0.6,2-0.9,3.6-0.9h1.5V7.1c0-0.5-0.2-1-0.5-1.3s-0.8-0.5-1.4-0.5c-0.5,0-1,0.1-1.3,0.4
			c-0.3,0.3-0.5,0.6-0.5,1h-2.4c0-0.6,0.2-1.1,0.6-1.6c0.4-0.5,0.9-0.9,1.6-1.2c0.7-0.3,1.4-0.4,2.2-0.4c1.2,0,2.2,0.3,3,0.9
			C30.7,5,31.1,5.9,31.1,7v4.8c0,1,0.1,1.7,0.4,2.3v0.2H29.1z M26.5,12.5c0.5,0,0.9-0.1,1.3-0.3s0.7-0.5,0.9-0.9v-2h-1.3
			c-0.9,0-1.5,0.2-2,0.5s-0.7,0.7-0.7,1.3c0,0.5,0.2,0.8,0.5,1.1C25.5,12.4,25.9,12.5,26.5,12.5z"/>
		<path fill="#FFFFFF" d="M39.9,5.8c-0.3-0.1-0.6-0.1-1-0.1c-1.1,0-1.8,0.4-2.2,1.2v7.2h-2.4V3.7h2.3l0.1,1.2
			C37.2,3.9,38,3.5,39,3.5c0.3,0,0.6,0,0.8,0.1L39.9,5.8z"/>
		<path fill="#FFFFFF" d="M44.4,3.7l0.1,1.2c0.8-0.9,1.8-1.4,3.1-1.4c2.2,0,3.3,1.3,3.4,3.8v7h-2.4V7.4c0-0.7-0.1-1.2-0.4-1.5
			c-0.3-0.3-0.8-0.5-1.4-0.5c-1,0-1.7,0.4-2.1,1.3v7.5h-2.4V3.7H44.4z"/>
		<path fill="#FFFFFF" d="M62.2,3.7l0.1,1.1C63,3.9,64,3.5,65.3,3.5c1.4,0,2.4,0.5,2.9,1.6C68.9,4,70,3.5,71.4,3.5
			c1.2,0,2,0.3,2.6,1c0.6,0.6,0.9,1.6,0.9,2.9v6.9h-2.4V7.3c0-0.7-0.1-1.2-0.4-1.5s-0.8-0.5-1.5-0.5c-0.5,0-1,0.1-1.3,0.4
			C69,6.1,68.7,6.5,68.6,7l0,7.2h-2.4v-7c0-1.2-0.7-1.9-1.9-1.9c-1,0-1.6,0.4-2,1.2v7.7h-2.4V3.7H62.2z"/>
		<path fill="#FFFFFF" d="M77.6,8.8c0-1,0.2-2,0.6-2.8c0.4-0.8,1-1.5,1.7-1.9s1.6-0.7,2.6-0.7c1.4,0,2.6,0.5,3.5,1.4
			c0.9,0.9,1.4,2.1,1.4,3.7l0,0.6c0,1-0.2,2-0.6,2.8c-0.4,0.8-1,1.5-1.7,1.9s-1.6,0.7-2.6,0.7c-1.5,0-2.7-0.5-3.6-1.5
			s-1.3-2.3-1.3-4V8.8z M80,9c0,1.1,0.2,1.9,0.7,2.6c0.5,0.6,1.1,0.9,1.9,0.9c0.8,0,1.4-0.3,1.9-0.9c0.4-0.6,0.7-1.5,0.7-2.7
			c0-1.1-0.2-1.9-0.7-2.5s-1.1-0.9-1.9-0.9c-0.8,0-1.4,0.3-1.8,0.9C80.3,6.9,80,7.8,80,9z"/>
		<path fill="#FFFFFF" d="M95.8,5.8c-0.3-0.1-0.6-0.1-1-0.1c-1.1,0-1.8,0.4-2.2,1.2v7.2h-2.4V3.7h2.3l0.1,1.2
			C93.2,3.9,94,3.5,95,3.5c0.3,0,0.6,0,0.8,0.1L95.8,5.8z"/>
		<path fill="#FFFFFF" d="M102.7,14.4c-1.5,0-2.7-0.5-3.7-1.4c-0.9-0.9-1.4-2.2-1.4-3.8V8.9c0-1.1,0.2-2,0.6-2.8
			c0.4-0.8,1-1.5,1.7-1.9s1.6-0.7,2.5-0.7c1.4,0,2.6,0.5,3.3,1.4s1.2,2.2,1.2,3.9v1H100c0.1,0.9,0.4,1.6,0.9,2.1
			c0.5,0.5,1.2,0.8,1.9,0.8c1.1,0,2-0.4,2.7-1.3l1.3,1.2c-0.4,0.6-1,1.1-1.7,1.5S103.6,14.4,102.7,14.4z M102.4,5.4
			c-0.7,0-1.2,0.2-1.6,0.7s-0.7,1.1-0.8,1.9h4.5V7.8C104.6,7,104.4,6.4,104,6S103.1,5.4,102.4,5.4z"/>
	</g>
</g>
</svg>
