<svg xmlns="http://www.w3.org/2000/svg" width="127" height="32" viewBox="0 0 127 31.531"><path fill="#19458d" d="M18.5 18.46l.95-1.14c.87.75 1.76 1.18 2.88 1.18.98 0 1.6-.46 1.6-1.14v-.03c0-.65-.36-1-2.05-1.4-1.93-.46-3.03-1.03-3.03-2.7v-.03c0-1.56 1.3-2.64 3.1-2.64 1.34 0 2.4.4 3.3 1.14l-.84 1.2c-.8-.6-1.6-.92-2.4-.92-.94 0-1.5.48-1.5 1.08v.02c0 .7.43 1.02 2.18 1.43 1.93.5 2.92 1.2 2.92 2.7 0 1.7-1.35 2.78-3.26 2.78-1.4 0-2.7-.48-3.8-1.46zm12.73-7.83h1.48l4.08 9.16h-1.7l-.92-2.2h-4.3l-.93 2.2H27.3l4-9.2zm2.3 5.55l-1.58-3.64-1.57 3.64h3.14zm3.45-5.48h1.76l2.75 6.98 2.7-7h1.7l-3.78 9.18H40.7l-3.76-9.17zm11.32 0h6.73v1.42h-5.15v2.37h4.57v1.4h-4.57v2.4h5.22v1.43h-6.8v-9.1zm14.16 0h1.48l4.87 6.28v-6.3h1.6v9.1h-1.3l-5-6.46v6.47h-1.6v-9.1zm10.64 4.57v-.03c0-2.56 1.98-4.7 4.77-4.7s4.75 2.1 4.75 4.67v.1c0 2.56-1.98 4.7-4.77 4.7-2.8 0-4.75-2.1-4.75-4.67zm7.84 0v-.03c0-1.77-1.28-3.22-3.1-3.22-1.8 0-3.06 1.43-3.06 3.2v.02c0 1.77 1.3 3.22 3.1 3.22s3.06-1.43 3.06-3.2zm3.2-4.57h1.72l2.17 6.74 2.23-6.78h1.36l2.23 6.78 2.17-6.75h1.68l-3.16 9.1h-1.4l-2.24-6.5-2.2 6.54h-1.4l-3.16-9.17zm20.16 7.97l1.64-2.3-1.64-2.3 1.12-.6 2.24 2.84v.1l-2.24 2.9-1.12-.57z"/></svg>