<svg id="Layer_1" xmlns="http://www.w3.org/2000/svg" viewBox="0 0 162 28"><style>.st0{fill-rule:evenodd;clip-rule:evenodd;fill:#fff}.st1{fill:#19458d}</style><path class="st0" d="M160 0H2C.9 0 0 .9 0 2v24c0 1.1.9 2 2 2h158c1.1 0 2-.9 2-2V2c0-1.1-.9-2-2-2z" id="Rounded_Rectangle_1"/><path class="st1" d="M9.4 16.6l1.1-1.3c.8.6 1.5 1 2.5 1 .8 0 1.2-.3 1.2-.8s-.3-.7-1.7-1.1c-1.7-.4-2.8-.9-2.8-2.6 0-1.5 1.2-2.5 2.9-2.5 1.2 0 2.3.4 3.1 1.1l-1 1.4c-.7-.5-1.5-.8-2.2-.8s-1.1.3-1.1.7c0 .6.4.7 1.8 1.1 1.7.4 2.7 1.1 2.7 2.5C16 17 14.8 18 13 18c-1.3 0-2.6-.5-3.6-1.4zm8.9-7.2h6.3V11h-4.5v1.7h4v1.6h-4v1.8h4.6v1.6h-6.4V9.4zm8.6 0h6.3V11h-4.5v1.7h4v1.6h-4v1.8h4.6v1.6h-6.4V9.4zm15.7 0h1.7l3.6 8.5H46l-.8-1.9h-3.5l-.8 1.9H39l3.6-8.5zm2 4.9l-1.1-2.7-1.1 2.7h2.2zm5.2-4.9h1.8v6.7h4.2v1.7h-6V9.4zm8 0h1.8v6.7h4.2v1.7h-6V9.4zM72 11.1h-2.6V9.4h7v1.7h-2.6v6.7H72v-6.7zm6.5-1.7h1.8v3.3h3.4V9.4h1.8v8.4h-1.8v-3.4h-3.4v3.4h-1.8V9.4zm9.7 0h6.3V11H90v1.7h4v1.6h-4v1.8h4.6v1.6h-6.4V9.4zm14.8 1.7h-2.6V9.4h7v1.7h-2.6v6.7H103v-6.7zm6.4-1.7h6.3V11h-4.5v1.7h4v1.6h-4v1.8h4.6v1.6h-6.4V9.4zm8.1 7.2l1.1-1.3c.8.6 1.5 1 2.5 1 .8 0 1.2-.3 1.2-.8s-.3-.7-1.7-1.1c-1.7-.4-2.8-.9-2.8-2.6 0-1.5 1.2-2.5 2.9-2.5 1.2 0 2.3.4 3.1 1.1l-1 1.4c-.7-.5-1.5-.8-2.2-.8-.7 0-1.1.3-1.1.7 0 .6.4.7 1.8 1.1 1.7.4 2.7 1.1 2.7 2.5 0 1.7-1.3 2.6-3.1 2.6-1.2.1-2.4-.4-3.4-1.3zm10.6-5.5h-2.6V9.4h7v1.7h-2.6v6.7h-1.8v-6.7zm5.6 5.5l1.1-1.3c.8.6 1.5 1 2.5 1 .8 0 1.2-.3 1.2-.8s-.3-.7-1.7-1.1c-1.7-.4-2.8-.9-2.8-2.6 0-1.5 1.2-2.5 2.9-2.5 1.2 0 2.3.4 3.1 1.1l-1 1.4c-.7-.5-1.5-.8-2.2-.8-.7 0-1.1.3-1.1.7 0 .6.4.7 1.8 1.1 1.7.4 2.7 1.1 2.7 2.5 0 1.7-1.3 2.6-3.1 2.6-1.1.1-2.3-.4-3.4-1.3z"/></svg>