<?xml version="1.0" encoding="utf-8"?>
<!-- Generator: Adobe Illustrator 19.2.1, SVG Export Plug-In . SVG Version: 6.00 Build 0)  -->
<svg version="1.1" id="Layer_1" xmlns="http://www.w3.org/2000/svg" xmlns:xlink="http://www.w3.org/1999/xlink" x="0px" y="0px"
	 viewBox="0 0 188 163" enable-background="new 0 0 188 163" xml:space="preserve">
<g>
	<defs>
		<rect id="SVGID_1_" x="0.1" y="0.3" width="187.9" height="162.7"/>
	</defs>
	<clipPath id="SVGID_2_">
		<use xlink:href="#SVGID_1_"  overflow="visible"/>
	</clipPath>
	<path clip-path="url(#SVGID_2_)" d="M13.9,156.9c0,1.9-0.7,3.4-2.1,4.5c-1.4,1.1-3.2,1.6-5.5,1.6c-2.7,0-4.9-0.3-6.3-0.9v-1.6
		c1.6,0.7,3.7,1,6.2,1c1.8,0,3.3-0.4,4.4-1.3c1.1-0.8,1.6-2,1.6-3.3c0-0.8-0.2-1.6-0.5-2.1c-0.4-0.6-0.9-1.1-1.8-1.5
		c-0.8-0.5-2-1-3.6-1.5c-2.3-0.8-3.9-1.6-4.8-2.6c-0.9-0.9-1.3-2.1-1.3-3.7c0-1.7,0.7-3.1,2-4.1c1.3-1.1,3-1.6,5.1-1.6
		c2.1,0,4.1,0.4,5.9,1.2l-0.6,1.4c-1.9-0.8-3.6-1.2-5.3-1.2c-1.7,0-3,0.4-4,1.2s-1.5,1.8-1.5,3.1c0,0.8,0.1,1.5,0.5,2
		c0.3,0.5,0.8,1,1.5,1.4c0.7,0.4,1.9,0.9,3.5,1.5c1.7,0.6,3.1,1.2,4,1.8c0.9,0.6,1.5,1.2,1.9,1.9C13.7,155,13.9,155.9,13.9,156.9"/>
	<path clip-path="url(#SVGID_2_)" d="M37.1,151.4c0,3.6-0.9,6.4-2.7,8.5c-1.8,2.1-4.2,3.1-7.4,3.1c-3.1,0-5.6-1-7.4-3.1
		c-1.8-2.1-2.7-4.9-2.7-8.5c0-3.6,0.9-6.4,2.7-8.4c1.8-2.1,4.3-3.1,7.4-3.1c3.1,0,5.6,1,7.4,3.1C36.2,145,37.1,147.8,37.1,151.4
		 M18.7,151.4c0,3.2,0.7,5.7,2.2,7.5c1.4,1.8,3.5,2.6,6.2,2.6c2.7,0,4.8-0.9,6.2-2.6c1.4-1.7,2.1-4.2,2.1-7.5c0-3.2-0.7-5.7-2.1-7.5
		c-1.4-1.7-3.5-2.6-6.2-2.6c-2.7,0-4.7,0.9-6.2,2.6C19.4,145.7,18.7,148.2,18.7,151.4z"/>
	<polyline clip-path="url(#SVGID_2_)" points="56.2,152.5 62.8,140.2 64.5,140.2 57,154 57,162.7 55.4,162.7 55.4,154.1 47.9,140.2 
		49.7,140.2 56.2,152.5 	"/>
	<path clip-path="url(#SVGID_2_)" d="M85.3,151.4c0,3.6-0.9,6.4-2.7,8.5c-1.8,2.1-4.2,3.1-7.4,3.1c-3.1,0-5.6-1-7.4-3.1
		c-1.8-2.1-2.7-4.9-2.7-8.5c0-3.6,0.9-6.4,2.7-8.4c1.8-2.1,4.3-3.1,7.4-3.1c3.1,0,5.6,1,7.4,3.1C84.4,145,85.3,147.8,85.3,151.4
		 M66.9,151.4c0,3.2,0.7,5.7,2.2,7.5c1.4,1.8,3.5,2.6,6.2,2.6c2.7,0,4.8-0.9,6.2-2.6c1.4-1.7,2.1-4.2,2.1-7.5c0-3.2-0.7-5.7-2.1-7.5
		c-1.4-1.7-3.5-2.6-6.2-2.6c-2.7,0-4.7,0.9-6.2,2.6C67.7,145.7,66.9,148.2,66.9,151.4z"/>
	<path clip-path="url(#SVGID_2_)" d="M106.5,140.2v14.6c0,2.6-0.7,4.6-2.2,6.1c-1.5,1.5-3.6,2.2-6.3,2.2c-2.6,0-4.6-0.7-6.1-2.2
		c-1.5-1.5-2.2-3.5-2.2-6.1v-14.5h1.6v14.6c0,2.2,0.6,3.8,1.8,5c1.2,1.2,2.9,1.8,5.1,1.8c2.1,0,3.8-0.6,5-1.8
		c1.2-1.2,1.8-2.8,1.8-4.9v-14.7H106.5"/>
	<path clip-path="url(#SVGID_2_)" d="M131,141.3c-2.8,0-5,0.9-6.7,2.7c-1.6,1.8-2.4,4.3-2.4,7.4c0,3.2,0.8,5.7,2.3,7.5
		c1.5,1.8,3.7,2.7,6.6,2.7c1.9,0,3.6-0.2,5.2-0.7v1.4c-1.5,0.5-3.3,0.8-5.6,0.8c-3.2,0-5.6-1-7.5-3.1c-1.8-2-2.7-4.9-2.7-8.6
		c0-2.3,0.4-4.3,1.3-6c0.9-1.7,2.1-3.1,3.7-4c1.6-0.9,3.5-1.4,5.7-1.4c2.2,0,4.2,0.4,5.9,1.2l-0.6,1.4
		C134.6,141.7,132.8,141.3,131,141.3"/>
</g>
<path d="M152.6,154.8h-9.1l-3.1,7.9h-1.7l9-22.6h1l8.9,22.6h-1.8L152.6,154.8 M144,153.3h8l-3.1-8.1c-0.3-0.6-0.6-1.5-0.9-2.6
	c-0.3,1-0.6,1.9-0.9,2.7L144,153.3z"/>
<path d="M177,162.7h-1.6l-13.3-20H162c0.1,2.4,0.2,4.2,0.2,5.4v14.6h-1.5v-22.5h1.6l13.3,19.9h0.1c-0.1-1.8-0.1-3.6-0.1-5.3v-14.7
	h1.5V162.7"/>
<polyline points="35.4,115.7 42,115.7 42,101.5 60.3,101.5 60.3,115.7 66.9,115.7 66.9,82.7 60.3,82.7 60.3,95.8 42,95.8 42,82.7 
	35.4,82.7 35.4,115.7 "/>
<polyline points="148.7,82.7 148.7,115.7 177.8,115.7 174.2,109.9 155.4,109.9 155.4,101.5 173.6,101.5 173.6,95.9 155.4,95.9 
	155.4,88.4 174.1,88.4 177.7,82.7 148.7,82.7 "/>
<path d="M10.7,82.7C3.8,82.7,0.3,86.9,0.3,93v12.3c0,7.1,4.5,10.4,10.4,10.4l20.8,0l-3.9-6H11.9c-3.3,0-4.8-1.2-4.8-4.9V93.5
	c0-3.6,1.2-5,4.9-5h15.8l3.7-5.9H10.7"/>
<path d="M119.5,82.7c-4,0-8.1,2.4-8.1,8.6v1.6c0,6.4,3.9,8.9,7.9,8.9h13.8c1.4,0,2.6,0.2,2.6,2.7l0,2.8c0,2.2-1.1,2.7-2.7,2.7h-18.2
	l-3.7,5.8h22.3c5.4,0,9-2.7,9-8.9v-2.3c0-6-3.4-8.8-8.7-8.8h-13.2c-1.5,0-2.5-0.4-2.5-2.6l0-2.3c0-1.8,0.7-2.5,2.4-2.5l17.3,0
	l3.6-5.7L119.5,82.7"/>
<path d="M89.5,89.5l6,13.7h-12L89.5,89.5 M86.2,82.7l-15.7,33H78l3.1-6.8h17l3,6.8h7.4l-15.7-33H86.2z"/>
<path fill="#0B79BF" d="M80.8,0.3c-1.1,0-2,0.9-2,2v14.3h37.8L99.4,0.3L80.8,0.3"/>
<path fill="#0B79BF" d="M118,20.9c0-1.1-0.9-2-2-2h-14.3v37.8L118,39.5L118,20.9"/>
<path fill="#0B79BF" d="M97.3,58.1c1.1,0,2-0.9,2-2V41.7H61.5l17.2,16.3L97.3,58.1"/>
<path fill="#0B79BF" d="M60.1,37.4c0,1.1,0.9,2,2,2h14.3V1.6L60.1,18.9L60.1,37.4"/>
<path d="M181.2,143.2c0-0.6,0.1-1.2,0.4-1.7c0.3-0.5,0.7-0.9,1.2-1.2c0.5-0.3,1.1-0.5,1.7-0.5c0.6,0,1.2,0.1,1.7,0.4
	c0.5,0.3,0.9,0.7,1.2,1.2c0.3,0.5,0.5,1.1,0.5,1.7c0,0.6-0.1,1.1-0.4,1.7c-0.3,0.5-0.7,0.9-1.2,1.2c-0.5,0.3-1.1,0.5-1.7,0.5
	c-0.6,0-1.2-0.2-1.7-0.5c-0.5-0.3-0.9-0.7-1.2-1.2C181.4,144.4,181.2,143.8,181.2,143.2 M181.7,143.2c0,0.5,0.1,1,0.4,1.4
	c0.3,0.4,0.6,0.8,1.1,1.1c0.4,0.3,0.9,0.4,1.4,0.4c0.5,0,1-0.1,1.4-0.4c0.4-0.3,0.8-0.6,1.1-1.1c0.3-0.4,0.4-0.9,0.4-1.5
	c0-0.5-0.1-1-0.4-1.4c-0.3-0.4-0.6-0.8-1.1-1.1c-0.4-0.3-0.9-0.4-1.5-0.4c-0.5,0-1,0.1-1.4,0.4c-0.4,0.3-0.8,0.6-1.1,1.1
	C181.8,142.2,181.7,142.7,181.7,143.2z M186,142.4c0,0.2-0.1,0.5-0.2,0.6c-0.1,0.2-0.3,0.3-0.5,0.4l1.1,1.8h-0.8l-0.9-1.6H184v1.6
	h-0.7v-4h1.2c0.5,0,0.9,0.1,1.1,0.3C185.8,141.7,186,142,186,142.4z M184,143.1h0.5c0.2,0,0.4-0.1,0.6-0.2c0.1-0.1,0.2-0.3,0.2-0.5
	c0-0.2-0.1-0.4-0.2-0.5c-0.1-0.1-0.3-0.1-0.6-0.1H184V143.1z"/>
</svg>
